<svg xmlns="http://www.w3.org/2000/svg" width="48" height="48.038" viewBox="0 0 48 48.038">
  <path id="Taxas" d="M404.831,393.606a11.077,11.077,0,1,0-11.077,11.077A11.077,11.077,0,0,0,404.831,393.606Zm-16.615,0a5.538,5.538,0,1,1,5.538,5.538A5.545,5.545,0,0,1,388.215,393.606ZM419.6,408.413a11.077,11.077,0,1,0,11.077,11.077A11.077,11.077,0,0,0,419.6,408.413Zm0,16.615a5.539,5.539,0,1,1,5.538-5.539A5.545,5.545,0,0,1,419.6,425.029Zm6.039-38.555-2.847-2.352a.923.923,0,0,0-1.3.124l-33.9,41.038a.923.923,0,0,0,.124,1.3l2.847,2.352a.923.923,0,0,0,1.3-.124l33.9-41.038A.923.923,0,0,0,425.639,386.474Z" transform="translate(-382.677 -382.529)" fill="#ff0662"/>
</svg>
