<svg xmlns="http://www.w3.org/2000/svg" width="48" height="48" viewBox="0 0 48 48">
  <path id="Customização" d="M405.361,394.217A11.143,11.143,0,1,0,416.5,405.36,11.143,11.143,0,0,0,405.361,394.217Zm0,17.143a6,6,0,1,1,6-6A6.007,6.007,0,0,1,405.361,411.36Zm-36,4.286h20.571V395.074H369.361Zm5.143-15.429h10.285V410.5H374.5Zm5.143-31.714a11.143,11.143,0,1,0,11.143,11.143A11.143,11.143,0,0,0,379.647,368.5Zm0,17.143a6,6,0,1,1,6-6A6.007,6.007,0,0,1,379.647,385.646Zm36-16.286H395.076v20.571h20.571ZM410.5,384.789H400.218V374.5H410.5Z" transform="translate(-368.504 -368.503)" fill="#ff0662"/>
</svg>
