<svg xmlns="http://www.w3.org/2000/svg" width="48" height="45.462" viewBox="0 0 48 45.462">
  <path id="EC" d="M422.5,370.974l-.194-.3-2.249-3.45h0a.265.265,0,0,0-.222-.12H384.054a.321.321,0,0,0-.269.146h0l-3.4,5.208-.194.3-2.082,3.193a.832.832,0,0,0-.135.453s0,.207,0,.487a9.817,9.817,0,0,0,1.321,4.987q.156.265.325.52a11.067,11.067,0,0,0,2.212,2.439.825.825,0,0,1,.3.64v26.246a.832.832,0,0,0,.832.832H385.5v.017h32.834v-.017h3.379a.832.832,0,0,0,.832-.832v-27a.823.823,0,0,1,.242-.586,11.1,11.1,0,0,0,1.43-1.735,10.088,10.088,0,0,0,1.7-4.324,6.794,6.794,0,0,0,0-1.6.832.832,0,0,0-.133-.455Zm-20.158,36.544h-5.051v-10.1h5.051v10.1Zm15.154,0h-10.1V396.681h-.019v-4.317h-15.13v4.317h0v10.837h-5.051V387.183h0a10.949,10.949,0,0,0,1.527.107,10.822,10.822,0,0,0,6.6-2.237h0a10.865,10.865,0,0,0,13.206,0h0a10.878,10.878,0,0,0,8.972,1.976h0v20.488Zm3.347-29.809a5.929,5.929,0,0,1-5.715,4.53,5.777,5.777,0,0,1-3.38-1.088c-1.247-.891-1.549-2.355-1.828-3.941h-2.526a5.486,5.486,0,0,1-10.945,0h-2.526c-.279,1.586-.581,3.048-1.827,3.941a5.788,5.788,0,0,1-3.381,1.088,5.924,5.924,0,0,1-5.691-4.437c-.007-.025-.014-.05-.02-.075h0l.02-.03,1.39-2.15.194-.3,1.995-3.086h30.654l.83,1.285.194.3,2.563,3.963Z" transform="translate(-377.977 -367.107)" fill="#ff9b00"/>
</svg>
