<svg xmlns="http://www.w3.org/2000/svg" width="48" height="43.228" viewBox="0 0 48 43.228">
  <path id="E-commerce" d="M372.343,408.011a5.4,5.4,0,1,0,5.4,5.4A5.4,5.4,0,0,0,372.343,408.011Zm19.813,0a5.4,5.4,0,1,0,5.4,5.4A5.4,5.4,0,0,0,392.156,408.011Zm8.373-26.117H366.2l-1.338-4.971a1.8,1.8,0,0,0-1.739-1.333h-7.9a.9.9,0,0,0-.9.9v3.6a.9.9,0,0,0,.9.9h5.134l5.945,22.082a1.8,1.8,0,0,0,1.739,1.333h27.5a1.8,1.8,0,0,0,1.742-1.343l4.977-18.912A1.8,1.8,0,0,0,400.529,381.894Zm-7.754,17.111H370.811L367.659,387.3h28.2Z" transform="translate(-354.331 -375.59)" fill="#ff9b00"/>
</svg>
