<svg xmlns="http://www.w3.org/2000/svg" width="56.849" height="51.833" viewBox="0 0 56.849 51.833">
  <path id="TED" d="M382,364.8h-11.7v-2.508h7.523a.836.836,0,0,0,.836-.836v-3.344a.836.836,0,0,0-.836-.836h-7.523v-8.36a1.672,1.672,0,0,0-1.672-1.672H340.2a1.672,1.672,0,0,0-1.672,1.672v30.932h-11.7a.836.836,0,0,0-.836.836v3.344a.836.836,0,0,0,.836.836h11.7v2.508H331a.836.836,0,0,0-.836.836v3.344a.836.836,0,0,0,.836.836h7.524V397.4a1.672,1.672,0,0,0,1.672,1.672h28.43A1.672,1.672,0,0,0,370.3,397.4l0-27.588H382a.836.836,0,0,0,.836-.836v-3.344A.836.836,0,0,0,382,364.8Zm-38.456-12.54h21.737l0,31.768H343.54Zm0,41.8v-5.016h21.741v5.016Zm9.2-28.425v-1.672h6.688a.836.836,0,0,0,.836-.836v-3.344a.836.836,0,0,0-.836-.836h-2.508v-2.508a.836.836,0,0,0-.836-.836h-3.344a.836.836,0,0,0-.836.836v2.508h-1.529a.836.836,0,0,0-.591.245l-1.815,1.815a.836.836,0,0,0-.245.591V368a.836.836,0,0,0,.245.591l1.816,1.815a.836.836,0,0,0,.591.245h5.709v1.672h-6.688a.836.836,0,0,0-.836.836V376.5a.836.836,0,0,0,.836.836H351.9v2.508a.836.836,0,0,0,.836.836h3.344a.836.836,0,0,0,.836-.836v-2.508h1.529a.836.836,0,0,0,.591-.245l1.815-1.815a.836.836,0,0,0,.245-.591v-6.4a.836.836,0,0,0-.245-.591l-1.815-1.816a.836.836,0,0,0-.591-.245Z" transform="translate(-325.984 -347.243)" fill="#ff9b00"/>
</svg>
