<svg xmlns="http://www.w3.org/2000/svg" width="455" height="74.339" viewBox="0 0 455 74.339">
  <g id="Grupo_1537" data-name="Grupo 1537" transform="translate(-348 -119.141)">
    <text id="Tecnologia_para_os_serviços_financeiros_do_futuro" data-name="Tecnologia para os serviços 
financeiros do futuro" transform="translate(606 151.81)" fill="#fe7c0a" font-size="16" font-family="SegoeUI, Segoe UI"><tspan x="0" y="0">Tecnologia para os serviços </tspan><tspan x="0" y="20">financeiros do futuro</tspan></text>
    <g id="Grupo_1498" data-name="Grupo 1498" transform="translate(-489.744 -1502.543)">
      <path id="Caminho_8905" data-name="Caminho 8905" d="M105.773,39.549a32.035,32.035,0,0,0-16.354,3.777,21.72,21.72,0,0,0-7.09,6.223,21.956,21.956,0,0,0-3.812,8.667l-.6,2.677c-1.363,5.721-.763,10.287,1.817,13.569,3.362,4.382,8.631,6.253,17.626,6.253,15.717,0,24.512-5.85,27.491-18.685l.582-2.677c1.344-5.5.727-10.067-1.817-13.368C120.218,41.53,114.767,39.549,105.773,39.549Zm7.4,19.254-.454,1.834C111.151,66.743,106.536,69.7,98.6,69.7c-4.761,0-6.505-1.027-7.813-2.714a6.412,6.412,0,0,1-.691-5.5l.454-1.834c1.6-6.308,5.815-9,14.046-9,4.888,0,6.614.99,7.941,2.714a6.377,6.377,0,0,1,.636,5.446Z" transform="translate(822.968 1601.828)" fill="#ff7300"/>
      <path id="Caminho_8906" data-name="Caminho 8906" d="M133.009,39.549a32.034,32.034,0,0,0-16.353,3.777,21.722,21.722,0,0,0-7.091,6.223,21.977,21.977,0,0,0-3.812,8.667l-.6,2.677c-1.363,5.721-.783,10.287,1.817,13.569,3.362,4.382,8.632,6.253,17.625,6.253,15.681,0,24.53-5.85,27.51-18.685l.582-2.677c1.344-5.5.727-10.067-1.817-13.368C147.546,41.53,141.967,39.549,133.009,39.549Zm7.4,19.254-.454,1.834c-1.563,6.106-6.178,9.058-14.118,9.058-4.762,0-6.523-1.027-7.814-2.714a6.416,6.416,0,0,1-.692-5.5l.454-1.834c1.6-6.308,5.8-9,14.046-9,4.888,0,6.614.99,7.942,2.714a6.376,6.376,0,0,1,.653,5.446Z" transform="translate(851.97 1601.828)" fill="#ff7300"/>
      <path id="Caminho_8907" data-name="Caminho 8907" d="M183.388,45.5c-3.015-3.887-7.649-5.941-15.316-5.941s-12.157,1.412-16.9,4.9l.473-2.017a1.279,1.279,0,0,0-.235-1.137,1.324,1.324,0,0,0-.469-.382,1.29,1.29,0,0,0-.586-.131H142.2a1.811,1.811,0,0,0-1.167.394,1.844,1.844,0,0,0-.65,1.054l-11.684,49.6a1.851,1.851,0,0,0,.363,1.614,1.827,1.827,0,0,0,.644.53,1.8,1.8,0,0,0,.809.185h8.632a1.806,1.806,0,0,0,1.167-.394,1.833,1.833,0,0,0,.65-1.054l3.816-16.246c3.506,3.08,7.376,4.217,14.172,4.217,15.01,0,23.041-6.4,25.893-19.071l.491-2.292C186.659,53.491,186.006,48.834,183.388,45.5ZM173.067,58.589l-.417,1.889c-1.943,8.013-9.939,9.168-15.155,9.168-8.811,0-9.34-3.191-9.739-5.758l1.272-5.923c2.525-5.006,7.5-7.445,15.19-7.445,4.778,0,6.905.917,8.287,2.751a6.042,6.042,0,0,1,.562,5.281Z" transform="translate(877.743 1601.859)" fill="#ff7300"/>
      <path id="Caminho_8908" data-name="Caminho 8908" d="M100.74,53H50.952a1.953,1.953,0,0,0-1.156.447,1.982,1.982,0,0,0-.661,1.057L47.028,62.81a2.013,2.013,0,0,0,.363,1.687,1.955,1.955,0,0,0,1.544.752H98.723a1.952,1.952,0,0,0,1.216-.427,1.984,1.984,0,0,0,.692-1.1l1.962-8.288a2.068,2.068,0,0,0-.363-1.687A1.975,1.975,0,0,0,100.74,53Z" transform="translate(790.77 1616.177)" fill="#ff7300"/>
      <path id="Caminho_8909" data-name="Caminho 8909" d="M55.005,42.157H88.039l-22.277,18.7a1.951,1.951,0,0,0-.727,1.449,1.843,1.843,0,0,0,.6,1.5L71.686,69.7a1.9,1.9,0,0,0,1.345.568,1.968,1.968,0,0,0,1.235-.44l46.154-39.645.236-.183H56.822a1.934,1.934,0,0,0-1.164.451,1.966,1.966,0,0,0-.653,1.071l-1.817,8.215a1.957,1.957,0,0,0,.363,1.669,1.987,1.987,0,0,0,.647.534A1.966,1.966,0,0,0,55.005,42.157Z" transform="translate(797.329 1591.684)" fill="#ff9b00"/>
    </g>
  </g>
</svg>
