<svg xmlns="http://www.w3.org/2000/svg" width="332.07" height="42.2" viewBox="0 0 332.07 42.2">
  <g id="Grupo_1540" data-name="Grupo 1540" transform="translate(-345.5 -4977)">
    <g id="logo-rodape" transform="translate(345.023 4977.887)">
      <path id="Caminho_9778" data-name="Caminho 9778" d="M46.718,9.009a18.6,18.6,0,0,0-9.2,2.044,12.082,12.082,0,0,0-3.988,3.367,11.66,11.66,0,0,0-2.144,4.69l-.337,1.449c-.766,3.1-.429,5.567,1.022,7.343,1.891,2.372,4.854,3.384,9.913,3.384,8.84,0,13.786-3.165,15.462-10.111l.327-1.449c.756-2.977.409-5.447-1.022-7.233C54.842,10.08,51.776,9.009,46.718,9.009Zm4.159,10.419-.256.992c-.879,3.3-3.475,4.9-7.941,4.9-2.678,0-3.659-.556-4.394-1.469a3.357,3.357,0,0,1-.388-2.977l.256-.992c.9-3.413,3.27-4.872,7.9-4.872,2.749,0,3.72.536,4.466,1.469a3.337,3.337,0,0,1,.358,2.947Z" transform="translate(5.434 1.647)" fill="#8c8c8c"/>
      <path id="Caminho_9779" data-name="Caminho 9779" d="M73.455,9.009a18.6,18.6,0,0,0-9.2,2.044,12.082,12.082,0,0,0-3.988,3.367,11.663,11.663,0,0,0-2.144,4.69l-.337,1.449c-.766,3.1-.439,5.567,1.022,7.343,1.891,2.372,4.854,3.384,9.913,3.384,8.819,0,13.8-3.165,15.472-10.111l.327-1.449c.756-2.977.409-5.447-1.022-7.233C81.63,10.08,78.493,9.009,73.455,9.009Zm4.159,10.419-.255.992c-.879,3.3-3.475,4.9-7.941,4.9-2.677,0-3.669-.556-4.394-1.469a3.357,3.357,0,0,1-.388-2.977l.256-.992c.9-3.413,3.26-4.872,7.9-4.872,2.749,0,3.72.536,4.466,1.469a3.338,3.338,0,0,1,.368,2.947Z" transform="translate(10.329 1.647)" fill="#8c8c8c"/>
      <path id="Caminho_9780" data-name="Caminho 9780" d="M111.935,12.238c-1.7-2.1-4.3-3.215-8.615-3.215s-6.837.764-9.5,2.649l.266-1.091a.666.666,0,0,0,.011-.323.676.676,0,0,0-.143-.292.732.732,0,0,0-.263-.207.754.754,0,0,0-.33-.071H88.768a1.042,1.042,0,0,0-.656.213.989.989,0,0,0-.366.57l-6.571,26.84a.965.965,0,0,0-.005.46.982.982,0,0,0,.209.413,1.018,1.018,0,0,0,.362.287,1.05,1.05,0,0,0,.455.1h4.854a1.042,1.042,0,0,0,.656-.213.989.989,0,0,0,.366-.57L90.219,29c1.972,1.667,4.149,2.282,7.971,2.282,8.441,0,12.958-3.463,14.562-10.319l.277-1.24C113.775,16.565,113.407,14.044,111.935,12.238Zm-5.8,7.085-.235,1.022c-1.093,4.336-5.59,4.961-8.523,4.961-4.957,0-5.253-1.727-5.478-3.116l.715-3.2c1.421-2.709,4.221-4.029,8.544-4.029,2.688,0,3.884.5,4.66,1.488a3.189,3.189,0,0,1,.5,1.393,3.155,3.155,0,0,1-.186,1.465Z" transform="translate(14.679 1.652)" fill="#8c8c8c"/>
      <path id="Caminho_9781" data-name="Caminho 9781" d="M31.216,21.723h-28a1.123,1.123,0,0,0-.65.242,1.069,1.069,0,0,0-.372.572L1.007,27.031a1.051,1.051,0,0,0,0,.479,1.068,1.068,0,0,0,.209.434,1.1,1.1,0,0,0,.386.3,1.132,1.132,0,0,0,.483.106h28a1.125,1.125,0,0,0,.684-.231,1.069,1.069,0,0,0,.389-.593l1.1-4.485a1.081,1.081,0,0,0,0-.478,1.042,1.042,0,0,0-.579-.728A1.14,1.14,0,0,0,31.216,21.723Z" transform="translate(0 3.978)" fill="#8c8c8c"/>
      <path id="Caminho_9782" data-name="Caminho 9782" d="M8.072,6.579H26.651L14.122,16.7a1.063,1.063,0,0,0-.293.349,1.029,1.029,0,0,0-.116.435.967.967,0,0,0,.071.445.994.994,0,0,0,.266.369l3.4,3.185a1.089,1.089,0,0,0,.756.308,1.136,1.136,0,0,0,.695-.238L44.863.1,45,0H9.094A1.113,1.113,0,0,0,8.44.244a1.057,1.057,0,0,0-.367.58L7.05,5.269a1.022,1.022,0,0,0-.005.474,1.039,1.039,0,0,0,.21.429,1.108,1.108,0,0,0,.364.289A1.14,1.14,0,0,0,8.072,6.579Z" transform="translate(1.107)" fill="#8c8c8c"/>
      <path id="Caminho_9783" data-name="Caminho 9783" d="M140.075,6.122a.373.373,0,0,1,.367.437l-.138.957a.313.313,0,0,1-.347.3h-2.371a.14.14,0,0,0-.153.111l-1.164,7.411a.309.309,0,0,1-.34.3h-1.11a.361.361,0,0,1-.284-.125.37.37,0,0,1-.083-.312l1.15-7.2c.019-.125-.039-.185-.173-.18h-2.143a.392.392,0,0,1-.3-.118.361.361,0,0,1-.069-.312l.138-.964a.308.308,0,0,1,.34-.3Zm2.03,9.74q-3.32,0-2.835-3.057l.18-1.158q.458-2.856,3.653-2.856,3.091,0,2.669,2.967l-.1.894a.321.321,0,0,1-.354.312h-4.062q-.16,0-.153.111l-.028.187a.8.8,0,0,0,.305.839,1.763,1.763,0,0,0,1.026.27,2.884,2.884,0,0,0,1.852-.568.307.307,0,0,1,.464.083l.444.61q.229.3-.041.485A4.616,4.616,0,0,1,142.106,15.862Zm-.679-4.007h2.544c.093,0,.14-.051.14-.153l.013-.256q.112-1.22-1.15-1.22a1.47,1.47,0,0,0-1.643,1.234l-.063.215a.14.14,0,0,0,.035.125A.171.171,0,0,0,141.427,11.855ZM152.789,14a.31.31,0,0,1,.083.485,3.905,3.905,0,0,1-3.348,1.366q-3.168,0-2.7-3.14l.166-1.081q.458-2.842,3.75-2.835a2.771,2.771,0,0,1,2.725,1.345.323.323,0,0,1-.138.485l-.826.423a.308.308,0,0,1-.422-.125,1.522,1.522,0,0,0-1.408-.638,1.759,1.759,0,0,0-1.933,1.629l-.125.839a1.421,1.421,0,0,0,.243,1.227,1.406,1.406,0,0,0,1.061.381,2.217,2.217,0,0,0,1.775-.742.338.338,0,0,1,.5-.083Zm1.836,1.636a.359.359,0,0,1-.291-.125.388.388,0,0,1-.076-.312L155.18,9.3a.309.309,0,0,1,.34-.3h.95a.292.292,0,0,1,.3.153v.3c.018.143.1.157.243.042a3.658,3.658,0,0,1,2.315-.707A2.3,2.3,0,0,1,161,9.373a2.2,2.2,0,0,1,.368,1.99l-.625,3.972a.316.316,0,0,1-.354.3h-1.081a.359.359,0,0,1-.291-.125.388.388,0,0,1-.076-.312l.554-3.522q.217-1.276-1.012-1.282a2.312,2.312,0,0,0-1.546.582.5.5,0,0,0-.27.388l-.623,3.972a.31.31,0,0,1-.341.3Zm11,.215q-3.494,0-3.009-3.043l.167-1.088q.458-2.925,3.819-2.925a3.7,3.7,0,0,1,2.455.721,2.352,2.352,0,0,1,.6,2.315l-.173,1.1Q169.038,15.848,165.627,15.848Zm.111-1.49a1.768,1.768,0,0,0,1.976-1.581l.138-.936q.243-1.56-1.345-1.56a1.731,1.731,0,0,0-1.933,1.574l-.153.95A1.311,1.311,0,0,0,164.677,14,1.484,1.484,0,0,0,165.738,14.357Zm5.275,1.276a.336.336,0,0,1-.284-.125.4.4,0,0,1-.07-.312l1.532-9.8a.342.342,0,0,1,.354-.312h1.081a.344.344,0,0,1,.291.139.4.4,0,0,1,.076.319l-1.545,9.8a.309.309,0,0,1-.34.3Zm6.343.215q-3.494,0-3.009-3.043l.167-1.088q.458-2.925,3.819-2.925a3.7,3.7,0,0,1,2.455.721,2.352,2.352,0,0,1,.6,2.315l-.173,1.1Q180.767,15.848,177.356,15.848Zm.111-1.49a1.768,1.768,0,0,0,1.976-1.581l.138-.936q.243-1.56-1.345-1.56a1.731,1.731,0,0,0-1.933,1.574l-.153.95A1.311,1.311,0,0,0,176.406,14,1.484,1.484,0,0,0,177.468,14.357Zm7.334,4.2a4.053,4.053,0,0,1-2.641-.742.3.3,0,0,1-.1-.451l.381-.693c.124-.217.31-.252.555-.1a2.358,2.358,0,0,0,1.671.555q1.844,0,2.136-1.49l.069-.471q-.014-.1-.124-.076a.867.867,0,0,0-.257.111,3.406,3.406,0,0,1-1.837.464,2.406,2.406,0,0,1-1.843-.693,2.507,2.507,0,0,1-.409-2.191l.18-1.206a4.037,4.037,0,0,1,.437-1.338,2.638,2.638,0,0,1,.749-.867,2.966,2.966,0,0,1,.916-.437,3.763,3.763,0,0,1,1.039-.139,2.444,2.444,0,0,1,1.844.624c.18.162.319.171.416.028l.069-.284a.322.322,0,0,1,.327-.153h.866a.329.329,0,0,1,.284.132.416.416,0,0,1,.07.319l-.964,6.107a3.232,3.232,0,0,1-1.254,2.357A4.653,4.653,0,0,1,184.8,18.558Zm.582-4.36a2.06,2.06,0,0,0,1.643-.679.53.53,0,0,0,.174-.354l.3-1.865a.617.617,0,0,0-.054-.34,1.277,1.277,0,0,0-1.282-.693,1.656,1.656,0,0,0-1.817,1.532l-.138.867a1.4,1.4,0,0,0,.222,1.172A1.236,1.236,0,0,0,185.384,14.2Zm7.079-6.475q-1.006,0-.8-1.074a1.156,1.156,0,0,1,1.275-.971q.964,0,.812,1A1.132,1.132,0,0,1,192.462,7.723Zm-1.609,7.9a.339.339,0,0,1-.284-.125.459.459,0,0,1-.083-.319l.936-5.872a.308.308,0,0,1,.34-.3h1.1a.351.351,0,0,1,.277.118.382.382,0,0,1,.077.319l-.923,5.879a.316.316,0,0,1-.354.3Zm5.006.229a1.954,1.954,0,0,1-1.394-.437,1.658,1.658,0,0,1-.422-1.3q.055-2.288,2.967-2.288h1.635q.174,0,.167-.139l.027-.27a.877.877,0,0,0-.256-.873,1.571,1.571,0,0,0-.978-.263,3.209,3.209,0,0,0-1.857.541.331.331,0,0,1-.5-.118l-.34-.624a.3.3,0,0,1,.1-.451,5.142,5.142,0,0,1,3.071-.839,3.113,3.113,0,0,1,2.114.624,2.248,2.248,0,0,1,.465,2.142l-.6,3.764a.314.314,0,0,1-.34.312h-.881a.363.363,0,0,1-.277-.111.265.265,0,0,1-.076-.243l.027-.229c.027-.125.024-.192-.014-.2a.979.979,0,0,0-.27.2A3.531,3.531,0,0,1,195.859,15.848Zm.742-1.366a2.859,2.859,0,0,0,1.31-.3,1.085,1.085,0,0,0,.659-.839l.041-.326a.092.092,0,0,0-.034-.1.177.177,0,0,0-.118-.042h-1.5q-1.166,0-1.165.936Q195.789,14.482,196.6,14.482Zm13.261-5.691a2.625,2.625,0,0,1,1.983.707,2.51,2.51,0,0,1,.444,2.232l-.181,1.234a3.1,3.1,0,0,1-3.438,2.9,2.646,2.646,0,0,1-1.872-.6c-.075-.083-.146-.116-.215-.1s-.1.083-.11.194l-.431,2.683a.3.3,0,0,1-.325.3h-1.1a.351.351,0,0,1-.291-.132.364.364,0,0,1-.076-.305l1.365-8.6a.308.308,0,0,1,.34-.3h.853a.3.3,0,0,1,.325.222l-.014.312q-.012.256.257.049a.762.762,0,0,0,.111-.1A3.557,3.557,0,0,1,209.862,8.791Zm.624,3.022a1.285,1.285,0,0,0-.25-1.172,1.437,1.437,0,0,0-1.04-.36,2.4,2.4,0,0,0-1.892.825,1.106,1.106,0,0,0-.25.541l-.23,1.442a.949.949,0,0,0,.084.631,1.461,1.461,0,0,0,1.38.652,1.834,1.834,0,0,0,2.059-1.65Zm4.422,4.035a1.951,1.951,0,0,1-1.393-.437,1.662,1.662,0,0,1-.424-1.3q.057-2.288,2.967-2.288H217.7c.116,0,.17-.046.167-.139l.027-.27a.875.875,0,0,0-.257-.873,1.567,1.567,0,0,0-.977-.263,3.206,3.206,0,0,0-1.857.541.331.331,0,0,1-.5-.118l-.34-.624a.3.3,0,0,1,.1-.451,5.138,5.138,0,0,1,3.07-.839,3.118,3.118,0,0,1,2.115.624,2.245,2.245,0,0,1,.464,2.142l-.6,3.764a.314.314,0,0,1-.34.312h-.88a.359.359,0,0,1-.277-.111.269.269,0,0,1-.077-.243l.028-.229q.041-.187-.014-.2a.957.957,0,0,0-.271.2A3.527,3.527,0,0,1,214.908,15.848Zm.742-1.366a2.86,2.86,0,0,0,1.311-.3,1.083,1.083,0,0,0,.658-.839l.043-.326a.092.092,0,0,0-.036-.1.172.172,0,0,0-.117-.042H216q-1.164,0-1.164.936Q214.84,14.482,215.65,14.482Zm10.78-5.421a.3.3,0,0,1,.11.492l-.519.867a.341.341,0,0,1-.444.132,1.284,1.284,0,0,0-.721-.187,1.816,1.816,0,0,0-1.449.756,1.015,1.015,0,0,0-.228.464l-.61,3.75a.308.308,0,0,1-.34.3h-1.081a.356.356,0,0,1-.291-.125.388.388,0,0,1-.077-.312L221.7,9.3a.308.308,0,0,1,.34-.3h.949a.326.326,0,0,1,.347.222l-.034.215q.028.3.3,0a2.241,2.241,0,0,1,1.678-.652A2.282,2.282,0,0,1,226.431,9.061Zm1.969,6.787a1.952,1.952,0,0,1-1.394-.437,1.658,1.658,0,0,1-.422-1.3q.055-2.288,2.966-2.288h1.636q.174,0,.167-.139l.027-.27a.877.877,0,0,0-.256-.873,1.571,1.571,0,0,0-.978-.263,3.209,3.209,0,0,0-1.857.541.331.331,0,0,1-.5-.118l-.34-.624a.3.3,0,0,1,.1-.451,5.142,5.142,0,0,1,3.071-.839,3.115,3.115,0,0,1,2.114.624,2.245,2.245,0,0,1,.464,2.142l-.6,3.764a.315.315,0,0,1-.341.312h-.88a.363.363,0,0,1-.277-.111.269.269,0,0,1-.077-.243l.028-.229q.041-.187-.014-.2a.979.979,0,0,0-.27.2A3.531,3.531,0,0,1,228.4,15.848Zm.742-1.366a2.859,2.859,0,0,0,1.31-.3,1.085,1.085,0,0,0,.659-.839l.041-.326a.092.092,0,0,0-.034-.1.177.177,0,0,0-.118-.042h-1.5q-1.166,0-1.165.936Q228.329,14.482,229.141,14.482Zm11.133,1.366q-3.494,0-3.009-3.043l.167-1.088q.456-2.925,3.819-2.925a3.7,3.7,0,0,1,2.454.721,2.349,2.349,0,0,1,.6,2.315l-.173,1.1Q243.685,15.848,240.274,15.848Zm.111-1.49a1.768,1.768,0,0,0,1.976-1.581l.138-.936q.241-1.56-1.345-1.56a1.733,1.733,0,0,0-1.934,1.574l-.153.95A1.311,1.311,0,0,0,239.324,14,1.484,1.484,0,0,0,240.385,14.357Zm7.417,1.49a3.29,3.29,0,0,1-2.628-.894.293.293,0,0,1-.054-.43l.4-.61q.186-.3.526-.055a2.735,2.735,0,0,0,2.835.458.67.67,0,0,0,.416-.617q0-.568-.922-.735l-.88-.146a2.362,2.362,0,0,1-1.381-.624,1.749,1.749,0,0,1-.464-1.248,1.767,1.767,0,0,1,.859-1.629,4.167,4.167,0,0,1,2.205-.527,3.3,3.3,0,0,1,2.427.811q.284.215.027.492l-.519.582a.343.343,0,0,1-.472.028,1.989,1.989,0,0,0-1.532-.6,1.959,1.959,0,0,0-.929.187.579.579,0,0,0-.347.527q0,.527.832.707l.97.146q1.831.3,1.83,1.844a1.937,1.937,0,0,1-.893,1.768A4.269,4.269,0,0,1,247.8,15.848Zm9.858,0a3.286,3.286,0,0,1-2.627-.894.292.292,0,0,1-.056-.43l.4-.61c.124-.2.3-.217.526-.055a2.735,2.735,0,0,0,2.835.458.67.67,0,0,0,.416-.617q0-.568-.922-.735l-.88-.146a2.355,2.355,0,0,1-1.379-.624,1.745,1.745,0,0,1-.465-1.248,1.766,1.766,0,0,1,.86-1.629,4.16,4.16,0,0,1,2.2-.527A3.3,3.3,0,0,1,261,9.6q.284.215.027.492l-.519.582a.343.343,0,0,1-.472.028,1.989,1.989,0,0,0-1.532-.6,1.959,1.959,0,0,0-.929.187.579.579,0,0,0-.347.527q0,.527.832.707l.971.146q1.83.3,1.829,1.844a1.937,1.937,0,0,1-.893,1.768A4.269,4.269,0,0,1,257.66,15.848Zm7.189.014q-3.32,0-2.835-3.057l.18-1.158q.458-2.856,3.653-2.856,3.091,0,2.669,2.967l-.1.894a.321.321,0,0,1-.354.312H264q-.16,0-.153.111l-.028.187a.8.8,0,0,0,.305.839,1.763,1.763,0,0,0,1.026.27A2.884,2.884,0,0,0,267,13.8a.307.307,0,0,1,.464.083l.444.61c.153.2.14.36-.041.485A4.616,4.616,0,0,1,264.848,15.862Zm-.679-4.007h2.545q.138,0,.138-.153l.013-.256q.112-1.22-1.15-1.22a1.47,1.47,0,0,0-1.643,1.234l-.063.215a.141.141,0,0,0,.035.125A.171.171,0,0,0,264.169,11.855Zm11.077-2.794a.306.306,0,0,1,.111.492l-.519.867a.341.341,0,0,1-.444.132,1.288,1.288,0,0,0-.722-.187,1.815,1.815,0,0,0-1.448.756,1.029,1.029,0,0,0-.23.464l-.609,3.75a.309.309,0,0,1-.34.3h-1.081a.356.356,0,0,1-.291-.125.384.384,0,0,1-.077-.312l.922-5.892a.309.309,0,0,1,.34-.3h.95a.326.326,0,0,1,.347.222l-.034.215q.027.3.3,0a2.241,2.241,0,0,1,1.678-.652A2.274,2.274,0,0,1,275.247,9.061Zm7.335-.055a.4.4,0,0,1,.381.208.412.412,0,0,1-.027.444l-3.4,5.816a.283.283,0,0,1-.271.159h-1.588a.31.31,0,0,1-.325-.256l-1.477-5.892a.39.39,0,0,1,.069-.34.379.379,0,0,1,.312-.139h1.317a.337.337,0,0,1,.237.09.374.374,0,0,1,.124.236l.721,4.173c.009.236.043.354.1.354s.128-.109.2-.326l2.1-4.319a.311.311,0,0,1,.311-.208Zm2.828-1.282q-1,0-.8-1.074a1.157,1.157,0,0,1,1.277-.971q.964,0,.81,1A1.131,1.131,0,0,1,285.41,7.723Zm-1.608,7.9a.336.336,0,0,1-.284-.125.465.465,0,0,1-.084-.319L284.37,9.3a.31.31,0,0,1,.341-.3H285.8a.353.353,0,0,1,.278.118.381.381,0,0,1,.076.319l-.922,5.879a.316.316,0,0,1-.354.3Zm10.073-5.483a.324.324,0,0,1-.14.485l-.825.423a.308.308,0,0,1-.422-.125,1.522,1.522,0,0,0-1.408-.638,1.759,1.759,0,0,0-1.933,1.629l-.125.839a1.42,1.42,0,0,0,.243,1.227,1.406,1.406,0,0,0,1.061.381,2.217,2.217,0,0,0,1.775-.742.337.337,0,0,1,.5-.083l.6.464a.309.309,0,0,1,.084.485,3.65,3.65,0,0,1-2.85,1.352l-.09.312q-.027.173.174.18a1.244,1.244,0,0,1,.839.326.822.822,0,0,1,.194.742,1.064,1.064,0,0,1-.569.867,2.334,2.334,0,0,1-1.143.27,4.35,4.35,0,0,1-.894-.083.305.305,0,0,1-.243-.4l.041-.18q.069-.312.34-.256a2.816,2.816,0,0,0,.541.055c.513,0,.778-.132.8-.4q.027-.326-.742-.388-.4-.042-.271-.451l.174-.6q-2.767-.173-2.344-3.126l.167-1.081q.458-2.842,3.75-2.835A2.756,2.756,0,0,1,293.875,10.136Zm3.535,5.712q-3.494,0-3.009-3.043l.167-1.088q.456-2.925,3.819-2.925a3.7,3.7,0,0,1,2.454.721,2.349,2.349,0,0,1,.6,2.315l-.173,1.1Q300.821,15.848,297.41,15.848Zm.111-1.49a1.768,1.768,0,0,0,1.976-1.581l.138-.936q.241-1.56-1.345-1.56a1.733,1.733,0,0,0-1.934,1.574l-.153.95A1.311,1.311,0,0,0,296.46,14,1.484,1.484,0,0,0,297.521,14.357Zm7.417,1.49a3.289,3.289,0,0,1-2.628-.894.293.293,0,0,1-.054-.43l.4-.61q.186-.3.526-.055a2.735,2.735,0,0,0,2.835.458.67.67,0,0,0,.416-.617q0-.568-.922-.735l-.881-.146a2.362,2.362,0,0,1-1.379-.624,1.749,1.749,0,0,1-.464-1.248,1.767,1.767,0,0,1,.859-1.629,4.167,4.167,0,0,1,2.205-.527,3.3,3.3,0,0,1,2.427.811c.189.143.2.307.027.492l-.519.582a.343.343,0,0,1-.472.028,1.989,1.989,0,0,0-1.532-.6,1.959,1.959,0,0,0-.929.187.579.579,0,0,0-.347.527q0,.527.832.707l.97.146q1.831.3,1.83,1.844a1.935,1.935,0,0,1-.894,1.768A4.262,4.262,0,0,1,304.938,15.848ZM139.361,21.93a.324.324,0,0,1,.09.5l-.471.735a.327.327,0,0,1-.485.1,2.626,2.626,0,0,0-1.262-.3,1.414,1.414,0,0,0-1.012.354,2.025,2.025,0,0,0-.492,1.178l-.153.88q-.028.187.153.187h1.691a.356.356,0,0,1,.291.125.375.375,0,0,1,.077.312l-.1.679a.3.3,0,0,1-.327.284h-1.906q-.11,0-.138.132l-.769,4.8a.3.3,0,0,1-.327.3h-1.081a.359.359,0,0,1-.291-.125.383.383,0,0,1-.076-.312l.728-4.6c.018-.125-.026-.187-.133-.187h-.311a.307.307,0,0,1-.278-.118.435.435,0,0,1-.049-.305l.1-.679a.31.31,0,0,1,.341-.3h.457q.138,0,.138-.118l.174-1.074a3.516,3.516,0,0,1,1.081-2.315,3.391,3.391,0,0,1,2.114-.624A4.562,4.562,0,0,1,139.361,21.93Zm1.109,2.357q-1,0-.8-1.075a1.155,1.155,0,0,1,1.275-.971q.964,0,.81,1A1.131,1.131,0,0,1,140.469,24.287Zm-1.608,7.9a.339.339,0,0,1-.284-.125.459.459,0,0,1-.083-.319l.936-5.872a.308.308,0,0,1,.34-.3h1.094a.353.353,0,0,1,.278.118.382.382,0,0,1,.076.319l-.922,5.879a.316.316,0,0,1-.354.3Zm3.826.014a.359.359,0,0,1-.291-.125.388.388,0,0,1-.076-.312l.922-5.892a.309.309,0,0,1,.34-.3h.95a.292.292,0,0,1,.3.153v.3c.019.143.1.157.243.042a3.657,3.657,0,0,1,2.315-.707,2.3,2.3,0,0,1,1.678.582,2.2,2.2,0,0,1,.368,1.99l-.625,3.972a.316.316,0,0,1-.354.3h-1.081a.359.359,0,0,1-.291-.125.388.388,0,0,1-.076-.312l.555-3.522q.215-1.276-1.013-1.282a2.307,2.307,0,0,0-1.545.582.5.5,0,0,0-.271.388L144.11,31.9a.309.309,0,0,1-.34.3Zm9.581.215a1.954,1.954,0,0,1-1.394-.437,1.658,1.658,0,0,1-.422-1.3q.055-2.288,2.967-2.288h1.636c.115,0,.17-.046.166-.139l.028-.27a.877.877,0,0,0-.257-.873,1.57,1.57,0,0,0-.977-.263,3.213,3.213,0,0,0-1.859.541.33.33,0,0,1-.5-.118l-.341-.624a.3.3,0,0,1,.1-.451,5.144,5.144,0,0,1,3.071-.839,3.113,3.113,0,0,1,2.114.624,2.242,2.242,0,0,1,.465,2.142l-.6,3.764a.314.314,0,0,1-.34.312h-.88a.363.363,0,0,1-.278-.111.268.268,0,0,1-.076-.243l.027-.229c.028-.125.024-.192-.013-.2a.957.957,0,0,0-.271.2A3.527,3.527,0,0,1,152.269,32.411Zm.742-1.366a2.867,2.867,0,0,0,1.311-.3,1.083,1.083,0,0,0,.658-.839l.041-.326a.092.092,0,0,0-.034-.1.175.175,0,0,0-.118-.042h-1.5q-1.164,0-1.164.936Q152.2,31.046,153.01,31.046Zm5.5,1.151a.36.36,0,0,1-.292-.125.387.387,0,0,1-.076-.312l.922-5.892a.309.309,0,0,1,.34-.3h.95a.292.292,0,0,1,.3.153v.3c.019.143.1.157.243.042a3.657,3.657,0,0,1,2.315-.707,2.3,2.3,0,0,1,1.678.582,2.2,2.2,0,0,1,.368,1.99l-.625,3.972a.315.315,0,0,1-.353.3h-1.081a.36.36,0,0,1-.292-.125.388.388,0,0,1-.076-.312l.555-3.522q.215-1.276-1.013-1.282a2.307,2.307,0,0,0-1.545.582.5.5,0,0,0-.271.388l-.624,3.972a.309.309,0,0,1-.34.3Zm13.968-1.636a.31.31,0,0,1,.084.485,3.908,3.908,0,0,1-3.349,1.366q-3.168,0-2.7-3.14l.167-1.081q.458-2.842,3.75-2.835a2.769,2.769,0,0,1,2.724,1.345.323.323,0,0,1-.138.485l-.825.423a.308.308,0,0,1-.422-.125,1.523,1.523,0,0,0-1.408-.638,1.76,1.76,0,0,0-1.934,1.629l-.124.839a1.421,1.421,0,0,0,.243,1.227,1.4,1.4,0,0,0,1.06.381,2.214,2.214,0,0,0,1.775-.742.339.339,0,0,1,.5-.083Zm4.041,1.865q-3.32,0-2.835-3.057l.18-1.158q.458-2.856,3.653-2.856,3.091,0,2.669,2.967l-.1.894a.321.321,0,0,1-.354.312h-4.062q-.16,0-.153.111l-.028.187a.8.8,0,0,0,.305.839,1.763,1.763,0,0,0,1.026.27,2.884,2.884,0,0,0,1.852-.568.307.307,0,0,1,.464.083l.444.61q.229.3-.041.485A4.616,4.616,0,0,1,176.518,32.425Zm-.679-4.007h2.544c.093,0,.14-.051.14-.153l.013-.256q.112-1.22-1.15-1.22a1.47,1.47,0,0,0-1.643,1.234l-.063.215a.137.137,0,0,0,.035.125A.171.171,0,0,0,175.838,28.418Zm7.4-4.132q-1.006,0-.8-1.075a1.156,1.156,0,0,1,1.275-.971q.964,0,.812,1A1.132,1.132,0,0,1,183.242,24.287Zm-1.609,7.9a.339.339,0,0,1-.284-.125.465.465,0,0,1-.083-.319l.936-5.872a.308.308,0,0,1,.34-.3h1.1a.351.351,0,0,1,.277.118.382.382,0,0,1,.077.319l-.923,5.879a.315.315,0,0,1-.353.3Zm9.11-6.558a.305.305,0,0,1,.11.492l-.519.867a.341.341,0,0,1-.444.132,1.284,1.284,0,0,0-.721-.187,1.816,1.816,0,0,0-1.449.756,1.015,1.015,0,0,0-.228.464l-.61,3.75a.308.308,0,0,1-.34.3h-1.081a.356.356,0,0,1-.291-.125.388.388,0,0,1-.077-.312l.923-5.892a.308.308,0,0,1,.34-.3h.949a.326.326,0,0,1,.347.222l-.034.215q.028.3.3,0a2.241,2.241,0,0,1,1.678-.652A2.282,2.282,0,0,1,190.743,25.625Zm3.113,6.787q-3.494,0-3.009-3.043l.166-1.088q.458-2.926,3.82-2.925a3.7,3.7,0,0,1,2.454.721,2.354,2.354,0,0,1,.6,2.315l-.174,1.1Q197.266,32.411,193.856,32.411Zm.11-1.49a1.768,1.768,0,0,0,1.976-1.581l.138-.936q.243-1.56-1.344-1.56a1.732,1.732,0,0,0-1.934,1.574l-.153.95a1.311,1.311,0,0,0,.257,1.192A1.481,1.481,0,0,0,193.966,30.921Zm7.418,1.49a3.289,3.289,0,0,1-2.628-.894.293.293,0,0,1-.056-.43l.4-.61c.125-.2.3-.217.528-.055a2.212,2.212,0,0,0,1.816.666,2.234,2.234,0,0,0,1.019-.208.672.672,0,0,0,.416-.617q0-.568-.923-.735l-.88-.146a2.359,2.359,0,0,1-1.38-.624,1.744,1.744,0,0,1-.464-1.248,1.767,1.767,0,0,1,.859-1.629,4.163,4.163,0,0,1,2.2-.527,3.294,3.294,0,0,1,2.427.811q.284.215.028.492l-.521.582a.341.341,0,0,1-.471.028,1.99,1.99,0,0,0-1.532-.6,1.959,1.959,0,0,0-.929.187.577.577,0,0,0-.347.527q0,.527.832.707l.97.146q1.83.3,1.83,1.844a1.935,1.935,0,0,1-.894,1.768A4.265,4.265,0,0,1,201.384,32.411Zm9.858,0a2.511,2.511,0,0,1-2.017-.776,2.649,2.649,0,0,1-.451-2.2l.18-1.241a3.162,3.162,0,0,1,1.151-2.177,3.678,3.678,0,0,1,2.218-.659,2.667,2.667,0,0,1,1.969.679.325.325,0,0,0,.138.069.187.187,0,0,0,.146-.035.193.193,0,0,0,.09-.146l.61-3.979a.3.3,0,0,1,.325-.3h1.1a.328.328,0,0,1,.284.132.39.39,0,0,1,.07.312L215.519,31.9a.3.3,0,0,1-.332.3h-.776c-.218,0-.336-.09-.354-.27v-.3a.243.243,0,0,0-.07-.208.136.136,0,0,0-.146-.014.734.734,0,0,0-.187.125A3.64,3.64,0,0,1,211.242,32.411Zm.756-1.49a2.174,2.174,0,0,0,1.885-.839.962.962,0,0,0,.215-.513l.221-1.477a.732.732,0,0,0-.1-.5q-.3-.756-1.642-.749a2.044,2.044,0,0,0-1.221.367,1.653,1.653,0,0,0-.631,1.165l-.138.936a1.384,1.384,0,0,0,.284,1.206A1.52,1.52,0,0,0,212,30.921Zm8.436,1.49q-3.493,0-3.009-3.043l.167-1.088q.458-2.926,3.82-2.925a3.7,3.7,0,0,1,2.454.721,2.354,2.354,0,0,1,.6,2.315l-.174,1.1Q223.844,32.411,220.433,32.411Zm.111-1.49a1.768,1.768,0,0,0,1.976-1.581l.138-.936q.243-1.56-1.344-1.56a1.732,1.732,0,0,0-1.934,1.574l-.153.95a1.311,1.311,0,0,0,.257,1.192A1.479,1.479,0,0,0,220.545,30.921Zm14.967-8.991a.325.325,0,0,1,.09.5l-.472.735a.326.326,0,0,1-.485.1,2.621,2.621,0,0,0-1.261-.3,1.415,1.415,0,0,0-1.013.354,2.033,2.033,0,0,0-.492,1.178l-.153.88q-.027.187.153.187h1.692a.359.359,0,0,1,.291.125.375.375,0,0,1,.076.312l-.1.679a.3.3,0,0,1-.325.284h-1.906q-.112,0-.138.132l-.77,4.8a.3.3,0,0,1-.325.3h-1.081a.356.356,0,0,1-.291-.125.384.384,0,0,1-.077-.312l.728-4.6q.028-.187-.131-.187h-.312a.3.3,0,0,1-.277-.118.429.429,0,0,1-.049-.305l.1-.679a.308.308,0,0,1,.34-.3h.458q.138,0,.138-.118l.173-1.074a3.522,3.522,0,0,1,1.083-2.315,3.386,3.386,0,0,1,2.114-.624A4.565,4.565,0,0,1,235.512,21.93Zm5.85,3.639a.359.359,0,0,1,.291.125.366.366,0,0,1,.083.312l-.936,5.906a.308.308,0,0,1-.347.284h-.936c-.18,0-.284-.067-.311-.2l.013-.208c0-.171-.08-.2-.243-.09a3.985,3.985,0,0,1-2.357.714,2.053,2.053,0,0,1-1.6-.617,2.251,2.251,0,0,1-.354-1.913l.623-4a.314.314,0,0,1,.34-.312h1.1A.333.333,0,0,1,237,25.7a.4.4,0,0,1,.077.319l-.541,3.438q-.2,1.352.977,1.345a2.318,2.318,0,0,0,1.539-.568.786.786,0,0,0,.27-.451l.61-3.917a.337.337,0,0,1,.354-.3Zm7.07,0a.356.356,0,0,1,.291.125.375.375,0,0,1,.077.312l-.1.693a.326.326,0,0,1-.34.284h-2.613q-.112,0-.146.132l-.368,2.385q-.229,1.379.936,1.38a3.308,3.308,0,0,0,1.435-.333.355.355,0,0,1,.513.229l.228.742q.124.3-.09.4a5.978,5.978,0,0,1-2.592.5q-2.7,0-2.261-2.842l.382-2.4q.027-.187-.153-.187h-.354a.388.388,0,0,1-.3-.118.36.36,0,0,1-.077-.305l.1-.693a.309.309,0,0,1,.34-.3h.569a.134.134,0,0,0,.138-.118l.187-1.192a.3.3,0,0,1,.34-.3h1.083a.351.351,0,0,1,.291.132.379.379,0,0,1,.076.312l-.16.977q-.027.187.16.187Zm7.959,0a.365.365,0,0,1,.374.437l-.936,5.906a.308.308,0,0,1-.347.284h-.936c-.18,0-.284-.067-.311-.2l.013-.208c0-.171-.08-.2-.243-.09a3.984,3.984,0,0,1-2.357.714,2.053,2.053,0,0,1-1.6-.617,2.255,2.255,0,0,1-.354-1.913l.624-4a.314.314,0,0,1,.34-.312h1.1a.333.333,0,0,1,.277.132.4.4,0,0,1,.077.319l-.541,3.438q-.2,1.352.977,1.345a2.318,2.318,0,0,0,1.539-.568.786.786,0,0,0,.27-.451l.61-3.917a.338.338,0,0,1,.354-.3Zm7.057.055a.306.306,0,0,1,.111.492l-.521.867a.341.341,0,0,1-.444.132,1.284,1.284,0,0,0-.721-.187,1.816,1.816,0,0,0-1.449.756,1.015,1.015,0,0,0-.228.464l-.61,3.75a.308.308,0,0,1-.34.3h-1.081a.356.356,0,0,1-.291-.125.388.388,0,0,1-.077-.312l.923-5.892a.308.308,0,0,1,.34-.3h.95a.327.327,0,0,1,.347.222l-.035.215q.028.3.3,0a2.243,2.243,0,0,1,1.678-.652A2.282,2.282,0,0,1,263.449,25.625Zm3.113,6.787q-3.494,0-3.009-3.043l.166-1.088q.458-2.926,3.82-2.925a3.7,3.7,0,0,1,2.454.721,2.352,2.352,0,0,1,.6,2.315l-.174,1.1Q269.971,32.411,266.562,32.411Zm.11-1.49a1.768,1.768,0,0,0,1.976-1.581l.14-.936q.241-1.56-1.345-1.56a1.732,1.732,0,0,0-1.934,1.574l-.153.95a1.311,1.311,0,0,0,.257,1.192A1.483,1.483,0,0,0,266.672,30.921Z" transform="translate(24.124 0.931)" fill="#8c8c8c"/>
    </g>
    <g id="Grupo_1511" data-name="Grupo 1511" transform="translate(-492.244 3355.316)">
      <path id="Caminho_8905" data-name="Caminho 8905" d="M93.424,39.539a18.185,18.185,0,0,0-9.283,2.144,12.33,12.33,0,0,0-4.025,3.532,12.464,12.464,0,0,0-2.164,4.92l-.34,1.52c-.774,3.248-.433,5.84,1.031,7.7,1.908,2.488,4.9,3.55,10.006,3.55,8.922,0,13.915-3.321,15.606-10.607l.331-1.52c.763-3.123.413-5.715-1.031-7.588C101.624,40.663,98.529,39.539,93.424,39.539Zm4.2,10.93-.258,1.041c-.887,3.466-3.507,5.142-8.015,5.142-2.7,0-3.693-.583-4.435-1.541a3.64,3.64,0,0,1-.392-3.123l.258-1.041c.908-3.581,3.3-5.111,7.973-5.111,2.775,0,3.755.562,4.508,1.541a3.62,3.62,0,0,1,.361,3.092Z" transform="translate(795.977 1593.324)" fill="#ff7300"/>
      <path id="Caminho_8906" data-name="Caminho 8906" d="M120.658,39.539a18.185,18.185,0,0,0-9.283,2.144,12.331,12.331,0,0,0-4.025,3.532,12.476,12.476,0,0,0-2.164,4.92l-.34,1.52c-.774,3.248-.444,5.84,1.032,7.7,1.908,2.488,4.9,3.55,10,3.55,8.9,0,13.925-3.321,15.616-10.607l.331-1.52c.763-3.123.413-5.715-1.032-7.588C128.91,40.663,125.743,39.539,120.658,39.539Zm4.2,10.93L124.6,51.51c-.887,3.466-3.507,5.142-8.015,5.142-2.7,0-3.7-.583-4.436-1.541a3.642,3.642,0,0,1-.393-3.123l.258-1.041c.908-3.581,3.29-5.111,7.974-5.111,2.775,0,3.755.562,4.508,1.541a3.62,3.62,0,0,1,.37,3.092Z" transform="translate(800.667 1593.324)" fill="#ff7300"/>
      <path id="Caminho_8907" data-name="Caminho 8907" d="M159.719,42.928c-1.711-2.207-4.342-3.373-8.694-3.373s-6.9.8-9.594,2.779l.268-1.145a.726.726,0,0,0-.134-.645.751.751,0,0,0-.266-.217.732.732,0,0,0-.333-.075h-4.631a1.028,1.028,0,0,0-.662.224,1.047,1.047,0,0,0-.369.6l-6.632,28.157a1.051,1.051,0,0,0,.206.916,1.037,1.037,0,0,0,.366.3,1.022,1.022,0,0,0,.46.105h4.9a1.025,1.025,0,0,0,.662-.224,1.041,1.041,0,0,0,.369-.6l2.166-9.223c1.99,1.749,4.187,2.394,8.045,2.394,8.521,0,13.08-3.633,14.7-10.826l.279-1.3C161.576,47.466,161.206,44.822,159.719,42.928ZM153.86,50.36l-.237,1.072c-1.1,4.549-5.642,5.2-8.6,5.2-5,0-5.3-1.811-5.528-3.268l.722-3.362c1.434-2.842,4.26-4.226,8.623-4.226,2.713,0,3.92.52,4.7,1.561a3.43,3.43,0,0,1,.319,3Z" transform="translate(804.835 1593.329)" fill="#ff7300"/>
      <path id="Caminho_8908" data-name="Caminho 8908" d="M77.5,53H49.233a1.108,1.108,0,0,0-.656.254,1.125,1.125,0,0,0-.375.6L47,58.569a1.143,1.143,0,0,0,.206.958,1.11,1.11,0,0,0,.877.427H76.351a1.108,1.108,0,0,0,.69-.242,1.126,1.126,0,0,0,.393-.622l1.114-4.705a1.174,1.174,0,0,0-.206-.958A1.121,1.121,0,0,0,77.5,53Z" transform="translate(790.77 1595.645)" fill="#ff7300"/>
      <path id="Caminho_8909" data-name="Caminho 8909" d="M54.2,36.9H72.948L60.3,47.519a1.107,1.107,0,0,0-.413.822,1.046,1.046,0,0,0,.34.853l3.435,3.342a1.078,1.078,0,0,0,.763.323,1.117,1.117,0,0,0,.7-.25L91.33,30.1l.134-.1H55.227a1.1,1.1,0,0,0-.661.256,1.116,1.116,0,0,0-.371.608l-1.032,4.663a1.111,1.111,0,0,0,.206.947,1.128,1.128,0,0,0,.367.3A1.116,1.116,0,0,0,54.2,36.9Z" transform="translate(791.83 1591.684)" fill="#ff9b00"/>
    </g>
  </g>
</svg>
