<svg width="121" height="42" viewBox="0 0 121 42" fill="none" xmlns="http://www.w3.org/2000/svg">
<g clip-path="url(#clip0)">
<path fill-rule="evenodd" clip-rule="evenodd" d="M56.4961 34.6763C60.1695 33.9912 64.0002 33.1775 67.931 32.2354C70.1036 31.7072 72.2619 31.1505 74.3631 30.5796L74.0915 30.08C70.0178 31.3361 65.7583 32.5066 61.3845 33.5629C59.7407 33.9626 58.1113 34.3337 56.4961 34.6763ZM79.9948 28.9523C81.9816 28.3527 83.9255 27.7247 85.8123 27.0966V26.0831C83.9684 26.7826 82.0673 27.4677 80.1091 28.1386L79.9948 28.9523ZM89.8002 25.6977C91.8156 24.9697 93.7595 24.2274 95.632 23.4709V21.9435C93.8024 22.8 91.8442 23.6565 89.8002 24.4986V25.6977ZM99.5341 21.8293C99.92 21.658 100.32 21.4867 100.692 21.3154H99.5341V21.8293ZM106.895 18.275C115.043 13.9355 120.003 9.61039 120.003 6.1988C120.003 -0.781411 99.2768 -1.49513 72.8051 4.28602C96.0608 -0.0105901 113.456 1.11709 113.456 7.52632C113.456 8.5969 112.956 9.76741 112.027 10.995L112.041 11.0236V11.0378V11.0521V11.0664L112.055 11.1235L112.07 11.1806V11.1949V11.2091V11.2234V11.2377V11.2662V11.2805V11.2948V11.3091V11.3233V11.3519V11.3661V11.3804C112.07 11.723 111.984 12.037 111.798 12.3083C111.612 12.5795 111.383 12.8079 111.069 12.9649C110.769 13.1219 110.44 13.2076 110.083 13.2076H110.068H110.04C110.011 13.2076 109.968 13.2076 109.94 13.1933C108.41 14.5779 106.409 16.0053 104.037 17.4613H106.952V18.275H106.895ZM111.698 11.409V11.4232V11.4375V11.4518V11.4661C111.698 11.7516 111.626 12.0085 111.484 12.2369C111.341 12.4653 111.155 12.6508 110.912 12.7793H110.898H110.883H110.869L110.84 12.7936H110.826H110.812H110.797H110.783H110.769H110.755H110.74H110.726L110.697 12.8079L110.669 12.8221H110.655H110.64H110.626H110.612H110.597C110.569 12.8364 110.54 12.8364 110.512 12.8364C110.483 12.8364 110.454 12.8507 110.426 12.8507H110.412C110.383 12.8507 110.34 12.865 110.311 12.865H110.297H110.283H110.269H110.254C110.426 12.7079 110.583 12.5509 110.74 12.3939H111.112L110.955 12.1655C111.198 11.9942 111.455 11.6945 111.698 11.409Z" fill="#0090D3"/>
<path fill-rule="evenodd" clip-rule="evenodd" d="M63.5846 6.95508C60.6972 7.48323 57.7242 8.09703 54.6796 8.79648C54.8226 8.85358 54.9512 8.91068 55.0942 8.98205C56.2805 8.66801 57.4812 8.36825 58.6961 8.08276C60.3399 7.6688 61.9694 7.29766 63.5846 6.95508ZM38.5422 13.1502C37.8847 13.3643 37.2129 13.5641 36.5697 13.7783C36.6554 14.0209 36.7126 14.2921 36.7698 14.5491L36.7126 14.649C37.0414 14.5348 37.3701 14.4063 37.7132 14.2921C37.9704 13.9067 38.242 13.5213 38.5422 13.1502ZM32.8962 15.0059C31.4097 15.5197 29.966 16.0336 28.551 16.5618V17.8465C30.0089 17.2327 31.524 16.6189 33.082 16.0051V15.948C33.0963 15.5911 33.0249 15.2771 32.8962 15.0059ZM24.6345 18.0892C22.7335 18.8457 20.9325 19.6308 19.203 20.4016C19.2601 20.4587 19.303 20.5015 19.3316 20.5301C19.7318 20.9298 20.0606 21.3152 20.3464 21.7006C21.69 21.0011 23.1194 20.2874 24.6345 19.588V18.0892ZM15.3151 22.2573C5.90991 26.9679 0.078125 31.7355 0.078125 35.4326C0.078125 42.4128 20.8038 43.1265 47.2613 37.3454C24.0056 41.642 6.62459 40.5143 6.62459 34.1194C6.62459 32.4778 7.76808 30.6221 9.86924 28.6665C9.39755 28.0955 8.95445 27.4246 8.56852 26.6395L11.8703 24.6554C12.2134 25.2692 12.5707 25.7974 12.9424 26.197C14.1001 25.3691 15.4151 24.5269 16.8588 23.6705C16.5015 23.285 16.0012 22.8283 15.3151 22.2573Z" fill="#0090D3"/>
<path fill-rule="evenodd" clip-rule="evenodd" d="M110.112 13.2793V12.9795C110.398 12.9795 110.669 12.9081 110.912 12.7797C111.155 12.6512 111.341 12.4656 111.484 12.2372C111.627 12.0088 111.698 11.7519 111.698 11.4664C111.698 11.2523 111.655 11.0524 111.584 10.8669C111.498 10.6813 111.384 10.5243 111.241 10.3815C111.098 10.2388 110.927 10.1389 110.726 10.0675C110.526 9.99614 110.326 9.95331 110.112 9.95331V9.65355C110.369 9.65355 110.626 9.69637 110.869 9.78202C111.112 9.86767 111.327 9.99614 111.513 10.1674C111.698 10.3244 111.841 10.5243 111.941 10.7527C112.041 10.9811 112.099 11.2095 112.099 11.4664C112.099 11.809 112.013 12.123 111.827 12.3942C111.641 12.6655 111.413 12.8939 111.098 13.0509C110.784 13.2079 110.455 13.2793 110.112 13.2793ZM110.112 11.6234L110.684 12.5084H111.069L110.426 11.5949C110.598 11.5663 110.741 11.5092 110.841 11.4236C110.941 11.3237 110.998 11.1952 110.998 11.0239C110.998 10.8241 110.927 10.667 110.798 10.5671C110.669 10.4672 110.469 10.4244 110.212 10.4244H110.098V10.6813H110.155C110.483 10.6813 110.655 10.7812 110.655 10.9953C110.655 11.1381 110.612 11.238 110.512 11.2808C110.412 11.3237 110.283 11.3522 110.098 11.3522V11.6234H110.112ZM110.112 13.2793C109.84 13.2793 109.597 13.2364 109.354 13.1365C109.111 13.0509 108.897 12.9224 108.711 12.7511C108.525 12.5798 108.382 12.3942 108.282 12.1659C108.182 11.9375 108.125 11.7091 108.125 11.4521C108.125 11.1952 108.182 10.9668 108.282 10.7384C108.382 10.51 108.525 10.3244 108.711 10.1532C108.897 9.99614 109.111 9.86767 109.354 9.76774C109.597 9.6821 109.855 9.625 110.112 9.625V9.92476C109.897 9.92476 109.683 9.96759 109.497 10.039C109.311 10.1103 109.14 10.2245 108.983 10.353C108.84 10.4957 108.725 10.6528 108.64 10.8383C108.554 11.0239 108.525 11.2237 108.525 11.4379C108.525 11.7233 108.597 11.9803 108.74 12.2087C108.883 12.4371 109.068 12.6226 109.311 12.7511C109.554 12.8796 109.826 12.9509 110.112 12.9509V13.2793ZM110.112 10.4244H109.354V12.5084H109.697V11.5949H110.083L110.098 11.6234V11.3237H109.683V10.6813H110.098V10.4244H110.112Z" fill="#0090D3"/>
<path fill-rule="evenodd" clip-rule="evenodd" d="M21.163 12.7791L18.2614 15.3342C17.2465 13.921 16.2031 13.2073 15.1454 13.2073C14.6308 13.2073 14.2163 13.35 13.8875 13.6213C13.5588 13.8925 13.4015 14.2065 13.4015 14.5491C13.4015 14.8917 13.5159 15.22 13.7589 15.534C14.0733 15.9337 15.031 16.8187 16.6319 18.1748C18.1184 19.431 19.0332 20.2161 19.3477 20.5444C20.1481 21.3437 20.7056 22.1146 21.0343 22.8426C21.3631 23.5848 21.5346 24.3699 21.5346 25.2407C21.5346 26.925 20.9486 28.3239 19.7765 29.4231C18.6044 30.5222 17.075 31.0789 15.2025 31.0789C13.7303 31.0789 12.4582 30.7221 11.3719 30.0083C10.2855 29.2803 9.34217 28.1527 8.57031 26.6253L11.8721 24.6411C12.8584 26.4683 14.0019 27.3676 15.2883 27.3676C15.9601 27.3676 16.5318 27.1677 16.9892 26.7823C17.4466 26.3969 17.6753 25.9401 17.6753 25.4262C17.6753 24.9552 17.5038 24.4984 17.1608 24.0273C16.8177 23.5563 16.0602 22.8426 14.8738 21.8862C12.6297 20.059 11.1717 18.6459 10.5142 17.6467C9.87103 16.6474 9.52798 15.6625 9.52798 14.6776C9.52798 13.2501 10.0711 12.0225 11.1717 10.9948C12.2581 9.967 13.6017 9.45312 15.2025 9.45312C16.2317 9.45312 17.2036 9.69579 18.147 10.1668C19.0761 10.6379 20.0767 11.5086 21.163 12.7791Z" fill="#0090D3"/>
<path fill-rule="evenodd" clip-rule="evenodd" d="M24.6367 9.9668H28.7962C31.0545 9.9668 32.6697 10.1809 33.6703 10.5949C34.6708 11.0088 35.457 11.6797 36.0287 12.6076C36.3861 13.1785 36.629 13.8352 36.772 14.5489C35.7714 16.3047 35.1711 18.2317 34.9853 20.33C34.3564 20.8582 33.5845 21.2579 32.6983 21.5148C31.9407 21.7289 30.5686 21.8431 28.5675 21.8431V30.5648H24.6367V9.9668ZM28.5675 18.0319H29.811C30.7973 18.0319 31.4834 17.9605 31.855 17.8177C32.2409 17.675 32.5411 17.4466 32.7555 17.1183C32.9699 16.8043 33.0842 16.4046 33.0842 15.9478C33.0842 15.1484 32.7698 14.5774 32.1551 14.2063C31.712 13.9351 30.8687 13.8066 29.6538 13.8066H28.5532V18.0319H28.5675Z" fill="#0090D3"/>
<path fill-rule="evenodd" clip-rule="evenodd" d="M95.6328 9.9668H106.896V13.8066H99.535V17.5323H106.896V21.3007H99.535V26.725H106.896V30.5791H95.6328V9.9668Z" fill="#0090D3"/>
<path fill-rule="evenodd" clip-rule="evenodd" d="M83.0992 9.9668H93.5621V13.8352H89.8029V30.5791H85.815V13.8352H82.5703L83.0992 9.9668Z" fill="#0090D3"/>
<path fill-rule="evenodd" clip-rule="evenodd" d="M49.8206 7.88281C53.2082 7.88281 55.9954 8.96767 58.1966 11.1517C60.3978 13.3214 61.4984 16.0906 61.4984 19.4451C61.4984 22.0145 60.8409 24.4269 59.5402 26.6965C58.2395 28.9662 56.51 30.7077 54.3516 31.921C52.1933 33.1343 49.7062 33.7481 46.9047 33.7481C43.4028 33.7481 40.6012 32.7204 38.5001 30.6363C36.3989 28.5665 35.3555 25.8258 35.3555 22.4427C35.3555 18.5886 36.6133 15.2913 39.1147 12.522C41.9019 9.42445 45.4753 7.88281 49.8206 7.88281ZM49.649 12.2651C47.8909 12.2651 46.2758 12.6933 44.8178 13.5498C43.3599 14.4062 42.1878 15.6338 41.2873 17.2326C40.4011 18.8456 39.9437 20.4871 39.9437 22.2001C39.9437 24.2128 40.5583 25.9257 41.8019 27.3389C43.0454 28.7378 44.8178 29.4515 47.1477 29.4515C49.8349 29.4515 52.1218 28.5094 54.0086 26.5966C55.8953 24.6981 56.8387 22.3999 56.8387 19.6878C56.8387 17.4467 56.1812 15.6481 54.8519 14.292C53.5226 12.936 51.7931 12.2651 49.649 12.2651Z" fill="#0090D3"/>
<path fill-rule="evenodd" clip-rule="evenodd" d="M63.0428 8.14062H67.1021L76.0357 24.8703L78.294 8.14062H82.7965L79.4804 32.7641H75.5354L66.4732 15.8346L64.2148 32.7641H59.7695L63.0428 8.14062Z" fill="#0090D3"/>
</g>
<defs>
<clipPath id="clip0">
<rect width="119.923" height="40.8249" fill="white" transform="translate(0.078125 0.402344)"/>
</clipPath>
</defs>
</svg>
