<svg width="16" height="22" viewBox="0 0 16 22" fill="none" xmlns="http://www.w3.org/2000/svg">
<g clip-path="url(#clip0_475_352)">
<path fill-rule="evenodd" clip-rule="evenodd" d="M14.886 14.7447C14.9853 14.8233 15.0641 14.9167 15.1178 15.0195C15.1716 15.1223 15.1992 15.2325 15.1992 15.3438C15.1992 15.4551 15.1716 15.5653 15.1178 15.6681C15.0641 15.7709 14.9853 15.8642 14.886 15.9428L8.48876 21.0198C8.38972 21.0986 8.27206 21.1611 8.14253 21.2038C8.013 21.2464 7.87413 21.2684 7.73389 21.2684C7.59365 21.2684 7.45478 21.2464 7.32525 21.2038C7.19571 21.1611 7.07806 21.0986 6.97902 21.0198L0.581794 15.9428C0.38159 15.784 0.269117 15.5685 0.269117 15.3438C0.269117 15.1191 0.38159 14.9036 0.581794 14.7447C0.781999 14.5858 1.05353 14.4965 1.33667 14.4965C1.6198 14.4965 1.89133 14.5858 2.09154 14.7447L7.73389 19.2242L13.3762 14.7447C13.4753 14.6659 13.5929 14.6034 13.7225 14.5607C13.852 14.5181 13.9909 14.4961 14.1311 14.4961C14.2714 14.4961 14.4102 14.5181 14.5398 14.5607C14.6693 14.6034 14.7869 14.6659 14.886 14.7447V14.7447Z" fill="white"/>
<path fill-rule="evenodd" clip-rule="evenodd" d="M7.73458 0.955078C8.01735 0.955078 8.28855 1.04423 8.4885 1.20291C8.68845 1.3616 8.80078 1.57682 8.80078 1.80124L8.80078 19.5706C8.80078 19.795 8.68845 20.0102 8.4885 20.1689C8.28854 20.3276 8.01735 20.4167 7.73458 20.4167C7.4518 20.4167 7.18061 20.3276 6.98066 20.1689C6.7807 20.0102 6.66837 19.795 6.66837 19.5706L6.66837 1.80124C6.66837 1.57682 6.78071 1.3616 6.98066 1.20291C7.18061 1.04423 7.4518 0.955078 7.73458 0.955078Z" fill="white"/>
</g>
<defs>
<clipPath id="clip0_475_352">
<rect width="20.3166" height="16" fill="white" transform="translate(16 0.955078) rotate(90)"/>
</clipPath>
</defs>
</svg>
