<svg width="30" height="31" viewBox="0 0 30 31" fill="none" xmlns="http://www.w3.org/2000/svg">
<path d="M22.0671 6.01074C22.0771 6.01074 22.0871 6.01074 22.0871 6.01074C23.1071 6.01074 23.9371 6.84074 23.9271 7.88074C23.9171 8.90074 23.0771 9.73074 22.0471 9.73074C21.0171 9.72074 20.1971 8.88074 20.2071 7.86074C20.2171 6.84074 21.0471 6.01074 22.0671 6.01074Z" fill="#8C8C8C"/>
<path d="M13.8188 8.18069C18.1988 8.18069 21.7288 11.7407 21.6988 16.1307C21.6688 20.5107 18.0788 24.0707 13.6888 24.0707C9.29879 24.0707 5.77878 20.5107 5.80878 16.1207C5.83878 11.7207 9.42878 8.17069 13.8188 8.18069ZM13.6988 21.2507C16.5188 21.2507 18.8288 18.9807 18.8788 16.1607C18.9288 13.3107 16.6688 11.0007 13.8288 10.9707C13.8088 10.9707 13.7988 10.9707 13.7788 10.9707C10.9588 10.9707 8.64878 13.2407 8.59878 16.0607C8.54878 18.9007 10.8088 21.2207 13.6488 21.2507C13.6688 21.2507 13.6888 21.2507 13.6988 21.2507Z" fill="#8C8C8C"/>
<path d="M26.92 29.3907H2.81999C1.81999 29.3907 1 28.5807 1 27.5707V3.2907C1 2.2907 1.80999 1.4707 2.81999 1.4707H26.92C27.92 1.4707 28.74 2.2807 28.74 3.2907V27.5707C28.74 28.5707 27.93 29.3907 26.92 29.3907Z" stroke="#8C8C8C" stroke-width="2" stroke-miterlimit="10"/>
</svg>
