<svg width="38" height="28" viewBox="0 0 38 28" fill="none" xmlns="http://www.w3.org/2000/svg">
<path d="M34.7707 26.238H3.02521C1.93915 26.238 1.07031 25.3583 1.07031 24.2831V2.95296C1.07031 1.8669 1.95001 0.998047 3.02521 0.998047H34.7707C35.8568 0.998047 36.7256 1.87776 36.7256 2.95296V24.2723C36.7256 25.3583 35.8568 26.238 34.7707 26.238Z" stroke="#8C8C8C" stroke-width="1.9856" stroke-miterlimit="10"/>
<path d="M24.3022 12.5215C25.1493 13.0102 25.1493 14.2266 24.3022 14.7044L20.4358 16.9309L16.5694 19.1573C15.7223 19.646 14.6797 19.0378 14.6797 18.0604V13.5967V9.13296C14.6797 8.15551 15.7332 7.55818 16.5694 8.03604L20.4358 10.2625L24.3022 12.5215Z" stroke="#8C8C8C" stroke-width="1.9856" stroke-miterlimit="10"/>
</svg>
