<svg width="629" height="596" viewBox="0 0 629 596" fill="none" xmlns="http://www.w3.org/2000/svg">
<path d="M329.018 -38.8651L456.073 188.674L244.524 105.614C242.51 104.782 240.348 104.389 238.182 104.462C236.016 104.535 233.895 105.073 231.961 106.038C230.027 107.004 228.324 108.375 226.966 110.062C225.608 111.748 224.625 113.711 224.083 115.819L207.668 179.581C206.746 183.195 207.166 187.037 208.847 190.391C210.529 193.745 213.358 196.382 216.808 197.811L661.039 366.548L663.188 367.363L418.174 -71.4249C416.488 -74.4696 413.831 -76.8587 410.639 -78.2006C407.446 -79.5425 403.907 -79.7577 400.603 -78.8109L337.99 -61.0596C335.779 -60.4368 333.742 -59.3169 332.032 -57.7836C330.321 -56.2503 328.982 -54.3434 328.115 -52.2057C327.247 -50.0681 326.873 -47.7551 327.021 -45.44C327.169 -43.1249 327.835 -40.8678 328.969 -38.8378" fill="#FFB400"/>
</svg>
