<svg width="379" height="392" viewBox="0 0 379 392" fill="none" xmlns="http://www.w3.org/2000/svg">
<path d="M36.3635 290.014L228.899 178.853L160.637 360.32C159.951 362.048 159.643 363.896 159.732 365.743C159.821 367.59 160.305 369.392 161.152 371.03C161.999 372.668 163.19 374.104 164.645 375.242C166.1 376.38 167.786 377.194 169.591 377.63L224.181 390.853C227.274 391.594 230.547 391.19 233.387 389.714C236.228 388.239 238.443 385.793 239.619 382.833L378.117 1.84323L378.786 0.000291316L7.49957 214.362C4.92312 215.838 2.91776 218.134 1.81216 220.873C0.706557 223.613 0.566295 226.634 1.41436 229.441L17.322 282.632C17.8802 284.511 18.8604 286.235 20.1893 287.675C21.5181 289.115 23.161 290.234 24.9951 290.948C26.8291 291.662 28.8066 291.952 30.7795 291.798C32.7525 291.643 34.6696 291.047 36.3874 290.055" fill="#FFB400"/>
</svg>
