<svg width="80" height="80" viewBox="0 0 80 80" fill="none" xmlns="http://www.w3.org/2000/svg">
<mask id="mask0" mask-type="alpha" maskUnits="userSpaceOnUse" x="0" y="0" width="80" height="80">
<rect width="80" height="80" fill="#C4C4C4"/>
</mask>
<g mask="url(#mask0)">
</g>
<g clip-path="url(#clip0)">
<path d="M27.9217 34.7763H41.627C42.6068 36.4748 44.4621 37.5984 46.5656 37.5461C49.4791 37.4808 51.87 35.116 51.9876 32.2156C52.1051 29.0538 49.5705 26.4408 46.4349 26.4408C44.3837 26.4408 42.5807 27.5644 41.627 29.2237H27.9217V15.3355H41.627C42.6068 17.034 44.4621 18.1576 46.5656 18.1053C49.4791 18.04 51.87 15.6752 51.9876 12.7748C52.1182 9.59995 49.5836 7 46.448 7C44.3968 7 42.5938 8.1236 41.64 9.78286H24.2243C23.2052 9.78286 22.3691 10.606 22.3691 11.6381V29.2237H12.3612C11.3813 27.5252 9.5261 26.4016 7.42262 26.4539C4.50911 26.5061 2.11821 28.8709 2.00062 31.7844C1.88304 34.9462 4.41766 37.5592 7.55327 37.5592C9.60449 37.5592 11.4075 36.4356 12.3612 34.7763H22.3691V52.3619C22.3691 53.381 23.1922 54.2171 24.2243 54.2171H41.64C42.6199 55.9156 44.4751 57.0392 46.5786 56.9869C49.4921 56.9216 51.883 54.5568 52.0006 51.6564C52.1182 48.4946 49.5836 45.8816 46.448 45.8816C44.3968 45.8816 42.5938 47.0052 41.64 48.6645H27.9217V34.7763Z" fill="#FFB400"/>
</g>
<defs>
<clipPath id="clip0">
<rect width="50" height="50" fill="white" transform="translate(2 7)"/>
</clipPath>
</defs>
</svg>
