<svg width="80" height="80" viewBox="0 0 80 80" fill="none" xmlns="http://www.w3.org/2000/svg">
<mask id="mask0" mask-type="alpha" maskUnits="userSpaceOnUse" x="0" y="0" width="80" height="80">
<rect width="80" height="80" fill="#C4C4C4"/>
</mask>
<g mask="url(#mask0)">
</g>
<path d="M51.9525 15.5009L51.7307 15.1547L49.097 11.1385C49.0416 11.0554 48.9446 11 48.8337 11H7.09703C6.97228 11 6.84753 11.0692 6.77822 11.1662L2.81386 17.2459L2.59208 17.5921L0.152475 21.3036C0.0554456 21.4698 0 21.6499 0 21.8437C0 21.8437 0 22.0792 0 22.4115C0 24.4473 0.512871 26.4693 1.53861 28.2281C1.66337 28.4359 1.78812 28.6297 1.91287 28.8375C2.63366 29.9038 3.49307 30.8733 4.49109 31.6765C4.71287 31.8565 4.83762 32.1335 4.83762 32.4244V63.0167C4.83762 63.5568 5.26733 63.9862 5.80792 63.9862H8.7604V64H47.0733V63.9862H51.0099C51.5505 63.9862 51.9802 63.5568 51.9802 63.0167V31.5242C51.9802 31.2749 52.0772 31.0256 52.2574 30.8456C52.8812 30.2362 53.4356 29.5576 53.9208 28.8236C54.9188 27.3279 55.6812 25.6384 55.903 23.7826C56.0416 22.647 55.903 22.5085 55.903 21.9268C55.903 21.733 55.8475 21.5529 55.7505 21.4006L51.9525 15.5009ZM28.4297 58.1142H22.5386V46.3426H28.4297V58.1142ZM46.1168 58.1142H34.3347V45.4839H34.3069V40.4568H16.6475V45.4839V58.1142H10.7426V34.4048C11.3248 34.4878 11.9208 34.5294 12.5168 34.5294C15.4139 34.5294 18.0752 33.56 20.2238 31.9258C22.3584 33.56 25.0337 34.5294 27.9307 34.5294C30.8277 34.5294 33.4891 33.56 35.6376 31.9258C37.7861 33.56 40.4475 34.5294 43.3446 34.5294C44.2871 34.5294 45.2158 34.4186 46.103 34.2247L46.1168 58.1142ZM50.0119 23.3533C49.2634 26.3862 46.5465 28.6297 43.3446 28.6297C41.8753 28.6297 40.5168 28.1589 39.3941 27.3556C37.9386 26.317 37.5921 24.6135 37.2594 22.7578H34.3069C33.9881 24.6135 33.3228 26.317 31.8673 27.3556C30.7446 28.1589 29.3861 28.6297 27.9307 28.6297C26.4614 28.6297 25.103 28.1589 23.9802 27.3556C22.5248 26.317 21.8594 24.6135 21.5406 22.7578H18.5881C18.2693 24.6135 17.9089 26.317 16.4535 27.3556C15.3307 28.1589 13.9723 28.6297 12.503 28.6297C9.32871 28.6297 6.65347 26.4278 5.86337 23.4641C5.8495 23.4364 5.8495 23.4087 5.83564 23.381L5.86337 23.3394L7.51287 20.8328L7.73465 20.4865L10.0634 16.8858H45.8257L46.796 18.3815L47.0178 18.7277L50.0119 23.3533Z" fill="#FFB400"/>
</svg>
