<svg width="335" height="52" viewBox="0 0 335 52" fill="none" xmlns="http://www.w3.org/2000/svg">
<path d="M65.2433 13.776C61.2268 13.6237 57.2414 14.5352 53.6911 16.4183C51.7229 17.4855 50.0131 18.9713 48.6824 20.771C47.3517 22.5706 46.4324 24.6402 45.9896 26.8337L45.5661 28.7064C44.6034 32.7084 45.027 35.9023 46.8496 38.1983C49.2243 41.2639 52.9466 42.5723 59.3004 42.5723C70.4033 42.5723 76.6159 38.4805 78.7209 29.5017L79.1317 27.629C80.0815 23.7809 79.6451 20.5871 77.8481 18.2782C75.4478 15.1613 71.5971 13.776 65.2433 13.776ZM70.4675 27.2442L70.1466 28.5269C69.0427 32.7982 65.7825 34.8633 60.1732 34.8633C56.8102 34.8633 55.578 34.145 54.6538 32.965C54.2872 32.4019 54.0529 31.7632 53.9684 31.0968C53.8839 30.4304 53.9515 29.7535 54.166 29.1169L54.4869 27.8342C55.6165 23.4218 58.5944 21.5362 64.409 21.5362C67.8619 21.5362 69.0813 22.2289 70.0183 23.4346C70.3744 23.9952 70.5997 24.6288 70.6774 25.2882C70.7552 25.9477 70.6835 26.6162 70.4675 27.2442V27.2442Z" fill="white"/>
<path d="M104.97 13.776C100.954 13.6237 96.9683 14.5352 93.418 16.4183C91.4498 17.4855 89.74 18.9713 88.4093 20.771C87.0786 22.5706 86.1594 24.6402 85.7166 26.8337L85.293 28.7064C84.3303 32.7084 84.741 35.9023 86.5766 38.1983C88.9512 41.2639 92.6736 42.5723 99.0273 42.5723C110.105 42.5723 116.356 38.4805 118.461 29.5017L118.871 27.629C119.821 23.7809 119.385 20.5871 117.588 18.2782C115.239 15.1613 111.298 13.776 104.97 13.776ZM110.194 27.2442L109.874 28.5269C108.77 32.7982 105.509 34.8633 99.9001 34.8633C96.5371 34.8633 95.2921 34.145 94.3807 32.965C94.0141 32.4019 93.7798 31.7632 93.6953 31.0968C93.6108 30.4304 93.6784 29.7535 93.893 29.1169L94.2139 27.8342C95.3434 23.4218 98.3085 21.5362 104.136 21.5362C107.589 21.5362 108.808 22.2289 109.745 23.4346C110.103 23.9942 110.331 24.6272 110.411 25.2867C110.491 25.9462 110.421 26.6152 110.207 27.2442H110.194Z" fill="white"/>
<path d="M158.765 17.9578C156.634 15.2385 153.361 13.8019 147.945 13.8019C142.528 13.8019 139.357 14.7896 136.007 17.2267L136.341 15.8157C136.379 15.6795 136.383 15.5362 136.354 15.3978C136.325 15.2595 136.264 15.1301 136.174 15.0205C136.087 14.907 135.974 14.8154 135.844 14.7531C135.715 14.6907 135.573 14.6593 135.43 14.6613H129.666C129.368 14.6547 129.076 14.7522 128.842 14.9372C128.608 15.1221 128.445 15.3829 128.383 15.6746L120.129 50.3712C120.081 50.5663 120.079 50.7701 120.123 50.9662C120.168 51.1623 120.258 51.3451 120.386 51.5C120.507 51.6569 120.663 51.7838 120.841 51.8706C121.019 51.9574 121.215 52.0017 121.413 52.0002H127.51C127.809 52.0069 128.1 51.9093 128.334 51.7244C128.569 51.5394 128.731 51.2786 128.794 50.9869L131.489 39.6223C133.966 41.7773 136.7 42.5725 141.501 42.5725C152.103 42.5725 157.777 38.096 159.792 29.2326L160.139 27.6293C161.076 23.5503 160.614 20.2923 158.765 17.9578ZM151.474 27.1162L151.179 28.4373C149.806 34.0427 144.158 34.8508 140.474 34.8508C134.249 34.8508 133.877 32.6189 133.594 30.8231L134.493 26.6801C136.277 23.1783 139.794 21.4724 145.223 21.4724C148.599 21.4724 150.101 22.1137 151.077 23.3964C151.422 23.9402 151.638 24.5564 151.707 25.197C151.776 25.8377 151.697 26.4856 151.474 27.0905V27.1162Z" fill="white"/>
<path d="M38.9429 33.2215H3.77278C3.4739 33.2349 3.18739 33.3446 2.95604 33.5342C2.72469 33.7238 2.56093 33.9831 2.4892 34.2733L1.00025 40.0839C0.95206 40.2872 0.950107 40.4988 0.994533 40.703C1.03896 40.9073 1.12864 41.0989 1.25697 41.2639C1.38714 41.4284 1.55297 41.5612 1.74196 41.6523C1.93096 41.7434 2.13818 41.7904 2.34801 41.7899H37.5181C37.8298 41.7897 38.1324 41.6845 38.3769 41.4913C38.6215 41.2981 38.7937 41.0283 38.8659 40.7252L40.2522 34.9275C40.2976 34.724 40.2982 34.513 40.2539 34.3092C40.2096 34.1054 40.1214 33.9137 39.9954 33.7474C39.8687 33.5886 39.709 33.4593 39.5272 33.3685C39.3454 33.2777 39.146 33.2275 38.9429 33.2215V33.2215Z" fill="white"/>
<path d="M11.2687 8.50419H34.6042L18.8675 21.5876C18.7139 21.7095 18.5885 21.8632 18.4999 22.0381C18.4112 22.213 18.3615 22.405 18.3541 22.6009C18.3393 22.7969 18.3698 22.9937 18.4433 23.1761C18.5167 23.3585 18.6311 23.5215 18.7777 23.6527L23.052 27.7701C23.3035 28.0231 23.645 28.1661 24.0019 28.1677C24.3193 28.167 24.6271 28.0585 24.8747 27.8599L57.4776 0.128268L57.6445 0H12.5523C12.2511 0.012088 11.9622 0.122876 11.7303 0.315275C11.4983 0.507675 11.3361 0.770997 11.2687 1.06463L9.98515 6.81105C9.93615 7.0123 9.9338 7.22208 9.9783 7.42437C10.0228 7.62666 10.1129 7.81612 10.2419 7.97829C10.3658 8.13388 10.5214 8.26127 10.6985 8.35195C10.8756 8.44264 11.07 8.49454 11.2687 8.50419V8.50419Z" fill="white"/>
<path d="M190.861 17.9961C190.932 17.9961 190.99 18.0234 191.037 18.0781C191.088 18.1289 191.109 18.1895 191.102 18.2598L191.02 18.7754C191.004 18.9043 190.932 18.9688 190.803 18.9688H188.57C188.516 18.9688 188.48 18.9961 188.465 19.0508L187.398 25.8184C187.383 25.9395 187.311 26 187.182 26H186.578C186.508 26 186.447 25.9727 186.396 25.918C186.35 25.8594 186.334 25.7949 186.35 25.7246L187.41 19.0977C187.418 19.0664 187.408 19.0371 187.381 19.0098C187.357 18.9824 187.326 18.9688 187.287 18.9688H185.201C185.025 18.9688 184.949 18.8809 184.973 18.7051L185.043 18.1777C185.066 18.0566 185.139 17.9961 185.26 17.9961H190.861ZM192.443 26.1816C191.627 26.1816 191.008 25.9844 190.586 25.5898C190.168 25.1914 190.031 24.5527 190.176 23.6738L190.334 22.6426C190.432 22.0566 190.635 21.5781 190.943 21.207C191.256 20.8359 191.605 20.584 191.992 20.4512C192.383 20.3184 192.82 20.252 193.305 20.252C194.066 20.252 194.648 20.4453 195.051 20.832C195.457 21.2148 195.592 21.8418 195.455 22.7129L195.373 23.3984C195.357 23.5273 195.285 23.5898 195.156 23.5859H191.354C191.283 23.5859 191.246 23.6191 191.242 23.6855L191.207 23.9141C191.129 24.4102 191.227 24.7676 191.5 24.9863C191.777 25.2051 192.148 25.3145 192.613 25.3145C193.367 25.3145 193.963 25.1113 194.4 24.7051C194.514 24.627 194.609 24.6387 194.688 24.7402L194.939 25.0742C195.029 25.1953 195.021 25.3008 194.916 25.3906C194.33 25.918 193.506 26.1816 192.443 26.1816ZM191.471 22.9297H194.377C194.447 22.9297 194.482 22.8926 194.482 22.8184L194.506 22.543C194.611 21.5742 194.188 21.0898 193.234 21.0898C192.785 21.0898 192.391 21.2031 192.051 21.4297C191.711 21.6523 191.494 22.0234 191.4 22.543L191.354 22.7832C191.346 22.8145 191.354 22.8477 191.377 22.8828C191.4 22.9141 191.432 22.9297 191.471 22.9297ZM201.256 24.752C201.377 24.8418 201.393 24.9453 201.303 25.0625C200.736 25.7969 199.854 26.166 198.654 26.1699C196.928 26.1699 196.191 25.3047 196.445 23.5742L196.592 22.666C196.857 21.0566 197.877 20.252 199.65 20.252C200.748 20.252 201.473 20.6289 201.824 21.3828C201.887 21.5195 201.854 21.6191 201.725 21.6816L201.291 21.9219C201.186 21.9688 201.09 21.9355 201.004 21.8223C200.758 21.3496 200.291 21.1133 199.604 21.1133C198.443 21.1133 197.775 21.6816 197.6 22.8184L197.465 23.5977C197.375 24.207 197.467 24.6445 197.74 24.9102C198.014 25.1719 198.391 25.3027 198.871 25.3027C199.625 25.3027 200.209 25.0508 200.623 24.5469C200.736 24.4336 200.84 24.418 200.934 24.5L201.256 24.752ZM202.85 26C202.771 26 202.709 25.9746 202.662 25.9238C202.619 25.8691 202.602 25.8027 202.609 25.7246L203.424 20.6094C203.439 20.4805 203.512 20.418 203.641 20.4219H204.156C204.262 20.4219 204.322 20.4609 204.338 20.5391L204.314 20.9023C204.314 20.9492 204.322 20.9805 204.338 20.9961C204.354 21.0117 204.375 21.0137 204.402 21.002C204.43 20.9902 204.465 20.9727 204.508 20.9492C205.074 20.4844 205.766 20.252 206.582 20.252C207.191 20.252 207.664 20.4121 208 20.7324C208.336 21.0527 208.443 21.5957 208.322 22.3613L207.771 25.8184C207.756 25.9395 207.684 26 207.555 26H206.969C206.898 26 206.84 25.9746 206.793 25.9238C206.75 25.8691 206.732 25.8027 206.74 25.7246L207.244 22.5312C207.389 21.6289 207.016 21.1777 206.125 21.1777C205.508 21.1777 204.939 21.4043 204.42 21.8574C204.299 21.9551 204.232 22.0605 204.221 22.1738L203.641 25.8184C203.625 25.9395 203.557 26 203.436 26H202.85ZM211.891 26.1699C211.043 26.1699 210.395 25.9727 209.945 25.5781C209.496 25.1797 209.344 24.5371 209.488 23.6504L209.635 22.7012C209.771 21.8301 210.121 21.2051 210.684 20.8262C211.246 20.4434 211.936 20.252 212.752 20.252C213.6 20.252 214.25 20.4512 214.703 20.8496C215.156 21.2441 215.311 21.8848 215.166 22.7715L215.02 23.7207C214.949 24.1777 214.814 24.5703 214.615 24.8984C214.42 25.2266 214.176 25.4805 213.883 25.6602C213.594 25.8398 213.285 25.9688 212.957 26.0469C212.629 26.1289 212.273 26.1699 211.891 26.1699ZM211.961 25.3027C212.465 25.3027 212.906 25.1758 213.285 24.9219C213.664 24.6641 213.902 24.2363 214 23.6387L214.135 22.7715C214.232 22.1699 214.139 21.7441 213.854 21.4941C213.568 21.2402 213.182 21.1133 212.693 21.1133C212.189 21.1133 211.748 21.2441 211.369 21.5059C210.994 21.7676 210.76 22.1934 210.666 22.7832L210.52 23.6621C210.43 24.2559 210.527 24.6777 210.812 24.9277C211.098 25.1777 211.48 25.3027 211.961 25.3027ZM216.35 26C216.271 26 216.211 25.9727 216.168 25.918C216.129 25.8594 216.117 25.791 216.133 25.7129L217.451 17.3223C217.475 17.1777 217.547 17.1055 217.668 17.1055H218.254C218.324 17.1055 218.381 17.1367 218.424 17.1992C218.471 17.2578 218.49 17.3281 218.482 17.4102L217.152 25.8066C217.129 25.9355 217.057 26 216.936 26H216.35ZM221.301 26.1699C220.453 26.1699 219.805 25.9727 219.355 25.5781C218.906 25.1797 218.754 24.5371 218.898 23.6504L219.045 22.7012C219.182 21.8301 219.531 21.2051 220.094 20.8262C220.656 20.4434 221.346 20.252 222.162 20.252C223.01 20.252 223.66 20.4512 224.113 20.8496C224.566 21.2441 224.721 21.8848 224.576 22.7715L224.43 23.7207C224.359 24.1777 224.225 24.5703 224.025 24.8984C223.83 25.2266 223.586 25.4805 223.293 25.6602C223.004 25.8398 222.695 25.9688 222.367 26.0469C222.039 26.1289 221.684 26.1699 221.301 26.1699ZM221.371 25.3027C221.875 25.3027 222.316 25.1758 222.695 24.9219C223.074 24.6641 223.312 24.2363 223.41 23.6387L223.545 22.7715C223.643 22.1699 223.549 21.7441 223.264 21.4941C222.979 21.2402 222.592 21.1133 222.104 21.1133C221.6 21.1133 221.158 21.2441 220.779 21.5059C220.404 21.7676 220.17 22.1934 220.076 22.7832L219.93 23.6621C219.84 24.2559 219.938 24.6777 220.223 24.9277C220.508 25.1777 220.891 25.3027 221.371 25.3027ZM227.453 28.4375C226.477 28.4375 225.76 28.2012 225.303 27.7285C225.197 27.6504 225.182 27.5547 225.256 27.4414L225.473 27.0547C225.551 26.9258 225.662 26.9141 225.807 27.0195C226.158 27.4023 226.689 27.5938 227.4 27.5938C228.592 27.5938 229.271 27.0938 229.439 26.0938L229.539 25.5078C229.523 25.4609 229.488 25.4453 229.434 25.4609C229.383 25.4766 229.311 25.5156 229.217 25.5781C228.744 25.9062 228.164 26.0703 227.477 26.0703C226.805 26.0703 226.283 25.8711 225.912 25.4727C225.545 25.0703 225.43 24.4531 225.566 23.6211L225.725 22.6016C225.971 21.0352 226.869 20.252 228.42 20.252C229.146 20.252 229.699 20.4551 230.078 20.8613C230.125 20.9238 230.18 20.959 230.242 20.9668C230.309 20.9707 230.354 20.9414 230.377 20.8789L230.465 20.5391C230.496 20.4609 230.559 20.4219 230.652 20.4219H231.133C231.203 20.4219 231.258 20.4512 231.297 20.5098C231.34 20.5684 231.357 20.6387 231.35 20.7207L230.5 26.0469C230.43 26.5195 230.301 26.918 230.113 27.2422C229.93 27.5664 229.697 27.8125 229.416 27.9805C229.139 28.1484 228.844 28.2656 228.531 28.332C228.219 28.4023 227.859 28.4375 227.453 28.4375ZM227.857 25.2207C228.635 25.2207 229.219 24.9688 229.609 24.4648C229.68 24.4102 229.729 24.3066 229.756 24.1543L230.066 22.1973C230.09 22.0762 230.074 21.9727 230.02 21.8867C229.898 21.6211 229.713 21.4238 229.463 21.2949C229.217 21.166 228.949 21.1016 228.66 21.1016C227.547 21.1016 226.904 21.6426 226.732 22.7246L226.598 23.5742C226.508 24.1406 226.586 24.5566 226.832 24.8223C227.082 25.0879 227.424 25.2207 227.857 25.2207ZM233.746 19.0508C233.34 19.0508 233.176 18.832 233.254 18.3945C233.344 17.9961 233.604 17.7949 234.033 17.791C234.416 17.791 234.58 17.9961 234.525 18.4062C234.455 18.8359 234.195 19.0508 233.746 19.0508ZM232.463 26C232.385 26 232.322 25.9727 232.275 25.918C232.232 25.8594 232.219 25.791 232.234 25.7129L233.049 20.6094C233.064 20.4805 233.137 20.418 233.266 20.4219H233.857C234.025 20.4219 234.098 20.5176 234.074 20.709L233.266 25.7949C233.242 25.9316 233.17 26 233.049 26H232.463ZM236.436 26.1699C235.932 26.1699 235.547 26.0508 235.281 25.8125C235.02 25.5703 234.893 25.2168 234.9 24.752C234.924 23.4941 235.713 22.8652 237.268 22.8652H238.996C239.074 22.8652 239.113 22.834 239.113 22.7715L239.16 22.4375C239.289 21.5586 238.877 21.1172 237.924 21.1133C237.213 21.1133 236.609 21.3184 236.113 21.7285C235.977 21.7988 235.873 21.7754 235.803 21.6582L235.621 21.3184C235.543 21.2129 235.559 21.1172 235.668 21.0312C236.316 20.5117 237.156 20.252 238.188 20.252C238.922 20.252 239.473 20.4219 239.84 20.7617C240.211 21.1016 240.332 21.6875 240.203 22.5195L239.688 25.7949C239.664 25.9316 239.592 26 239.471 26H238.996C238.926 26 238.867 25.9766 238.82 25.9297C238.777 25.8789 238.764 25.8223 238.779 25.7598L238.826 25.4727C238.85 25.3281 238.846 25.2559 238.814 25.2559C238.783 25.248 238.699 25.3047 238.562 25.4258C238 25.9219 237.291 26.1699 236.436 26.1699ZM236.846 25.3789C237.334 25.3789 237.787 25.2656 238.205 25.0391C238.627 24.8086 238.869 24.4805 238.932 24.0547L238.996 23.6211C239.004 23.5898 238.992 23.5625 238.961 23.5391C238.934 23.5156 238.904 23.5039 238.873 23.5039H237.227C236.801 23.5039 236.475 23.5957 236.248 23.7793C236.021 23.9629 235.908 24.2305 235.908 24.582C235.908 25.1133 236.221 25.3789 236.846 25.3789ZM247.633 20.252C248.359 20.252 248.92 20.4453 249.314 20.832C249.713 21.2148 249.844 21.8301 249.707 22.6777L249.543 23.7793C249.285 25.3809 248.32 26.1816 246.648 26.1816C245.887 26.1816 245.318 25.9688 244.943 25.543C244.799 25.3594 244.703 25.3828 244.656 25.6133L244.275 28.0859C244.26 28.207 244.191 28.2676 244.07 28.2676H243.479C243.4 28.2676 243.338 28.2402 243.291 28.1855C243.248 28.1348 243.23 28.0703 243.238 27.9922L244.416 20.6094C244.432 20.4805 244.504 20.418 244.633 20.4219H245.09C245.203 20.4219 245.275 20.4727 245.307 20.5742L245.254 20.9609C245.238 21.1133 245.295 21.1445 245.424 21.0547C245.463 21.0312 245.539 20.9668 245.652 20.8613C246.109 20.4551 246.77 20.252 247.633 20.252ZM248.676 22.7129C248.766 22.1465 248.67 21.7383 248.389 21.4883C248.107 21.2383 247.74 21.1133 247.287 21.1133C246.525 21.1133 245.896 21.3945 245.4 21.957C245.264 22.1406 245.18 22.3281 245.148 22.5195L244.92 23.9492C244.881 24.207 244.904 24.4141 244.99 24.5703C245.264 25.0664 245.752 25.3145 246.455 25.3145C246.975 25.3145 247.424 25.1855 247.803 24.9277C248.186 24.666 248.426 24.2363 248.523 23.6387L248.676 22.7129ZM252.01 26.1699C251.506 26.1699 251.121 26.0508 250.855 25.8125C250.594 25.5703 250.467 25.2168 250.475 24.752C250.498 23.4941 251.287 22.8652 252.842 22.8652H254.57C254.648 22.8652 254.688 22.834 254.688 22.7715L254.734 22.4375C254.863 21.5586 254.451 21.1172 253.498 21.1133C252.787 21.1133 252.184 21.3184 251.688 21.7285C251.551 21.7988 251.447 21.7754 251.377 21.6582L251.195 21.3184C251.117 21.2129 251.133 21.1172 251.242 21.0312C251.891 20.5117 252.73 20.252 253.762 20.252C254.496 20.252 255.047 20.4219 255.414 20.7617C255.785 21.1016 255.906 21.6875 255.777 22.5195L255.262 25.7949C255.238 25.9316 255.166 26 255.045 26H254.57C254.5 26 254.441 25.9766 254.395 25.9297C254.352 25.8789 254.338 25.8223 254.354 25.7598L254.4 25.4727C254.424 25.3281 254.42 25.2559 254.389 25.2559C254.357 25.248 254.273 25.3047 254.137 25.4258C253.574 25.9219 252.865 26.1699 252.01 26.1699ZM252.42 25.3789C252.908 25.3789 253.361 25.2656 253.779 25.0391C254.201 24.8086 254.443 24.4805 254.506 24.0547L254.57 23.6211C254.578 23.5898 254.566 23.5625 254.535 23.5391C254.508 23.5156 254.479 23.5039 254.447 23.5039H252.801C252.375 23.5039 252.049 23.5957 251.822 23.7793C251.596 23.9629 251.482 24.2305 251.482 24.582C251.482 25.1133 251.795 25.3789 252.42 25.3789ZM261.344 20.5156C261.48 20.5781 261.504 20.6816 261.414 20.8262L261.127 21.2949C261.064 21.4082 260.969 21.4375 260.84 21.3828C260.648 21.2383 260.396 21.166 260.084 21.166C259.533 21.166 259.053 21.4258 258.643 21.9453C258.537 22.0664 258.473 22.2012 258.449 22.3496L257.887 25.8184C257.871 25.9395 257.803 26 257.682 26H257.096C257.025 26 256.965 25.9746 256.914 25.9238C256.867 25.8691 256.848 25.8027 256.855 25.7246L257.67 20.6094C257.686 20.4805 257.758 20.418 257.887 20.4219H258.391C258.52 20.4219 258.592 20.4766 258.607 20.5859L258.572 20.8496C258.557 21.041 258.652 21.0332 258.859 20.8262C259.234 20.4434 259.723 20.252 260.324 20.252C260.715 20.252 261.055 20.3398 261.344 20.5156ZM263.025 26.1699C262.521 26.1699 262.137 26.0508 261.871 25.8125C261.609 25.5703 261.482 25.2168 261.49 24.752C261.514 23.4941 262.303 22.8652 263.857 22.8652H265.586C265.664 22.8652 265.703 22.834 265.703 22.7715L265.75 22.4375C265.879 21.5586 265.467 21.1172 264.514 21.1133C263.803 21.1133 263.199 21.3184 262.703 21.7285C262.566 21.7988 262.463 21.7754 262.393 21.6582L262.211 21.3184C262.133 21.2129 262.148 21.1172 262.258 21.0312C262.906 20.5117 263.746 20.252 264.777 20.252C265.512 20.252 266.062 20.4219 266.43 20.7617C266.801 21.1016 266.922 21.6875 266.793 22.5195L266.277 25.7949C266.254 25.9316 266.182 26 266.061 26H265.586C265.516 26 265.457 25.9766 265.41 25.9297C265.367 25.8789 265.354 25.8223 265.369 25.7598L265.416 25.4727C265.439 25.3281 265.436 25.2559 265.404 25.2559C265.373 25.248 265.289 25.3047 265.152 25.4258C264.59 25.9219 263.881 26.1699 263.025 26.1699ZM263.436 25.3789C263.924 25.3789 264.377 25.2656 264.795 25.0391C265.217 24.8086 265.459 24.4805 265.521 24.0547L265.586 23.6211C265.594 23.5898 265.582 23.5625 265.551 23.5391C265.523 23.5156 265.494 23.5039 265.463 23.5039H263.816C263.391 23.5039 263.064 23.5957 262.838 23.7793C262.611 23.9629 262.498 24.2305 262.498 24.582C262.498 25.1133 262.811 25.3789 263.436 25.3789ZM272.629 26.1699C271.781 26.1699 271.133 25.9727 270.684 25.5781C270.234 25.1797 270.082 24.5371 270.227 23.6504L270.373 22.7012C270.51 21.8301 270.859 21.2051 271.422 20.8262C271.984 20.4434 272.674 20.252 273.49 20.252C274.338 20.252 274.988 20.4512 275.441 20.8496C275.895 21.2441 276.049 21.8848 275.904 22.7715L275.758 23.7207C275.688 24.1777 275.553 24.5703 275.354 24.8984C275.158 25.2266 274.914 25.4805 274.621 25.6602C274.332 25.8398 274.023 25.9688 273.695 26.0469C273.367 26.1289 273.012 26.1699 272.629 26.1699ZM272.699 25.3027C273.203 25.3027 273.645 25.1758 274.023 24.9219C274.402 24.6641 274.641 24.2363 274.738 23.6387L274.873 22.7715C274.971 22.1699 274.877 21.7441 274.592 21.4941C274.307 21.2402 273.92 21.1133 273.432 21.1133C272.928 21.1133 272.486 21.2441 272.107 21.5059C271.732 21.7676 271.498 22.1934 271.404 22.7832L271.258 23.6621C271.168 24.2559 271.266 24.6777 271.551 24.9277C271.836 25.1777 272.219 25.3027 272.699 25.3027ZM278.887 26.1699C277.816 26.1699 277.088 25.873 276.701 25.2793C276.623 25.2012 276.619 25.1133 276.689 25.0156L276.906 24.6816C276.996 24.5527 277.107 24.5488 277.24 24.6699C277.545 25.1582 278.109 25.4023 278.934 25.4023C279.359 25.4023 279.719 25.3203 280.012 25.1562C280.309 24.9922 280.457 24.75 280.457 24.4297C280.457 23.9883 280.133 23.6992 279.484 23.5625L278.658 23.4336C277.674 23.2578 277.182 22.7578 277.182 21.9336C277.182 21.3672 277.412 20.9453 277.873 20.668C278.334 20.3906 278.924 20.252 279.643 20.252C280.588 20.252 281.271 20.5195 281.693 21.0547C281.807 21.1523 281.807 21.2559 281.693 21.3652L281.406 21.6816C281.316 21.7715 281.217 21.7754 281.107 21.6934C280.787 21.252 280.287 21.0312 279.607 21.0312C279.182 21.0312 278.834 21.1035 278.564 21.248C278.299 21.3926 278.166 21.5957 278.166 21.8574C278.166 22.2637 278.467 22.5332 279.068 22.666L279.941 22.8066C280.949 22.998 281.453 23.502 281.453 24.3184C281.453 24.9512 281.211 25.418 280.727 25.7188C280.242 26.0195 279.629 26.1699 278.887 26.1699ZM285.268 26C285.189 26 285.127 25.9746 285.08 25.9238C285.037 25.8691 285.02 25.8027 285.027 25.7246L285.842 20.6094C285.857 20.4805 285.93 20.418 286.059 20.4219H286.574C286.68 20.4219 286.74 20.4609 286.756 20.5391L286.732 20.9023C286.732 20.9492 286.74 20.9805 286.756 20.9961C286.771 21.0117 286.793 21.0137 286.82 21.002C286.848 20.9902 286.883 20.9727 286.926 20.9492C287.492 20.4844 288.184 20.252 289 20.252C289.609 20.252 290.082 20.4121 290.418 20.7324C290.754 21.0527 290.861 21.5957 290.74 22.3613L290.189 25.8184C290.174 25.9395 290.102 26 289.973 26H289.387C289.316 26 289.258 25.9746 289.211 25.9238C289.168 25.8691 289.15 25.8027 289.158 25.7246L289.662 22.5312C289.807 21.6289 289.434 21.1777 288.543 21.1777C287.926 21.1777 287.357 21.4043 286.838 21.8574C286.717 21.9551 286.65 22.0605 286.639 22.1738L286.059 25.8184C286.043 25.9395 285.975 26 285.854 26H285.268ZM294.174 26.1816C293.357 26.1816 292.738 25.9844 292.316 25.5898C291.898 25.1914 291.762 24.5527 291.906 23.6738L292.064 22.6426C292.162 22.0566 292.365 21.5781 292.674 21.207C292.986 20.8359 293.336 20.584 293.723 20.4512C294.113 20.3184 294.551 20.252 295.035 20.252C295.797 20.252 296.379 20.4453 296.781 20.832C297.188 21.2148 297.322 21.8418 297.186 22.7129L297.104 23.3984C297.088 23.5273 297.016 23.5898 296.887 23.5859H293.084C293.014 23.5859 292.977 23.6191 292.973 23.6855L292.938 23.9141C292.859 24.4102 292.957 24.7676 293.23 24.9863C293.508 25.2051 293.879 25.3145 294.344 25.3145C295.098 25.3145 295.693 25.1113 296.131 24.7051C296.244 24.627 296.34 24.6387 296.418 24.7402L296.67 25.0742C296.76 25.1953 296.752 25.3008 296.646 25.3906C296.061 25.918 295.236 26.1816 294.174 26.1816ZM293.201 22.9297H296.107C296.178 22.9297 296.213 22.8926 296.213 22.8184L296.236 22.543C296.342 21.5742 295.918 21.0898 294.965 21.0898C294.516 21.0898 294.121 21.2031 293.781 21.4297C293.441 21.6523 293.225 22.0234 293.131 22.543L293.084 22.7832C293.076 22.8145 293.084 22.8477 293.107 22.8828C293.131 22.9141 293.162 22.9297 293.201 22.9297ZM300.051 28.4375C299.074 28.4375 298.357 28.2012 297.9 27.7285C297.795 27.6504 297.779 27.5547 297.854 27.4414L298.07 27.0547C298.148 26.9258 298.26 26.9141 298.404 27.0195C298.756 27.4023 299.287 27.5938 299.998 27.5938C301.189 27.5938 301.869 27.0938 302.037 26.0938L302.137 25.5078C302.121 25.4609 302.086 25.4453 302.031 25.4609C301.98 25.4766 301.908 25.5156 301.814 25.5781C301.342 25.9062 300.762 26.0703 300.074 26.0703C299.402 26.0703 298.881 25.8711 298.51 25.4727C298.143 25.0703 298.027 24.4531 298.164 23.6211L298.322 22.6016C298.568 21.0352 299.467 20.252 301.018 20.252C301.744 20.252 302.297 20.4551 302.676 20.8613C302.723 20.9238 302.777 20.959 302.84 20.9668C302.906 20.9707 302.951 20.9414 302.975 20.8789L303.062 20.5391C303.094 20.4609 303.156 20.4219 303.25 20.4219H303.73C303.801 20.4219 303.855 20.4512 303.895 20.5098C303.938 20.5684 303.955 20.6387 303.947 20.7207L303.098 26.0469C303.027 26.5195 302.898 26.918 302.711 27.2422C302.527 27.5664 302.295 27.8125 302.014 27.9805C301.736 28.1484 301.441 28.2656 301.129 28.332C300.816 28.4023 300.457 28.4375 300.051 28.4375ZM300.455 25.2207C301.232 25.2207 301.816 24.9688 302.207 24.4648C302.277 24.4102 302.326 24.3066 302.354 24.1543L302.664 22.1973C302.688 22.0762 302.672 21.9727 302.617 21.8867C302.496 21.6211 302.311 21.4238 302.061 21.2949C301.814 21.166 301.547 21.1016 301.258 21.1016C300.145 21.1016 299.502 21.6426 299.33 22.7246L299.195 23.5742C299.105 24.1406 299.184 24.5566 299.43 24.8223C299.68 25.0879 300.021 25.2207 300.455 25.2207ZM309.754 17.6094C309.809 17.6562 309.838 17.7148 309.842 17.7852C309.846 17.8555 309.82 17.9141 309.766 17.9609L308.172 19.6309C308.082 19.7207 307.992 19.7285 307.902 19.6543L307.773 19.543C307.66 19.4648 307.648 19.3652 307.738 19.2441L309.162 17.4219C309.252 17.293 309.361 17.2812 309.49 17.3867L309.754 17.6094ZM307.188 26.1699C306.34 26.1699 305.691 25.9727 305.242 25.5781C304.793 25.1797 304.641 24.5371 304.785 23.6504L304.932 22.7012C305.068 21.8301 305.418 21.2051 305.98 20.8262C306.543 20.4434 307.232 20.252 308.049 20.252C308.896 20.252 309.547 20.4512 310 20.8496C310.453 21.2441 310.607 21.8848 310.463 22.7715L310.316 23.7207C310.246 24.1777 310.111 24.5703 309.912 24.8984C309.717 25.2266 309.473 25.4805 309.18 25.6602C308.891 25.8398 308.582 25.9688 308.254 26.0469C307.926 26.1289 307.57 26.1699 307.188 26.1699ZM307.258 25.3027C307.762 25.3027 308.203 25.1758 308.582 24.9219C308.961 24.6641 309.199 24.2363 309.297 23.6387L309.432 22.7715C309.529 22.1699 309.436 21.7441 309.15 21.4941C308.865 21.2402 308.479 21.1133 307.99 21.1133C307.486 21.1133 307.045 21.2441 306.666 21.5059C306.291 21.7676 306.057 22.1934 305.963 22.7832L305.816 23.6621C305.727 24.2559 305.824 24.6777 306.109 24.9277C306.395 25.1777 306.777 25.3027 307.258 25.3027ZM316.275 24.752C316.396 24.8418 316.412 24.9453 316.322 25.0625C315.756 25.7969 314.873 26.166 313.674 26.1699C311.947 26.1699 311.211 25.3047 311.465 23.5742L311.611 22.666C311.877 21.0566 312.896 20.252 314.67 20.252C315.768 20.252 316.492 20.6289 316.844 21.3828C316.906 21.5195 316.873 21.6191 316.744 21.6816L316.311 21.9219C316.205 21.9688 316.109 21.9355 316.023 21.8223C315.777 21.3496 315.311 21.1133 314.623 21.1133C313.463 21.1133 312.795 21.6816 312.619 22.8184L312.484 23.5977C312.395 24.207 312.486 24.6445 312.76 24.9102C313.033 25.1719 313.41 25.3027 313.891 25.3027C314.645 25.3027 315.229 25.0508 315.643 24.5469C315.756 24.4336 315.859 24.418 315.953 24.5L316.275 24.752ZM319.152 19.0508C318.746 19.0508 318.582 18.832 318.66 18.3945C318.75 17.9961 319.01 17.7949 319.439 17.791C319.822 17.791 319.986 17.9961 319.932 18.4062C319.861 18.8359 319.602 19.0508 319.152 19.0508ZM317.869 26C317.791 26 317.729 25.9727 317.682 25.918C317.639 25.8594 317.625 25.791 317.641 25.7129L318.455 20.6094C318.471 20.4805 318.543 20.418 318.672 20.4219H319.264C319.432 20.4219 319.504 20.5176 319.48 20.709L318.672 25.7949C318.648 25.9316 318.576 26 318.455 26H317.869ZM322.914 26.1699C322.066 26.1699 321.418 25.9727 320.969 25.5781C320.52 25.1797 320.367 24.5371 320.512 23.6504L320.658 22.7012C320.795 21.8301 321.145 21.2051 321.707 20.8262C322.27 20.4434 322.959 20.252 323.775 20.252C324.623 20.252 325.273 20.4512 325.727 20.8496C326.18 21.2441 326.334 21.8848 326.189 22.7715L326.043 23.7207C325.973 24.1777 325.838 24.5703 325.639 24.8984C325.443 25.2266 325.199 25.4805 324.906 25.6602C324.617 25.8398 324.309 25.9688 323.98 26.0469C323.652 26.1289 323.297 26.1699 322.914 26.1699ZM322.984 25.3027C323.488 25.3027 323.93 25.1758 324.309 24.9219C324.688 24.6641 324.926 24.2363 325.023 23.6387L325.158 22.7715C325.256 22.1699 325.162 21.7441 324.877 21.4941C324.592 21.2402 324.205 21.1133 323.717 21.1133C323.213 21.1133 322.771 21.2441 322.393 21.5059C322.018 21.7676 321.783 22.1934 321.689 22.7832L321.543 23.6621C321.453 24.2559 321.551 24.6777 321.836 24.9277C322.121 25.1777 322.504 25.3027 322.984 25.3027ZM329.172 26.1699C328.102 26.1699 327.373 25.873 326.986 25.2793C326.908 25.2012 326.904 25.1133 326.975 25.0156L327.191 24.6816C327.281 24.5527 327.393 24.5488 327.525 24.6699C327.83 25.1582 328.395 25.4023 329.219 25.4023C329.645 25.4023 330.004 25.3203 330.297 25.1562C330.594 24.9922 330.742 24.75 330.742 24.4297C330.742 23.9883 330.418 23.6992 329.77 23.5625L328.943 23.4336C327.959 23.2578 327.467 22.7578 327.467 21.9336C327.467 21.3672 327.697 20.9453 328.158 20.668C328.619 20.3906 329.209 20.252 329.928 20.252C330.873 20.252 331.557 20.5195 331.979 21.0547C332.092 21.1523 332.092 21.2559 331.979 21.3652L331.691 21.6816C331.602 21.7715 331.502 21.7754 331.393 21.6934C331.072 21.252 330.572 21.0312 329.893 21.0312C329.467 21.0312 329.119 21.1035 328.85 21.248C328.584 21.3926 328.451 21.5957 328.451 21.8574C328.451 22.2637 328.752 22.5332 329.354 22.666L330.227 22.8066C331.234 22.998 331.738 23.502 331.738 24.3184C331.738 24.9512 331.496 25.418 331.012 25.7188C330.527 26.0195 329.914 26.1699 329.172 26.1699ZM186.602 40.1699C185.848 40.1699 185.277 39.9629 184.891 39.5488C184.504 39.1309 184.371 38.5059 184.492 37.6738L184.65 36.666C184.779 35.8105 185.105 35.1953 185.629 34.8203C186.152 34.4414 186.785 34.252 187.527 34.252C188.312 34.252 188.896 34.4688 189.279 34.9023C189.311 34.9414 189.346 34.9648 189.385 34.9727C189.428 34.9805 189.467 34.9746 189.502 34.9551C189.537 34.9355 189.559 34.8965 189.566 34.8379L190.117 31.3105C190.141 31.1738 190.213 31.1055 190.334 31.1055H190.926C190.996 31.1055 191.053 31.1348 191.096 31.1934C191.143 31.248 191.162 31.3164 191.154 31.3984L189.818 39.8184C189.803 39.9395 189.734 40 189.613 40H189.186C189.131 40 189.08 39.9824 189.033 39.9473C188.99 39.9121 188.969 39.8652 188.969 39.8066L188.992 39.5078C189 39.418 188.996 39.3535 188.98 39.3145C188.965 39.2754 188.936 39.2617 188.893 39.2734C188.854 39.2852 188.818 39.3008 188.787 39.3203C188.756 39.3398 188.721 39.3672 188.682 39.4023C188.088 39.9141 187.395 40.1699 186.602 40.1699ZM187.012 39.3027C187.852 39.3027 188.492 38.9902 188.934 38.3652C189.012 38.252 189.062 38.1172 189.086 37.9609L189.326 36.4141C189.35 36.2695 189.334 36.125 189.279 35.9805C189.201 35.6758 189.006 35.4551 188.693 35.3184C188.381 35.1816 188.033 35.1133 187.65 35.1133C187.162 35.1133 186.73 35.2441 186.355 35.5059C185.984 35.7676 185.756 36.1855 185.67 36.7598L185.535 37.5977C185.457 38.1914 185.559 38.625 185.84 38.8984C186.125 39.168 186.516 39.3027 187.012 39.3027ZM193.129 33.0508C192.723 33.0508 192.559 32.832 192.637 32.3945C192.727 31.9961 192.986 31.7949 193.416 31.791C193.799 31.791 193.963 31.9961 193.908 32.4062C193.838 32.8359 193.578 33.0508 193.129 33.0508ZM191.846 40C191.768 40 191.705 39.9727 191.658 39.918C191.615 39.8594 191.602 39.791 191.617 39.7129L192.432 34.6094C192.447 34.4805 192.52 34.418 192.648 34.4219H193.24C193.408 34.4219 193.48 34.5176 193.457 34.709L192.648 39.7949C192.625 39.9316 192.553 40 192.432 40H191.846ZM196.375 42.4375C195.398 42.4375 194.682 42.2012 194.225 41.7285C194.119 41.6504 194.104 41.5547 194.178 41.4414L194.395 41.0547C194.473 40.9258 194.584 40.9141 194.729 41.0195C195.08 41.4023 195.611 41.5938 196.322 41.5938C197.514 41.5938 198.193 41.0938 198.361 40.0938L198.461 39.5078C198.445 39.4609 198.41 39.4453 198.355 39.4609C198.305 39.4766 198.232 39.5156 198.139 39.5781C197.666 39.9062 197.086 40.0703 196.398 40.0703C195.727 40.0703 195.205 39.8711 194.834 39.4727C194.467 39.0703 194.352 38.4531 194.488 37.6211L194.646 36.6016C194.893 35.0352 195.791 34.252 197.342 34.252C198.068 34.252 198.621 34.4551 199 34.8613C199.047 34.9238 199.102 34.959 199.164 34.9668C199.23 34.9707 199.275 34.9414 199.299 34.8789L199.387 34.5391C199.418 34.4609 199.48 34.4219 199.574 34.4219H200.055C200.125 34.4219 200.18 34.4512 200.219 34.5098C200.262 34.5684 200.279 34.6387 200.271 34.7207L199.422 40.0469C199.352 40.5195 199.223 40.918 199.035 41.2422C198.852 41.5664 198.619 41.8125 198.338 41.9805C198.061 42.1484 197.766 42.2656 197.453 42.332C197.141 42.4023 196.781 42.4375 196.375 42.4375ZM196.779 39.2207C197.557 39.2207 198.141 38.9688 198.531 38.4648C198.602 38.4102 198.65 38.3066 198.678 38.1543L198.988 36.1973C199.012 36.0762 198.996 35.9727 198.941 35.8867C198.82 35.6211 198.635 35.4238 198.385 35.2949C198.139 35.166 197.871 35.1016 197.582 35.1016C196.469 35.1016 195.826 35.6426 195.654 36.7246L195.52 37.5742C195.43 38.1406 195.508 38.5566 195.754 38.8223C196.004 39.0879 196.346 39.2207 196.779 39.2207ZM202.668 33.0508C202.262 33.0508 202.098 32.832 202.176 32.3945C202.266 31.9961 202.525 31.7949 202.955 31.791C203.338 31.791 203.502 31.9961 203.447 32.4062C203.377 32.8359 203.117 33.0508 202.668 33.0508ZM201.385 40C201.307 40 201.244 39.9727 201.197 39.918C201.154 39.8594 201.141 39.791 201.156 39.7129L201.971 34.6094C201.986 34.4805 202.059 34.418 202.188 34.4219H202.779C202.947 34.4219 203.02 34.5176 202.996 34.709L202.188 39.7949C202.164 39.9316 202.092 40 201.971 40H201.385ZM208.697 34.4219C208.775 34.4219 208.836 34.4473 208.879 34.498C208.926 34.5488 208.941 34.6152 208.926 34.6973L208.873 35.0664C208.85 35.1875 208.777 35.248 208.656 35.248H206.189C206.135 35.248 206.098 35.2793 206.078 35.3418L205.686 37.8789C205.533 38.8164 205.865 39.2832 206.682 39.2793C207.201 39.2793 207.688 39.1641 208.141 38.9336C208.293 38.8633 208.398 38.9023 208.457 39.0508L208.586 39.4609C208.641 39.5898 208.625 39.6738 208.539 39.7129C207.93 40.0176 207.217 40.1699 206.4 40.1699C204.975 40.1699 204.387 39.418 204.637 37.9141L205.035 35.3828C205.043 35.3516 205.035 35.3223 205.012 35.2949C204.988 35.2637 204.957 35.248 204.918 35.248H204.508C204.332 35.248 204.256 35.1602 204.279 34.9844L204.338 34.6094C204.354 34.4805 204.422 34.418 204.543 34.4219H205.094C205.148 34.4219 205.186 34.3926 205.205 34.334L205.357 33.2676C205.373 33.1387 205.445 33.0742 205.574 33.0742H206.166C206.236 33.0742 206.295 33.1035 206.342 33.1621C206.393 33.2168 206.408 33.2793 206.389 33.3496L206.248 34.2871C206.232 34.377 206.271 34.4219 206.365 34.4219H208.697ZM210.842 40.1699C210.338 40.1699 209.953 40.0508 209.688 39.8125C209.426 39.5703 209.299 39.2168 209.307 38.752C209.33 37.4941 210.119 36.8652 211.674 36.8652H213.402C213.48 36.8652 213.52 36.834 213.52 36.7715L213.566 36.4375C213.695 35.5586 213.283 35.1172 212.33 35.1133C211.619 35.1133 211.016 35.3184 210.52 35.7285C210.383 35.7988 210.279 35.7754 210.209 35.6582L210.027 35.3184C209.949 35.2129 209.965 35.1172 210.074 35.0312C210.723 34.5117 211.562 34.252 212.594 34.252C213.328 34.252 213.879 34.4219 214.246 34.7617C214.617 35.1016 214.738 35.6875 214.609 36.5195L214.094 39.7949C214.07 39.9316 213.998 40 213.877 40H213.402C213.332 40 213.273 39.9766 213.227 39.9297C213.184 39.8789 213.17 39.8223 213.186 39.7598L213.232 39.4727C213.256 39.3281 213.252 39.2559 213.221 39.2559C213.189 39.248 213.105 39.3047 212.969 39.4258C212.406 39.9219 211.697 40.1699 210.842 40.1699ZM211.252 39.3789C211.74 39.3789 212.193 39.2656 212.611 39.0391C213.033 38.8086 213.275 38.4805 213.338 38.0547L213.402 37.6211C213.41 37.5898 213.398 37.5625 213.367 37.5391C213.34 37.5156 213.311 37.5039 213.279 37.5039H211.633C211.207 37.5039 210.881 37.5957 210.654 37.7793C210.428 37.9629 210.314 38.2305 210.314 38.582C210.314 39.1133 210.627 39.3789 211.252 39.3789ZM217.211 33.0508C216.805 33.0508 216.641 32.832 216.719 32.3945C216.809 31.9961 217.068 31.7949 217.498 31.791C217.881 31.791 218.045 31.9961 217.99 32.4062C217.92 32.8359 217.66 33.0508 217.211 33.0508ZM215.928 40C215.85 40 215.787 39.9727 215.74 39.918C215.697 39.8594 215.684 39.791 215.699 39.7129L216.514 34.6094C216.529 34.4805 216.602 34.418 216.73 34.4219H217.322C217.49 34.4219 217.562 34.5176 217.539 34.709L216.73 39.7949C216.707 39.9316 216.635 40 216.514 40H215.928ZM220.562 40.1699C219.492 40.1699 218.764 39.873 218.377 39.2793C218.299 39.2012 218.295 39.1133 218.365 39.0156L218.582 38.6816C218.672 38.5527 218.783 38.5488 218.916 38.6699C219.221 39.1582 219.785 39.4023 220.609 39.4023C221.035 39.4023 221.395 39.3203 221.688 39.1562C221.984 38.9922 222.133 38.75 222.133 38.4297C222.133 37.9883 221.809 37.6992 221.16 37.5625L220.334 37.4336C219.35 37.2578 218.857 36.7578 218.857 35.9336C218.857 35.3672 219.088 34.9453 219.549 34.668C220.01 34.3906 220.6 34.252 221.318 34.252C222.264 34.252 222.947 34.5195 223.369 35.0547C223.482 35.1523 223.482 35.2559 223.369 35.3652L223.082 35.6816C222.992 35.7715 222.893 35.7754 222.783 35.6934C222.463 35.252 221.963 35.0312 221.283 35.0312C220.857 35.0312 220.51 35.1035 220.24 35.248C219.975 35.3926 219.842 35.5957 219.842 35.8574C219.842 36.2637 220.143 36.5332 220.744 36.666L221.617 36.8066C222.625 36.998 223.129 37.502 223.129 38.3184C223.129 38.9512 222.887 39.418 222.402 39.7188C221.918 40.0195 221.305 40.1699 220.562 40.1699ZM228.777 40.1699C228.023 40.1699 227.453 39.9629 227.066 39.5488C226.68 39.1309 226.547 38.5059 226.668 37.6738L226.826 36.666C226.955 35.8105 227.281 35.1953 227.805 34.8203C228.328 34.4414 228.961 34.252 229.703 34.252C230.488 34.252 231.072 34.4688 231.455 34.9023C231.486 34.9414 231.521 34.9648 231.561 34.9727C231.604 34.9805 231.643 34.9746 231.678 34.9551C231.713 34.9355 231.734 34.8965 231.742 34.8379L232.293 31.3105C232.316 31.1738 232.389 31.1055 232.51 31.1055H233.102C233.172 31.1055 233.229 31.1348 233.271 31.1934C233.318 31.248 233.338 31.3164 233.33 31.3984L231.994 39.8184C231.979 39.9395 231.91 40 231.789 40H231.361C231.307 40 231.256 39.9824 231.209 39.9473C231.166 39.9121 231.145 39.8652 231.145 39.8066L231.168 39.5078C231.176 39.418 231.172 39.3535 231.156 39.3145C231.141 39.2754 231.111 39.2617 231.068 39.2734C231.029 39.2852 230.994 39.3008 230.963 39.3203C230.932 39.3398 230.896 39.3672 230.857 39.4023C230.264 39.9141 229.57 40.1699 228.777 40.1699ZM229.188 39.3027C230.027 39.3027 230.668 38.9902 231.109 38.3652C231.188 38.252 231.238 38.1172 231.262 37.9609L231.502 36.4141C231.525 36.2695 231.51 36.125 231.455 35.9805C231.377 35.6758 231.182 35.4551 230.869 35.3184C230.557 35.1816 230.209 35.1133 229.826 35.1133C229.338 35.1133 228.906 35.2441 228.531 35.5059C228.16 35.7676 227.932 36.1855 227.846 36.7598L227.711 37.5977C227.633 38.1914 227.734 38.625 228.016 38.8984C228.301 39.168 228.691 39.3027 229.188 39.3027ZM236.148 40.1699C235.301 40.1699 234.652 39.9727 234.203 39.5781C233.754 39.1797 233.602 38.5371 233.746 37.6504L233.893 36.7012C234.029 35.8301 234.379 35.2051 234.941 34.8262C235.504 34.4434 236.193 34.252 237.01 34.252C237.857 34.252 238.508 34.4512 238.961 34.8496C239.414 35.2441 239.568 35.8848 239.424 36.7715L239.277 37.7207C239.207 38.1777 239.072 38.5703 238.873 38.8984C238.678 39.2266 238.434 39.4805 238.141 39.6602C237.852 39.8398 237.543 39.9688 237.215 40.0469C236.887 40.1289 236.531 40.1699 236.148 40.1699ZM236.219 39.3027C236.723 39.3027 237.164 39.1758 237.543 38.9219C237.922 38.6641 238.16 38.2363 238.258 37.6387L238.393 36.7715C238.49 36.1699 238.396 35.7441 238.111 35.4941C237.826 35.2402 237.439 35.1133 236.951 35.1133C236.447 35.1133 236.006 35.2441 235.627 35.5059C235.252 35.7676 235.018 36.1934 234.924 36.7832L234.777 37.6621C234.688 38.2559 234.785 38.6777 235.07 38.9277C235.355 39.1777 235.738 39.3027 236.219 39.3027ZM248.529 31.3691C248.65 31.4473 248.67 31.5527 248.588 31.6855L248.324 32.0898C248.254 32.2031 248.154 32.2246 248.025 32.1543C247.643 31.9395 247.211 31.8301 246.73 31.8262C246.324 31.8262 245.992 31.9414 245.734 32.1719C245.477 32.3984 245.305 32.791 245.219 33.3496L245.061 34.2871C245.053 34.3184 245.061 34.3496 245.084 34.3809C245.107 34.4082 245.139 34.4219 245.178 34.4219H246.947C247.025 34.4219 247.086 34.4473 247.129 34.498C247.176 34.5488 247.189 34.6152 247.17 34.6973L247.111 35.0664C247.096 35.1797 247.027 35.2363 246.906 35.2363H245.014C244.943 35.2363 244.906 35.2676 244.902 35.3301L244.199 39.8184C244.184 39.9395 244.111 40 243.982 40H243.402C243.324 40 243.262 39.9746 243.215 39.9238C243.172 39.8691 243.154 39.8027 243.162 39.7246L243.859 35.3828C243.875 35.2852 243.84 35.2363 243.754 35.2363H243.367C243.297 35.2363 243.24 35.2109 243.197 35.1602C243.158 35.1055 243.146 35.043 243.162 34.9727L243.227 34.6094C243.242 34.4805 243.314 34.418 243.443 34.4219H243.918C243.973 34.4219 244.01 34.3926 244.029 34.334L244.182 33.2793C244.326 32.4004 244.611 31.793 245.037 31.457C245.467 31.1211 246.02 30.9531 246.695 30.9531C247.422 30.9492 248.033 31.0879 248.529 31.3691ZM253.24 34.4219C253.311 34.4219 253.369 34.4492 253.416 34.5039C253.467 34.5586 253.484 34.623 253.469 34.6973L252.648 39.8184C252.625 39.9395 252.553 40 252.432 40H251.928C251.807 40 251.744 39.9512 251.74 39.8535L251.764 39.5898C251.771 39.5352 251.77 39.4941 251.758 39.4668C251.746 39.4395 251.727 39.4277 251.699 39.4316C251.676 39.4355 251.652 39.4434 251.629 39.4551C251.605 39.4668 251.582 39.4844 251.559 39.5078C250.949 39.9492 250.262 40.1699 249.496 40.1699C248.91 40.1699 248.455 40.0039 248.131 39.6719C247.807 39.3398 247.701 38.8125 247.814 38.0898L248.365 34.6211C248.381 34.4844 248.453 34.418 248.582 34.4219H249.168C249.238 34.4219 249.295 34.4492 249.338 34.5039C249.385 34.5586 249.4 34.627 249.385 34.709L248.893 37.8789C248.748 38.7891 249.113 39.2441 249.988 39.2441C250.598 39.2441 251.148 39.0273 251.641 38.5938C251.762 38.4883 251.838 38.3418 251.869 38.1543L252.432 34.6094C252.463 34.4805 252.535 34.418 252.648 34.4219H253.24ZM259.111 34.4219C259.189 34.4219 259.25 34.4473 259.293 34.498C259.34 34.5488 259.355 34.6152 259.34 34.6973L259.287 35.0664C259.264 35.1875 259.191 35.248 259.07 35.248H256.604C256.549 35.248 256.512 35.2793 256.492 35.3418L256.1 37.8789C255.947 38.8164 256.279 39.2832 257.096 39.2793C257.615 39.2793 258.102 39.1641 258.555 38.9336C258.707 38.8633 258.812 38.9023 258.871 39.0508L259 39.4609C259.055 39.5898 259.039 39.6738 258.953 39.7129C258.344 40.0176 257.631 40.1699 256.814 40.1699C255.389 40.1699 254.801 39.418 255.051 37.9141L255.449 35.3828C255.457 35.3516 255.449 35.3223 255.426 35.2949C255.402 35.2637 255.371 35.248 255.332 35.248H254.922C254.746 35.248 254.67 35.1602 254.693 34.9844L254.752 34.6094C254.768 34.4805 254.836 34.418 254.957 34.4219H255.508C255.562 34.4219 255.6 34.3926 255.619 34.334L255.771 33.2676C255.787 33.1387 255.859 33.0742 255.988 33.0742H256.58C256.65 33.0742 256.709 33.1035 256.756 33.1621C256.807 33.2168 256.822 33.2793 256.803 33.3496L256.662 34.2871C256.646 34.377 256.686 34.4219 256.779 34.4219H259.111ZM265.604 34.4219C265.674 34.4219 265.732 34.4492 265.779 34.5039C265.83 34.5586 265.848 34.623 265.832 34.6973L265.012 39.8184C264.988 39.9395 264.916 40 264.795 40H264.291C264.17 40 264.107 39.9512 264.104 39.8535L264.127 39.5898C264.135 39.5352 264.133 39.4941 264.121 39.4668C264.109 39.4395 264.09 39.4277 264.062 39.4316C264.039 39.4355 264.016 39.4434 263.992 39.4551C263.969 39.4668 263.945 39.4844 263.922 39.5078C263.312 39.9492 262.625 40.1699 261.859 40.1699C261.273 40.1699 260.818 40.0039 260.494 39.6719C260.17 39.3398 260.064 38.8125 260.178 38.0898L260.729 34.6211C260.744 34.4844 260.816 34.418 260.945 34.4219H261.531C261.602 34.4219 261.658 34.4492 261.701 34.5039C261.748 34.5586 261.764 34.627 261.748 34.709L261.256 37.8789C261.111 38.7891 261.477 39.2441 262.352 39.2441C262.961 39.2441 263.512 39.0273 264.004 38.5938C264.125 38.4883 264.201 38.3418 264.232 38.1543L264.795 34.6094C264.826 34.4805 264.898 34.418 265.012 34.4219H265.604ZM271.328 34.5156C271.465 34.5781 271.488 34.6816 271.398 34.8262L271.111 35.2949C271.049 35.4082 270.953 35.4375 270.824 35.3828C270.633 35.2383 270.381 35.166 270.068 35.166C269.518 35.166 269.037 35.4258 268.627 35.9453C268.521 36.0664 268.457 36.2012 268.434 36.3496L267.871 39.8184C267.855 39.9395 267.787 40 267.666 40H267.08C267.01 40 266.949 39.9746 266.898 39.9238C266.852 39.8691 266.832 39.8027 266.84 39.7246L267.654 34.6094C267.67 34.4805 267.742 34.418 267.871 34.4219H268.375C268.504 34.4219 268.576 34.4766 268.592 34.5859L268.557 34.8496C268.541 35.041 268.637 35.0332 268.844 34.8262C269.219 34.4434 269.707 34.252 270.309 34.252C270.699 34.252 271.039 34.3398 271.328 34.5156ZM273.848 40.1699C273 40.1699 272.352 39.9727 271.902 39.5781C271.453 39.1797 271.301 38.5371 271.445 37.6504L271.592 36.7012C271.729 35.8301 272.078 35.2051 272.641 34.8262C273.203 34.4434 273.893 34.252 274.709 34.252C275.557 34.252 276.207 34.4512 276.66 34.8496C277.113 35.2441 277.268 35.8848 277.123 36.7715L276.977 37.7207C276.906 38.1777 276.771 38.5703 276.572 38.8984C276.377 39.2266 276.133 39.4805 275.84 39.6602C275.551 39.8398 275.242 39.9688 274.914 40.0469C274.586 40.1289 274.23 40.1699 273.848 40.1699ZM273.918 39.3027C274.422 39.3027 274.863 39.1758 275.242 38.9219C275.621 38.6641 275.859 38.2363 275.957 37.6387L276.092 36.7715C276.189 36.1699 276.096 35.7441 275.811 35.4941C275.525 35.2402 275.139 35.1133 274.65 35.1133C274.146 35.1133 273.705 35.2441 273.326 35.5059C272.951 35.7676 272.717 36.1934 272.623 36.7832L272.477 37.6621C272.387 38.2559 272.484 38.6777 272.77 38.9277C273.055 39.1777 273.438 39.3027 273.918 39.3027Z" fill="white"/>
</svg>
