<svg width="161" height="52" viewBox="0 0 161 52" fill="none" xmlns="http://www.w3.org/2000/svg">
<path d="M65.2436 13.7762C61.2271 13.6238 57.2417 14.5354 53.6914 16.4185C51.7232 17.4856 50.0134 18.9715 48.6826 20.7711C47.3519 22.5708 46.4327 24.6404 45.9899 26.8339L45.5663 28.7066C44.6036 32.7086 45.0272 35.9025 46.8499 38.1985C49.2245 41.2641 52.9469 42.5724 59.3006 42.5724C70.4036 42.5724 76.6161 38.4807 78.7212 29.5019L79.1319 27.6291C80.0818 23.7811 79.6454 20.5872 77.8484 18.2784C75.4481 15.1615 71.5973 13.7762 65.2436 13.7762ZM70.4678 27.2443L70.1469 28.527C69.043 32.7984 65.7827 34.8635 60.1734 34.8635C56.8105 34.8635 55.5782 34.1452 54.654 32.9651C54.2874 32.4021 54.0531 31.7634 53.9686 31.097C53.8842 30.4306 53.9517 29.7537 54.1663 29.1171L54.4872 27.8344C55.6167 23.4219 58.5946 21.5364 64.4093 21.5364C67.8621 21.5364 69.0815 22.229 70.0185 23.4348C70.3746 23.9954 70.5999 24.6289 70.6777 25.2884C70.7554 25.9479 70.6837 26.6164 70.4678 27.2443Z" fill="#FF7300"/>
<path d="M104.97 13.7762C100.954 13.6238 96.9683 14.5354 93.418 16.4185C91.4498 17.4856 89.74 18.9715 88.4093 20.7711C87.0786 22.5708 86.1594 24.6404 85.7165 26.8339L85.293 28.7066C84.3303 32.7086 84.741 35.9025 86.5765 38.1985C88.9512 41.2641 92.6736 42.5724 99.0273 42.5724C110.105 42.5724 116.356 38.4807 118.461 29.5019L118.871 27.6291C119.821 23.7811 119.385 20.5872 117.588 18.2784C115.239 15.1615 111.298 13.7762 104.97 13.7762ZM110.194 27.2443L109.874 28.527C108.77 32.7984 105.509 34.8635 99.9001 34.8635C96.5371 34.8635 95.2921 34.1452 94.3807 32.9651C94.0141 32.4021 93.7798 31.7634 93.6953 31.097C93.6108 30.4306 93.6784 29.7537 93.893 29.1171L94.2138 27.8344C95.3434 23.4219 98.3085 21.5364 104.136 21.5364C107.589 21.5364 108.808 22.229 109.745 23.4348C110.103 23.9944 110.331 24.6274 110.411 25.2869C110.491 25.9464 110.421 26.6154 110.207 27.2443H110.194Z" fill="#FF7300"/>
<path d="M158.765 17.9577C156.634 15.2384 153.361 13.8018 147.944 13.8018C142.528 13.8018 139.357 14.7894 136.007 17.2265L136.341 15.8156C136.378 15.6793 136.383 15.536 136.354 15.3977C136.325 15.2593 136.263 15.1299 136.174 15.0203C136.086 14.9068 135.973 14.8152 135.844 14.7529C135.715 14.6906 135.573 14.6592 135.429 14.6612H129.666C129.368 14.6545 129.076 14.7521 128.842 14.937C128.608 15.122 128.445 15.3828 128.382 15.6745L120.129 50.3711C120.08 50.5662 120.078 50.77 120.123 50.966C120.167 51.1621 120.257 51.345 120.386 51.4998C120.507 51.6568 120.662 51.7836 120.84 51.8704C121.019 51.9572 121.214 52.0016 121.413 52.0001H127.51C127.808 52.0067 128.1 51.9092 128.334 51.7242C128.568 51.5393 128.731 51.2785 128.793 50.9868L131.489 39.6222C133.966 41.7771 136.7 42.5724 141.501 42.5724C152.103 42.5724 157.776 38.0958 159.792 29.2324L160.138 27.6291C161.075 23.5502 160.613 20.2921 158.765 17.9577ZM151.474 27.116L151.179 28.4372C149.805 34.0425 144.158 34.8506 140.474 34.8506C134.248 34.8506 133.876 32.6187 133.594 30.823L134.492 26.6799C136.276 23.1782 139.793 21.4722 145.223 21.4722C148.599 21.4722 150.101 22.1135 151.076 23.3962C151.422 23.9401 151.638 24.5562 151.707 25.1969C151.776 25.8375 151.696 26.4854 151.474 27.0904V27.116Z" fill="#FF7300"/>
<path d="M38.9432 33.2217H3.77307C3.47419 33.2351 3.18768 33.3448 2.95633 33.5344C2.72498 33.7239 2.56122 33.9832 2.48949 34.2735L1.00054 40.084C0.95235 40.2874 0.950397 40.499 0.994823 40.7032C1.03925 40.9074 1.12893 41.0991 1.25726 41.2641C1.38743 41.4286 1.55326 41.5614 1.74225 41.6525C1.93125 41.7436 2.13847 41.7906 2.3483 41.79H37.5184C37.8301 41.7898 38.1327 41.6846 38.3772 41.4915C38.6218 41.2983 38.794 41.0284 38.8662 40.7254L40.2524 34.9277C40.2979 34.7241 40.2985 34.5131 40.2542 34.3094C40.2099 34.1056 40.1217 33.9139 39.9957 33.7476C39.869 33.5888 39.7092 33.4595 39.5275 33.3687C39.3457 33.2779 39.1463 33.2277 38.9432 33.2217Z" fill="#FF7300"/>
<path d="M11.2684 8.50419H34.6039L18.8672 21.5876C18.7136 21.7095 18.5882 21.8632 18.4996 22.0381C18.4109 22.213 18.3612 22.405 18.3538 22.6009C18.339 22.7969 18.3696 22.9937 18.443 23.1761C18.5164 23.3585 18.6309 23.5215 18.7774 23.6527L23.0517 27.7701C23.3032 28.0231 23.6448 28.1661 24.0016 28.1677C24.319 28.167 24.6268 28.0585 24.8744 27.8599L57.4774 0.128268L57.6442 0H12.552C12.2508 0.012088 11.9619 0.122876 11.73 0.315275C11.498 0.507675 11.3358 0.770997 11.2684 1.06463L9.98486 6.81105C9.93586 7.0123 9.93351 7.22208 9.97801 7.42437C10.0225 7.62666 10.1126 7.81612 10.2416 7.97829C10.3655 8.13388 10.5212 8.26127 10.6982 8.35195C10.8753 8.44264 11.0697 8.49454 11.2684 8.50419Z" fill="#FF9B00"/>
</svg>
