<svg width="40" height="40" viewBox="0 0 40 40" fill="none" xmlns="http://www.w3.org/2000/svg">
<path d="M20.7369 22.2211H31.7011C32.485 23.5798 33.9692 24.4787 35.652 24.4369C37.9828 24.3846 39.8955 22.4928 39.9896 20.1725C40.0837 17.6431 38.056 15.5527 35.5475 15.5527C33.9065 15.5527 32.4641 16.4515 31.7011 17.7789H20.7369V6.66841H31.7011C32.485 8.02717 33.9692 8.92605 35.652 8.88424C37.9828 8.83198 39.8955 6.94016 39.9896 4.61981C40.0941 2.07996 38.0664 0 35.5579 0C33.9169 0 32.4746 0.898876 31.7116 2.22629H17.779C16.9637 2.22629 16.2948 2.88477 16.2948 3.71048V17.7789H8.28851C7.50461 16.4202 6.02042 15.5213 4.33764 15.5631C2.00683 15.6049 0.0941017 17.4967 3.32087e-05 19.8275C-0.0940353 22.3569 1.93366 24.4473 4.44216 24.4473C6.08313 24.4473 7.52551 23.5485 8.28851 22.2211H16.2948V36.2895C16.2948 37.1048 16.9533 37.7737 17.779 37.7737H31.7116C32.4955 39.1325 33.9797 40.0314 35.6624 39.9895C37.9932 39.9373 39.906 38.0455 40 35.7251C40.0941 33.1957 38.0664 31.1053 35.5579 31.1053C33.9169 31.1053 32.4746 32.0042 31.7116 33.3316H20.7369V22.2211Z" fill="black"/>
</svg>
