<svg width="54" height="53" viewBox="0 0 54 53" fill="none" xmlns="http://www.w3.org/2000/svg">
<g clip-path="url(#clip0)">
<path d="M13.0336 28.3895C19.7212 28.3895 25.1344 33.8912 25.1344 40.6881C25.1344 47.485 19.7212 52.9866 13.0336 52.9866C6.34594 52.9866 0.932758 47.485 0.932758 40.6881C0.919621 33.8912 6.34594 28.3895 13.0336 28.3895ZM13.0336 47.3114C16.6336 47.3114 19.5504 44.3336 19.5504 40.6881C19.5504 37.0292 16.6205 34.0648 13.0336 34.0648C9.4467 34.0648 6.51675 37.0426 6.51675 40.6881C6.51675 44.3469 9.43356 47.3114 13.0336 47.3114ZM52.1347 52.0519H29.7856V29.3376H52.1347V52.0519ZM46.5507 35.0129H35.3827V46.3633H46.5507V35.0129ZM40.9667 0C47.6543 0 53.0675 5.50164 53.0675 12.2986C53.0675 19.0955 47.6543 24.5971 40.9667 24.5971C34.279 24.5971 28.8659 19.0955 28.8659 12.2986C28.8527 5.50164 34.279 0 40.9667 0ZM40.9667 18.9219C44.5667 18.9219 47.4835 15.9441 47.4835 12.2986C47.4835 8.63971 44.5536 5.67523 40.9667 5.67523C37.3798 5.67523 34.4498 8.65306 34.4498 12.2986C34.4498 15.9574 37.3667 18.9219 40.9667 18.9219ZM1.85247 0.948098H24.2016V23.6624H1.85247V0.948098ZM7.4496 17.9738H18.6176V6.62333H7.4496V17.9738Z" fill="#FF9B00"/>
</g>
<defs>
<clipPath id="clip0">
<rect width="52.1479" height="53" fill="white" transform="matrix(-1 0 0 1 53.0675 0)"/>
</clipPath>
</defs>
</svg>
