<svg width="54" height="40" viewBox="0 0 54 40" fill="none" xmlns="http://www.w3.org/2000/svg">
<path d="M36.9682 10.4517L35.2184 13.2143C34.9734 13.5941 35.0901 14.1006 35.4867 14.3423L44.6442 19.9941L35.4867 25.6459C35.1017 25.8877 34.9851 26.3826 35.2184 26.774L36.9682 29.5366C37.2132 29.9165 37.7148 30.0316 38.1115 29.8013L54 20.0057L38.1115 10.1985C37.7265 9.95673 37.2132 10.0718 36.9682 10.4517ZM20.4381 39.1826L23.6461 39.9769C24.0894 40.0805 24.5327 39.8157 24.6494 39.3783L34.1685 1.80709C34.2735 1.36968 34.0052 0.932271 33.5619 0.817163L30.3539 0.022918C29.9106 -0.0806792 29.4673 0.184069 29.3506 0.621479L19.8315 38.1927C19.7265 38.6301 19.9948 39.0675 20.4381 39.1826ZM15.8885 10.1985L0 19.9941L15.8885 29.7898C16.2735 30.0316 16.7868 29.9165 17.0318 29.5251L18.7816 26.7625C19.0266 26.3826 18.9099 25.8762 18.5133 25.6344L9.3558 19.9826L18.5133 14.3308C18.8982 14.0891 19.0149 13.5941 18.7816 13.2028L17.0318 10.4402C16.7868 10.0718 16.2735 9.95673 15.8885 10.1985Z" fill="#FF9B00"/>
</svg>
