<svg width="159" height="115" viewBox="0 0 159 115" fill="none" xmlns="http://www.w3.org/2000/svg">
<path d="M140.245 29.9424C142.831 31.3135 145.719 32.0128 148.644 31.9765C151.823 31.9765 155.284 31.248 158.999 29.791L157.952 27.0734C152.145 29.3469 147.129 29.6621 143.012 28.0168C145.54 26.7276 147.877 24.9677 149.249 22.5816C150.92 19.6799 150.951 16.33 149.343 12.626C147.859 9.22701 145.927 6.90642 143.607 5.72976C141.539 4.68201 139.242 4.58788 136.961 5.45554C134.726 6.35109 132.819 7.91489 131.499 9.93505C130.099 12.0612 129.618 14.3143 130.174 16.1294C130.352 16.8968 131.882 22.9397 136.629 27.3476C135.292 27.7221 134.077 27.9841 133.164 28.1539C122.621 11.5721 101.527 0.253662 77.2144 0.253662C64.5069 0.253662 52.6778 3.34982 42.7706 8.66835C31.5509 1.78844 16.7115 5.41666 16.7115 5.41666L26.6207 21.1574C20.7633 27.6178 16.6952 35.2384 15.0036 43.5242H8.2412C7.49714 43.5241 6.76253 43.6915 6.09137 44.014C5.42022 44.3365 4.82958 44.806 4.36289 45.3878C3.8962 45.9697 3.56532 46.6492 3.39458 47.3763C3.22384 48.1034 3.21758 48.8598 3.37626 49.5897L7.0163 66.3413C7.36974 67.9677 8.26652 69.4238 9.55777 70.4679C10.849 71.512 12.4571 72.0813 14.115 72.0813H18.929C23.8775 81.8835 32.3661 90.1672 43.0845 95.8541V114.66H64.2807V103.008C72.901 104.476 81.7068 104.465 90.3234 102.975V114.746H111.52V95.7517C128.843 86.496 140.293 70.4381 140.293 52.1783C140.293 44.5658 138.302 37.336 134.727 30.8224C136.334 30.4836 137.918 30.0441 139.47 29.5066C139.731 29.658 139.984 29.8033 140.245 29.9424ZM132.997 15.4316L132.96 15.2965C132.308 13.2747 134.63 9.46438 137.992 8.1854C138.642 7.92866 139.333 7.79408 140.031 7.78841C142.652 7.78841 144.963 9.8532 146.675 13.7925C147.91 16.639 147.928 19.0353 146.732 21.1164C145.368 23.4882 142.656 25.1314 139.87 26.2528C134.585 22.3054 133.013 15.5053 132.997 15.4316Z" fill="#FFB400"/>
<path d="M108.524 115.006H87.3282C87.2613 115.006 87.1973 114.979 87.15 114.931C87.1028 114.884 87.076 114.82 87.0754 114.752V103.276C78.6227 104.697 69.9944 104.708 61.5381 103.309V114.66C61.5381 114.728 61.5115 114.792 61.4641 114.84C61.4167 114.887 61.3524 114.914 61.2854 114.914H40.0892C40.0221 114.914 39.9579 114.887 39.9105 114.84C39.8631 114.792 39.8364 114.728 39.8364 114.66V96.0056C29.0468 90.2532 20.7334 82.0718 15.7869 72.3352H11.1095C9.39822 72.3253 7.74087 71.733 6.4082 70.6551C5.07552 69.5772 4.1463 68.0774 3.77234 66.4007L0.122113 49.643C-0.0444591 48.8761 -0.037769 48.0815 0.141692 47.3176C0.321152 46.5537 0.668822 45.8399 1.15915 45.2286C1.64947 44.6173 2.26999 44.1241 2.97509 43.7853C3.68019 43.4465 4.45196 43.2706 5.23366 43.2705H11.7882C13.4553 35.2897 17.4296 27.6444 23.2932 21.1288L13.4859 5.55181C13.4644 5.51768 13.4513 5.47888 13.4477 5.43864C13.4441 5.39839 13.4501 5.35787 13.4652 5.32044C13.4804 5.28301 13.5042 5.24975 13.5348 5.22343C13.5653 5.19712 13.6017 5.1785 13.6408 5.16914C13.7896 5.1323 28.6065 1.62073 39.7773 8.37785C50.031 2.89562 61.9355 0 74.2069 0C85.9891 0 97.4881 2.68279 107.458 7.75984C117.105 12.6711 124.986 19.6288 130.271 27.8736C131.237 27.6895 132.193 27.4644 133.124 27.2208C128.561 22.7761 127.079 16.8601 126.922 16.1868C126.348 14.3164 126.843 11.9815 128.284 9.79394C129.633 7.73029 131.581 6.1329 133.864 5.21825C136.214 4.32399 138.582 4.42221 140.714 5.5027C143.092 6.70596 145.059 9.06952 146.559 12.5238C148.202 16.3075 148.167 19.7332 146.453 22.7086C145.281 24.755 143.319 26.5148 140.616 27.978C144.57 29.3716 149.354 28.9869 154.844 26.8361C154.875 26.8239 154.908 26.818 154.942 26.8187C154.975 26.8194 155.008 26.8267 155.038 26.8402C155.069 26.8537 155.096 26.8731 155.119 26.8974C155.142 26.9216 155.16 26.9502 155.172 26.9814L156.228 29.699C156.252 29.7617 156.251 29.8315 156.224 29.8931C156.197 29.9548 156.147 30.0034 156.085 30.0285C152.356 31.4896 148.84 32.2304 145.636 32.2304C142.67 32.2635 139.743 31.5546 137.119 30.1676V30.1676C136.895 30.0469 136.668 29.918 136.446 29.787C135.028 30.2748 133.583 30.6793 132.117 30.9985C135.723 37.6778 137.551 44.8012 137.551 52.1784C137.551 69.8836 126.798 86.2198 108.777 95.9053V114.746C108.778 114.78 108.772 114.814 108.76 114.845C108.747 114.877 108.729 114.905 108.705 114.93C108.682 114.954 108.654 114.973 108.623 114.986C108.591 114.999 108.558 115.006 108.524 115.006ZM87.5748 114.499H108.272V95.7518C108.272 95.7059 108.284 95.6609 108.308 95.6216C108.332 95.5823 108.366 95.5502 108.406 95.5288C126.341 85.9415 137.045 69.7445 137.045 52.1784C137.045 44.7787 135.183 37.6348 131.51 30.9452C131.492 30.9096 131.483 30.8704 131.483 30.8307C131.483 30.7909 131.492 30.7517 131.51 30.7161C131.526 30.6798 131.551 30.648 131.582 30.6231C131.612 30.5982 131.649 30.5809 131.687 30.5728C133.281 30.2367 134.852 29.7992 136.391 29.2631C136.425 29.2525 136.46 29.249 136.496 29.2529C136.531 29.2568 136.564 29.2679 136.595 29.2856C136.842 29.435 137.094 29.5803 137.347 29.7154C139.901 31.0641 142.75 31.7526 145.636 31.7188C148.709 31.7188 152.083 31.0189 155.663 29.6417L154.791 27.3907C149.032 29.6028 144.024 29.8893 139.913 28.242C139.868 28.2239 139.829 28.1931 139.8 28.1533C139.772 28.1134 139.756 28.0662 139.754 28.0174C139.752 27.9685 139.764 27.9201 139.788 27.8779C139.813 27.8357 139.849 27.8015 139.893 27.7795C142.768 26.3123 144.833 24.5176 146.025 22.4446C147.656 19.6165 147.68 16.3444 146.107 12.7182C144.654 9.37443 142.766 7.09477 140.496 5.94676C138.495 4.92357 136.267 4.84172 134.056 5.68278C131.87 6.55892 130.005 8.08839 128.714 10.0641C127.356 12.1227 126.879 14.3041 127.42 16.0436C127.581 16.7352 129.095 22.7761 133.803 27.1492C133.836 27.1803 133.86 27.2195 133.873 27.2629C133.887 27.3064 133.888 27.3525 133.878 27.3968C133.867 27.4404 133.845 27.4803 133.814 27.5126C133.783 27.5449 133.744 27.5685 133.701 27.581C132.57 27.9002 131.394 28.1745 130.206 28.3996C130.156 28.4093 130.105 28.4038 130.059 28.3837C130.013 28.3636 129.974 28.3299 129.947 28.287C124.703 20.0545 116.852 13.1111 107.23 8.21209C97.3291 3.17188 85.9117 0.5075 74.2069 0.5075C61.9661 0.5075 50.0983 3.40721 39.8874 8.89763C39.8493 8.91972 39.8061 8.93135 39.7621 8.93135C39.7181 8.93135 39.6748 8.91972 39.6367 8.89763C29.5767 2.71758 16.4004 5.11593 14.1075 5.5866L23.8252 21.0203C23.8546 21.0674 23.8679 21.1229 23.8631 21.1783C23.8583 21.2337 23.8357 21.286 23.7987 21.3273C17.8739 27.8614 13.8772 35.5557 12.2427 43.5755C12.231 43.6331 12.1998 43.6849 12.1546 43.7221C12.1093 43.7594 12.0526 43.7799 11.994 43.7801H5.23366C4.52733 43.7795 3.82984 43.9378 3.19249 44.2435C2.55513 44.5492 1.99411 44.9944 1.55068 45.5464C1.10725 46.0984 0.792681 46.7432 0.63011 47.4334C0.467538 48.1235 0.461096 48.8415 0.611256 49.5345L4.2513 66.2861C4.59998 67.8534 5.46847 69.2552 6.71448 70.262C7.96049 71.2688 9.51012 71.8209 11.1095 71.8277H15.9235C15.97 71.8277 16.0157 71.8407 16.0553 71.8653C16.0948 71.8899 16.1268 71.925 16.1477 71.9668C21.0676 81.7117 29.3831 89.8931 40.1972 95.629C40.2381 95.6505 40.2723 95.6829 40.296 95.7226C40.3197 95.7623 40.3321 95.8078 40.3317 95.8541V114.405H61.0265V103.008C61.0265 102.971 61.0344 102.935 61.0499 102.901C61.0654 102.868 61.088 102.838 61.1162 102.814C61.1444 102.791 61.1771 102.774 61.2122 102.764C61.2474 102.755 61.2841 102.753 61.32 102.759C69.913 104.217 78.6897 104.207 87.2792 102.728C87.3156 102.722 87.3528 102.724 87.3883 102.734C87.4238 102.744 87.4567 102.761 87.4848 102.785C87.5129 102.809 87.5355 102.839 87.551 102.873C87.5666 102.906 87.5747 102.943 87.5748 102.98V114.499ZM136.858 26.5046C136.804 26.5039 136.751 26.486 136.707 26.4535C131.433 22.5101 129.798 15.7223 129.745 15.4931L129.708 15.3621C129.37 14.3144 129.759 12.798 130.754 11.3205C131.765 9.80299 133.208 8.62693 134.895 7.94607C135.573 7.68198 136.292 7.54331 137.019 7.53679C139.768 7.53679 142.147 9.66502 143.896 13.6923C145.165 16.6186 145.18 19.0886 143.938 21.2454C142.734 23.3409 140.384 25.1049 136.952 26.4903C136.922 26.502 136.89 26.5075 136.858 26.5067V26.5046ZM137.019 8.04224C136.353 8.04887 135.694 8.17716 135.075 8.42082C133.485 9.06295 132.125 10.172 131.174 11.6029C130.279 12.931 129.904 14.3164 130.193 15.2168L130.234 15.3642C130.25 15.4317 131.795 22.0599 136.895 25.9501C140.145 24.6179 142.367 22.946 143.498 20.9774C144.654 18.9699 144.631 16.6493 143.429 13.8826C141.77 10.0661 139.552 8.04429 137.019 8.04429V8.04224Z" fill="black"/>
<path d="M96.428 13.6717C89.4842 9.15333 81.2034 7.42006 71.8159 8.51896C64.7335 9.34979 59.6546 11.5701 59.6057 11.5885L58.3828 8.80954C58.6029 8.71132 63.8571 6.40301 71.3696 5.50874C81.3705 4.31775 90.6052 6.25771 98.0687 11.1158L96.428 13.6717Z" fill="#FF0064"/>
</svg>
