<svg width="42" height="52" viewBox="0 0 42 52" fill="none" xmlns="http://www.w3.org/2000/svg">
<g clip-path="url(#clip0_725_19599)">
<path d="M30.3535 33.3284L7.94727 16.6199C7.49358 16.2804 6.835 16.369 6.4984 16.8413L4.03971 20.2066C3.70311 20.6642 3.79092 21.3284 4.25924 21.6679L19.6846 33.166H1.9469C1.46394 33.166 1.03953 33.5055 0.937081 33.9926L0.0150734 38.3469C-0.087372 38.8339 0.161424 39.321 0.61511 39.5129L14.4452 45.7122H2.15179C1.58102 45.7122 1.1127 46.1845 1.1127 46.7601V50.9373C1.1127 51.5129 1.58102 51.9852 2.15179 51.9852H28.2753C28.7583 51.9852 29.1827 51.6458 29.2852 51.1587L30.2072 46.8044C30.3096 46.3173 30.0608 45.8303 29.6071 45.6384L15.777 39.4391H28.3632C28.8168 39.4391 29.212 39.1439 29.3437 38.7159L30.7194 34.4945C30.8657 34.0664 30.7194 33.5941 30.3535 33.3284ZM9.83519 0.309963L6.90818 3.26199C6.4984 3.67528 6.4984 4.33948 6.90818 4.73801L36.5588 34.6421C36.9686 35.0553 37.6271 35.0553 38.0223 34.6421L40.9493 31.69C41.3591 31.2768 41.3591 30.6125 40.9493 30.214L11.2987 0.309963C10.9035 -0.103321 10.245 -0.103321 9.83519 0.309963Z" fill="#FF0064"/>
</g>
<defs>
<clipPath id="clip0_725_19599">
<rect width="41.2562" height="52" fill="white"/>
</clipPath>
</defs>
</svg>
