<svg width="493" height="691" viewBox="0 0 493 691" fill="none" xmlns="http://www.w3.org/2000/svg">
<path d="M25.9402 154.75L451.012 154.75L164.281 392.827C161.484 395.046 159.201 397.842 157.587 401.025C155.974 404.208 155.069 407.701 154.934 411.266C154.636 414.815 155.155 418.385 156.451 421.702C157.747 425.019 159.786 427.997 162.412 430.406L240.229 505.33C244.613 509.678 250.453 512.25 256.623 512.552C262.794 512.854 268.857 510.863 273.645 506.964L867.437 2.33409L870.241 0L50.477 0C44.9817 0.180681 39.7027 2.18246 35.4718 5.68995C31.2409 9.19743 28.2987 14.0112 27.1086 19.3729L0.702282 123.94C-0.189866 127.602 -0.232575 131.419 0.577414 135.101C1.3874 138.782 3.02868 142.229 5.37597 145.18C7.83032 148.254 10.9645 150.718 14.5325 152.378C18.1005 154.039 22.0052 154.85 25.9402 154.75Z" fill="#FFB400"/>
<path d="M536.429 691H22.5197C19.3977 690.999 16.3166 690.285 13.509 688.912C10.7014 687.539 8.24069 685.542 6.31264 683.072C4.38459 680.603 3.03957 677.725 2.3791 674.656C1.71863 671.587 1.75997 668.408 2.5 665.357L22.7336 580.083C23.8182 575.567 26.3831 571.55 30.015 568.679C33.6468 565.809 38.134 564.252 42.7534 564.259H556.67C559.792 564.26 562.874 564.974 565.681 566.347C568.489 567.72 570.949 569.717 572.878 572.187C574.806 574.656 576.151 577.534 576.811 580.603C577.472 583.672 577.43 586.851 576.69 589.902L556.457 675.176C555.372 679.693 552.805 683.711 549.172 686.582C545.538 689.453 541.049 691.009 536.429 691ZM42.7534 565.111C38.3133 565.105 34.001 566.605 30.5131 569.368C27.0253 572.132 24.5656 575.997 23.5314 580.339L3.29783 665.581C2.59044 668.508 2.55321 671.558 3.18896 674.502C3.8247 677.445 5.11682 680.205 6.96784 682.573C8.81885 684.941 11.1804 686.856 13.8745 688.172C16.5685 689.489 19.5246 690.173 22.5197 690.173H536.429C540.863 690.181 545.171 688.687 548.658 685.931C552.145 683.176 554.608 679.321 555.651 674.986L575.892 589.711C576.601 586.784 576.64 583.732 576.004 580.788C575.369 577.843 574.078 575.082 572.226 572.713C570.375 570.344 568.013 568.428 565.318 567.111C562.624 565.795 559.667 565.11 556.67 565.111H42.7534Z" fill="white"/>
<path d="M337.491 491.835C332.158 491.852 327.029 489.782 323.195 486.066L260.768 425.711C258.664 423.675 257.017 421.214 255.935 418.491C254.854 415.767 254.363 412.845 254.495 409.916C254.627 406.988 255.379 404.122 256.702 401.508C258.024 398.893 259.887 396.591 262.165 394.755L491.185 203.8H151.268C148.163 203.801 145.098 203.099 142.302 201.745C139.506 200.391 137.052 198.421 135.123 195.982C133.194 193.543 131.84 190.698 131.162 187.66C130.484 184.623 130.501 181.471 131.21 178.44L150.882 94.3734C151.931 89.8321 154.485 85.7815 158.126 82.8834C161.768 79.9853 166.282 78.4108 170.932 78.4173H829.754L826.573 81.1041L350.431 487.269C346.761 490.222 342.197 491.832 337.491 491.835ZM170.932 79.2414C166.472 79.235 162.141 80.7438 158.646 83.5218C155.151 86.2998 152.698 90.1831 151.687 94.5382L132.015 178.605C131.335 181.514 131.319 184.54 131.97 187.456C132.62 190.372 133.92 193.102 135.771 195.444C137.623 197.785 139.979 199.677 142.662 200.977C145.346 202.277 148.288 202.952 151.268 202.951H493.462L492.591 203.676L262.691 395.389C260.501 397.152 258.71 399.361 257.438 401.872C256.167 404.382 255.443 407.135 255.315 409.948C255.188 412.761 255.659 415.568 256.699 418.184C257.738 420.8 259.321 423.163 261.343 425.117L323.763 485.472C327.236 488.815 331.805 490.777 336.615 490.991C341.426 491.204 346.149 489.656 349.904 486.634L826.038 80.4777L827.493 79.2414H170.932Z" fill="white"/>
</svg>
