<svg width="581" height="438" viewBox="0 0 581 438" fill="none" xmlns="http://www.w3.org/2000/svg">
<path d="M59.4683 95.6811L321.847 95.6811L144.86 242.929C143.134 244.301 141.724 246.031 140.729 247.999C139.733 249.968 139.174 252.128 139.091 254.333C138.907 256.528 139.227 258.736 140.027 260.788C140.827 262.839 142.086 264.681 143.706 266.171L191.739 312.51C194.445 315.199 198.05 316.79 201.859 316.977C205.668 317.164 209.411 315.932 212.366 313.521L578.888 1.41382L580.619 -0.0297852L74.6138 -0.0297852C71.2218 0.0819637 67.9633 1.32004 65.3518 3.48937C62.7402 5.65871 60.9241 8.63599 60.1895 11.9521L43.89 76.6256C43.3393 78.8905 43.313 81.2515 43.813 83.5282C44.3129 85.8049 45.326 87.9372 46.7749 89.7623C48.2899 91.6634 50.2245 93.1872 52.4268 94.2142C54.6292 95.2411 57.0394 95.7432 59.4683 95.6811Z" fill="#FF9B00"/>
<path d="M363.899 474.97H14.9908C12.8712 474.97 10.7793 474.486 8.87313 473.557C6.96697 472.627 5.29633 471.276 3.98732 469.604C2.67831 467.933 1.76514 465.985 1.31672 463.908C0.868307 461.831 0.896374 459.679 1.3988 457.615L15.136 399.899C15.8724 396.843 17.6138 394.124 20.0796 392.181C22.5454 390.238 25.5918 389.184 28.728 389.189H377.642C379.762 389.189 381.854 389.673 383.76 390.602C385.666 391.532 387.337 392.883 388.646 394.555C389.955 396.226 390.868 398.174 391.316 400.251C391.765 402.328 391.737 404.48 391.234 406.545L377.497 464.26C376.76 467.317 375.018 470.037 372.551 471.98C370.084 473.923 367.036 474.976 363.899 474.97ZM28.728 389.766C25.7135 389.762 22.7858 390.777 20.4178 392.647C18.0498 394.517 16.3798 397.133 15.6777 400.073L1.94047 457.766C1.46021 459.747 1.43493 461.811 1.86656 463.804C2.29819 465.796 3.17544 467.664 4.43216 469.267C5.68887 470.87 7.29222 472.165 9.12127 473.056C10.9503 473.947 12.9573 474.41 14.9908 474.41H363.899C366.91 474.416 369.835 473.404 372.202 471.54C374.57 469.675 376.242 467.065 376.95 464.131L390.692 406.416C391.174 404.434 391.2 402.369 390.769 400.376C390.337 398.383 389.46 396.514 388.204 394.911C386.947 393.307 385.343 392.011 383.513 391.12C381.684 390.228 379.676 389.765 377.642 389.766H28.728Z" fill="white" stroke="white"/>
<path d="M229.498 339.39C225.875 339.401 222.391 337.995 219.787 335.471L177.38 294.472C175.951 293.09 174.832 291.418 174.098 289.568C173.363 287.718 173.029 285.733 173.119 283.743C173.209 281.754 173.72 279.807 174.618 278.031C175.517 276.256 176.782 274.692 178.33 273.444L333.901 143.731H102.998C100.889 143.732 98.8071 143.255 96.9079 142.335C95.0087 141.416 93.3415 140.078 92.0311 138.421C90.7206 136.764 89.8008 134.831 89.3404 132.768C88.8801 130.704 88.8911 128.563 89.3727 126.505L102.736 69.3992C103.448 66.3144 105.183 63.5629 107.657 61.5942C110.131 59.6256 113.197 58.5561 116.356 58.5604H563.887L561.726 60.3856L238.288 336.288C235.795 338.294 232.694 339.388 229.498 339.39ZM116.356 59.1203C113.326 59.1159 110.384 60.1408 108.01 62.0279C105.636 63.9149 103.97 66.5528 103.283 69.5112L89.92 126.616C89.4579 128.593 89.4473 130.648 89.8892 132.629C90.331 134.61 91.2138 136.465 92.4716 138.055C93.7294 139.646 95.3295 140.93 97.1524 141.813C98.9753 142.697 100.974 143.155 102.998 143.155H335.448L334.856 143.647L178.687 273.875C177.199 275.072 175.983 276.574 175.119 278.279C174.255 279.984 173.763 281.854 173.677 283.765C173.59 285.675 173.91 287.583 174.616 289.359C175.322 291.136 176.398 292.742 177.771 294.069L220.172 335.068C222.532 337.338 225.635 338.671 228.903 338.816C232.171 338.961 235.379 337.91 237.93 335.857L561.363 59.9601L562.352 59.1203H116.356Z" fill="white" stroke="white"/>
</svg>
