<svg xmlns="http://www.w3.org/2000/svg" width="78" height="71" viewBox="0 0 78 71">
  <g id="Group_1613" data-name="Group 1613" transform="translate(-672 -3481)">
    <path id="Dashboard" d="M413.765,363.4a1.981,1.981,0,0,0-1.981-1.981H356.312a1.981,1.981,0,0,0-1.981,1.981V405a1.981,1.981,0,0,0,1.981,1.981h24.764v5.945h-8.915a.991.991,0,0,0-.991.991v3.962a.991.991,0,0,0,.991.991h23.773a.991.991,0,0,0,.991-.991v-3.962a.991.991,0,0,0-.991-.991H387.02v-5.945l24.764,0A1.981,1.981,0,0,0,413.765,405Zm-53.49,37.641V367.36h47.547v33.675Zm21.792-13.868H378.1a.991.991,0,0,0-.991.99V395.1a.991.991,0,0,0,.991.99h3.962a.991.991,0,0,0,.99-.99v-6.934A.99.99,0,0,0,382.067,387.172Zm19.811-14.859h-3.962a.991.991,0,0,0-.991.991V395.1a.991.991,0,0,0,.991.99h3.962a.991.991,0,0,0,.99-.99V373.3A.991.991,0,0,0,401.878,372.313Zm-9.906,6.934H388.01a.99.99,0,0,0-.99.99V395.1a.991.991,0,0,0,.99.99h3.962a.991.991,0,0,0,.991-.99V380.238A.991.991,0,0,0,391.972,379.247Z" transform="translate(326.235 3125.583)" fill="#ff9b00"/>
    <rect id="Rectangle_165" data-name="Rectangle 165" width="78" height="71" transform="translate(672 3481)" fill="none"/>
  </g>
</svg>
