<svg xmlns="http://www.w3.org/2000/svg" width="78" height="71" viewBox="0 0 78 71">
  <g id="Group_1614" data-name="Group 1614" transform="translate(-917 -3481)">
    <path id="Terminal" d="M446.457,336.312v41.314a1.878,1.878,0,0,0,1.878,1.878h2.817v7.512a1.878,1.878,0,0,0,1.878,1.878h18.779a1.878,1.878,0,0,0,1.878-1.878V379.5H476.5a1.878,1.878,0,0,0,1.878-1.878V336.312a1.878,1.878,0,0,0-1.878-1.878H448.335A1.878,1.878,0,0,0,446.457,336.312Zm21.6,46.947H456.785V379.5h11.267Zm4.695-9.39H452.091V355.09h20.657Zm0-24.413H452.091v-9.389h20.657Zm-1.878-23.474h-16.9a1.878,1.878,0,0,0-1.878,1.878v3.756h20.657v-3.756A1.878,1.878,0,0,0,470.87,325.983Zm-10.329,31.924h-4.695a.939.939,0,0,0-.939.939V362.6a.939.939,0,0,0,.939.939h4.695a.939.939,0,0,0,.939-.939v-3.756A.939.939,0,0,0,460.541,357.907Zm8.451,0H464.3a.939.939,0,0,0-.939.939V362.6a.939.939,0,0,0,.939.939h4.695a.939.939,0,0,0,.939-.939v-3.756A.939.939,0,0,0,468.992,357.907Zm-8.451,7.512h-4.695a.939.939,0,0,0-.939.939v3.756a.939.939,0,0,0,.939.939h4.695a.939.939,0,0,0,.939-.939v-3.756A.939.939,0,0,0,460.541,365.419Zm8.451,0H464.3a.939.939,0,0,0-.939.939v3.756a.939.939,0,0,0,.939.939h4.695a.939.939,0,0,0,.939-.939v-3.756A.939.939,0,0,0,468.992,365.419Z" transform="translate(493.619 3158.017)" fill="#ff9b00" stroke="rgba(0,0,0,0)" stroke-width="1"/>
    <rect id="Rectangle_167" data-name="Rectangle 167" width="78" height="71" transform="translate(917 3481)" fill="none"/>
  </g>
</svg>
