<svg width="922" height="517" viewBox="0 0 922 517" fill="none" xmlns="http://www.w3.org/2000/svg">
<path d="M402.755 857.879C400.827 854.005 399.745 849.765 399.583 845.441C399.42 841.118 400.181 836.81 401.813 832.805L566.755 411.019L607.667 303.378L498.851 340.288L71.506 489.983C67.4403 491.476 63.1033 492.088 58.7818 491.779C54.4603 491.471 50.2529 490.248 46.4376 488.193C42.6224 486.137 39.2863 483.296 36.6499 479.856C34.0136 476.416 32.1372 472.456 31.1447 468.238L1.46521 340.236C-0.194318 332.978 0.841439 325.366 4.37943 318.819C7.91743 312.272 13.7164 307.236 20.6954 304.651L917.547 1.77771L921.737 0.34815L921.513 0.917158L920.101 4.64138L585.268 890.116C582.445 897.004 577.209 902.626 570.539 905.93C563.869 909.235 556.222 909.995 549.027 908.07L422.145 873.821C417.971 872.684 414.085 870.675 410.743 867.927C407.401 865.179 404.678 861.754 402.755 857.879Z" fill="#FF7300"/>
</svg>
