<svg width="65" height="58" viewBox="0 0 65 58" fill="none" xmlns="http://www.w3.org/2000/svg">
<g clip-path="url(#clip0_122_7)">
<path d="M63.301 19.6458H50.0759V16.8424H58.5779C58.8284 16.8424 59.0687 16.744 59.2459 16.5686C59.4232 16.3932 59.5229 16.1553 59.5231 15.9072V12.1665C59.5229 11.9184 59.4232 11.6805 59.2459 11.5052C59.0687 11.3298 58.8284 11.2313 58.5779 11.2313H50.0759V1.8765C50.0759 1.38038 49.8769 0.904571 49.5227 0.553691C49.1685 0.202811 48.688 0.00556558 48.187 0.00537109H16.0639C15.5628 0.00556558 15.0823 0.202811 14.7281 0.553691C14.3739 0.904571 14.1749 1.38038 14.1749 1.8765V36.4895H0.947592C0.823497 36.4895 0.700614 36.5137 0.585975 36.5607C0.471335 36.6078 0.367141 36.6767 0.279427 36.7636C0.191713 36.8505 0.122213 36.9537 0.0747911 37.0673C0.0273696 37.1808 0.00298524 37.3025 0.00308257 37.4254V41.1661C0.00298524 41.289 0.0273696 41.4107 0.0747911 41.5242C0.122213 41.6378 0.191713 41.741 0.279427 41.8279C0.367141 41.9148 0.471335 41.9837 0.585975 42.0308C0.700614 42.0778 0.823497 42.102 0.947592 42.102H14.1749V44.9083H5.6715C5.421 44.9083 5.18082 45.0069 5.00369 45.1823C4.82657 45.3577 4.72708 45.5955 4.72708 45.8435V49.5843C4.72708 49.8323 4.82657 50.0702 5.00369 50.2456C5.18082 50.421 5.421 50.5195 5.6715 50.5195H14.1749V56.1328C14.1749 56.6289 14.3739 57.1047 14.7281 57.4556C15.0823 57.8065 15.5628 58.0037 16.0639 58.0039H48.1937C48.6949 58.0039 49.1755 57.8068 49.5299 57.4559C49.8843 57.105 50.0833 56.6291 50.0833 56.1328L50.0796 25.2621H63.304C63.5546 25.2621 63.7949 25.1636 63.9721 24.9882C64.1493 24.8129 64.2491 24.575 64.2493 24.3269V20.5861C64.2499 20.4626 64.2259 20.3401 64.1785 20.2258C64.1312 20.1115 64.0613 20.0076 63.9732 19.9202C63.885 19.8328 63.7802 19.7635 63.6648 19.7164C63.5495 19.6693 63.4258 19.6453 63.301 19.6458ZM19.8404 5.61356H44.4053L44.4098 41.1624H19.8404V5.61356ZM19.8404 52.3877V46.7743H44.4105V52.3877H19.8404ZM30.2327 20.581V18.7099H37.7887C38.0394 18.7099 38.2798 18.6113 38.4571 18.4357C38.6343 18.2602 38.7339 18.0222 38.7339 17.774V14.0332C38.734 13.9103 38.7096 13.7885 38.6621 13.6749C38.6147 13.5613 38.545 13.4581 38.4572 13.3712C38.3694 13.2843 38.2652 13.2153 38.1505 13.1683C38.0358 13.1213 37.9129 13.0972 37.7887 13.0973H34.9545V10.291C34.9546 10.1681 34.9302 10.0464 34.8827 9.93288C34.8353 9.81933 34.7658 9.71614 34.6781 9.62922C34.5904 9.5423 34.4862 9.47337 34.3716 9.42633C34.2569 9.37929 34.134 9.35506 34.0099 9.35506H30.232C30.1079 9.35506 29.985 9.37929 29.8704 9.42633C29.7557 9.47337 29.6516 9.5423 29.5639 9.62922C29.4762 9.71614 29.4066 9.81933 29.3592 9.93288C29.3118 10.0464 29.2874 10.1681 29.2875 10.291V13.0973H27.5601C27.3099 13.0977 27.0701 13.1964 26.8933 13.3716L24.8414 15.4034C24.6644 15.5784 24.5648 15.8158 24.5643 16.0635V23.2266C24.5648 23.4743 24.6644 23.7117 24.8414 23.8868L26.8933 25.9178C27.0703 26.0927 27.31 26.1911 27.5601 26.1914H34.0115V28.0625H26.4555C26.205 28.0625 25.9648 28.161 25.7877 28.3364C25.6106 28.5118 25.511 28.7497 25.511 28.9977V32.7384C25.511 32.9865 25.6106 33.2243 25.7877 33.3997C25.9648 33.5751 26.205 33.6736 26.4555 33.6736H29.2897V36.4799C29.2896 36.6028 29.314 36.7245 29.3615 36.838C29.4089 36.9516 29.4784 37.0548 29.5661 37.1417C29.6538 37.2286 29.758 37.2975 29.8726 37.3446C29.9873 37.3916 30.1102 37.4159 30.2343 37.4159H34.0122C34.1363 37.4159 34.2592 37.3916 34.3738 37.3446C34.4885 37.2975 34.5926 37.2286 34.6803 37.1417C34.768 37.0548 34.8376 36.9516 34.885 36.838C34.9324 36.7245 34.9568 36.6028 34.9567 36.4799V33.6736H36.6841C36.9342 33.6734 37.174 33.575 37.3509 33.4L39.4021 31.3683C39.579 31.1932 39.6787 30.9558 39.6792 30.7082V23.5457C39.6788 23.2981 39.5794 23.0608 39.4028 22.8856L37.3509 20.8538C37.174 20.6787 36.9343 20.58 36.6841 20.5795L30.2327 20.581Z" fill="white"/>
<g clip-path="url(#clip1_122_7)">
<path d="M56.344 17.98L52.737 14.373C52.4979 14.1351 52.1743 14.0017 51.837 14.0017C51.4997 14.0017 51.1761 14.1351 50.937 14.373L25.21 40.0991L14.788 29.677C14.549 29.4388 14.2254 29.3052 13.888 29.3052C13.5506 29.3052 13.227 29.4388 12.988 29.677L9.381 33.2842C9.14308 33.5233 9.00954 33.8468 9.00954 34.1841C9.00954 34.5214 9.14308 34.8449 9.381 35.084L23.41 49.113C23.8884 49.5912 24.5371 49.8599 25.2135 49.8599C25.8899 49.8599 26.5386 49.5912 27.017 49.113L56.351 19.7791C56.5879 19.5392 56.7202 19.2153 56.7189 18.8782C56.7176 18.541 56.5828 18.218 56.344 17.98ZM15.003 63.366H48.164C48.5021 63.366 48.8265 63.2318 49.0656 62.9927C49.3047 62.7536 49.439 62.4292 49.439 62.0911V56.991C49.439 56.6528 49.3047 56.3287 49.0656 56.0896C48.8265 55.8505 48.5021 55.7161 48.164 55.7161H15.003C14.6649 55.7161 14.3405 55.8505 14.1014 56.0896C13.8623 56.3287 13.728 56.6528 13.728 56.991V62.0911C13.7279 62.2586 13.7607 62.4245 13.8248 62.5793C13.8888 62.7341 13.9827 62.8747 14.1011 62.9932C14.2195 63.1117 14.3601 63.2059 14.5148 63.27C14.6696 63.3342 14.8355 63.3669 15.003 63.3669V63.366Z" fill="#FF0662"/>
</g>
</g>
<defs>
<clipPath id="clip0_122_7">
<rect width="64.2462" height="58" fill="white"/>
</clipPath>
<clipPath id="clip1_122_7">
<rect width="47.718" height="49.367" fill="white" transform="translate(9 14)"/>
</clipPath>
</defs>
</svg>
