<svg width="50" height="51" viewBox="0 0 50 51" fill="none" xmlns="http://www.w3.org/2000/svg">
<path fill-rule="evenodd" clip-rule="evenodd" d="M16.1207 16.2137C16.7361 16.2121 17.3458 16.3328 17.9145 16.5689C18.4832 16.805 18.9996 17.1519 19.4338 17.5894L24.2357 22.4067C24.4027 22.5736 24.6287 22.6674 24.8644 22.6674C25.1001 22.6674 25.3262 22.5736 25.4931 22.4067L30.2778 17.6076C30.7117 17.1696 31.228 16.8223 31.7967 16.586C32.3655 16.3497 32.9754 16.229 33.591 16.2309H34.1671L28.0906 10.1362C27.6407 9.68476 27.1064 9.32662 26.5184 9.08227C25.9305 8.83792 25.3002 8.71216 24.6638 8.71216C24.0273 8.71216 23.3971 8.83792 22.8091 9.08227C22.2211 9.32662 21.6869 9.68476 21.2369 10.1362L15.1827 16.2137H16.1207ZM33.591 33.1881C32.9758 33.1904 32.3662 33.0703 31.7976 32.8349C31.2289 32.5994 30.7124 32.2533 30.2778 31.8165L25.4921 27.0133C25.3228 26.851 25.0976 26.7604 24.8634 26.7604C24.6292 26.7604 24.404 26.851 24.2347 27.0133L19.4328 31.8297C18.9985 32.2671 18.4822 32.614 17.9135 32.8501C17.3448 33.0862 16.7351 33.2069 16.1197 33.2054H15.1827L21.247 39.2879C22.1566 40.1982 23.389 40.7095 24.6739 40.7095C25.9588 40.7095 27.1912 40.1982 28.1007 39.2879L34.1772 33.1922L33.591 33.1881ZM35.5214 17.5902L39.1934 21.2732V21.2722C39.6435 21.7235 40.0006 22.2593 40.2442 22.8491C40.4878 23.4388 40.6132 24.0709 40.6132 24.7093C40.6132 25.3477 40.4878 25.9798 40.2442 26.5695C40.0006 27.1593 39.6435 27.6951 39.1934 28.1464L35.5214 31.8294C35.4387 31.7952 35.3502 31.7773 35.2607 31.7767H33.591C32.7221 31.7745 31.8892 31.4284 31.2734 30.8136L26.4886 26.0155C25.6214 25.1457 24.1084 25.1457 23.2402 26.0155L18.4382 30.8319C17.8225 31.447 16.9896 31.7934 16.1207 31.796H14.0628C13.9783 31.7973 13.8947 31.8141 13.8162 31.8456L10.1291 28.1475C9.22151 27.2352 8.71179 25.9991 8.71179 24.7103C8.71179 23.4216 9.22151 22.1854 10.1291 21.2732L13.8243 17.574C13.903 17.6049 13.9864 17.6217 14.0709 17.6237H16.1207C16.9897 17.6261 17.8226 17.9726 18.4382 18.5877L23.2412 23.4021C23.6721 23.8335 24.2561 24.0758 24.8649 24.0758C25.4738 24.0758 26.0577 23.8335 26.4886 23.4021L31.2734 18.606C31.8892 17.9912 32.7221 17.6451 33.591 17.6429H35.2607C35.3501 17.642 35.4386 17.6242 35.5214 17.5902Z" fill="#FF0662"/>
<path d="M25 0.0029245C18.3718 0.0104184 12.0174 2.64675 7.33057 7.33354C2.64378 12.0203 0.00749386 18.3748 0 25.0029C0.00749386 31.631 2.64378 37.9856 7.33057 42.6724C12.0174 47.3591 18.3718 49.9955 25 50.003C31.6281 49.9955 37.9826 47.3591 42.6694 42.6724C47.3562 37.9856 49.9925 31.631 50 25.0029C49.9933 18.3743 47.3573 12.019 42.6704 7.33163C37.9835 2.64422 31.6286 0.00749525 25 0V0.0029245ZM25 44.447C19.8448 44.4412 14.9024 42.3908 11.2571 38.7456C7.61178 35.1004 5.56118 30.1581 5.55522 25.0029C5.56099 19.8476 7.61149 14.9051 11.2568 11.2598C14.9022 7.61441 19.8446 5.56391 25 5.55815C30.1553 5.56391 35.0978 7.61441 38.7432 11.2598C42.3885 14.9051 44.439 19.8476 44.4448 25.0029C44.4381 30.1576 42.3872 35.0992 38.7419 38.7438C35.0967 42.3883 30.1546 44.4383 25 44.4441V44.447Z" fill="#FF0662"/>
</svg>
