<svg width="53" height="53" viewBox="0 0 53 53" fill="none" xmlns="http://www.w3.org/2000/svg">
<g clip-path="url(#clip0_152_1197)">
<path d="M27.4821 29.445H42.0126C42.5405 30.36 43.3049 31.116 44.2256 31.6338C45.1463 32.1515 46.1895 32.4119 47.2455 32.3877C48.7415 32.3468 50.1664 31.7404 51.2329 30.6904C52.2994 29.6405 52.9282 28.2253 52.9924 26.7301C53.0233 25.938 52.894 25.1478 52.6121 24.4069C52.3303 23.666 51.9018 22.9896 51.3523 22.4183C50.8028 21.847 50.1437 21.3924 49.4143 21.0819C48.685 20.7715 47.9005 20.6114 47.1078 20.6114C46.0741 20.6111 45.0587 20.8832 44.1636 21.4C43.2684 21.9169 42.5252 22.6604 42.0088 23.5557H27.4821V8.83359H42.0126C42.5404 9.74861 43.3048 10.5047 44.2256 11.0225C45.1463 11.5402 46.1894 11.8006 47.2455 11.7763C48.7415 11.7354 50.1664 11.1289 51.2329 10.0789C52.2994 9.02901 52.9282 7.61378 52.9924 6.11859C53.0233 5.3265 52.894 4.53639 52.6121 3.79549C52.3303 3.05459 51.9018 2.37814 51.3523 1.80681C50.8028 1.23548 50.1437 0.781017 49.4143 0.470538C48.685 0.160058 47.9005 2.0504e-05 47.1078 2.13789e-07C46.0741 -0.000278344 45.0587 0.271658 44.1636 0.788519C43.2684 1.30538 42.5252 2.04888 42.0088 2.94422H23.5559C23.0352 2.94422 22.5359 3.15106 22.1678 3.51922C21.7996 3.88737 21.5928 4.3867 21.5928 4.90734V23.5557H10.9885C10.4606 22.6408 9.69617 21.8847 8.77544 21.367C7.85472 20.8492 6.81161 20.5887 5.75556 20.6129C4.2596 20.654 2.83482 21.2606 1.76837 22.3105C0.701913 23.3604 0.0730863 24.7755 0.00861723 26.2706C-0.0222493 27.0627 0.107102 27.8529 0.388927 28.5938C0.670752 29.3347 1.09925 30.0111 1.64874 30.5824C2.19822 31.1537 2.8574 31.6083 3.58676 31.9188C4.31611 32.2293 5.10063 32.3893 5.89332 32.3893C6.92695 32.3896 7.94239 32.1176 8.83751 31.6007C9.73263 31.0838 10.4758 30.3403 10.9923 29.445H21.5966V48.0934C21.5966 48.614 21.8034 49.1133 22.1716 49.4815C22.5398 49.8497 23.0391 50.0565 23.5597 50.0565H42.0164C42.5443 50.9715 43.3087 51.7275 44.2295 52.2453C45.1502 52.763 46.1933 53.0234 47.2494 52.9992C48.7454 52.9583 50.1703 52.3518 51.2368 51.3018C52.3033 50.2519 52.932 48.8367 52.9963 47.3415C53.0273 46.5494 52.898 45.7591 52.6162 45.0182C52.3344 44.2773 51.9059 43.6009 51.3564 43.0295C50.8069 42.4582 50.1477 42.0036 49.4183 41.6932C48.6889 41.3827 47.9043 41.2228 47.1116 41.2229C46.078 41.2226 45.0625 41.4946 44.1674 42.0114C43.2723 42.5283 42.5291 43.2718 42.0126 44.1671H27.4821V29.445Z" fill="#FF0064"/>
</g>
<defs>
<clipPath id="clip0_152_1197">
<rect width="53" height="53" fill="white"/>
</clipPath>
</defs>
</svg>
