<svg width="44" height="55" viewBox="0 0 44 55" fill="none" xmlns="http://www.w3.org/2000/svg">
<g clip-path="url(#clip0_161_1238)">
<path d="M23.9252 20.862H10.5269C10.2732 20.8622 10.03 20.9621 9.85065 21.1398C9.67128 21.3175 9.57043 21.5586 9.57023 21.81V25.6018C9.57013 25.7264 9.59479 25.8497 9.64282 25.9648C9.69086 26.0799 9.7613 26.1845 9.85015 26.2726C9.939 26.3607 10.0445 26.4306 10.1606 26.4783C10.2767 26.526 10.4012 26.5505 10.5269 26.5505H23.9252C24.0509 26.5505 24.1754 26.526 24.2915 26.4783C24.4077 26.4306 24.5131 26.3607 24.602 26.2726C24.6908 26.1845 24.7613 26.0799 24.8093 25.9648C24.8574 25.8497 24.8821 25.7264 24.882 25.6018V21.81C24.8818 21.5586 24.7809 21.3175 24.6015 21.1398C24.4221 20.9621 24.1789 20.8622 23.9252 20.862ZM23.9252 29.3967H10.5269C10.2732 29.3967 10.0298 29.4965 9.85042 29.6743C9.67101 29.8521 9.57023 30.0932 9.57023 30.3446V34.1365C9.57013 34.2611 9.59479 34.3844 9.64282 34.4995C9.69086 34.6146 9.7613 34.7192 9.85015 34.8073C9.939 34.8954 10.0445 34.9653 10.1606 35.013C10.2767 35.0607 10.4012 35.0852 10.5269 35.0852H23.9252C24.0509 35.0852 24.1754 35.0607 24.2915 35.013C24.4077 34.9653 24.5131 34.8954 24.602 34.8073C24.6908 34.7192 24.7613 34.6146 24.8093 34.4995C24.8574 34.3844 24.8821 34.2611 24.882 34.1365V30.3446C24.882 30.0932 24.7811 29.8521 24.6017 29.6743C24.4223 29.4965 24.179 29.3967 23.9252 29.3967ZM23.9252 37.9314H10.5269C10.2732 37.9314 10.0298 38.0312 9.85042 38.209C9.67101 38.3868 9.57023 38.6279 9.57023 38.8793V42.6712C9.57023 42.9226 9.67101 43.1637 9.85042 43.3415C10.0298 43.5192 10.2732 43.6192 10.5269 43.6192H23.9252C24.179 43.6192 24.4223 43.5192 24.6017 43.3415C24.7811 43.1637 24.882 42.9226 24.882 42.6712V38.8793C24.8821 38.7548 24.8574 38.6314 24.8093 38.5163C24.7613 38.4012 24.6908 38.2966 24.602 38.2085C24.5131 38.1204 24.4077 38.0505 24.2915 38.0028C24.1754 37.9551 24.0509 37.9306 23.9252 37.9306V37.9314ZM9.57023 1.89743V9.48114H1.91661C1.40895 9.48114 0.922073 9.68099 0.5631 10.0367C0.204127 10.3924 0.00244141 10.8748 0.00244141 11.3778V53.1018C0.00244141 53.6048 0.204127 54.0872 0.5631 54.4429C0.922073 54.7986 1.40895 54.9985 1.91661 54.9985H32.5415C33.0492 54.9985 33.5361 54.7986 33.895 54.4429C34.254 54.0872 34.4557 53.6048 34.4557 53.1018V45.5181H42.089C42.5967 45.5181 43.0836 45.3182 43.4425 44.9625C43.8015 44.6068 44.0032 44.1244 44.0032 43.6214V1.89743C44.0032 1.3944 43.8015 0.911972 43.4425 0.556276C43.0836 0.200579 42.5967 0.000734756 42.089 0.000734756H11.4874C11.2358 0.000343889 10.9866 0.0490397 10.7541 0.144135C10.5216 0.239231 10.3102 0.378831 10.1322 0.554914C9.95412 0.730997 9.81285 0.940133 9.71642 1.17036C9.61999 1.40058 9.57033 1.64735 9.57023 1.89662V1.89743ZM28.7103 49.3106H5.74189V15.1727H28.7103V49.3106ZM38.2578 39.8281H34.4519V9.48332H15.3119V5.69147H38.2578V39.8281Z" fill="#FF0662"/>
</g>
<defs>
<clipPath id="clip0_161_1238">
<rect width="44" height="55" fill="white"/>
</clipPath>
</defs>
</svg>
