<svg width="40" height="40" viewBox="0 0 40 40" fill="none" xmlns="http://www.w3.org/2000/svg">
<path d="M35.8082 0.481536L39.0724 3.74486C39.3278 3.94509 39.4958 4.23623 39.5414 4.55751C39.5869 4.87879 39.5065 5.20549 39.3168 5.46881L5.46862 39.3169C5.20544 39.5065 4.87909 39.5868 4.55795 39.5412C4.2368 39.4957 3.94572 39.3279 3.74565 39.0726L0.4814 35.8081C0.226041 35.6079 0.0580016 35.3167 0.0124511 34.9955C-0.0330994 34.6742 0.0473537 34.3479 0.236994 34.0846L34.086 0.23611C34.3493 0.0468554 34.6755 -0.0331374 34.9964 0.0125622C35.3174 0.0582618 35.6082 0.226334 35.8082 0.481536Z" fill="#FF0064"/>
<path d="M5.46125 0.247782L39.3103 34.097C39.4999 34.3603 39.5804 34.6866 39.5348 35.0079C39.4893 35.3292 39.3212 35.6204 39.0659 35.8206L35.8212 39.0656C35.6208 39.321 35.3295 39.489 35.008 39.5346C34.6866 39.5801 34.36 39.4995 34.0966 39.3098L0.247567 5.46099C0.0581253 5.19761 -0.0222198 4.87092 0.0233223 4.54969C0.0688644 4.22847 0.236761 3.93739 0.491948 3.73704L3.73665 0.492412C3.93714 0.237169 4.22849 0.0689784 4.54985 0.0234387C4.87121 -0.022101 5.19773 0.0582926 5.46125 0.247782Z" fill="#FF0064"/>
</svg>
