<svg width="64" height="40" viewBox="0 0 64 40" fill="none" xmlns="http://www.w3.org/2000/svg">
<path d="M36.2802 31.626H53.0242C53.5176 31.6258 53.9907 31.4297 54.3394 31.0808C54.6882 30.7318 54.8842 30.2587 54.8842 29.7654V1.85975C54.884 1.36641 54.6878 0.893487 54.3389 0.544711C53.99 0.195936 53.5169 2.48901e-07 53.0235 2.86806e-07H38.1401C37.8934 2.86806e-07 37.6569 0.0978684 37.4825 0.272267C37.3081 0.446665 37.2101 0.683237 37.2101 0.929873V4.64972C37.2101 4.77184 37.2342 4.89268 37.281 5.0055C37.3277 5.11833 37.3962 5.2208 37.4825 5.30715C37.5689 5.3935 37.6714 5.46217 37.7842 5.5089C37.897 5.55563 38.0179 5.57959 38.1401 5.57959H49.2994V26.0427H36.2759C36.0292 26.0427 35.7926 26.1407 35.6183 26.3151C35.4439 26.4895 35.3459 26.7261 35.3459 26.9727V30.6924C35.3454 30.8152 35.3693 30.937 35.4161 31.0505C35.4628 31.164 35.5317 31.2671 35.6185 31.3539C35.7054 31.4407 35.8086 31.5095 35.9221 31.5562C36.0357 31.6029 36.1574 31.6266 36.2802 31.626ZM16.7448 30.6961V26.9763C16.7448 26.8541 16.7207 26.7332 16.6739 26.6203C16.6272 26.5075 16.5586 26.4049 16.4722 26.3185C16.3858 26.2321 16.2832 26.1636 16.1703 26.1169C16.0574 26.0702 15.9363 26.0463 15.8141 26.0464H5.5819V5.57959H17.6748C17.797 5.57969 17.918 5.55577 18.0309 5.50908C18.1438 5.46239 18.2464 5.39387 18.3328 5.30751C18.4193 5.22114 18.4878 5.11855 18.5346 5.00568C18.5814 4.89281 18.6054 4.7719 18.6054 4.64972V0.929873C18.6054 0.80769 18.5814 0.686788 18.5346 0.573915C18.4878 0.461041 18.4193 0.358452 18.3328 0.272089C18.2464 0.185726 18.1438 0.117207 18.0309 0.0705154C17.918 0.0238242 17.797 -9.55433e-05 17.6748 2.86806e-07H1.86063C1.36729 2.48901e-07 0.894157 0.195936 0.545245 0.544711C0.196332 0.893487 0.000193391 1.36641 0 1.85975V29.7698C0 30.2633 0.196044 30.7365 0.544977 31.0854C0.893911 31.4343 1.36717 31.6305 1.86063 31.6305H15.8141C15.9367 31.6305 16.0581 31.6063 16.1713 31.5592C16.2845 31.5122 16.3873 31.4431 16.4738 31.3562C16.5603 31.2693 16.6288 31.1662 16.6753 31.0528C16.7218 30.9394 16.7454 30.8187 16.7448 30.6961ZM21.8278 18.3334C22.0018 18.5077 22.2379 18.6059 22.4842 18.6062H28.8363V20.4659H21.3968C21.2746 20.4659 21.1536 20.49 21.0407 20.5368C20.9278 20.5836 20.8252 20.6521 20.7389 20.7386C20.6525 20.825 20.5841 20.9276 20.5374 21.0406C20.4907 21.1535 20.4667 21.2745 20.4668 21.3967V25.1164C20.4668 25.363 20.5648 25.5996 20.7391 25.774C20.9135 25.9484 21.1501 26.0464 21.3968 26.0464H24.1873V28.8369C24.1875 29.0836 24.2856 29.3202 24.4601 29.4945C24.6347 29.6689 24.8712 29.767 25.1179 29.767H28.8378C29.0844 29.767 29.3209 29.6689 29.4953 29.4945C29.6697 29.3201 29.7676 29.0836 29.7676 28.8369V26.0464H31.4686C31.7148 26.0459 31.9509 25.9478 32.125 25.7736L34.1446 23.7533C34.3188 23.5792 34.4169 23.3432 34.4174 23.0969V15.9738C34.417 15.7275 34.3188 15.4915 34.1446 15.3174L32.1243 13.2971C31.9501 13.1231 31.714 13.0253 31.4678 13.025H25.1158V11.1644H32.5553C32.802 11.1644 33.0387 11.0665 33.2132 10.8921C33.3877 10.7177 33.4858 10.4812 33.486 10.2345V6.51463C33.4858 6.26793 33.3877 6.0314 33.2132 5.85702C33.0387 5.68265 32.802 5.58476 32.5553 5.58476H29.7648V2.79336C29.7648 2.54672 29.6668 2.31033 29.4924 2.13593C29.318 1.96153 29.0815 1.86349 28.8348 1.86349H25.1151C24.8684 1.86349 24.6317 1.96137 24.4572 2.13575C24.2827 2.31013 24.1846 2.54665 24.1844 2.79336V5.58476H22.4835C22.2373 5.58498 22.0012 5.68284 21.8271 5.85685L19.8067 7.87703C19.6326 8.05116 19.5348 8.28736 19.5347 8.53357V15.6558C19.5349 15.902 19.6327 16.1381 19.8067 16.3123L21.8278 18.3334ZM62.3266 5.57959H58.6068C58.3601 5.57979 58.1236 5.67788 57.9492 5.85239C57.7749 6.02691 57.6769 6.26365 57.6769 6.51036V34.4151H6.51035C6.26371 34.4151 6.02714 34.5131 5.85274 34.6875C5.67835 34.8619 5.58039 35.0985 5.58039 35.3451V39.0648C5.58039 39.3114 5.67835 39.548 5.85274 39.7224C6.02714 39.8968 6.26371 39.9949 6.51035 39.9949H61.3945C61.6389 39.995 61.8808 39.9469 62.1066 39.8535C62.3324 39.76 62.5375 39.6229 62.7103 39.4502C62.8831 39.2774 63.0202 39.0721 63.1137 38.8463C63.2071 38.6205 63.2552 38.3786 63.2551 38.1342V6.50591C63.254 6.26028 63.1557 6.02509 62.9817 5.85168C62.8078 5.67827 62.5722 5.57998 62.3266 5.57959Z" fill="#FF0662"/>
</svg>
