<svg width="494" height="722" viewBox="0 0 494 722" fill="none" xmlns="http://www.w3.org/2000/svg">
<path d="M-175.183 401.164L-175.185 401.163C-176.614 399.677 -177.681 397.918 -178.319 396.001C-178.957 394.085 -179.154 392.049 -178.892 390.026L-178.892 390.022M-175.183 401.164L-180.381 389.809L-178.892 390.022M-175.183 401.164C-173.757 402.652 -171.996 403.834 -170.014 404.627C-168.032 405.421 -165.874 405.807 -163.683 405.755L-163.673 405.755L-163.663 405.754L86.9703 403.115L86.9841 403.115L150.699 403.015L154.09 403.01L151.863 405.473L110.187 451.563L110.182 451.568L110.178 451.573L-55.9251 631.712L-55.9323 631.719L-55.9395 631.727C-57.4176 633.284 -58.5297 635.104 -59.2074 637.063C-59.8849 639.022 -60.113 641.076 -59.8828 643.089C-59.6527 645.101 -58.9694 647.032 -57.8786 648.755C-56.7886 650.476 -55.3134 651.956 -53.546 653.095M-175.183 401.164L-53.546 653.095M-178.892 390.022L-169.899 322.084M-178.892 390.022L-169.899 322.084M-169.899 322.084C-169.43 318.599 -167.624 315.336 -164.793 312.922C-161.966 310.511 -158.325 309.125 -154.557 309.024M-169.899 322.084L5.03177 692.263L5.83103 691.034M-154.557 309.024L-154.578 309.024L-154.607 307.554L-154.538 309.024C-154.545 309.024 -154.551 309.024 -154.557 309.024ZM-154.557 309.024L368.343 309.04L26.1681 688.458C23.6189 691.12 20.1452 692.852 16.3958 693.325C12.6418 693.798 8.89029 692.974 5.83502 691.037L5.83103 691.034M5.83103 691.034L-53.5418 653.098M5.83103 691.034L-53.5418 653.098M-53.5418 653.098C-53.5432 653.097 -53.5446 653.096 -53.546 653.095M-53.5418 653.098L-53.546 653.095" stroke="#FFB400" stroke-width="2.97221"/>
<path d="M-278.927 338.965L-278.928 338.963C-280.69 337.13 -282.006 334.96 -282.793 332.595C-283.58 330.229 -283.821 327.717 -283.496 325.221L-272.583 242.983C-272.582 242.982 -272.582 242.982 -272.582 242.981C-272.002 238.686 -269.776 234.672 -266.294 231.705C-262.816 228.74 -258.338 227.038 -253.702 226.916C-253.696 226.916 -253.69 226.916 -253.683 226.916L379.992 227.126L-34.8286 686.797C-34.8332 686.802 -34.8379 686.807 -34.8425 686.812C-37.979 690.087 -42.2523 692.216 -46.8641 692.796C-51.4804 693.376 -56.0983 692.363 -59.8626 689.974L-59.8667 689.971M-278.927 338.965L-60.6663 691.2L-59.8667 689.971M-278.927 338.965C-277.168 340.8 -274.998 342.257 -272.557 343.235C-270.116 344.213 -267.46 344.689 -264.766 344.626L-264.755 344.625L-264.745 344.625L38.6508 341.521L38.6645 341.521L115.792 341.424L119.184 341.42L116.956 343.882L66.487 399.66L66.4823 399.665L66.4776 399.67L-134.667 617.669L-134.674 617.677L-134.681 617.685C-136.5 619.599 -137.87 621.838 -138.705 624.251C-139.541 626.664 -139.823 629.196 -139.54 631.678C-139.257 634.161 -138.415 636.543 -137.07 638.669C-135.725 640.794 -133.905 642.621 -131.726 644.025M-278.927 338.965L-131.726 644.025M-59.8667 689.971L-131.724 644.026M-59.8667 689.971L-131.724 644.026M-131.724 644.026C-131.725 644.025 -131.725 644.025 -131.726 644.025M-131.724 644.026L-131.726 644.025" stroke="#FF7300" stroke-width="2.97221"/>
</svg>
