<svg width="100" height="60" viewBox="0 0 289 60" fill="none" xmlns="http://www.w3.org/2000/svg">
<path d="M278.846 2.45779e-05H20.338C18.0603 -0.00487056 15.8473 0.721582 14.056 2.0622C12.2647 3.40283 10.9996 5.27941 10.4649 7.38918L0.289651 48.0325C-0.0752474 49.4567 -0.0956449 50.9413 0.229988 52.3742C0.55562 53.807 1.21875 55.1505 2.16931 56.3033C3.11986 57.456 4.33295 58.3878 5.7169 59.0282C7.10085 59.6687 8.61948 60.0009 10.158 60H268.663C270.941 60.0049 273.153 59.2783 274.943 57.9376C276.734 56.5969 277.998 54.7203 278.532 52.6108L288.713 11.9663C289.076 10.5424 289.095 9.05857 288.769 7.62663C288.442 6.19469 287.779 4.85204 286.829 3.69985C285.879 2.54766 284.667 1.61599 283.284 0.975095C281.901 0.334203 280.384 0.000820089 278.846 2.45779e-05Z" fill="#FF0064"/>
</svg>
