<svg width="132" height="43" viewBox="0 0 132 43" fill="none" xmlns="http://www.w3.org/2000/svg">
<path d="M53.5252 11.3915C50.2413 11.2655 46.9827 12.0193 44.08 13.5765C42.4708 14.4589 41.0728 15.6876 39.9848 17.1758C38.8968 18.664 38.1452 20.3754 37.7832 22.1892L37.4369 23.7378C36.6498 27.0471 36.9961 29.6882 38.4863 31.5869C40.4278 34.1219 43.4713 35.2038 48.6662 35.2038C57.7441 35.2038 62.8235 31.8202 64.5446 24.3954L64.8805 22.8468C65.6571 19.6648 65.3002 17.0237 63.831 15.1145C61.8685 12.537 58.7201 11.3915 53.5252 11.3915ZM57.7965 22.5286L57.5342 23.5893C56.6316 27.1214 53.966 28.8291 49.3798 28.8291C46.6302 28.8291 45.6227 28.2351 44.8671 27.2593C44.5673 26.7937 44.3758 26.2655 44.3067 25.7145C44.2376 25.1634 44.2929 24.6037 44.4683 24.0772L44.7307 23.0166C45.6542 19.3678 48.089 17.8086 52.8431 17.8086C55.6661 17.8086 56.6631 18.3814 57.4292 19.3784C57.7204 19.842 57.9046 20.3659 57.9682 20.9112C58.0318 21.4565 57.9731 22.0093 57.7965 22.5286V22.5286Z" fill="black"/>
<path d="M86.0062 11.3915C82.7223 11.2655 79.4637 12.0193 76.561 13.5765C74.9518 14.4589 73.5538 15.6876 72.4658 17.1758C71.3778 18.664 70.6262 20.3754 70.2642 22.1892L69.9178 23.7378C69.1307 27.0471 69.4666 29.6882 70.9673 31.5869C72.9088 34.1219 75.9523 35.2038 81.1472 35.2038C90.2041 35.2038 95.315 31.8202 97.0361 24.3954L97.372 22.8468C98.1486 19.6648 97.7917 17.0237 96.3225 15.1145C94.402 12.537 91.1801 11.3915 86.0062 11.3915ZM90.2775 22.5286L90.0152 23.5893C89.1126 27.1214 86.447 28.8291 81.8608 28.8291C79.1112 28.8291 78.0932 28.2351 77.3481 27.2593C77.0483 26.7937 76.8568 26.2655 76.7877 25.7145C76.7186 25.1634 76.7739 24.6037 76.9493 24.0772L77.2117 23.0166C78.1352 19.3678 80.5595 17.8086 85.3241 17.8086C88.1471 17.8086 89.1441 18.3814 89.9102 19.3784C90.2031 19.8412 90.3892 20.3646 90.4546 20.91C90.52 21.4553 90.4631 22.0086 90.288 22.5286H90.2775Z" fill="black"/>
<path d="M129.991 14.8497C128.249 12.601 125.573 11.4131 121.144 11.4131C116.716 11.4131 114.123 12.2298 111.384 14.2451L111.657 13.0784C111.688 12.9657 111.692 12.8472 111.668 12.7328C111.644 12.6184 111.594 12.5114 111.521 12.4207C111.449 12.3269 111.357 12.2512 111.251 12.1996C111.145 12.1481 111.029 12.1221 110.912 12.1237H106.2C105.956 12.1183 105.718 12.1989 105.526 12.3519C105.334 12.5048 105.202 12.7204 105.15 12.9617L98.4023 41.6531C98.3625 41.8144 98.3607 41.9829 98.3972 42.1451C98.4337 42.3072 98.5073 42.4584 98.6122 42.5865C98.7111 42.7163 98.8383 42.8212 98.984 42.8929C99.1296 42.9647 99.2898 43.0014 99.4518 43.0002H104.437C104.681 43.0056 104.919 42.925 105.111 42.772C105.302 42.6191 105.435 42.4035 105.486 42.1622L107.69 32.7646C109.716 34.5465 111.951 35.2042 115.876 35.2042C124.545 35.2042 129.183 31.5024 130.831 24.1731L131.114 22.8472C131.88 19.4743 131.503 16.7801 129.991 14.8497ZM124.03 22.423L123.789 23.5155C122.666 28.1506 118.048 28.8189 115.036 28.8189C109.947 28.8189 109.642 26.9733 109.411 25.4883L110.146 22.0623C111.605 19.1667 114.48 17.756 118.919 17.756C121.68 17.756 122.907 18.2863 123.705 19.347C123.988 19.7967 124.164 20.3062 124.221 20.836C124.277 21.3657 124.212 21.9015 124.03 22.4017V22.423Z" fill="black"/>
<path d="M32.0218 27.4717H3.26638C3.02202 27.4828 2.78776 27.5735 2.59861 27.7303C2.40945 27.887 2.27556 28.1014 2.21692 28.3414L0.999532 33.1463C0.960132 33.3145 0.958535 33.4895 0.994858 33.6583C1.03118 33.8272 1.1045 33.9857 1.20943 34.1222C1.31586 34.2581 1.45144 34.3679 1.60596 34.4433C1.76049 34.5186 1.92991 34.5575 2.10147 34.557H30.8569C31.1118 34.5569 31.3591 34.4699 31.5591 34.3102C31.759 34.1504 31.8999 33.9273 31.9589 33.6767L33.0923 28.8824C33.1295 28.7141 33.13 28.5396 33.0937 28.3711C33.0575 28.2026 32.9854 28.0441 32.8824 27.9066C32.7788 27.7753 32.6482 27.6683 32.4995 27.5932C32.3509 27.5181 32.1879 27.4767 32.0218 27.4717V27.4717Z" fill="black"/>
<path d="M9.39546 7.03231H28.4748L15.6083 17.8513C15.4827 17.9521 15.3802 18.0792 15.3077 18.2238C15.2352 18.3684 15.1946 18.5272 15.1885 18.6892C15.1764 18.8513 15.2014 19.014 15.2614 19.1648C15.3215 19.3157 15.415 19.4505 15.5349 19.559L19.0296 22.9637C19.2352 23.1729 19.5145 23.2912 19.8062 23.2925C20.0658 23.292 20.3174 23.2022 20.5198 23.038L47.1763 0.106068L47.3128 0H10.4449C10.1987 0.00999581 9.96247 0.101609 9.77281 0.260708C9.58315 0.419808 9.45055 0.637555 9.39546 0.880365L8.34599 5.63221C8.30593 5.79863 8.30401 5.9721 8.34038 6.13938C8.37676 6.30666 8.45047 6.46333 8.55589 6.59743C8.65719 6.72609 8.78447 6.83143 8.92925 6.90642C9.07403 6.98141 9.23297 7.02433 9.39546 7.03231V7.03231Z" fill="black"/>
</svg>
