<svg width="46" height="52" viewBox="0 0 46 52" fill="none" xmlns="http://www.w3.org/2000/svg">
<g clip-path="url(#clip0_725_19609)">
<path d="M43.9684 16.9843H39.7936C39.7936 7.59642 32.1884 0 22.8156 0C13.4428 0 5.83764 7.60805 5.83764 16.9843H1.65128C0.732612 16.9843 0 17.7289 0 18.6362V50.3481C0 51.2555 0.732612 52 1.65128 52H22.2575H27.1997H43.98C44.887 52 45.6313 51.2555 45.6313 50.3481V18.6362C45.6196 17.7289 44.8754 16.9843 43.9684 16.9843ZM22.804 4.93244C29.4673 4.93244 34.863 10.3302 34.863 16.996H10.7566C10.7566 10.3302 16.1524 4.93244 22.804 4.93244ZM40.6774 47.0559H32.1419H4.94222V21.94H40.6774V47.0559V47.0559Z" fill="#FF0064"/>
</g>
<defs>
<clipPath id="clip0_725_19609">
<rect width="45.6196" height="52" fill="white"/>
</clipPath>
</defs>
</svg>
