<svg width="54" height="52" viewBox="0 0 54 52" fill="none" xmlns="http://www.w3.org/2000/svg">
<path d="M13.5664 25.7633L15.8756 28.0477C16.1988 28.3675 16.7184 28.3675 17.0301 28.0477L19.628 25.4777L22.2258 28.0477C22.5491 28.3675 23.0686 28.3675 23.3804 28.0477L25.6895 25.7633C26.0128 25.4434 26.0128 24.9295 25.6895 24.6211L20.7826 19.7666C20.1475 19.1384 19.1084 19.1384 18.4734 19.7666L13.5664 24.6211C13.2547 24.9295 13.2547 25.4434 13.5664 25.7633ZM33.5523 21.8455L30.9545 19.2755C30.6312 18.9557 30.1116 18.9557 29.7999 19.2755L27.4907 21.5599C27.1674 21.8797 27.1674 22.3937 27.4907 22.7021L32.3977 27.5566C33.0327 28.1848 34.0718 28.1848 34.7069 27.5566L39.6139 22.7021C39.9371 22.3823 39.9371 21.8683 39.6139 21.5599L37.3047 19.2755C36.9814 18.9557 36.4618 18.9557 36.1501 19.2755L33.5523 21.8455ZM54 23.6616C54 16.0773 47.7652 9.89787 40.0872 9.89787C39.3368 9.89787 38.5978 9.95498 37.8589 10.0692C35.0417 4.57514 29.2803 1 22.907 1C14.2245 1 7.05452 7.56775 6.22322 15.9516C2.43618 17.882 0 21.7655 0 26.0945C0 32.0683 4.69917 36.9798 10.6337 37.4025V42.9422C9.16741 43.7875 8.17447 45.3523 8.17447 47.1456C8.17447 49.8298 10.3682 52 13.0815 52C15.7947 52 17.9885 49.8298 17.9885 47.1456C17.9885 45.3523 16.9955 43.776 15.5292 42.9422V37.4367H23.7152V42.9422C22.2489 43.7875 21.2559 45.3523 21.2559 47.1456C21.2559 49.8298 23.4496 52 26.1629 52C28.8762 52 31.0699 49.8298 31.0699 47.1456C31.0699 45.3523 30.077 43.776 28.6106 42.9422V37.4367H36.7967V42.9422C35.3303 43.7875 34.3374 45.3523 34.3374 47.1456C34.3374 49.8298 36.5311 52 39.2444 52C41.9577 52 44.1514 49.8298 44.1514 47.1456C44.1514 45.3523 43.1584 43.776 41.6921 42.9422V37.3339C48.6312 36.523 54 30.7091 54 23.6616ZM40.0872 32.5709H11.4535C7.83964 32.5709 4.90699 29.6697 4.90699 26.0945C4.90699 23.3189 6.74278 20.7718 9.37524 19.8923L11.0494 19.3326V17.585C11.0494 11.1086 16.372 5.843 22.9185 5.843C27.9641 5.843 32.467 9.00694 34.118 13.7129L34.9147 15.9859L37.2123 15.2206C38.136 14.9122 39.0943 14.7637 40.0872 14.7637C45.052 14.7637 49.093 18.7615 49.093 23.673C49.093 28.5731 45.052 32.5709 40.0872 32.5709Z" fill="#FF9B00"/>
</svg>
