<svg width="72" height="52" viewBox="0 0 72 52" fill="none" xmlns="http://www.w3.org/2000/svg">
<g clip-path="url(#clip0_725_19588)">
<path d="M66.0607 0.360872L47.5623 18.8341L37.599 8.88434C37.1172 8.40317 36.3429 8.40317 35.8782 8.88434L32.4367 12.3212C31.9549 12.8024 31.9549 13.5757 32.4367 14.0397L45.8588 27.4435C46.8052 28.3886 48.3539 28.3886 49.3003 27.4435L53.6711 23.0787V44.6966H7.31331V16.6861H25.6052C26.2763 16.6861 26.8269 16.1362 26.8269 15.466V10.6028C26.8269 9.93258 26.2763 9.38268 25.6052 9.38268H2.44351C1.08409 9.38268 0 10.4825 0 11.8229V49.577C0 50.9174 1.08409 52.0172 2.44351 52.0172H58.5409C59.8831 52.0172 60.9844 50.9346 60.9844 49.577V15.7753L71.2402 5.51619C71.7221 5.03503 71.7221 4.26173 71.2402 3.79775L67.7987 0.360872C67.2997 -0.120291 66.5425 -0.120291 66.0607 0.360872ZM10.9786 21.5664V28.8698H20.7354V21.5664H10.9786ZM10.9786 39.8334H45.1188V32.5301H10.9786V39.8334Z" fill="#FF0064"/>
</g>
<defs>
<clipPath id="clip0_725_19588">
<rect width="71.5844" height="52" fill="white"/>
</clipPath>
</defs>
</svg>
