<svg width="52" height="52" viewBox="0 0 52 52" fill="none" xmlns="http://www.w3.org/2000/svg">
<path d="M24.0773 23.1126V21.1832H31.7816C32.3115 21.1832 32.7463 20.7484 32.7463 20.2184V16.3731C32.7463 15.8432 32.3115 15.4084 31.7816 15.4084H28.8874V12.5142C28.8874 11.9843 28.4526 11.5495 27.9227 11.5495H24.0773C23.5474 11.5495 23.1126 11.9843 23.1126 12.5142V15.4084H21.3462C21.0881 15.4084 20.8435 15.5035 20.6668 15.6938L18.5743 17.7863C18.3977 17.9629 18.289 18.2075 18.289 18.4656V25.8437C18.289 26.1019 18.3841 26.3465 18.5743 26.5231L20.6668 28.6156C20.8435 28.7923 21.0881 28.901 21.3462 28.901H27.9227V30.8304H20.2184C19.6885 30.8304 19.2537 31.2652 19.2537 31.7951V35.6404C19.2537 36.1704 19.6885 36.6052 20.2184 36.6052H23.1126V39.4993C23.1126 40.0293 23.5474 40.4641 24.0773 40.4641H27.9227C28.4526 40.4641 28.8874 40.0293 28.8874 39.4993V36.6052H30.6538C30.9119 36.6052 31.1565 36.5101 31.3332 36.3198L33.4257 34.2273C33.6023 34.0507 33.711 33.8061 33.711 33.5479V26.1698C33.711 25.9117 33.6159 25.6671 33.4257 25.4905L31.3332 23.398C31.1565 23.2213 30.9119 23.1126 30.6538 23.1126H24.0773V23.1126ZM25.9932 0C11.6582 0 0 11.6582 0 25.9932C0 40.3282 11.6582 51.9864 25.9932 51.9864C40.3282 51.9864 51.9864 40.3282 51.9864 25.9932C52 11.6582 40.3282 0 25.9932 0ZM25.9932 46.2252C14.8377 46.2252 5.77476 37.1487 5.77476 26.0068C5.77476 14.8513 14.8513 5.78835 25.9932 5.78835C37.1351 5.78835 46.2117 14.8649 46.2117 26.0068C46.2252 37.1487 37.1487 46.2252 25.9932 46.2252Z" fill="#FF0064"/>
</svg>
