<svg width="56" height="53" viewBox="0 0 56 53" fill="none" xmlns="http://www.w3.org/2000/svg">
<g clip-path="url(#clip0)">
<path d="M55.1897 18.2707H43.8678V15.7985H51.1494C51.5945 15.7985 51.9597 15.4271 51.9597 14.9744V11.6897C51.9597 11.237 51.5945 10.8656 51.1494 10.8656H43.8678V2.63644C43.8678 1.73111 43.1488 0.988281 42.2471 0.988281L14.7529 0.999888C13.8626 0.999888 13.1322 1.73111 13.1322 2.64804V33.0809H1.81033C1.36522 33.0809 1 33.4523 1 33.905V37.1897C1 37.6424 1.36522 38.0138 1.81033 38.0138H13.1322V40.486H5.85059C5.40548 40.486 5.04026 40.8574 5.04026 41.3101V44.5948C5.04026 45.0475 5.40548 45.4189 5.85059 45.4189H13.1322V50.3517C13.1322 51.2571 13.8512 51.9999 14.7529 51.9999H42.2586C43.1488 51.9999 43.8792 51.2687 43.8792 50.3517V23.2036H55.2011C55.6462 23.2036 56.0114 22.8322 56.0114 22.3795V19.0948C56 18.6421 55.6348 18.2707 55.1897 18.2707ZM17.9828 5.93275H39.0172V37.1897H17.9828V5.93275ZM17.9828 47.067V42.1342H39.0172V47.067H17.9828ZM26.885 19.0948V17.4466H33.3563C33.8014 17.4466 34.1666 17.0752 34.1666 16.6226V13.3378C34.1666 12.8852 33.8014 12.5138 33.3563 12.5138H30.9253V10.0531C30.9253 9.60048 30.5601 9.22906 30.115 9.22906H26.885C26.4399 9.22906 26.0747 9.60048 26.0747 10.0531V12.5254H24.591C24.3741 12.5254 24.1687 12.6066 24.0203 12.7691L22.2627 14.5566C22.1143 14.7074 22.023 14.9164 22.023 15.1369V21.4394C22.023 21.6599 22.1029 21.8688 22.2627 22.0197L24.0203 23.8071C24.1687 23.958 24.3741 24.0509 24.591 24.0509H30.115V25.699H23.6437C23.1986 25.699 22.8334 26.0704 22.8334 26.5231V29.7846C22.8334 30.2373 23.1986 30.6087 23.6437 30.6087H26.0747V33.0809C26.0747 33.5336 26.4399 33.905 26.885 33.905H30.115C30.5601 33.905 30.9253 33.5336 30.9253 33.0809V30.6087H32.409C32.6259 30.6087 32.8313 30.5274 32.9797 30.3649L34.7373 28.5775C34.8857 28.4266 34.977 28.2177 34.977 27.9972V21.6947C34.977 21.4742 34.8971 21.2653 34.7373 21.1144L32.9797 19.3385C32.8313 19.1876 32.6259 19.0948 32.409 19.0948H26.885Z" fill="#FF9B00"/>
</g>
<defs>
<clipPath id="clip0">
<rect width="55" height="51" fill="white" transform="translate(1 1)"/>
</clipPath>
</defs>
</svg>
