<svg width="56" height="53" viewBox="0 0 56 53" fill="none" xmlns="http://www.w3.org/2000/svg">
<path d="M50.1287 4.33107L49.9147 3.99791L47.3735 0.133264C47.32 0.0533055 47.2264 0 47.1194 0H6.8479C6.72752 0 6.60715 0.0666318 6.54028 0.159916L2.71508 6.01019L2.50109 6.34335L0.147123 9.91482C0.0534992 10.0747 0 10.248 0 10.4345C0 10.4345 0 10.6611 0 10.9809C0 12.9399 0.494868 14.8855 1.4846 16.578C1.60498 16.7779 1.72535 16.9645 1.84572 17.1644C2.54121 18.1905 3.37045 19.1233 4.33343 19.8963C4.54743 20.0695 4.6678 20.336 4.6678 20.6159V50.0538C4.6678 50.5736 5.08242 50.9867 5.60404 50.9867H8.45287V51H45.4208V50.9867H49.2192C49.7409 50.9867 50.1555 50.5736 50.1555 50.0538V19.7497C50.1555 19.5098 50.2491 19.2699 50.423 19.0967C51.0248 18.5103 51.5598 17.8573 52.028 17.151C52.9909 15.7118 53.7266 14.086 53.9406 12.3002C54.0743 11.2075 53.9406 11.0742 53.9406 10.5145C53.9406 10.3279 53.8871 10.1547 53.7934 10.0081L50.1287 4.33107ZM27.4317 45.3363H21.7474V34.0089H27.4317V45.3363ZM44.498 45.3363H33.1294V33.1826H33.1026V28.3452H16.0631V33.1826V45.3363H10.3655V22.5216C10.9272 22.6015 11.5023 22.6415 12.0774 22.6415C14.8728 22.6415 17.4407 21.7086 19.5138 20.1361C21.5735 21.7086 24.1549 22.6415 26.9502 22.6415C29.7455 22.6415 32.3135 21.7086 34.3866 20.1361C36.4597 21.7086 39.0277 22.6415 41.823 22.6415C42.7325 22.6415 43.6286 22.5349 44.4846 22.3483L44.498 45.3363ZM48.2563 11.8871C47.534 14.8056 44.9126 16.9645 41.823 16.9645C40.4053 16.9645 39.0945 16.5114 38.0112 15.7384C36.6068 14.739 36.2724 13.0998 35.9515 11.3141H33.1026C32.795 13.0998 32.153 14.739 30.7487 15.7384C29.6653 16.5114 28.3546 16.9645 26.9502 16.9645C25.5325 16.9645 24.2218 16.5114 23.1384 15.7384C21.734 14.739 21.0921 13.0998 20.7844 11.3141H17.9356C17.628 13.0998 17.2802 14.739 15.8759 15.7384C14.7925 16.5114 13.4818 16.9645 12.0641 16.9645C9.00124 16.9645 6.4199 14.8456 5.65754 11.9937C5.64416 11.9671 5.64416 11.9404 5.63079 11.9138L5.65754 11.8738L7.24914 9.46172L7.46314 9.12856L9.7101 5.6637H44.2171L45.1533 7.10295L45.3673 7.43611L48.2563 11.8871Z" fill="#FF9B00"/>
</svg>
