<svg width="46" height="57" viewBox="0 0 46 57" fill="none" xmlns="http://www.w3.org/2000/svg">
<path d="M43.3601 16.9843H39.2431C39.2431 7.59642 31.7431 0 22.5 0C13.2569 0 5.75688 7.60805 5.75688 16.9843H1.62844C0.722477 16.9843 0 17.7289 0 18.6362V50.3481C0 51.2555 0.722477 52 1.62844 52H21.9495H26.8234H43.3716C44.2661 52 45 51.2555 45 50.3481V18.6362C44.9885 17.7289 44.2546 16.9843 43.3601 16.9843ZM22.4885 4.93244C29.0596 4.93244 34.3807 10.3302 34.3807 16.996H10.6078C10.6078 10.3302 15.9289 4.93244 22.4885 4.93244ZM40.1147 47.0559H31.6972H4.87385V21.94H40.1147V47.0559Z" fill="#FF9B00"/>
</svg>
