<svg width="58" height="53" viewBox="0 0 58 53" fill="none" xmlns="http://www.w3.org/2000/svg">
<g clip-path="url(#clip0)">
<path d="M51.0007 10.3946V6.60988C51.0007 6.09015 50.5742 5.6637 50.0545 5.6637H45.337V0.946172C45.337 0.426444 44.9105 0 44.3908 0H40.6194C40.0997 0 39.6733 0.426444 39.6733 0.946172V7.3295L36.5682 10.4345C32.7036 7.42278 27.8394 5.63705 22.5622 5.6637C10.4219 5.73034 0.17391 15.8983 0.000667054 28.012C-0.172576 40.7653 10.2353 51.1732 22.9753 51C35.1023 50.8401 45.2703 40.5788 45.3236 28.4518C45.3503 23.1745 43.5645 18.3104 40.5528 14.4458L43.6712 11.3274H50.0545C50.5742 11.3274 51.0007 10.9143 51.0007 10.3946ZM39.6599 28.3318C39.6599 37.7003 32.0372 45.3363 22.6555 45.3363C13.2871 45.3363 5.65105 37.7136 5.65105 28.3318C5.66437 18.9634 13.2871 11.3274 22.6688 11.3274C26.3336 11.3274 29.7318 12.5001 32.517 14.4724L29.1188 17.8707C27.2398 16.7113 25.0676 16.0716 22.8021 16.0449C19.5371 16.005 16.3788 17.2843 14.0467 19.5764C11.6879 21.9219 10.3952 25.0269 10.3952 28.3318C10.3952 31.6101 11.6746 34.6885 13.9933 37.0073C16.3121 39.3261 19.3905 40.6054 22.6688 40.6054C25.6139 40.6054 28.3858 39.5793 30.6113 37.7003C31.0244 37.3405 31.0511 36.7008 30.6646 36.3143L27.9727 33.6224C27.6395 33.2893 27.1065 33.2493 26.7334 33.5425C25.4407 34.5553 23.8149 35.0483 22.1224 34.9017C20.8164 34.7951 19.5504 34.2887 18.5376 33.4625C16.8452 32.0766 15.9523 30.0243 16.0989 27.8521C16.1922 26.4528 16.7386 25.1069 17.6448 24.0408C18.9241 22.5349 20.7498 21.6953 22.6955 21.6953C23.4684 21.6953 24.2147 21.8286 24.921 22.0818L21.3628 25.6399C20.9897 26.0131 20.9897 26.6127 21.3628 26.9726L24.0281 29.6378C24.4012 30.011 25.0009 30.011 25.3607 29.6378L36.5416 18.457C38.5005 21.2689 39.6599 24.6671 39.6599 28.3318Z" fill="#FF9B00"/>
</g>
<defs>
<clipPath id="clip0">
<rect width="51" height="51" fill="white"/>
</clipPath>
</defs>
</svg>
