<svg width="51" height="52" viewBox="0 0 51 52" fill="none" xmlns="http://www.w3.org/2000/svg">
<path d="M23.6143 22.6681V20.7758H31.1704C31.6901 20.7758 32.1165 20.3494 32.1165 19.8296V16.0583C32.1165 15.5385 31.6901 15.1121 31.1704 15.1121H28.3319V12.2736C28.3319 11.7539 27.9054 11.3274 27.3857 11.3274H23.6143C23.0946 11.3274 22.6681 11.7539 22.6681 12.2736V15.1121H20.9357C20.6825 15.1121 20.4426 15.2054 20.2694 15.392L18.2171 17.4442C18.0439 17.6175 17.9373 17.8573 17.9373 18.1105V25.3467C17.9373 25.5999 18.0306 25.8398 18.2171 26.0131L20.2694 28.0653C20.4426 28.2386 20.6825 28.3452 20.9357 28.3452H27.3857V30.2375H19.8296C19.3099 30.2375 18.8835 30.664 18.8835 31.1837V34.9551C18.8835 35.4748 19.3099 35.9012 19.8296 35.9012H22.6681V38.7397C22.6681 39.2595 23.0946 39.6859 23.6143 39.6859H27.3857C27.9054 39.6859 28.3319 39.2595 28.3319 38.7397V35.9012H30.0643C30.3175 35.9012 30.5574 35.8079 30.7306 35.6214L32.7829 33.5691C32.9561 33.3959 33.0627 33.156 33.0627 32.9028V25.6666C33.0627 25.4134 32.9694 25.1735 32.7829 25.0003L30.7306 22.948C30.5574 22.7748 30.3175 22.6681 30.0643 22.6681H23.6143ZM25.4933 0C11.434 0 0 11.434 0 25.4933C0 39.5527 11.434 50.9867 25.4933 50.9867C39.5527 50.9867 50.9867 39.5527 50.9867 25.4933C51 11.434 39.5527 0 25.4933 0ZM25.4933 45.3363C14.5524 45.3363 5.6637 36.4343 5.6637 25.5067C5.6637 14.5657 14.5657 5.67703 25.4933 5.67703C36.421 5.67703 45.323 14.579 45.323 25.5067C45.3363 36.4343 36.4343 45.3363 25.4933 45.3363Z" fill="#FF9B00"/>
<path d="M9.23242 42.2324L41.2324 10.2324" stroke="#FF9B00" stroke-width="5"/>
</svg>
