<svg width="80" height="80" viewBox="0 0 80 80" fill="none" xmlns="http://www.w3.org/2000/svg">
<mask id="mask0" mask-type="alpha" maskUnits="userSpaceOnUse" x="0" y="0" width="80" height="80">
<rect width="80" height="80" fill="#C4C4C4"/>
</mask>
<g mask="url(#mask0)">
</g>
<g clip-path="url(#clip0)">
<path d="M34.4862 9.082L6.57822 18.0705C6.14142 18.2115 5.89351 18.6814 6.03518 19.1162L7.06225 22.2886C7.20391 22.7233 7.67613 22.9701 8.11293 22.8291L35.0057 14.1696L61.8866 22.8291C62.3234 22.9701 62.7956 22.7351 62.9373 22.2886L63.9643 19.1162C64.106 18.6814 63.8699 18.2115 63.4213 18.0705L35.5133 9.082C35.1827 8.97625 34.8168 8.97625 34.4862 9.082ZM11.5719 63.9998H24.9593C25.4197 63.9998 25.7974 63.6238 25.7974 63.1655V59.8404C25.7974 59.3821 25.4197 59.0062 24.9593 59.0062H11.5719C11.1115 59.0062 10.7337 59.3821 10.7337 59.8404V63.1655C10.7337 63.6238 11.1115 63.9998 11.5719 63.9998ZM23.2829 34.8489V31.5238C23.2829 31.0655 22.9051 30.6896 22.4447 30.6896H14.0865C13.6261 30.6896 13.2483 31.0655 13.2483 31.5238V34.8489C13.2483 35.3072 13.6261 35.6832 14.0865 35.6832H15.7628V52.3324H14.0865C13.6261 52.3324 13.2483 52.7084 13.2483 53.1666V56.4917C13.2483 56.95 13.6261 57.326 14.0865 57.326H22.4565C22.9169 57.326 23.2947 56.95 23.2947 56.4917V53.1783C23.2947 52.7201 22.9169 52.3441 22.4565 52.3441H20.7801V35.6832H22.4565C22.9169 35.6832 23.2829 35.3189 23.2829 34.8489ZM57.5894 24.0275H11.5719C11.1115 24.0275 10.7337 24.4035 10.7337 24.8617V28.1869C10.7337 28.6451 11.1115 29.0211 11.5719 29.0211H57.5894C58.0498 29.0211 58.4276 28.6451 58.4276 28.1869V24.8617C58.4276 24.4035 58.0498 24.0275 57.5894 24.0275ZM33.3293 43.1794V41.511H40.023C40.4834 41.511 40.8611 41.135 40.8611 40.6767V37.3516C40.8611 36.8934 40.4834 36.5174 40.023 36.5174H37.5084V34.0265C37.5084 33.5682 37.1306 33.1922 36.6702 33.1922H33.3293C32.8689 33.1922 32.4911 33.5682 32.4911 34.0265V36.5291H30.9564C30.7321 36.5291 30.5196 36.6114 30.3661 36.7759L28.5481 38.5736C28.3946 38.7263 28.3002 38.9378 28.3002 39.161V45.5411C28.3002 45.7643 28.3828 45.9758 28.5481 46.1286L30.3661 47.938C30.5196 48.0908 30.7321 48.1848 30.9564 48.1848H36.6702V49.8532H29.9766C29.5161 49.8532 29.1384 50.2292 29.1384 50.6874V54.0008C29.1384 54.4591 29.5161 54.835 29.9766 54.835H32.4911V57.3377C32.4911 57.7959 32.8689 58.1719 33.3293 58.1719H36.6702C37.1306 58.1719 37.5084 57.7959 37.5084 57.3377V54.835H39.0431C39.2674 54.835 39.4799 54.7528 39.6334 54.5883L41.4514 52.7789C41.6049 52.6261 41.6993 52.4146 41.6993 52.1914V45.8113C41.6993 45.5881 41.6167 45.3766 41.4514 45.2238L39.6334 43.4262C39.4799 43.2734 39.2674 43.1794 39.0431 43.1794H33.3293ZM45.0403 63.9998H58.4276C58.888 63.9998 59.2658 63.6238 59.2658 63.1655V59.8404C59.2658 59.3821 58.888 59.0062 58.4276 59.0062H45.0403C44.5799 59.0062 44.2021 59.3821 44.2021 59.8404V63.1655C44.2021 63.6238 44.5799 63.9998 45.0403 63.9998ZM56.7512 34.8489V31.5238C56.7512 31.0655 56.3735 30.6896 55.9131 30.6896H47.5548C47.0944 30.6896 46.7166 31.0655 46.7166 31.5238V34.8489C46.7166 35.3072 47.0944 35.6832 47.5548 35.6832H49.2312V52.3324H47.5548C47.0944 52.3324 46.7166 52.7084 46.7166 53.1666V56.4917C46.7166 56.95 47.0944 57.326 47.5548 57.326H55.9249C56.3853 57.326 56.763 56.95 56.763 56.4917V53.1783C56.763 52.7201 56.3853 52.3441 55.9249 52.3441H54.2485V35.6832H55.9249C56.3735 35.6832 56.7512 35.3189 56.7512 34.8489Z" fill="#FFB400"/>
</g>
<defs>
<clipPath id="clip0">
<rect width="58" height="55" fill="white" transform="translate(6 9)"/>
</clipPath>
</defs>
</svg>
