<svg width="80" height="80" viewBox="0 0 80 80" fill="none" xmlns="http://www.w3.org/2000/svg">
<mask id="mask0" mask-type="alpha" maskUnits="userSpaceOnUse" x="0" y="0" width="80" height="80">
<rect width="80" height="80" fill="#C4C4C4"/>
</mask>
<g mask="url(#mask0)">
<path d="M68.0865 36.7816H55.3237C54.822 36.7816 54.4103 37.189 54.4103 37.6856V41.2889C54.4103 41.7855 54.822 42.1929 55.3237 42.1929H68.0865C68.5883 42.1929 69 41.7855 69 41.2889V37.6856C69 37.1763 68.5883 36.7816 68.0865 36.7816ZM21.5897 41.2889V37.6856C21.5897 37.189 21.178 36.7816 20.6763 36.7816H7.91347C7.4117 36.7816 7 37.189 7 37.6856V41.2889C7 41.7855 7.4117 42.1929 7.91347 42.1929H20.6763C21.178 42.1929 21.5897 41.7855 21.5897 41.2889ZM36.1795 20.5348H39.8205C40.3223 20.5348 40.734 20.1273 40.734 19.6308V7.90402C40.734 7.40744 40.3223 7 39.8205 7H36.1795C35.6777 7 35.266 7.40744 35.266 7.90402V19.6308C35.266 20.1273 35.6777 20.5348 36.1795 20.5348ZM39.8205 58.427H36.1795C35.6777 58.427 35.266 58.8345 35.266 59.331V71.096C35.266 71.5926 35.6777 72 36.1795 72H39.8205C40.3223 72 40.734 71.5926 40.734 71.096V59.331C40.734 58.8345 40.3223 58.427 39.8205 58.427ZM50.8979 29.2693C51.2581 29.6259 51.8371 29.6259 52.1845 29.2693L61.2162 20.331C61.5765 19.9745 61.5765 19.4016 61.2162 19.0578L58.6431 16.5113C58.2828 16.1547 57.7039 16.1547 57.3565 16.5113L48.3248 25.4496C47.9645 25.8061 47.9645 26.379 48.3248 26.7228L50.8979 29.2693ZM25.1021 49.6925C24.7419 49.3359 24.1629 49.3359 23.8155 49.6925L14.7838 58.6308C14.4235 58.9873 14.4235 59.5602 14.7838 59.904L17.3569 62.4505C17.7172 62.807 18.2961 62.807 18.6435 62.4505L27.6752 53.5122C28.0355 53.1557 28.0355 52.5828 27.6752 52.239L25.1021 49.6925ZM52.1845 49.6925C51.8242 49.3359 51.2453 49.3359 50.8979 49.6925L48.3248 52.239C47.9645 52.5955 47.9645 53.1685 48.3248 53.5122L57.3565 62.4505C57.7167 62.807 58.2957 62.807 58.6431 62.4505L61.2162 59.904C61.5765 59.5475 61.5765 58.9745 61.2162 58.6308L52.1845 49.6925ZM18.6564 16.5113C18.2961 16.1547 17.7172 16.1547 17.3698 16.5113L14.7966 19.0578C14.4364 19.4143 14.4364 19.9873 14.7966 20.331L23.8284 29.2693C24.1886 29.6259 24.7676 29.6259 25.115 29.2693L27.6881 26.7228C28.0484 26.3663 28.0484 25.7933 27.6881 25.4496L18.6564 16.5113ZM43.0498 37.0362C42.8826 36.8707 42.651 36.7689 42.4065 36.7689H36.1795V34.9608H43.4744C43.9761 34.9608 44.3878 34.5534 44.3878 34.0568V30.4535C44.3878 29.9569 43.9761 29.5495 43.4744 29.5495H40.734V27.7542C40.734 27.2576 40.3223 26.8501 39.8205 26.8501H36.1795C35.6777 26.8501 35.266 27.2576 35.266 27.7542V29.5622H33.5935C33.349 29.5622 33.1175 29.6513 32.9502 29.8296L30.9689 31.7904C30.8016 31.9559 30.6987 32.1851 30.6987 32.427V39.3408C30.6987 39.5828 30.7888 39.8119 30.9689 39.9775L32.9502 41.9383C33.1175 42.1038 33.349 42.2057 33.5935 42.2057H39.8205V44.0137H32.5256C32.0239 44.0137 31.6122 44.4212 31.6122 44.9177V48.5083C31.6122 49.0049 32.0239 49.4123 32.5256 49.4123H35.266V51.2204C35.266 51.7169 35.6777 52.1244 36.1795 52.1244H39.8205C40.3223 52.1244 40.734 51.7169 40.734 51.2204V49.4123H42.4065C42.651 49.4123 42.8826 49.3232 43.0498 49.145L45.0311 47.1841C45.1984 47.0186 45.3013 46.7894 45.3013 46.5475V39.6337C45.3013 39.3918 45.2112 39.1626 45.0311 38.9971L43.0498 37.0362Z" fill="#FFB400"/>
</g>
</svg>
