<svg width="80" height="80" viewBox="0 0 80 80" fill="none" xmlns="http://www.w3.org/2000/svg">
<mask id="mask0" mask-type="alpha" maskUnits="userSpaceOnUse" x="0" y="0" width="80" height="80">
<rect width="80" height="80" fill="#C4C4C4"/>
</mask>
<g mask="url(#mask0)">
</g>
<path d="M17.3119 35.3895C24.1088 35.3895 29.6105 40.8912 29.6105 47.6881C29.6105 54.485 24.1088 59.9866 17.3119 59.9866C10.515 59.9866 5.01336 54.485 5.01336 47.6881C5 40.8912 10.515 35.3895 17.3119 35.3895ZM17.3119 54.3114C20.9708 54.3114 23.9352 51.3336 23.9352 47.6881C23.9352 44.0292 20.9574 41.0648 17.3119 41.0648C13.6664 41.0648 10.6886 44.0426 10.6886 47.6881C10.6886 51.3469 13.6531 54.3114 17.3119 54.3114ZM57.0519 59.0519H34.3376V36.3376H57.0519V59.0519ZM51.3767 42.0129H40.0262V53.3633H51.3767V42.0129V42.0129ZM45.7014 7C52.4984 7 58 12.5016 58 19.2986C58 26.0955 52.4984 31.5971 45.7014 31.5971C38.9045 31.5971 33.4029 26.0955 33.4029 19.2986C33.3895 12.5016 38.9045 7 45.7014 7ZM45.7014 25.9219C49.3603 25.9219 52.3248 22.9441 52.3248 19.2986C52.3248 15.6397 49.3469 12.6752 45.7014 12.6752C42.0559 12.6752 39.0781 15.6531 39.0781 19.2986C39.0781 22.9574 42.0426 25.9219 45.7014 25.9219ZM5.9481 7.9481H28.6624V30.6624H5.9481V7.9481V7.9481ZM11.6367 24.9738H22.9871V13.6233H11.6367V24.9738Z" fill="#FFB400"/>
</svg>
