<svg width="118" height="39" viewBox="0 0 118 39" fill="none" xmlns="http://www.w3.org/2000/svg">
<path d="M48.0319 10.0852C45.0915 9.97372 42.1738 10.6411 39.5747 12.0197C38.1338 12.8009 36.8821 13.8887 35.9079 15.2062C34.9337 16.5237 34.2607 18.0388 33.9365 19.6446L33.6264 21.0156C32.9217 23.9454 33.2318 26.2836 34.5661 27.9645C36.3046 30.2088 39.0297 31.1666 43.6812 31.1666C51.8095 31.1666 56.3576 28.1711 57.8987 21.5978L58.1994 20.2268C58.8948 17.4097 58.5753 15.0715 57.2597 13.3813C55.5025 11.0994 52.6834 10.0852 48.0319 10.0852ZM51.8565 19.9451L51.6216 20.8842C50.8134 24.0112 48.4266 25.523 44.3201 25.523C41.8582 25.523 40.956 24.9971 40.2795 24.1332C40.0111 23.721 39.8395 23.2535 39.7777 22.7656C39.7158 22.2777 39.7653 21.7822 39.9224 21.3161L40.1573 20.3771C40.9842 17.1468 43.1643 15.7664 47.4211 15.7664C49.9489 15.7664 50.8416 16.2735 51.5276 17.1562C51.7883 17.5666 51.9532 18.0304 52.0102 18.5132C52.0671 18.996 52.0146 19.4854 51.8565 19.9451Z" fill="white"/>
<path d="M77.1152 10.0852C74.1748 9.97372 71.2571 10.6411 68.658 12.0197C67.2171 12.8009 65.9654 13.8887 64.9911 15.2062C64.0169 16.5237 63.344 18.0388 63.0198 19.6446L62.7097 21.0156C62.0049 23.9454 62.3056 26.2836 63.6494 27.9645C65.3878 30.2088 68.113 31.1666 72.7644 31.1666C80.874 31.1666 85.4503 28.1711 86.9914 21.5978L87.2921 20.2268C87.9875 17.4097 87.668 15.0715 86.3524 13.3813C84.6328 11.0994 81.7479 10.0852 77.1152 10.0852ZM80.9398 19.9451L80.7048 20.8842C79.8967 24.0112 77.5099 25.523 73.4034 25.523C70.9414 25.523 70.0299 24.9971 69.3627 24.1332C69.0943 23.721 68.9228 23.2535 68.861 22.7656C68.7991 22.2777 68.8486 21.7822 69.0057 21.3161L69.2406 20.3771C70.0675 17.1468 72.2382 15.7664 76.5044 15.7664C79.0322 15.7664 79.9249 16.2735 80.6109 17.1562C80.8731 17.5659 81.0397 18.0293 81.0983 18.5121C81.1568 18.9949 81.1059 19.4847 80.9492 19.9451H80.9398Z" fill="white"/>
<path d="M116.498 13.147C114.938 11.1562 112.542 10.1045 108.577 10.1045C104.611 10.1045 102.29 10.8276 99.8375 12.6117L100.082 11.5788C100.11 11.479 100.113 11.3741 100.092 11.2728C100.07 11.1715 100.025 11.0768 99.9597 10.9966C99.8955 10.9135 99.8128 10.8465 99.7182 10.8008C99.6236 10.7552 99.5197 10.7322 99.4147 10.7336H95.1954C94.9769 10.7288 94.7635 10.8002 94.592 10.9356C94.4205 11.071 94.3016 11.2619 94.2558 11.4755L88.2135 36.8764C88.1778 37.0192 88.1763 37.1684 88.2089 37.312C88.2416 37.4555 88.3075 37.5894 88.4015 37.7028C88.49 37.8177 88.6039 37.9105 88.7343 37.9741C88.8648 38.0376 89.0081 38.0701 89.1532 38.069H93.6168C93.8353 38.0739 94.0487 38.0024 94.2202 37.867C94.3917 37.7316 94.5106 37.5407 94.5565 37.3272L96.5298 29.0073C98.3434 30.5849 100.345 31.1671 103.859 31.1671C111.621 31.1671 115.775 27.8898 117.25 21.4011L117.504 20.2273C118.19 17.2412 117.851 14.856 116.498 13.147ZM111.161 19.8517L110.945 20.8189C109.939 24.9225 105.805 25.5141 103.108 25.5141C98.5502 25.5141 98.2776 23.8802 98.0709 22.5655L98.7287 19.5324C100.035 16.9688 102.61 15.7199 106.585 15.7199C109.056 15.7199 110.155 16.1894 110.87 17.1285C111.123 17.5266 111.281 17.9777 111.331 18.4467C111.382 18.9157 111.323 19.3901 111.161 19.8329V19.8517Z" fill="white"/>
<path d="M28.7775 24.3213H3.02996C2.81115 24.3311 2.6014 24.4114 2.43203 24.5502C2.26266 24.689 2.14277 24.8788 2.09026 25.0913L1.00022 29.3451C0.964939 29.494 0.96351 29.6489 0.996034 29.7984C1.02856 29.9479 1.09421 30.0882 1.18816 30.2091C1.28345 30.3294 1.40486 30.4267 1.54322 30.4934C1.68158 30.56 1.83328 30.5945 1.9869 30.5941H27.7345C27.9627 30.5939 28.1842 30.5169 28.3632 30.3755C28.5422 30.2341 28.6683 30.0365 28.7212 29.8147L29.736 25.5702C29.7693 25.4212 29.7698 25.2667 29.7373 25.1176C29.7049 24.9684 29.6403 24.828 29.5481 24.7063C29.4553 24.59 29.3384 24.4954 29.2053 24.4289C29.0722 24.3624 28.9263 24.3257 28.7775 24.3213Z" fill="white"/>
<path d="M8.51774 6.22581H25.6014L14.0807 15.804C13.9683 15.8932 13.8764 16.0058 13.8116 16.1338C13.7467 16.2618 13.7103 16.4024 13.7048 16.5458C13.694 16.6893 13.7164 16.8334 13.7701 16.9669C13.8239 17.1004 13.9077 17.2198 14.0149 17.3158L17.1441 20.3301C17.3282 20.5153 17.5783 20.62 17.8395 20.6212C18.0719 20.6207 18.2972 20.5413 18.4785 20.3959L42.3467 0.0939036L42.4689 0H9.45743C9.23691 0.00884944 9.02543 0.0899557 8.85561 0.230809C8.68579 0.371662 8.56706 0.564437 8.51774 0.7794L7.57804 4.98628C7.54217 5.13361 7.54045 5.28719 7.57302 5.43529C7.6056 5.58338 7.67159 5.72208 7.76598 5.84081C7.85669 5.95471 7.97066 6.04797 8.10029 6.11436C8.22993 6.18075 8.37224 6.21875 8.51774 6.22581Z" fill="white"/>
</svg>
