<svg width="166" height="18" viewBox="0 0 166 18" fill="none" xmlns="http://www.w3.org/2000/svg">
<path d="M0.738861 14.2723C0.870124 14.2723 0.94013 14.1784 0.948881 14L1.61394 9.46479C1.6227 9.38028 1.66645 9.33333 1.76271 9.33333H6.99571C8.63211 9.33333 9.90098 8.90141 10.8198 8.02817C11.7299 7.15493 12.1849 5.98122 12.1849 4.50704C12.1849 2.35681 10.9948 1.40845 8.62336 1.40845H2.04274C1.92897 1.40845 1.85897 1.47418 1.83272 1.59624L0.0037913 13.9061C-0.0224612 14.1033 0.0912996 14.2723 0.231313 14.2723H0.738861ZM1.95523 8.42253C1.85897 8.42253 1.77146 8.30986 1.79771 8.23474L2.63779 2.46948C2.66404 2.38498 2.7078 2.34742 2.7778 2.34742H8.43959C9.31468 2.34742 9.99724 2.51643 10.4873 2.84507C10.9773 3.1831 11.2224 3.78404 11.2224 4.6385C11.2224 5.75587 10.8548 6.65728 10.111 7.3615C9.36718 8.06573 8.36084 8.42253 7.08321 8.42253H1.95523Z" fill="white"/>
<path d="M17.4967 14.5634C18.9318 14.5634 20.1307 14.3192 21.2333 13.6808C22.3359 13.0516 23.0885 11.8685 23.3248 10.2535L23.4473 9.46479C23.6923 7.84976 23.2635 6.64789 22.3534 6C21.4346 5.3615 20.2882 5.07981 18.8268 5.07981C17.3917 5.07981 16.1928 5.35211 15.099 5.96244C14.0051 6.57277 13.235 7.77465 12.9988 9.38967L12.8938 10.1784C12.6575 11.7934 13.06 12.9953 13.9701 13.6338C14.8802 14.2817 16.0178 14.5634 17.4967 14.5634ZM17.558 13.6808C16.7441 13.6808 16.0703 13.5962 15.344 13.2864C14.2764 12.8826 13.5938 11.9437 13.8301 10.1972L13.9351 9.48357C14.1451 8.0939 14.8715 7.0892 15.8515 6.61033C16.8316 6.13146 17.7417 5.94366 18.7918 5.94366C19.5969 5.94366 20.2707 6.02817 21.0058 6.32864C22.0559 6.75117 22.7209 7.70892 22.5022 9.44601L22.4147 10.1596C22.1959 11.5399 21.4696 12.5352 20.4895 13.0235C19.5094 13.5117 18.6081 13.6808 17.558 13.6808Z" fill="white"/>
<path d="M40.0476 5.37089C39.9688 5.37089 39.9076 5.39906 39.8726 5.46479L36.0222 12.6009C35.891 12.8545 35.6897 12.7887 35.6459 12.5634L33.7382 5.57746C33.712 5.43662 33.6245 5.37089 33.4932 5.37089H32.7056C32.5831 5.37089 32.4956 5.41784 32.4519 5.52113L28.3302 12.6009C28.234 12.77 27.989 12.8732 27.9539 12.5446L26.3438 5.53991C26.3175 5.42723 26.2475 5.37089 26.1425 5.37089H25.46C25.2937 5.37089 25.2062 5.52113 25.2499 5.69953L27.3414 14.0845C27.3851 14.2066 27.4639 14.2723 27.5777 14.2723H28.2952C28.3915 14.2723 28.4615 14.2254 28.5052 14.1221L32.6881 7.00469C32.8019 6.82629 33.0207 6.86385 33.0644 7.06103L34.9984 14.1033C35.0159 14.216 35.0946 14.2723 35.2259 14.2723H35.9785C36.0747 14.2723 36.1535 14.2254 36.1972 14.1221L40.8789 5.81221C40.9752 5.57746 40.8614 5.37089 40.6252 5.37089H40.0476Z" fill="white"/>
<path d="M45.7969 14.5634C47.9058 14.5634 49.4372 14.1221 50.3823 13.23C50.5486 13.1174 50.5748 12.9859 50.4698 12.8451L50.3123 12.5446C50.1986 12.4319 50.0935 12.4225 49.9885 12.5258C49.1135 13.2958 47.7483 13.6808 45.8844 13.6808C44.8781 13.6808 44.0992 13.5305 43.3642 13.108C42.6203 12.6854 42.2616 11.831 42.4453 10.6009L42.4628 10.4883C42.4628 10.3944 42.5066 10.3474 42.6028 10.3474H50.9336C51.1261 10.3474 51.2312 10.2441 51.2399 10.0376L51.3099 9.35211C51.5549 7.76526 51.1611 6.57277 50.3298 5.96244C49.4897 5.35211 48.4396 5.07981 47.1008 5.07981C45.7794 5.07981 44.6943 5.33333 43.6442 5.92488C42.5941 6.51643 41.8503 7.69014 41.614 9.27699L41.474 10.2347C41.2377 11.8216 41.6227 12.9953 42.4628 13.6338C43.2942 14.2817 44.388 14.5634 45.7969 14.5634ZM42.7429 9.65258C42.6466 9.65258 42.5766 9.5493 42.6028 9.50235L42.6378 9.23005C42.7604 8.39437 43.0754 7.71831 43.5917 7.20188C44.108 6.68545 44.6505 6.33803 45.2193 6.1784C45.7881 6.01878 46.4095 5.94366 47.0833 5.94366C48.1421 5.94366 48.9909 6.1784 49.6298 6.64789C50.2686 7.12676 50.5136 7.96244 50.3648 9.17371L50.3123 9.52113C50.3036 9.60563 50.2598 9.65258 50.1636 9.65258H42.7429Z" fill="white"/>
<path d="M61.4959 5.88732C60.9096 5.35211 60.1308 5.07981 59.1594 5.07981C57.9255 5.07981 56.8929 5.50235 56.0441 6.34742C55.8691 6.50704 55.6153 6.69484 55.6503 6.15962L55.7378 5.59624C55.7116 5.44601 55.6328 5.37089 55.4841 5.37089H55.1078C54.994 5.37089 54.924 5.43662 54.8978 5.55869L53.6464 13.9812C53.6201 14.1408 53.7514 14.2723 53.8914 14.2723H54.3815C54.4952 14.2723 54.5652 14.2066 54.5915 14.0845L55.4841 8.08451C55.5191 7.88732 55.6066 7.71831 55.7378 7.57746C56.6567 6.48826 57.7418 5.94366 58.9844 5.94366C59.807 5.94366 60.472 6.1784 60.9708 6.65728C61.0933 6.73239 61.1984 6.723 61.2946 6.61972L61.5484 6.19718C61.6446 6.06573 61.6271 5.96244 61.4959 5.88732Z" fill="white"/>
<path d="M66.3438 14.5634C68.4528 14.5634 69.9842 14.1221 70.9293 13.23C71.0955 13.1174 71.1218 12.9859 71.0168 12.8451L70.8593 12.5446C70.7455 12.4319 70.6405 12.4225 70.5355 12.5258C69.6604 13.2958 68.2953 13.6808 66.4314 13.6808C65.425 13.6808 64.6462 13.5305 63.9111 13.108C63.1673 12.6854 62.8085 11.831 62.9923 10.6009L63.0098 10.4883C63.0098 10.3944 63.0535 10.3474 63.1498 10.3474H71.4806C71.6731 10.3474 71.7781 10.2441 71.7869 10.0376L71.8569 9.35211C72.1019 7.76526 71.7081 6.57277 70.8768 5.96244C70.0367 5.35211 68.9866 5.07981 67.6477 5.07981C66.3263 5.07981 65.2412 5.33333 64.1911 5.92488C63.141 6.51643 62.3972 7.69014 62.1609 9.27699L62.0209 10.2347C61.7847 11.8216 62.1697 12.9953 63.0098 13.6338C63.8411 14.2817 64.935 14.5634 66.3438 14.5634ZM63.2898 9.65258C63.1935 9.65258 63.1235 9.5493 63.1498 9.50235L63.1848 9.23005C63.3073 8.39437 63.6223 7.71831 64.1386 7.20188C64.6549 6.68545 65.1975 6.33803 65.7663 6.1784C66.3351 6.01878 66.9564 5.94366 67.6302 5.94366C68.6891 5.94366 69.5379 6.1784 70.1767 6.64789C70.8155 7.12676 71.0605 7.96244 70.9118 9.17371L70.8593 9.52113C70.8505 9.60563 70.8068 9.65258 70.7105 9.65258H63.2898Z" fill="white"/>
<path d="M78.455 14.5634C80.2927 14.5634 81.7716 14.0094 82.9004 12.892C83.1017 12.6948 83.3992 12.5915 83.3292 13.0798L83.2067 13.9624C83.1804 14.1502 83.2942 14.2723 83.4342 14.2723H83.8105C83.933 14.2723 84.0118 14.1784 84.0468 14L86.0507 0.328638C86.077 0.112676 86.007 0 85.8407 0L85.3506 0C85.2106 0 85.1319 0.0938967 85.1056 0.2723L84.2043 6.52582C84.1605 6.88263 84.0205 6.9108 83.793 6.60094C83.0667 5.58685 81.7541 5.07981 79.8551 5.07981C78.4462 5.07981 77.2736 5.35211 76.1885 5.96244C75.1034 6.57277 74.3421 7.77465 74.1321 9.38967L74.0446 10C73.8258 11.6056 74.1321 12.7606 74.9634 13.4836C75.786 14.2066 76.9499 14.5634 78.455 14.5634ZM78.6913 13.6808C77.6412 13.6808 76.8098 13.5117 76.0135 13.0235C75.2084 12.5352 74.8146 11.493 74.9984 10.0563L75.0684 9.46479C75.2522 8.07512 75.9698 7.0892 76.9586 6.60094C77.9474 6.11268 78.875 5.94366 79.9251 5.94366C80.8265 5.94366 81.6578 6.0939 82.4191 6.39437C83.1804 6.69484 83.6442 7.22066 83.828 7.98122C83.8893 8.22535 83.9155 8.43192 83.9068 8.60094L83.5655 10.9484C83.5217 11.1737 83.4255 11.3709 83.2942 11.5399C82.8129 12.2723 82.1303 12.8075 81.2465 13.1549C80.3539 13.5023 79.5051 13.6808 78.6913 13.6808Z" fill="white"/>
<path d="M93.1651 14.5634C96.6217 14.5634 98.5469 13.0986 98.9494 10.1784L99.0807 9.55869C99.317 7.89671 98.9057 6.69484 98.0219 6.01878C97.138 5.35211 96.0442 5.07981 94.6528 5.07981C92.6576 5.07981 91.1612 5.58685 90.1724 6.60094C89.9536 6.8169 89.8223 6.93897 89.7611 6.94836C89.6911 6.94836 89.6736 6.83568 89.7086 6.61972L90.6362 0.366197C90.6799 0.122066 90.6099 0 90.4261 0L89.9361 0C89.8048 0 89.7261 0.0938967 89.6911 0.2723L87.6609 13.9812C87.6346 14.1408 87.7571 14.2723 87.8971 14.2723H88.2909C88.4309 14.2723 88.5009 14.2066 88.5009 14.0845L88.7022 12.8263C88.746 12.4789 88.8072 12.4225 88.8772 12.385C88.9122 12.3568 88.9997 12.4789 89.0347 12.5164C89.0697 12.554 89.1748 12.7418 89.2185 12.7887C89.5686 13.3239 90.1024 13.7559 90.8112 14.0751C91.52 14.4038 92.3076 14.5634 93.1651 14.5634ZM93.0776 13.6808C92.0013 13.6808 91.0737 13.4084 90.2774 12.8638C89.481 12.3192 89.1048 11.662 89.1485 10.892C89.1223 10.8075 89.1223 10.6479 89.1485 10.4038L89.3498 8.96714C89.3848 8.79812 89.446 8.61972 89.5248 8.42253C90.2161 6.76995 91.8438 5.94366 94.399 5.94366C95.4491 5.94366 96.2804 6.11268 97.103 6.60094C97.9256 7.0892 98.3369 8.08451 98.1269 9.52113L98.0219 10.0845C97.8118 11.4836 97.103 12.5164 96.1142 13.0047C95.1253 13.493 94.1715 13.6808 93.0776 13.6808Z" fill="white"/>
<path d="M110.842 5.37089C110.763 5.37089 110.702 5.40845 110.641 5.48357L105.425 13.0798C105.303 13.2864 105.189 13.277 105.084 13.0423L102.126 5.53991C102.091 5.42723 102.021 5.37089 101.916 5.37089H101.303C101.093 5.37089 100.988 5.5493 101.085 5.77465L104.471 14.1784C104.559 14.3286 104.532 14.4977 104.401 14.6761L102.502 17.446C102.362 17.6432 102.45 17.9249 102.634 17.9249H103.132C103.202 17.9249 103.255 17.8967 103.29 17.8498L111.568 5.88732C111.743 5.6338 111.603 5.37089 111.393 5.37089H110.842Z" fill="white"/>
<path d="M113.817 1.2959C113.511 1.2959 113.345 1.44613 113.31 1.75599L113.047 3.59637C112.969 3.98134 113.24 4.2912 113.599 4.2912H119.891C120.118 4.2912 120.241 4.32876 120.249 4.40388C120.249 4.46961 120.109 4.63862 119.838 4.89214L112.54 11.3335C112.216 11.6151 112.041 11.9156 112.006 12.2349L111.84 13.3147C111.744 13.925 111.997 14.2724 112.382 14.2724H123.907C124.178 14.2724 124.345 14.1222 124.406 13.8123L124.677 11.9626C124.747 11.587 124.476 11.2771 124.117 11.2771H118.114C117.615 11.2677 117.598 11.0705 118.062 10.6762L125.194 4.34754C125.395 4.16914 125.535 4.02829 125.605 3.91562C125.666 3.81233 125.719 3.62454 125.754 3.35224L125.929 1.98134C125.972 1.60576 125.736 1.2959 125.377 1.2959H113.817Z" fill="#FF7300"/>
<path d="M131.354 14.6198C135.108 14.6198 137.2 13.1363 137.646 10.1785L137.716 9.55881C137.987 7.86867 137.55 6.64801 136.578 5.9344C135.607 5.23017 134.321 4.9297 132.571 4.9297C128.886 4.9297 126.821 6.40388 126.392 9.35224L126.296 9.96256C126.042 11.6151 126.366 12.8076 127.259 13.5306C128.151 14.2536 129.516 14.6198 131.354 14.6198ZM131.555 11.8311C130.812 11.8311 130.243 11.6997 129.84 11.4367C129.429 11.1738 129.271 10.6856 129.368 9.96256L129.42 9.63393C129.648 8.34754 130.663 7.69965 132.466 7.69965C133.157 7.69965 133.656 7.78416 134.111 8.03768C134.566 8.30059 134.767 8.81702 134.653 9.55881L134.601 9.88745C134.373 11.1832 133.358 11.8311 131.555 11.8311Z" fill="#FF7300"/>
<path d="M144.62 14.6198C148.375 14.6198 150.466 13.1363 150.912 10.1785L150.982 9.55881C151.254 7.86867 150.816 6.64801 149.845 5.9344C148.873 5.23017 147.587 4.9297 145.837 4.9297C142.153 4.9297 140.087 6.40388 139.659 9.35224L139.562 9.96256C139.309 11.6151 139.632 12.8076 140.525 13.5306C141.418 14.2536 142.783 14.6198 144.62 14.6198ZM144.822 11.8311C144.078 11.8311 143.509 11.6997 143.107 11.4367C142.695 11.1738 142.538 10.6856 142.634 9.96256L142.686 9.63393C142.914 8.34754 143.929 7.69965 145.732 7.69965C146.423 7.69965 146.922 7.78416 147.377 8.03768C147.832 8.30059 148.033 8.81702 147.919 9.55881L147.867 9.88745C147.639 11.1832 146.624 11.8311 144.822 11.8311Z" fill="#FF7300"/>
<path d="M161.203 4.9297C159.471 4.9297 158.158 5.25834 157.257 5.90623C156.845 6.19731 156.679 6.27242 156.67 5.94379L156.653 5.61515C156.592 5.3898 156.425 5.27712 156.163 5.27712H154.588C154.299 5.27712 154.133 5.42735 154.071 5.73721L152.365 17.3147C152.321 17.6903 152.557 18.0001 152.942 18.0001H154.911C155.183 18.0001 155.384 17.8123 155.41 17.5212L155.97 13.756C156.014 13.4461 156.154 13.3804 156.382 13.5776C157.178 14.2724 158.315 14.6198 159.786 14.6198C161.264 14.6198 162.428 14.3663 163.47 13.6903C164.511 13.0236 165.194 11.7936 165.43 10.0565L165.5 9.55881C165.719 7.94379 165.421 6.77008 164.607 6.02829C163.793 5.2959 162.665 4.9297 161.203 4.9297ZM162.385 9.83111C162.166 11.1644 161.054 11.8311 159.033 11.8311C157.817 11.8311 157.029 11.54 156.67 10.9673C156.513 10.7513 156.443 10.5353 156.469 10.3288L156.6 9.40857C156.635 9.16444 156.775 8.94848 157.012 8.7513C157.843 8.04707 158.911 7.69965 160.214 7.69965C160.967 7.69965 161.553 7.83111 161.973 8.08463C162.385 8.34754 162.542 8.81703 162.437 9.50247L162.385 9.83111Z" fill="#FF7300"/>
</svg>
