<svg xmlns="http://www.w3.org/2000/svg" width="107" height="101" viewBox="0 0 107 101">
  <g id="Grupo_1545" data-name="Grupo 1545" transform="translate(-1284 -2952)">
    <path id="TED" d="M402.945,371.365H386.866v-3.446H397.2a1.149,1.149,0,0,0,1.149-1.149v-4.595a1.149,1.149,0,0,0-1.149-1.149H386.865V349.54a2.3,2.3,0,0,0-2.3-2.3H345.512a2.3,2.3,0,0,0-2.3,2.3v42.5H327.133a1.149,1.149,0,0,0-1.149,1.149v4.595a1.149,1.149,0,0,0,1.149,1.149h16.081v3.446H332.876a1.149,1.149,0,0,0-1.149,1.149v4.595a1.149,1.149,0,0,0,1.149,1.149h10.338v6.892a2.3,2.3,0,0,0,2.3,2.3h39.062a2.3,2.3,0,0,0,2.3-2.3l0-37.906h16.078a1.149,1.149,0,0,0,1.149-1.149v-4.595A1.149,1.149,0,0,0,402.945,371.365Zm-52.839-17.23h29.866l.005,43.65H350.106Zm0,57.434v-6.892h29.872v6.892Zm12.635-39.055v-2.3h9.189a1.149,1.149,0,0,0,1.149-1.149v-4.595a1.149,1.149,0,0,0-1.149-1.149h-3.446v-3.446a1.149,1.149,0,0,0-1.149-1.149h-4.595a1.149,1.149,0,0,0-1.149,1.149v3.446h-2.1a1.149,1.149,0,0,0-.812.337l-2.494,2.494a1.149,1.149,0,0,0-.337.812v8.8a1.148,1.148,0,0,0,.336.812l2.495,2.494a1.149,1.149,0,0,0,.812.337h7.844v2.3h-9.189A1.149,1.149,0,0,0,357,382.852v4.595a1.149,1.149,0,0,0,1.149,1.149h3.446v3.446a1.149,1.149,0,0,0,1.149,1.149h4.595a1.149,1.149,0,0,0,1.149-1.149V388.6h2.1a1.148,1.148,0,0,0,.812-.337l2.494-2.494a1.149,1.149,0,0,0,.336-.812v-8.8a1.148,1.148,0,0,0-.336-.812L371.4,372.85a1.148,1.148,0,0,0-.812-.337Z" transform="translate(958.016 2624.08)" fill="#ff9b00"/>
    <rect id="Retângulo_162" data-name="Retângulo 162" width="107" height="101" transform="translate(1284 2952)" fill="none"/>
  </g>
</svg>
