<svg width="49" height="40" viewBox="0 0 49 40" fill="none" xmlns="http://www.w3.org/2000/svg">
<g clip-path="url(#clip0)">
<path d="M47.3622 39.9297C47.1842 39.9743 47.0063 40.0011 46.8194 40.0011H9.16406H46.8194C47.0063 40.0011 47.1931 39.9743 47.3622 39.9297Z" fill="white"/>
<path d="M44.391 35.3918V11.5562C44.391 10.7077 43.7058 10.0201 42.8605 10.0201H37.5486V6.16209C37.5486 5.56374 37.1927 5.03684 36.641 4.81357L25.0294 0.107167C24.6824 -0.0357223 24.2909 -0.0357223 23.9439 0.107167L12.3323 4.76892C11.7806 4.99219 11.4158 5.52802 11.4158 6.12637V10.0201H6.10387C5.25858 10.0201 4.57345 10.7077 4.57345 11.5562V35.3918H0V37.812C0 39.0176 0.978754 40 2.17995 40H46.8289C47.0158 40 47.2027 39.9732 47.3717 39.9286C47.4073 39.9196 47.4429 39.9107 47.4785 39.9018C47.5319 39.8839 47.5764 39.866 47.6297 39.8482C47.6831 39.8303 47.7276 39.8035 47.7721 39.7857C47.8344 39.7499 47.8967 39.7232 47.959 39.6874C48.0123 39.6517 48.0657 39.616 48.1191 39.5803C48.1725 39.5445 48.2259 39.4999 48.2704 39.4552C48.306 39.4284 48.3327 39.3927 48.3683 39.3659C48.7598 38.973 49.0089 38.4282 49.0089 37.8209V35.4008H44.391V35.3918ZM15.7668 8.09109L24.4778 4.59924L33.1887 8.12681V12.4403C33.1887 13.1904 33.1353 13.9138 33.0374 14.6283C32.3256 19.5937 29.2025 23.5856 24.4778 25.4164C19.7619 23.5767 16.6299 19.5937 15.9181 14.6283C15.8202 13.9138 15.7668 13.1904 15.7668 12.4403V8.09109ZM39.7908 35.3918H9.1647V14.6283H11.5315C11.8785 17.8075 12.9996 20.7636 14.8237 23.282C17.0214 26.3273 20.1178 28.5867 23.7926 29.8102L24.2553 29.962C24.4066 30.0156 24.5667 30.0156 24.718 29.962L25.1718 29.8102C28.8466 28.5778 31.943 26.3273 34.1407 23.282C35.9559 20.7636 37.077 17.7986 37.4329 14.6283H39.7997V35.3918H39.7908Z" fill="#FF9B00"/>
<path d="M28.3383 14.6818V18.2362C28.3383 18.3612 28.2849 18.4773 28.1959 18.5666L27.146 19.5758C27.057 19.6651 26.9324 19.7097 26.8079 19.7097H25.927V21.1029C25.927 21.3619 25.7134 21.5673 25.4465 21.5673H23.5157C23.2488 21.5673 23.0352 21.3619 23.0352 21.1029V19.7097H21.5849C21.3179 19.7097 21.1044 19.5043 21.1044 19.2453V17.3878C21.1044 17.1288 21.3179 16.9234 21.5849 16.9234H25.4465V15.9946H22.1543C22.0298 15.9946 21.9052 15.95 21.8162 15.8607L20.7663 14.8515C20.704 14.789 20.6595 14.7086 20.6417 14.6282C20.6328 14.5925 20.6328 14.5568 20.6328 14.53V10.9756C20.6328 10.8506 20.6862 10.7345 20.7752 10.6452L21.4336 10.0201L21.8251 9.64498C21.9141 9.55567 22.0387 9.51102 22.1632 9.51102H23.0441V8.10892C23.0441 7.84993 23.2577 7.64453 23.5246 7.64453H25.4465C25.7134 7.64453 25.927 7.84993 25.927 8.10892V9.50209H27.3773C27.6443 9.50209 27.8578 9.70749 27.8578 9.96648V11.824C27.8578 12.083 27.6443 12.2884 27.3773 12.2884H23.5157V13.2172H26.8079C26.9324 13.2172 27.057 13.2619 27.146 13.3512L28.1959 14.3603C28.276 14.4318 28.3205 14.53 28.3294 14.6282C28.3383 14.6461 28.3383 14.664 28.3383 14.6818Z" fill="#FF9B00"/>
</g>
<defs>
<clipPath id="clip0">
<rect width="49" height="40" fill="white"/>
</clipPath>
</defs>
</svg>
