<svg xmlns="http://www.w3.org/2000/svg" width="124.45" height="40.577" viewBox="0 0 124.45 40.577">
  <g id="Grupo_1448" data-name="Grupo 1448" transform="translate(-327.686 -267.231)" opacity="0.24">
    <path id="Caminho_300" data-name="Caminho 300" d="M394.886,283.337a17.8,17.8,0,0,0-9.038,2.063,11.925,11.925,0,0,0-6.037,8.132l-.325,1.463c-.751,3.115-.429,5.605.958,7.4,1.848,2.395,4.751,3.417,9.706,3.417,8.759,0,13.6-3.239,15.244-10.2l.324-1.457c.734-3.039.4-5.5-1-7.3C402.843,284.423,399.809,283.337,394.886,283.337Zm4.07,10.515-.247,1c-.858,3.333-3.4,4.953-7.778,4.953-2.618,0-3.588-.568-4.3-1.483a3.47,3.47,0,0,1-.378-3.031l.248-1.037c.885-3.445,3.2-4.914,7.733-4.914,2.7,0,3.649.542,4.376,1.479A3.459,3.459,0,0,1,398.956,293.852Z" transform="translate(-17.106 -5.36)" fill="#fff"/>
    <path id="Caminho_301" data-name="Caminho 301" d="M441.324,283.337a17.8,17.8,0,0,0-9.038,2.063,11.927,11.927,0,0,0-6.037,8.132l-.325,1.463c-.751,3.115-.429,5.605.958,7.4,1.848,2.395,4.751,3.417,9.707,3.417,8.759,0,13.6-3.239,15.243-10.2l.324-1.457c.733-3.039.4-5.5-1-7.3C449.281,284.423,446.247,283.337,441.324,283.337Zm4.069,10.515-.247,1c-.857,3.333-3.4,4.953-7.777,4.953-2.618,0-3.588-.568-4.3-1.483a3.475,3.475,0,0,1-.378-3.031l.249-1.037c.885-3.445,3.2-4.914,7.733-4.914,2.7,0,3.649.542,4.376,1.479A3.459,3.459,0,0,1,445.394,293.852Z" transform="translate(-32.559 -5.36)" fill="#fff"/>
    <path id="Caminho_302" data-name="Caminho 302" d="M357.271,306.084H329.845a1.075,1.075,0,0,0-1.048.823l-1.08,4.525a1.077,1.077,0,0,0,1.047,1.332H356.19a1.074,1.074,0,0,0,1.047-.823l1.08-4.525a1.078,1.078,0,0,0-1.047-1.332Z" transform="translate(0 -12.929)" fill="#fff"/>
    <path id="Caminho_303" data-name="Caminho 303" d="M339.132,273.865h18.211l-12.276,10.209a1.077,1.077,0,0,0-.073,1.616l3.333,3.214a1.079,1.079,0,0,0,1.425.063l25.424-21.632.124-.1H340.182a1.074,1.074,0,0,0-1.05.832l-1.05,4.478a1.078,1.078,0,0,0,1.05,1.324Z" transform="translate(-3.45)" fill="#fff"/>
    <path id="Caminho_304" data-name="Caminho 304" d="M497.016,286.58c-1.657-2.122-4.212-3.243-8.434-3.243s-6.7.777-9.317,2.672l-.017-1.1a.857.857,0,0,0-.851-.9h-4.077a1.027,1.027,0,0,0-1,.793l-6.42,27.068a1.067,1.067,0,0,0,.108.792,1.028,1.028,0,0,0,.887.506h4.753a1.026,1.026,0,0,0,1-.793l2.123-9.017c1.935,1.679,4.038,2.457,7.781,2.457,8.264,0,12.7-3.5,14.263-10.412l.267-1.253C498.814,290.969,498.455,288.423,497.016,286.58Zm-5.687,7.149-.252,1.049c-1.063,4.376-5.475,5.03-8.34,5.03-4.857,0-5.146-1.741-5.369-3.147l.725-3.25c1.39-2.738,4.126-4.069,8.365-4.069,2.634,0,3.8.506,4.565,1.5A3.266,3.266,0,0,1,491.329,293.729Z" transform="translate(-46.315 -5.36)" fill="#fff"/>
  </g>
</svg>
