<svg xmlns="http://www.w3.org/2000/svg" width="78" height="71" viewBox="0 0 78 71">
  <g id="Group_1612" data-name="Group 1612" transform="translate(-427 -3481)">
    <path id="Split" d="M379.477,402.534h13.3a5.389,5.389,0,1,0,0-5.389h-13.3V383.674h13.3a5.389,5.389,0,1,0,0-5.389H375.885a1.8,1.8,0,0,0-1.8,1.8v17.064h-9.7a5.389,5.389,0,1,0,0,5.389h9.7V419.6a1.8,1.8,0,0,0,1.8,1.8h16.889a5.389,5.389,0,1,0,0-5.389h-13.3Z" transform="translate(87.872 3115.409)" fill="#ff9b00"/>
    <rect id="Rectangle_166" data-name="Rectangle 166" width="78" height="71" transform="translate(427 3481)" fill="none"/>
  </g>
</svg>
