<svg xmlns="http://www.w3.org/2000/svg" width="185.995" height="66.881" viewBox="0 0 185.995 66.881">
  <g id="Page-1" transform="translate(-48.186 -47.32)" opacity="0.18">
    <g id="Artboard" transform="translate(48.186 47.32)">
      <g id="vtex-logo">
        <path id="Shape" d="M255.045,84.812h-6.668v22.825a.787.787,0,0,1-.782.782H242.46a.787.787,0,0,1-.782-.782V84.812h-6.717a.751.751,0,0,1-.782-.745V80.024a.751.751,0,0,1,.782-.745h20.071a.788.788,0,0,1,.824.745v4.042A.788.788,0,0,1,255.045,84.812Z" transform="translate(-120.61 -59.764)"/>
        <path id="Shape-2" data-name="Shape" d="M292.23,108.041a51.293,51.293,0,0,1-7.938.513c-5.062,0-9.532-1.294-9.532-8.433V87.1c0-7.138,4.512-8.39,9.568-8.39a50.661,50.661,0,0,1,7.877.507c.55.079.782.275.782.782v3.664a.787.787,0,0,1-.782.782h-8.243c-1.832,0-2.51.611-2.51,2.668v3.566h10.466a.787.787,0,0,1,.782.782v3.725a.787.787,0,0,1-.782.782H281.452v4.158c0,2.039.666,2.668,2.51,2.668h8.268a.787.787,0,0,1,.782.782v3.664C293.017,107.723,292.779,107.961,292.23,108.041Z" transform="translate(-136.411 -59.54)"/>
        <path id="Shape-3" data-name="Shape" d="M335.881,108.413h-6.234a1.032,1.032,0,0,1-1.02-.611l-5.41-8.549-4.885,8.39c-.275.47-.55.782-.983.782H311.56a.519.519,0,0,1-.611-.513.724.724,0,0,1,.079-.275l8.506-14.16L310.949,80.02a.551.551,0,0,1-.079-.238.568.568,0,0,1,.611-.513h6.314c.434,0,.745.391.983.745l5.019,7.938,4.885-7.938a1.271,1.271,0,0,1,.983-.745h5.807a.568.568,0,0,1,.611.513.551.551,0,0,1-.079.238l-8.549,13.537,8.9,14.044a.875.875,0,0,1,.116.391A.553.553,0,0,1,335.881,108.413Z" transform="translate(-150.472 -59.759)"/>
        <path id="Shape-4" data-name="Shape" d="M206.093,79.41a.611.611,0,0,0-.611.482l-5.7,21.078c-.079.434-.2.611-.55.611s-.47-.159-.55-.611l-5.679-21.078a.611.611,0,0,0-.611-.482h-5.605a.611.611,0,0,0-.611.745s6.955,24.162,7.028,24.425a5.915,5.915,0,0,0,6.045,4.274,6.106,6.106,0,0,0,6.045-4.274c.11-.33,6.912-24.425,6.912-24.425a.611.611,0,0,0-.611-.739Z" transform="translate(-101.913 -59.815)"/>
        <path id="Shape-5" data-name="Shape" d="M120.6,47.32H62.147a6.07,6.07,0,0,0-5.318,8.891l5.85,11.138h-10.6a3.822,3.822,0,0,0-3.444,5.618L67.441,108.5a3.9,3.9,0,0,0,6.888,0l5.1-9.629L85.845,111a6.014,6.014,0,0,0,10.631,0l29.309-55.108a5.825,5.825,0,0,0-5.19-8.573ZM94.479,70.6,81.656,94.648a2.54,2.54,0,0,1-4.488,0L64.51,70.835A2.363,2.363,0,0,1,66.6,67.36H92.5A2.2,2.2,0,0,1,94.479,70.6Z" transform="translate(-48.186 -47.32)"/>
      </g>
    </g>
  </g>
</svg>
