<svg width="125" height="41" viewBox="0 0 125 41" fill="none" xmlns="http://www.w3.org/2000/svg">
<path d="M50.0936 10.7421C46.9516 10.6194 43.8332 11.3312 41.0556 12.8051C39.5142 13.6344 38.1743 14.7929 37.131 16.1983C36.0876 17.6038 35.3664 19.2216 35.0186 20.9371L34.6936 22.4001C33.9426 25.5151 34.2646 28.0051 35.6516 29.8001C37.4996 32.1951 40.4026 33.2171 45.3576 33.2171C54.1166 33.2171 58.9577 29.9781 60.6017 23.0171L60.9256 21.5601C61.6596 18.5211 61.3256 16.0601 59.9256 14.2601C58.0506 11.8281 55.0166 10.7421 50.0936 10.7421ZM54.1636 21.2571L53.9167 22.2571C53.0587 25.5901 50.5166 27.2101 46.1386 27.2101C43.5206 27.2101 42.5507 26.6421 41.8387 25.7271C41.5486 25.2842 41.3637 24.7808 41.2982 24.2554C41.2327 23.73 41.2882 23.1966 41.4606 22.6961L41.7087 21.6591C42.5937 18.2141 44.9087 16.7451 49.4417 16.7451C52.1417 16.7451 53.0906 17.2871 53.8176 18.2241C54.1035 18.6695 54.2833 19.1745 54.3433 19.7003C54.4033 20.2262 54.3418 20.7587 54.1636 21.2571Z" fill="#FF7300"/>
<path d="M81.0787 10.7421C77.9367 10.6194 74.8182 11.3312 72.0407 12.8051C70.4993 13.6345 69.1595 14.7931 68.1161 16.1985C67.0728 17.6039 66.3516 19.2217 66.0036 20.9371L65.6787 22.4001C64.9277 25.5151 65.2496 28.0051 66.6366 29.8001C68.4846 32.1951 71.3876 33.2171 76.3436 33.2171C85.1026 33.2171 89.9437 29.9781 91.5867 23.0171L91.9107 21.5601C92.6437 18.5211 92.3107 16.0601 90.9107 14.2601C89.0357 11.8281 86.0017 10.7421 81.0787 10.7421ZM85.1477 21.2571L84.9006 22.2571C84.0436 25.5901 81.5006 27.2101 77.1236 27.2101C74.5056 27.2101 73.5356 26.6421 72.8236 25.7271C72.5339 25.284 72.3493 24.7806 72.2838 24.2553C72.2183 23.73 72.2736 23.1967 72.4457 22.6961L72.6947 21.6591C73.5797 18.2141 75.8947 16.7451 80.4277 16.7451C83.1277 16.7451 84.0767 17.2871 84.8037 18.2241C85.0894 18.6695 85.269 19.1746 85.3288 19.7004C85.3886 20.2263 85.327 20.7588 85.1487 21.2571H85.1477Z" fill="#FF7300"/>
<path d="M29.5846 25.9199H2.15862C1.91683 25.9193 1.68188 26.0001 1.49172 26.1494C1.30156 26.2988 1.16729 26.5079 1.11061 26.7429L0.0306282 31.2679C-0.00800814 31.4265 -0.0101219 31.5917 0.0244637 31.7512C0.0590492 31.9106 0.129432 32.0602 0.230274 32.1885C0.331117 32.3168 0.459794 32.4205 0.606586 32.4917C0.753379 32.563 0.914444 32.6 1.07763 32.5999H28.5036C28.7453 32.6005 28.9801 32.5196 29.1701 32.3703C29.3601 32.2209 29.4941 32.0119 29.5506 31.7769L30.6306 27.2519C30.669 27.0934 30.671 26.9282 30.6363 26.7688C30.6017 26.6094 30.5313 26.46 30.4305 26.3317C30.3297 26.2035 30.2011 26.0998 30.0544 26.0284C29.9077 25.9571 29.7467 25.92 29.5836 25.9199H29.5846Z" fill="#FF7300"/>
<path d="M7.99561 6.63001H26.2066L13.9306 16.839C13.8112 16.9348 13.7136 17.0549 13.6443 17.1914C13.575 17.3279 13.5355 17.4776 13.5286 17.6305C13.5217 17.7834 13.5475 17.936 13.6042 18.0782C13.661 18.2204 13.7473 18.3489 13.8576 18.455L17.1906 21.669C17.3798 21.8511 17.6289 21.958 17.8912 21.9696C18.1536 21.9812 18.4111 21.8967 18.6156 21.732L44.0396 0.100012L44.1636 6.09796e-06H9.04563C8.80223 -0.000813878 8.56578 0.0810832 8.37501 0.232245C8.18424 0.383407 8.05045 0.594868 7.99561 0.832007L6.94562 5.31003C6.90854 5.46826 6.9077 5.63282 6.94318 5.79142C6.97867 5.95001 7.04957 6.09853 7.15055 6.22587C7.25153 6.3532 7.38 6.45606 7.52634 6.52674C7.67268 6.59742 7.8331 6.63408 7.99561 6.63401V6.63001Z" fill="#FFB400"/>
<path d="M123.015 13.9852C121.358 11.8632 118.803 10.7422 114.581 10.7422C110.359 10.7422 107.881 11.5192 105.264 13.4142L105.247 12.3142C105.252 12.1986 105.235 12.083 105.195 11.9744C105.155 11.8658 105.093 11.7665 105.013 11.6824C104.934 11.5983 104.838 11.5311 104.732 11.485C104.626 11.439 104.511 11.4148 104.396 11.4142H100.319C100.087 11.4142 99.862 11.4925 99.6805 11.6365C99.4989 11.7804 99.3714 11.9816 99.3186 12.2072L92.8986 39.2752C92.8306 39.5432 92.8694 39.8271 93.0066 40.0672C93.0976 40.2215 93.2273 40.3494 93.3829 40.4381C93.5384 40.5269 93.7145 40.5734 93.8936 40.5732H98.6466C98.8784 40.5734 99.1034 40.4951 99.2849 40.3511C99.4665 40.2071 99.594 40.0059 99.6466 39.7802L101.77 30.7632C103.705 32.4422 105.808 33.2202 109.551 33.2202C117.815 33.2202 122.251 29.7202 123.814 22.8082L124.081 21.5552C124.813 18.3742 124.454 15.8282 123.015 13.9852ZM117.328 21.1342L117.076 22.1832C116.013 26.5592 111.601 27.2132 108.736 27.2132C103.879 27.2132 103.59 25.4722 103.367 24.0662L104.092 20.8162C105.482 18.0782 108.218 16.7472 112.457 16.7472C115.091 16.7472 116.257 17.2532 117.022 18.2472C117.292 18.6722 117.46 19.154 117.513 19.6548C117.566 20.1556 117.503 20.662 117.328 21.1342Z" fill="#FF7300"/>
</svg>
