<svg width="437" height="67" viewBox="0 0 437 67" fill="none" xmlns="http://www.w3.org/2000/svg">
<path d="M81.3333 17.5879C76.2513 17.3934 71.2086 18.5572 66.7164 20.9614C64.2261 22.3238 62.0627 24.2209 60.3789 26.5185C58.6952 28.8162 57.5321 31.4585 56.9718 34.259L56.4359 36.6499C55.2178 41.7594 55.7537 45.8371 58.06 48.7684C61.0645 52.6824 65.7744 54.3528 73.8137 54.3528C87.8622 54.3528 95.7228 49.1287 98.3863 37.6653L98.9061 35.2743C100.108 30.3614 99.5557 26.2837 97.282 23.336C94.2449 19.3565 89.3726 17.5879 81.3333 17.5879ZM87.9434 34.783L87.5374 36.4207C86.1406 41.874 82.0154 44.5106 74.9181 44.5106C70.663 44.5106 69.1038 43.5935 67.9345 42.0869C67.4706 41.368 67.1741 40.5526 67.0672 39.7018C66.9604 38.851 67.0459 37.9868 67.3173 37.174L67.7233 35.5364C69.1526 29.9029 72.9205 27.4956 80.2776 27.4956C84.6465 27.4956 86.1894 28.3799 87.375 29.9193C87.8255 30.635 88.1106 31.4439 88.209 32.2858C88.3074 33.1278 88.2166 33.9813 87.9434 34.783Z" fill="white"/>
<path d="M131.599 17.5879C126.517 17.3934 121.474 18.5572 116.982 20.9614C114.492 22.3238 112.328 24.2209 110.645 26.5185C108.961 28.8162 107.798 31.4585 107.237 34.259L106.701 36.6499C105.483 41.7594 106.003 45.8371 108.326 48.7684C111.33 52.6824 116.04 54.3528 124.079 54.3528C138.095 54.3528 146.005 49.1287 148.668 37.6653L149.188 35.2743C150.39 30.3614 149.838 26.2837 147.564 23.336C144.592 19.3565 139.606 17.5879 131.599 17.5879ZM138.209 34.783L137.803 36.4207C136.406 41.874 132.281 44.5106 125.184 44.5106C120.929 44.5106 119.353 43.5935 118.2 42.0869C117.736 41.368 117.44 40.5526 117.333 39.7018C117.226 38.851 117.311 37.9868 117.583 37.174L117.989 35.5364C119.418 29.9029 123.17 27.4956 130.543 27.4956C134.912 27.4956 136.455 28.3799 137.641 29.9193C138.094 30.6337 138.382 31.4419 138.483 32.2839C138.584 33.1259 138.496 33.9801 138.225 34.783H138.209Z" fill="white"/>
<path d="M199.666 22.9269C196.97 19.4552 192.829 17.621 185.975 17.621C179.121 17.621 175.11 18.882 170.871 21.9935L171.293 20.1921C171.341 20.0181 171.347 19.8352 171.31 19.6585C171.273 19.4819 171.195 19.3167 171.082 19.1768C170.971 19.0318 170.828 18.9149 170.665 18.8354C170.501 18.7558 170.322 18.7157 170.14 18.7182H162.848C162.47 18.7097 162.101 18.8343 161.805 19.0704C161.508 19.3066 161.303 19.6395 161.224 20.0119L150.781 64.3099C150.719 64.559 150.716 64.8192 150.773 65.0695C150.829 65.3199 150.943 65.5533 151.106 65.751C151.258 65.9514 151.455 66.1134 151.681 66.2242C151.906 66.335 152.154 66.3916 152.405 66.3897H160.119C160.497 66.3982 160.866 66.2736 161.162 66.0375C161.459 65.8014 161.664 65.4684 161.743 65.096L165.154 50.5866C168.288 53.3378 171.748 54.3531 177.822 54.3531C191.237 54.3531 198.416 48.6378 200.965 37.3217L201.404 35.2747C202.589 30.067 202.005 25.9074 199.666 22.9269ZM190.441 34.6196L190.068 36.3064C188.33 43.4629 181.184 44.4946 176.523 44.4946C168.646 44.4946 168.175 41.6451 167.818 39.3524L168.954 34.0628C171.212 29.5921 175.662 27.414 182.532 27.414C186.803 27.414 188.703 28.2329 189.938 29.8705C190.375 30.5648 190.648 31.3515 190.736 32.1694C190.823 32.9873 190.722 33.8146 190.441 34.5869V34.6196Z" fill="white"/>
<path d="M48.056 42.415H3.55569C3.17752 42.4321 2.815 42.5722 2.52228 42.8142C2.22955 43.0562 2.02234 43.3872 1.93159 43.7578L0.0476361 51.1763C-0.0133373 51.436 -0.0158086 51.7061 0.040404 51.9668C0.0966165 52.2275 0.210083 52.4722 0.372456 52.6829C0.537161 52.8929 0.746988 53.0624 0.986119 53.1787C1.22525 53.295 1.48744 53.3551 1.75294 53.3544H46.2533C46.6477 53.3541 47.0305 53.2198 47.3399 52.9732C47.6493 52.7266 47.8673 52.382 47.9586 51.9951L49.7126 44.593C49.7701 44.3332 49.7709 44.0638 49.7148 43.8036C49.6587 43.5434 49.5471 43.2987 49.3878 43.0864C49.2275 42.8837 49.0253 42.7186 48.7953 42.6026C48.5653 42.4867 48.313 42.4226 48.056 42.415Z" fill="white"/>
<path d="M13.0404 10.8575H42.5665L22.6551 27.5614C22.4607 27.717 22.302 27.9132 22.1899 28.1366C22.0777 28.3599 22.0148 28.605 22.0054 28.8551C21.9867 29.1054 22.0254 29.3566 22.1183 29.5895C22.2112 29.8223 22.356 30.0305 22.5414 30.198L27.9496 35.4548C28.2678 35.7777 28.7 35.9603 29.1515 35.9624C29.5532 35.9615 29.9426 35.8229 30.2559 35.5694L71.508 0.163763L71.7191 0H14.6645C14.2834 0.015433 13.9179 0.156878 13.6244 0.402519C13.3309 0.64816 13.1257 0.98435 13.0404 1.35924L11.4163 8.69583C11.3543 8.95277 11.3513 9.2206 11.4076 9.47887C11.4639 9.73714 11.578 9.97903 11.7411 10.1861C11.8979 10.3847 12.0949 10.5474 12.3189 10.6631C12.543 10.7789 12.7889 10.8452 13.0404 10.8575Z" fill="white"/>
<path d="M241.072 20.376H233.648C233.552 20.376 233.456 20.44 233.44 20.536L233.392 20.904C233.36 21.048 233.456 21.144 233.6 21.144H236.688C236.768 21.144 236.848 21.24 236.832 21.32L235.312 30.744C235.296 30.872 235.408 31 235.536 31H235.968C236.064 31 236.16 30.92 236.16 30.824L237.68 21.256C237.696 21.208 237.76 21.144 237.824 21.144H241.04C241.136 21.144 241.232 21.08 241.248 20.984L241.296 20.6C241.328 20.456 241.2 20.376 241.072 20.376ZM243.006 31.224C244.334 31.224 245.47 30.872 246.222 30.104C246.318 30.024 246.318 29.896 246.254 29.8L246.062 29.544C245.982 29.464 245.87 29.464 245.774 29.544C245.086 30.248 244.126 30.504 243.134 30.504C241.902 30.504 240.686 29.976 240.974 28.12L241.038 27.736C241.038 27.672 241.102 27.624 241.166 27.624H246.638C246.734 27.624 246.83 27.56 246.846 27.432L246.958 26.584C247.342 24.152 245.934 23.368 244.19 23.368C242.462 23.368 240.734 24.12 240.35 26.536L240.126 27.944C239.742 30.408 241.15 31.224 243.006 31.224ZM241.294 27.032C241.214 27.032 241.134 26.952 241.15 26.872L241.214 26.472C241.534 24.616 242.942 24.072 244.142 24.072C245.294 24.072 246.398 24.6 246.174 26.472L246.126 26.92C246.126 26.984 246.046 27.032 245.982 27.032H241.294ZM254.537 29.48L254.297 29.304C254.201 29.224 254.089 29.24 253.993 29.352C253.321 30.2 252.297 30.488 251.385 30.488C250.073 30.488 248.889 29.912 249.193 27.848L249.385 26.712C249.705 24.648 251.097 24.104 252.457 24.104C253.321 24.104 254.169 24.36 254.585 25.224C254.665 25.336 254.745 25.384 254.857 25.32L255.177 25.16C255.289 25.096 255.321 25 255.257 24.856C254.793 23.784 253.769 23.384 252.505 23.384C250.585 23.384 248.953 24.136 248.553 26.6L248.361 27.816C247.961 30.376 249.337 31.208 251.225 31.208C252.585 31.208 253.785 30.808 254.553 29.784C254.649 29.656 254.617 29.56 254.537 29.48ZM256.696 31H257.112C257.208 31 257.304 30.92 257.32 30.824L258.12 25.656C258.168 25.464 258.296 25.336 258.376 25.256C259 24.68 259.911 24.136 261.08 24.136C262.072 24.136 263.16 24.456 262.872 26.248L262.152 30.744C262.12 30.872 262.232 31 262.36 31H262.792C262.872 31 262.968 30.92 262.984 30.824L263.736 26.136C264.088 23.912 262.808 23.384 261.416 23.384C260.184 23.384 259.16 23.832 258.504 24.408C258.376 24.504 258.232 24.552 258.264 24.328L258.328 23.752C258.328 23.672 258.248 23.592 258.152 23.592H257.799C257.704 23.592 257.608 23.672 257.592 23.768L256.472 30.744C256.44 30.872 256.552 31 256.696 31ZM268.479 31.208C270.351 31.208 272.127 30.456 272.527 27.96L272.719 26.68C273.119 24.184 271.583 23.384 269.663 23.384C267.807 23.384 266.031 24.136 265.631 26.616L265.439 27.912C265.055 30.376 266.559 31.208 268.479 31.208ZM268.543 30.488C267.279 30.488 265.967 29.944 266.271 27.928L266.479 26.68C266.799 24.648 268.319 24.104 269.615 24.104C270.879 24.104 272.207 24.616 271.887 26.664L271.695 27.912C271.375 29.944 269.839 30.488 268.543 30.488ZM274.333 31H274.749C274.845 31 274.941 30.92 274.973 30.808L276.765 19.464C276.797 19.304 276.685 19.176 276.557 19.176H276.141C276.029 19.176 275.949 19.272 275.917 19.4L274.141 30.728C274.109 30.872 274.173 31 274.333 31ZM280.51 31.208C282.382 31.208 284.158 30.456 284.558 27.96L284.75 26.68C285.15 24.184 283.614 23.384 281.694 23.384C279.838 23.384 278.062 24.136 277.662 26.616L277.47 27.912C277.086 30.376 278.59 31.208 280.51 31.208ZM280.574 30.488C279.31 30.488 277.998 29.944 278.302 27.928L278.51 26.68C278.83 24.648 280.35 24.104 281.646 24.104C282.91 24.104 284.238 24.616 283.918 26.664L283.726 27.912C283.406 29.944 281.87 30.488 280.574 30.488ZM288.588 34.216C290.476 34.216 292.044 33.624 292.428 31.192L293.58 23.88C293.612 23.72 293.548 23.592 293.388 23.592H293.052C292.972 23.592 292.892 23.64 292.86 23.72L292.764 24.28C292.7 24.456 292.492 24.456 292.38 24.296C291.868 23.672 291.004 23.368 290.092 23.368C288.396 23.368 286.796 24.104 286.412 26.504L286.204 27.864C285.836 30.232 287.116 31.144 288.764 31.144C289.66 31.144 290.604 30.92 291.308 30.376C291.484 30.248 291.74 30.056 291.708 30.248L291.564 31.224C291.276 33.096 289.9 33.512 288.556 33.512C287.564 33.512 286.748 33.224 286.252 32.6C286.14 32.52 286.012 32.504 285.932 32.616L285.772 32.888C285.708 32.984 285.708 33.08 285.804 33.176C286.364 33.848 287.292 34.216 288.588 34.216ZM289.036 30.44C287.9 30.44 286.748 29.8 287.052 27.848L287.244 26.6C287.564 24.632 288.924 24.088 290.236 24.088C291.052 24.088 291.996 24.424 292.38 25.32C292.412 25.416 292.46 25.56 292.428 25.768L291.948 28.792C291.916 29 291.836 29.176 291.756 29.24C291.036 30.232 289.868 30.44 289.036 30.44ZM296.796 21.448C297.18 21.448 297.42 21.256 297.484 20.856C297.548 20.424 297.372 20.28 297.052 20.28C296.716 20.28 296.444 20.408 296.348 20.824C296.284 21.208 296.412 21.448 296.796 21.448ZM295.148 31H295.58C295.676 31 295.772 30.952 295.788 30.792L296.892 23.864C296.924 23.672 296.828 23.592 296.7 23.592H296.284C296.172 23.592 296.092 23.656 296.06 23.784L294.956 30.712C294.924 30.872 295.004 31 295.148 31ZM300.152 31.208C301.192 31.208 302.312 30.888 303.112 30.152C303.416 29.88 303.592 29.704 303.48 30.248L303.4 30.728C303.384 30.888 303.448 31 303.608 31H303.944C304.04 31 304.136 30.92 304.152 30.776L304.872 26.296C305.224 23.992 303.992 23.384 302.344 23.384C301.064 23.384 299.928 23.752 299.08 24.504C298.984 24.584 298.984 24.696 299.048 24.776L299.176 25.016C299.256 25.128 299.368 25.128 299.464 25.064C300.248 24.392 301.048 24.088 302.168 24.088C303.272 24.088 304.28 24.472 304.024 26.232L303.928 26.824C303.928 26.872 303.864 26.936 303.8 26.936H301.112C299.24 26.936 298.136 27.72 298.12 29.368C298.104 30.584 298.856 31.208 300.152 31.208ZM300.44 30.536C299.512 30.536 298.936 30.104 298.936 29.24C298.936 28.088 299.736 27.496 301.064 27.496H303.672C303.736 27.496 303.832 27.576 303.816 27.64L303.704 28.392C303.464 29.912 301.752 30.536 300.44 30.536ZM314.352 23.368C313.296 23.368 312.32 23.672 311.712 24.2C311.44 24.456 311.04 24.888 311.104 24.392L311.2 23.768C311.2 23.672 311.104 23.592 310.992 23.592H310.656C310.576 23.592 310.48 23.672 310.464 23.768L308.864 33.736C308.848 33.88 308.944 33.992 309.088 33.992H309.504C309.6 33.992 309.696 33.928 309.712 33.832L310.256 30.312C310.32 29.944 310.448 29.944 310.656 30.248C311.136 30.872 312 31.224 313.04 31.224C314.864 31.224 316.512 30.472 316.896 28.056L317.136 26.536C317.504 24.152 316.064 23.368 314.352 23.368ZM316.288 26.552L316.064 27.96C315.744 29.944 314.24 30.504 312.928 30.504C311.648 30.504 310.976 29.912 310.672 29.304C310.528 29.016 310.528 28.568 310.56 28.36L310.912 26.248C310.944 26.056 311.024 25.736 311.296 25.384C311.824 24.728 312.72 24.088 314.096 24.088C315.28 24.088 316.592 24.616 316.288 26.552ZM320.308 31.208C321.348 31.208 322.468 30.888 323.268 30.152C323.572 29.88 323.748 29.704 323.636 30.248L323.556 30.728C323.54 30.888 323.604 31 323.764 31H324.1C324.196 31 324.292 30.92 324.308 30.776L325.028 26.296C325.38 23.992 324.148 23.384 322.5 23.384C321.22 23.384 320.084 23.752 319.236 24.504C319.14 24.584 319.14 24.696 319.204 24.776L319.332 25.016C319.412 25.128 319.524 25.128 319.62 25.064C320.404 24.392 321.204 24.088 322.324 24.088C323.428 24.088 324.436 24.472 324.18 26.232L324.084 26.824C324.084 26.872 324.02 26.936 323.956 26.936H321.268C319.396 26.936 318.292 27.72 318.276 29.368C318.26 30.584 319.012 31.208 320.308 31.208ZM320.596 30.536C319.668 30.536 319.092 30.104 319.092 29.24C319.092 28.088 319.892 27.496 321.22 27.496H323.828C323.892 27.496 323.988 27.576 323.972 27.64L323.86 28.392C323.62 29.912 321.908 30.536 320.596 30.536ZM332.323 23.784C331.971 23.544 331.539 23.368 330.883 23.368C330.147 23.368 329.411 23.64 328.883 24.168C328.547 24.504 328.435 24.504 328.467 24.216L328.547 23.768C328.547 23.672 328.451 23.592 328.339 23.592H327.987C327.891 23.592 327.795 23.672 327.779 23.768L326.659 30.744C326.627 30.872 326.755 31 326.883 31H327.299C327.395 31 327.491 30.92 327.507 30.824L328.307 25.88C328.339 25.592 328.467 25.432 328.547 25.32C329.107 24.616 329.811 24.12 330.707 24.12C331.235 24.12 331.587 24.248 331.891 24.488C331.971 24.536 332.099 24.504 332.163 24.408L332.371 24.072C332.435 23.96 332.419 23.832 332.323 23.784ZM334.574 31.208C335.614 31.208 336.734 30.888 337.534 30.152C337.838 29.88 338.014 29.704 337.902 30.248L337.822 30.728C337.806 30.888 337.87 31 338.03 31H338.366C338.462 31 338.558 30.92 338.574 30.776L339.294 26.296C339.646 23.992 338.414 23.384 336.766 23.384C335.486 23.384 334.35 23.752 333.502 24.504C333.406 24.584 333.406 24.696 333.47 24.776L333.598 25.016C333.678 25.128 333.79 25.128 333.886 25.064C334.67 24.392 335.47 24.088 336.59 24.088C337.694 24.088 338.702 24.472 338.446 26.232L338.35 26.824C338.35 26.872 338.286 26.936 338.222 26.936H335.534C333.662 26.936 332.558 27.72 332.542 29.368C332.526 30.584 333.278 31.208 334.574 31.208ZM334.862 30.536C333.934 30.536 333.358 30.104 333.358 29.24C333.358 28.088 334.158 27.496 335.486 27.496H338.094C338.158 27.496 338.254 27.576 338.238 27.64L338.126 28.392C337.886 29.912 336.174 30.536 334.862 30.536ZM346.854 31.208C348.726 31.208 350.502 30.456 350.902 27.96L351.094 26.68C351.494 24.184 349.958 23.384 348.038 23.384C346.182 23.384 344.406 24.136 344.006 26.616L343.814 27.912C343.43 30.376 344.934 31.208 346.854 31.208ZM346.918 30.488C345.654 30.488 344.342 29.944 344.646 27.928L344.854 26.68C345.174 24.648 346.694 24.104 347.99 24.104C349.254 24.104 350.582 24.616 350.262 26.664L350.07 27.912C349.75 29.944 348.214 30.488 346.918 30.488ZM355.108 31.208C356.788 31.208 358.372 30.552 358.372 28.888C358.372 27.832 357.684 27.176 356.404 26.92L355.172 26.696C354.308 26.52 353.764 26.168 353.764 25.4C353.764 24.488 354.804 24.04 356.068 24.04C357.092 24.04 357.876 24.424 358.292 25.08C358.372 25.16 358.5 25.192 358.58 25.096L358.804 24.872C358.884 24.792 358.9 24.68 358.836 24.6C358.324 23.816 357.364 23.384 356.1 23.384C354.436 23.384 352.948 23.976 352.948 25.464C352.948 26.488 353.62 27.128 354.852 27.352L356.052 27.56C357.028 27.752 357.556 28.232 357.556 28.968C357.556 30.088 356.324 30.568 355.156 30.568C354.116 30.568 353.188 30.28 352.74 29.4C352.644 29.304 352.5 29.288 352.42 29.384L352.244 29.64C352.18 29.704 352.18 29.816 352.244 29.88C352.756 30.84 353.764 31.208 355.108 31.208ZM365.608 31.208C367.288 31.208 368.872 30.552 368.872 28.888C368.872 27.832 368.184 27.176 366.904 26.92L365.672 26.696C364.808 26.52 364.264 26.168 364.264 25.4C364.264 24.488 365.304 24.04 366.568 24.04C367.592 24.04 368.376 24.424 368.792 25.08C368.872 25.16 369 25.192 369.08 25.096L369.304 24.872C369.384 24.792 369.4 24.68 369.336 24.6C368.824 23.816 367.864 23.384 366.6 23.384C364.936 23.384 363.448 23.976 363.448 25.464C363.448 26.488 364.12 27.128 365.352 27.352L366.552 27.56C367.528 27.752 368.056 28.232 368.056 28.968C368.056 30.088 366.824 30.568 365.656 30.568C364.616 30.568 363.688 30.28 363.24 29.4C363.144 29.304 363 29.288 362.92 29.384L362.744 29.64C362.68 29.704 362.68 29.816 362.744 29.88C363.256 30.84 364.264 31.208 365.608 31.208ZM373.459 31.224C374.787 31.224 375.923 30.872 376.675 30.104C376.771 30.024 376.771 29.896 376.707 29.8L376.515 29.544C376.435 29.464 376.323 29.464 376.227 29.544C375.539 30.248 374.579 30.504 373.587 30.504C372.355 30.504 371.139 29.976 371.427 28.12L371.491 27.736C371.491 27.672 371.555 27.624 371.619 27.624H377.091C377.187 27.624 377.283 27.56 377.299 27.432L377.411 26.584C377.795 24.152 376.387 23.368 374.643 23.368C372.915 23.368 371.187 24.12 370.803 26.536L370.579 27.944C370.195 30.408 371.603 31.224 373.459 31.224ZM371.747 27.032C371.667 27.032 371.587 26.952 371.603 26.872L371.667 26.472C371.987 24.616 373.395 24.072 374.595 24.072C375.747 24.072 376.851 24.6 376.627 26.472L376.579 26.92C376.579 26.984 376.499 27.032 376.435 27.032H371.747ZM384.526 23.784C384.174 23.544 383.742 23.368 383.086 23.368C382.35 23.368 381.614 23.64 381.086 24.168C380.75 24.504 380.638 24.504 380.67 24.216L380.75 23.768C380.75 23.672 380.654 23.592 380.542 23.592H380.19C380.094 23.592 379.998 23.672 379.982 23.768L378.862 30.744C378.83 30.872 378.958 31 379.086 31H379.502C379.598 31 379.694 30.92 379.71 30.824L380.51 25.88C380.542 25.592 380.67 25.432 380.75 25.32C381.31 24.616 382.014 24.12 382.91 24.12C383.438 24.12 383.79 24.248 384.094 24.488C384.174 24.536 384.302 24.504 384.366 24.408L384.574 24.072C384.638 23.96 384.622 23.832 384.526 23.784ZM392.169 23.592H391.689C391.609 23.592 391.545 23.64 391.513 23.72L387.929 29.8C387.817 30.056 387.673 30.024 387.625 29.752L386.089 23.768C386.073 23.672 385.993 23.592 385.897 23.592H385.353C385.209 23.592 385.113 23.72 385.145 23.88L387.081 30.856C387.113 30.952 387.177 31 387.257 31H387.961C388.009 31 388.073 30.968 388.105 30.92L392.361 23.976C392.473 23.784 392.377 23.592 392.169 23.592ZM394.796 21.448C395.18 21.448 395.42 21.256 395.484 20.856C395.548 20.424 395.372 20.28 395.052 20.28C394.716 20.28 394.444 20.408 394.348 20.824C394.284 21.208 394.412 21.448 394.796 21.448ZM393.148 31H393.58C393.676 31 393.772 30.952 393.788 30.792L394.892 23.864C394.924 23.672 394.828 23.592 394.7 23.592H394.284C394.172 23.592 394.092 23.656 394.06 23.784L392.956 30.712C392.924 30.872 393.004 31 393.148 31ZM403.304 24.856C402.84 23.784 401.816 23.384 400.552 23.384C398.632 23.384 397 24.136 396.6 26.6L396.408 27.816C396.024 30.264 397.256 31.128 399.016 31.208L398.76 31.976C398.712 32.136 398.792 32.248 398.952 32.248C399.864 32.232 400.136 32.472 400.104 32.856C400.056 33.352 399.56 33.576 398.952 33.576C398.6 33.576 398.36 33.528 398.168 33.448C398.072 33.432 397.976 33.464 397.944 33.576L397.928 33.672C397.896 33.784 397.944 33.896 398.056 33.928C398.264 33.976 398.584 34.04 399.032 34.04C399.816 34.04 400.616 33.72 400.696 32.936C400.76 32.216 400.248 31.928 399.432 31.912C399.352 31.896 399.288 31.864 399.304 31.784L399.464 31.208C400.744 31.16 401.864 30.76 402.6 29.784C402.696 29.656 402.664 29.56 402.584 29.48L402.344 29.304C402.248 29.224 402.136 29.24 402.04 29.352C401.368 30.2 400.344 30.488 399.432 30.488C398.12 30.488 396.936 29.912 397.24 27.848L397.432 26.712C397.752 24.648 399.144 24.104 400.504 24.104C401.368 24.104 402.216 24.36 402.632 25.224C402.712 25.336 402.792 25.384 402.904 25.32L403.224 25.16C403.336 25.096 403.368 25 403.304 24.856ZM407.276 31.208C409.148 31.208 410.924 30.456 411.324 27.96L411.516 26.68C411.916 24.184 410.38 23.384 408.46 23.384C406.604 23.384 404.828 24.136 404.428 26.616L404.236 27.912C403.852 30.376 405.356 31.208 407.276 31.208ZM407.34 30.488C406.076 30.488 404.764 29.944 405.068 27.928L405.276 26.68C405.596 24.648 407.116 24.104 408.412 24.104C409.676 24.104 411.004 24.616 410.684 26.664L410.492 27.912C410.172 29.944 408.636 30.488 407.34 30.488ZM415.53 31.208C417.21 31.208 418.794 30.552 418.794 28.888C418.794 27.832 418.106 27.176 416.826 26.92L415.594 26.696C414.73 26.52 414.186 26.168 414.186 25.4C414.186 24.488 415.226 24.04 416.49 24.04C417.514 24.04 418.298 24.424 418.714 25.08C418.794 25.16 418.922 25.192 419.002 25.096L419.226 24.872C419.306 24.792 419.322 24.68 419.258 24.6C418.746 23.816 417.786 23.384 416.522 23.384C414.858 23.384 413.37 23.976 413.37 25.464C413.37 26.488 414.042 27.128 415.274 27.352L416.474 27.56C417.45 27.752 417.978 28.232 417.978 28.968C417.978 30.088 416.746 30.568 415.578 30.568C414.538 30.568 413.61 30.28 413.162 29.4C413.066 29.304 412.922 29.288 412.842 29.384L412.666 29.64C412.602 29.704 412.602 29.816 412.666 29.88C413.178 30.84 414.186 31.208 415.53 31.208ZM240.16 39.56C239.504 39.176 238.672 38.984 237.744 38.984C236.256 38.984 235.024 39.56 234.64 41.928L234.4 43.48C234.384 43.544 234.32 43.592 234.272 43.592H233.52C233.424 43.592 233.328 43.672 233.312 43.768L233.28 44.024C233.248 44.168 233.312 44.264 233.472 44.264H234.112C234.208 44.264 234.272 44.344 234.256 44.44L233.232 50.744C233.216 50.872 233.312 51 233.456 51H233.872C233.968 51 234.064 50.92 234.08 50.824L235.104 44.376C235.104 44.312 235.168 44.264 235.232 44.264H238.08C238.176 44.264 238.256 44.216 238.272 44.104L238.32 43.848C238.336 43.704 238.24 43.592 238.112 43.592H235.376C235.296 43.592 235.216 43.512 235.232 43.432L235.472 41.992C235.76 40.168 236.72 39.72 237.776 39.72C238.432 39.72 239.168 39.864 239.744 40.2C239.84 40.264 239.952 40.248 240.016 40.152L240.208 39.848C240.288 39.752 240.256 39.624 240.16 39.56ZM241.078 41.448C241.462 41.448 241.702 41.256 241.766 40.856C241.83 40.424 241.654 40.28 241.334 40.28C240.998 40.28 240.726 40.408 240.63 40.824C240.566 41.208 240.694 41.448 241.078 41.448ZM239.43 51H239.862C239.958 51 240.054 50.952 240.07 50.792L241.174 43.864C241.206 43.672 241.11 43.592 240.982 43.592H240.566C240.454 43.592 240.374 43.656 240.342 43.784L239.238 50.712C239.206 50.872 239.286 51 239.43 51ZM242.961 51H243.377C243.473 51 243.569 50.92 243.585 50.824L244.385 45.656C244.433 45.464 244.561 45.336 244.641 45.256C245.265 44.68 246.177 44.136 247.345 44.136C248.337 44.136 249.425 44.456 249.137 46.248L248.417 50.744C248.385 50.872 248.497 51 248.625 51H249.057C249.137 51 249.233 50.92 249.249 50.824L250.001 46.136C250.353 43.912 249.073 43.384 247.681 43.384C246.449 43.384 245.425 43.832 244.769 44.408C244.641 44.504 244.497 44.552 244.529 44.328L244.593 43.752C244.593 43.672 244.513 43.592 244.417 43.592H244.065C243.969 43.592 243.873 43.672 243.857 43.768L242.737 50.744C242.705 50.872 242.817 51 242.961 51ZM253.464 51.208C254.504 51.208 255.624 50.888 256.424 50.152C256.728 49.88 256.904 49.704 256.792 50.248L256.712 50.728C256.696 50.888 256.76 51 256.92 51H257.256C257.352 51 257.448 50.92 257.464 50.776L258.184 46.296C258.536 43.992 257.304 43.384 255.656 43.384C254.376 43.384 253.24 43.752 252.392 44.504C252.296 44.584 252.296 44.696 252.36 44.776L252.488 45.016C252.568 45.128 252.68 45.128 252.776 45.064C253.56 44.392 254.36 44.088 255.48 44.088C256.584 44.088 257.592 44.472 257.336 46.232L257.24 46.824C257.24 46.872 257.176 46.936 257.112 46.936H254.424C252.552 46.936 251.448 47.72 251.432 49.368C251.416 50.584 252.168 51.208 253.464 51.208ZM253.752 50.536C252.824 50.536 252.248 50.104 252.248 49.24C252.248 48.088 253.048 47.496 254.376 47.496H256.984C257.048 47.496 257.144 47.576 257.128 47.64L257.016 48.392C256.776 49.912 255.064 50.536 253.752 50.536ZM260.039 51H260.455C260.551 51 260.647 50.92 260.663 50.824L261.463 45.656C261.511 45.464 261.639 45.336 261.719 45.256C262.343 44.68 263.255 44.136 264.423 44.136C265.415 44.136 266.503 44.456 266.215 46.248L265.495 50.744C265.463 50.872 265.575 51 265.703 51H266.135C266.215 51 266.311 50.92 266.327 50.824L267.079 46.136C267.431 43.912 266.151 43.384 264.759 43.384C263.527 43.384 262.503 43.832 261.847 44.408C261.719 44.504 261.575 44.552 261.607 44.328L261.671 43.752C261.671 43.672 261.591 43.592 261.495 43.592H261.143C261.047 43.592 260.951 43.672 260.935 43.768L259.815 50.744C259.783 50.872 259.895 51 260.039 51ZM274.975 49.48L274.735 49.304C274.639 49.224 274.527 49.24 274.431 49.352C273.759 50.2 272.735 50.488 271.823 50.488C270.511 50.488 269.327 49.912 269.631 47.848L269.823 46.712C270.143 44.648 271.535 44.104 272.895 44.104C273.759 44.104 274.607 44.36 275.023 45.224C275.103 45.336 275.183 45.384 275.295 45.32L275.615 45.16C275.727 45.096 275.759 45 275.695 44.856C275.231 43.784 274.207 43.384 272.943 43.384C271.023 43.384 269.391 44.136 268.991 46.6L268.799 47.816C268.399 50.376 269.775 51.208 271.663 51.208C273.023 51.208 274.223 50.808 274.991 49.784C275.087 49.656 275.055 49.56 274.975 49.48ZM279.49 51.224C280.818 51.224 281.954 50.872 282.706 50.104C282.802 50.024 282.802 49.896 282.738 49.8L282.546 49.544C282.466 49.464 282.354 49.464 282.258 49.544C281.57 50.248 280.61 50.504 279.618 50.504C278.386 50.504 277.17 49.976 277.458 48.12L277.522 47.736C277.522 47.672 277.586 47.624 277.65 47.624H283.122C283.218 47.624 283.314 47.56 283.33 47.432L283.442 46.584C283.826 44.152 282.418 43.368 280.674 43.368C278.946 43.368 277.218 44.12 276.834 46.536L276.61 47.944C276.226 50.408 277.634 51.224 279.49 51.224ZM277.778 47.032C277.698 47.032 277.618 46.952 277.634 46.872L277.698 46.472C278.018 44.616 279.426 44.072 280.626 44.072C281.778 44.072 282.882 44.6 282.658 46.472L282.61 46.92C282.61 46.984 282.53 47.032 282.466 47.032H277.778ZM286.749 41.448C287.133 41.448 287.373 41.256 287.437 40.856C287.501 40.424 287.325 40.28 287.005 40.28C286.669 40.28 286.397 40.408 286.301 40.824C286.237 41.208 286.365 41.448 286.749 41.448ZM285.101 51H285.533C285.629 51 285.725 50.952 285.741 50.792L286.845 43.864C286.877 43.672 286.781 43.592 286.653 43.592H286.237C286.125 43.592 286.045 43.656 286.013 43.784L284.909 50.712C284.877 50.872 284.957 51 285.101 51ZM294.073 43.784C293.721 43.544 293.289 43.368 292.633 43.368C291.897 43.368 291.161 43.64 290.633 44.168C290.297 44.504 290.185 44.504 290.217 44.216L290.297 43.768C290.297 43.672 290.201 43.592 290.089 43.592H289.737C289.641 43.592 289.545 43.672 289.529 43.768L288.409 50.744C288.377 50.872 288.505 51 288.633 51H289.049C289.145 51 289.241 50.92 289.257 50.824L290.057 45.88C290.089 45.592 290.217 45.432 290.297 45.32C290.857 44.616 291.561 44.12 292.457 44.12C292.985 44.12 293.337 44.248 293.641 44.488C293.721 44.536 293.849 44.504 293.913 44.408L294.121 44.072C294.185 43.96 294.169 43.832 294.073 43.784ZM297.307 51.208C299.179 51.208 300.955 50.456 301.355 47.96L301.547 46.68C301.947 44.184 300.411 43.384 298.491 43.384C296.635 43.384 294.859 44.136 294.459 46.616L294.267 47.912C293.883 50.376 295.387 51.208 297.307 51.208ZM297.371 50.488C296.107 50.488 294.795 49.944 295.099 47.928L295.307 46.68C295.627 44.648 297.147 44.104 298.443 44.104C299.707 44.104 301.035 44.616 300.715 46.664L300.523 47.912C300.203 49.944 298.667 50.488 297.371 50.488ZM305.561 51.208C307.241 51.208 308.825 50.552 308.825 48.888C308.825 47.832 308.137 47.176 306.857 46.92L305.625 46.696C304.761 46.52 304.217 46.168 304.217 45.4C304.217 44.488 305.257 44.04 306.521 44.04C307.545 44.04 308.329 44.424 308.745 45.08C308.825 45.16 308.953 45.192 309.033 45.096L309.257 44.872C309.337 44.792 309.353 44.68 309.289 44.6C308.777 43.816 307.817 43.384 306.553 43.384C304.889 43.384 303.401 43.976 303.401 45.464C303.401 46.488 304.073 47.128 305.305 47.352L306.505 47.56C307.481 47.752 308.009 48.232 308.009 48.968C308.009 50.088 306.777 50.568 305.609 50.568C304.569 50.568 303.641 50.28 303.193 49.4C303.097 49.304 302.953 49.288 302.873 49.384L302.697 49.64C302.633 49.704 302.633 49.816 302.697 49.88C303.209 50.84 304.217 51.208 305.561 51.208ZM316.349 51.208C317.293 51.208 318.333 50.904 319.133 50.184C319.293 50.024 319.613 49.752 319.533 50.328L319.485 50.792C319.469 50.904 319.581 51 319.693 51H319.997C320.093 51 320.189 50.92 320.205 50.824L321.997 39.464C322.013 39.304 321.933 39.176 321.789 39.176H321.373C321.277 39.176 321.197 39.256 321.165 39.384L320.397 44.264C320.365 44.488 320.125 44.488 320.013 44.328C319.469 43.64 318.525 43.384 317.581 43.384C315.805 43.384 314.077 44.136 313.709 46.6L313.501 47.896C313.165 50.312 314.525 51.208 316.349 51.208ZM316.637 50.488C315.341 50.488 314.061 49.912 314.349 47.864L314.541 46.664C314.845 44.664 316.365 44.104 317.661 44.104C318.621 44.104 319.853 44.424 320.077 45.48C320.157 45.768 320.157 45.896 320.125 46.072L319.741 48.488C319.709 48.664 319.693 48.776 319.533 49C318.781 50.136 317.597 50.488 316.637 50.488ZM325.744 51.208C327.616 51.208 329.392 50.456 329.792 47.96L329.984 46.68C330.384 44.184 328.848 43.384 326.928 43.384C325.072 43.384 323.296 44.136 322.896 46.616L322.704 47.912C322.32 50.376 323.824 51.208 325.744 51.208ZM325.808 50.488C324.544 50.488 323.232 49.944 323.536 47.928L323.744 46.68C324.064 44.648 325.584 44.104 326.88 44.104C328.144 44.104 329.472 44.616 329.152 46.664L328.96 47.912C328.64 49.944 327.104 50.488 325.808 50.488ZM341.832 39.56C341.176 39.176 340.344 38.984 339.416 38.984C337.928 38.984 336.696 39.56 336.312 41.928L336.072 43.48C336.056 43.544 335.992 43.592 335.944 43.592H335.192C335.096 43.592 335 43.672 334.984 43.768L334.952 44.024C334.92 44.168 334.984 44.264 335.144 44.264H335.784C335.88 44.264 335.944 44.344 335.928 44.44L334.904 50.744C334.888 50.872 334.984 51 335.128 51H335.544C335.64 51 335.736 50.92 335.752 50.824L336.776 44.376C336.776 44.312 336.84 44.264 336.904 44.264H339.752C339.848 44.264 339.928 44.216 339.944 44.104L339.992 43.848C340.008 43.704 339.912 43.592 339.784 43.592H337.048C336.968 43.592 336.888 43.512 336.904 43.432L337.144 41.992C337.432 40.168 338.392 39.72 339.448 39.72C340.104 39.72 340.84 39.864 341.416 40.2C341.512 40.264 341.624 40.248 341.688 40.152L341.88 39.848C341.96 39.752 341.928 39.624 341.832 39.56ZM347.891 43.592H347.475C347.363 43.592 347.283 43.672 347.267 43.784L346.467 48.744C346.419 49.064 346.291 49.272 346.163 49.384C345.411 50.072 344.547 50.44 343.539 50.44C342.563 50.44 341.539 50.072 341.795 48.376L342.499 43.88C342.531 43.72 342.435 43.592 342.291 43.592H341.875C341.779 43.592 341.683 43.672 341.667 43.784L340.931 48.52C340.611 50.568 341.795 51.208 343.203 51.208C344.339 51.208 345.315 50.792 346.003 50.248C346.147 50.152 346.355 49.992 346.307 50.392L346.243 50.824C346.243 50.936 346.307 51 346.419 51H346.787C346.883 51 346.963 50.936 346.979 50.824L348.083 43.864C348.115 43.72 348.019 43.592 347.891 43.592ZM355.612 43.592H352.156C352.06 43.592 351.996 43.512 352.012 43.432L352.236 42.072C352.252 41.944 352.14 41.816 352.012 41.816H351.596C351.5 41.816 351.404 41.896 351.388 41.992L351.164 43.48C351.164 43.544 351.084 43.592 351.036 43.592H350.22C350.14 43.592 350.044 43.672 350.028 43.768L349.996 44.04C349.964 44.184 350.06 44.28 350.204 44.28H350.876C350.956 44.28 351.036 44.36 351.02 44.44L350.396 48.36C350.06 50.52 351.052 51.208 352.588 51.208C353.596 51.208 354.556 50.984 355.372 50.568C355.436 50.536 355.468 50.424 355.42 50.312L355.324 50.024C355.276 49.896 355.148 49.864 355.036 49.912C354.316 50.296 353.484 50.472 352.78 50.472C351.788 50.472 350.972 50.072 351.244 48.344L351.868 44.392C351.868 44.328 351.932 44.28 351.996 44.28H355.596C355.676 44.28 355.772 44.232 355.788 44.12L355.82 43.848C355.852 43.704 355.756 43.592 355.612 43.592ZM363.985 43.592H363.569C363.457 43.592 363.377 43.672 363.361 43.784L362.561 48.744C362.513 49.064 362.385 49.272 362.257 49.384C361.505 50.072 360.641 50.44 359.633 50.44C358.657 50.44 357.633 50.072 357.889 48.376L358.593 43.88C358.625 43.72 358.529 43.592 358.385 43.592H357.969C357.873 43.592 357.777 43.672 357.761 43.784L357.025 48.52C356.705 50.568 357.889 51.208 359.297 51.208C360.433 51.208 361.409 50.792 362.097 50.248C362.241 50.152 362.449 49.992 362.401 50.392L362.337 50.824C362.337 50.936 362.401 51 362.513 51H362.881C362.977 51 363.057 50.936 363.073 50.824L364.177 43.864C364.209 43.72 364.113 43.592 363.985 43.592ZM371.37 43.784C371.018 43.544 370.586 43.368 369.93 43.368C369.194 43.368 368.458 43.64 367.93 44.168C367.594 44.504 367.482 44.504 367.514 44.216L367.594 43.768C367.594 43.672 367.498 43.592 367.386 43.592H367.034C366.938 43.592 366.842 43.672 366.826 43.768L365.706 50.744C365.674 50.872 365.802 51 365.93 51H366.346C366.442 51 366.538 50.92 366.554 50.824L367.354 45.88C367.386 45.592 367.514 45.432 367.594 45.32C368.154 44.616 368.858 44.12 369.754 44.12C370.282 44.12 370.634 44.248 370.938 44.488C371.018 44.536 371.146 44.504 371.21 44.408L371.418 44.072C371.482 43.96 371.466 43.832 371.37 43.784ZM374.604 51.208C376.476 51.208 378.252 50.456 378.652 47.96L378.844 46.68C379.244 44.184 377.708 43.384 375.788 43.384C373.932 43.384 372.156 44.136 371.756 46.616L371.564 47.912C371.18 50.376 372.684 51.208 374.604 51.208ZM374.668 50.488C373.404 50.488 372.092 49.944 372.396 47.928L372.604 46.68C372.924 44.648 374.444 44.104 375.74 44.104C377.004 44.104 378.332 44.616 378.012 46.664L377.82 47.912C377.5 49.944 375.964 50.488 374.668 50.488Z" fill="black"/>
</svg>
