<svg width="50" height="50" viewBox="0 0 50 50" fill="none" xmlns="http://www.w3.org/2000/svg">
<g clip-path="url(#clip0_161_1236)">
<path d="M23.1481 22.2253V20.3733H30.5531C30.7986 20.3733 31.0341 20.2758 31.2076 20.1022C31.3812 19.9286 31.4787 19.6932 31.4787 19.4477V15.7451C31.4787 15.4996 31.3812 15.2642 31.2076 15.0906C31.0341 14.917 30.7986 14.8195 30.5531 14.8195H27.7754V12.0419C27.7754 11.7962 27.6779 11.5606 27.5042 11.3869C27.3304 11.2132 27.0948 11.1156 26.8491 11.1156H23.1466C22.901 11.1158 22.6656 11.2134 22.492 11.3872C22.3185 11.5609 22.2209 11.7964 22.2209 12.0419V14.8195H20.528C20.2828 14.8199 20.0478 14.9176 19.8746 15.091L17.8643 17.102C17.6909 17.2753 17.5932 17.5103 17.5928 17.7554V24.8446C17.5932 25.0898 17.6909 25.3248 17.8643 25.498L19.8746 27.509C20.0479 27.6824 20.2829 27.78 20.528 27.7805H26.8506V29.6325H19.4455C19.2 29.6325 18.9646 29.73 18.791 29.9036C18.6174 30.0772 18.5199 30.3127 18.5199 30.5582V34.2607C18.5199 34.5062 18.6174 34.7416 18.791 34.9152C18.9646 35.0888 19.2 35.1863 19.4455 35.1863H22.2231V37.9639C22.2231 38.2095 22.3207 38.445 22.4942 38.6187C22.6678 38.7924 22.9032 38.8901 23.1488 38.8903H26.8513C26.9729 38.8903 27.0934 38.8663 27.2058 38.8197C27.3182 38.7732 27.4203 38.7049 27.5063 38.6189C27.5923 38.5329 27.6606 38.4308 27.7071 38.3184C27.7537 38.206 27.7777 38.0856 27.7777 37.9639V35.1863H29.4707C29.7158 35.1858 29.9507 35.0882 30.124 34.9148L32.135 32.9038C32.3082 32.7304 32.4056 32.4955 32.4058 32.2504V25.1612C32.4055 24.9161 32.3081 24.6812 32.135 24.5078L30.124 22.4968C29.9507 22.3234 29.7158 22.2257 29.4707 22.2253H23.1481ZM25 0.0029245C18.3719 0.0104183 12.0174 2.64675 7.33063 7.33353C2.64384 12.0203 0.00755489 18.3748 6.10352e-05 25.0029C0.00755489 31.631 2.64384 37.9855 7.33063 42.6723C12.0174 47.3591 18.3719 49.9954 25 50.0029C31.6281 49.9954 37.9827 47.3591 42.6695 42.6723C47.3562 37.9855 49.9925 31.631 50 25.0029C49.9933 18.3743 47.3573 12.019 42.6704 7.33163C37.9836 2.64421 31.6286 0.00749524 25 0V0.0029245ZM25 44.447C19.8448 44.4412 14.9025 42.3908 11.2572 38.7456C7.61183 35.1004 5.56123 30.1581 5.55528 25.0029C5.56104 19.8476 7.61154 14.9051 11.2569 11.2598C14.9022 7.61441 19.8447 5.56391 25 5.55814C30.1553 5.56391 35.0978 7.61441 38.7432 11.2598C42.3885 14.9051 44.439 19.8476 44.4448 25.0029C44.4381 30.1576 42.3872 35.0992 38.7419 38.7437C35.0967 42.3883 30.1547 44.4383 25 44.444V44.447Z" fill="#FF0662"/>
</g>
<defs>
<clipPath id="clip0_161_1236">
<rect width="50" height="50" fill="white"/>
</clipPath>
</defs>
</svg>
