<svg width="51" height="38" viewBox="0 0 51 38" fill="none" xmlns="http://www.w3.org/2000/svg">
<g clip-path="url(#clip0_161_1227)">
<rect width="51" height="37.5789" fill="white"/>
<path d="M49.2413 0H1.75876C1.5278 0 1.29912 0.0462254 1.08574 0.136162C0.872357 0.226098 0.678452 0.357913 0.515138 0.524094C0.351824 0.690274 0.222282 0.887582 0.133897 1.10471C0.0455122 1.32183 0 1.55444 0 1.78945V35.7899C0 36.0249 0.0455122 36.2577 0.133897 36.4749C0.222282 36.692 0.351824 36.8893 0.515138 37.0555C0.678452 37.2216 0.872357 37.3535 1.08574 37.4434C1.29912 37.5333 1.5278 37.5796 1.75876 37.5796H49.2413C49.7077 37.5796 50.1551 37.3911 50.4849 37.0555C50.8147 36.7198 51 36.2646 51 35.7899V1.78945C51 1.31482 50.8147 0.85971 50.4849 0.524094C50.1551 0.188477 49.7077 0 49.2413 0ZM45.7252 32.2107H5.27694V16.1049H45.7252V32.2107ZM45.7252 10.7369H5.27694V5.3687H45.7252V10.7369ZM9.67342 28.6316H27.2594C27.3749 28.6316 27.4892 28.6084 27.5958 28.5634C27.7025 28.5185 27.7994 28.4526 27.881 28.3696C27.9627 28.2865 28.0274 28.1879 28.0716 28.0794C28.1157 27.9709 28.1385 27.8545 28.1385 27.737V24.1593C28.1386 24.0418 28.1159 23.9254 28.0718 23.8168C28.0276 23.7082 27.9629 23.6094 27.8812 23.5263C27.7996 23.4432 27.7027 23.3773 27.596 23.3323C27.4893 23.2873 27.3749 23.2641 27.2594 23.2641H9.67342C9.55792 23.2641 9.44356 23.2873 9.33686 23.3323C9.23017 23.3773 9.13324 23.4432 9.05161 23.5263C8.96997 23.6094 8.90525 23.7082 8.86111 23.8168C8.81698 23.9254 8.79433 24.0418 8.79442 24.1593V27.737C8.79442 27.974 8.88685 28.2013 9.0514 28.369C9.21595 28.5367 9.43918 28.6312 9.67207 28.6316H9.67342Z" fill="#FF0662"/>
</g>
<defs>
<clipPath id="clip0_161_1227">
<rect width="51" height="37.5789" fill="white"/>
</clipPath>
</defs>
</svg>
