<svg width="57" height="54" viewBox="0 0 57 54" fill="none" xmlns="http://www.w3.org/2000/svg">
<path d="M56.9999 1.86212C56.9999 1.36824 56.803 0.89458 56.4525 0.545351C56.102 0.196122 55.6266 0 55.1309 0H1.86739C1.37171 0 0.89632 0.196122 0.545817 0.545351C0.195315 0.89458 -0.00152206 1.36824 -0.00152206 1.86212V40.9653C-0.00152206 41.4592 0.195315 41.9329 0.545817 42.2821C0.89632 42.6313 1.37171 42.8275 1.86739 42.8275H25.2279V48.4149H16.8178C16.6951 48.4149 16.5735 48.4389 16.4602 48.4857C16.3468 48.5325 16.2438 48.6012 16.1571 48.6877C16.0703 48.7742 16.0015 48.8769 15.9546 48.9899C15.9077 49.1029 15.8836 49.2241 15.8837 49.3463V53.0693C15.8836 53.1915 15.9077 53.3126 15.9546 53.4256C16.0015 53.5386 16.0703 53.6414 16.1571 53.7279C16.2438 53.8144 16.3468 53.883 16.4602 53.9298C16.5735 53.9766 16.6951 54.0007 16.8178 54.0007H39.2441C39.4921 54.0007 39.7299 53.9025 39.9052 53.7279C40.0806 53.5532 40.179 53.3163 40.179 53.0693V49.3463C40.179 49.224 40.1549 49.1028 40.1079 48.9898C40.0609 48.8768 39.9921 48.7741 39.9052 48.6876C39.8184 48.6011 39.7154 48.5325 39.602 48.4857C39.4885 48.4389 39.3669 48.4149 39.2441 48.4149H30.8341V42.8268H55.1294C55.3748 42.8268 55.6178 42.7786 55.8445 42.685C56.0713 42.5914 56.2772 42.4542 56.4507 42.2813C56.6242 42.1084 56.7618 41.9031 56.8557 41.6772C56.9495 41.4513 56.9978 41.2091 56.9977 40.9646L56.9999 1.86212ZM36.4425 37.2395H5.60683V5.58513H51.3936V37.2365L36.4425 37.2395ZM33.2057 18.8935C33.0308 18.7191 32.7937 18.6209 32.5463 18.6204H26.1657V16.7582H33.6387C33.8864 16.7582 34.124 16.6602 34.2992 16.4856C34.4744 16.3111 34.5728 16.0743 34.5728 15.8275V12.1046C34.5728 11.8577 34.4744 11.6209 34.2992 11.4462C34.1241 11.2716 33.8865 11.1733 33.6387 11.1731H30.8356V9.31089C30.8356 9.06398 30.7372 8.82721 30.562 8.65255C30.3869 8.47789 30.1493 8.37962 29.9015 8.37943H26.165C25.9172 8.37962 25.6796 8.47789 25.5044 8.65255C25.3292 8.82721 25.2308 9.06398 25.2308 9.31089V11.1731H23.5223C23.2749 11.1735 23.0377 11.2717 22.8629 11.4461L20.8335 13.4682C20.6588 13.6426 20.5605 13.8788 20.5602 14.1252V21.2543C20.5606 21.5008 20.6592 21.7371 20.8342 21.9113L22.8629 23.9332C23.0379 24.1073 23.275 24.2053 23.5223 24.2056H29.9029V26.0678H22.4299C22.1822 26.0678 21.9445 26.1658 21.7694 26.3404C21.5942 26.5149 21.4958 26.7517 21.4958 26.9985V30.7214C21.4958 30.9683 21.5942 31.205 21.7694 31.3795C21.9445 31.5541 22.1822 31.6522 22.4299 31.6522H25.2331V33.5143C25.2331 33.6365 25.2572 33.7576 25.3042 33.8705C25.3511 33.9834 25.4199 34.0861 25.5066 34.1725C25.5934 34.2589 25.6963 34.3275 25.8096 34.3742C25.923 34.421 26.0444 34.4451 26.1671 34.4451H29.9037C30.0264 34.4451 30.1478 34.421 30.2612 34.3742C30.3745 34.3275 30.4774 34.2589 30.5642 34.1725C30.6509 34.0861 30.7197 33.9834 30.7666 33.8705C30.8136 33.7576 30.8377 33.6365 30.8377 33.5143V31.6522H32.5463C32.7937 31.6517 33.0308 31.5535 33.2057 31.3792L35.2344 29.3571C35.4096 29.1829 35.508 28.9466 35.5084 28.7001V21.571C35.508 21.3245 35.4095 21.0882 35.2344 20.914L33.2057 18.8935Z" fill="#FF0064"/>
</svg>
