<svg width="30" height="59" viewBox="0 0 30 59" fill="none" xmlns="http://www.w3.org/2000/svg">
<g clip-path="url(#clip0_152_1208)">
<path d="M3.05176e-05 9.68682V48.4329C3.05176e-05 48.9 0.185898 49.348 0.516867 49.6783C0.847837 50.0086 1.29681 50.1941 1.76488 50.1941H4.41172V57.2366C4.41172 57.468 4.45743 57.697 4.54617 57.9108C4.6349 58.1245 4.76494 58.3187 4.9289 58.4823C5.09285 58.6459 5.28744 58.7756 5.50164 58.8641C5.71584 58.9525 5.94542 58.998 6.17724 58.9979H23.8242C24.2922 58.9979 24.741 58.8124 25.072 58.482C25.403 58.1517 25.589 57.7037 25.589 57.2366V50.1941H28.2359C28.7039 50.1941 29.1527 50.0086 29.4837 49.6783C29.8147 49.348 30.0007 48.9 30.0007 48.4329V9.68682C30.0007 9.2197 29.8147 8.7717 29.4837 8.44139C29.1527 8.11108 28.7039 7.92554 28.2359 7.92554H1.76555C1.53373 7.92545 1.30415 7.97091 1.08995 8.05938C0.875749 8.14785 0.681158 8.27762 0.517205 8.44118C0.353252 8.60474 0.22321 8.79892 0.134476 9.01265C0.0457415 9.22639 3.04998e-05 9.45547 3.05176e-05 9.68682ZM20.2938 53.7161H9.70558V50.1949H20.2938V53.7161ZM24.7055 44.9102H5.29372V27.2985H24.7055V44.9102ZM24.7055 22.0153H5.29372V13.2094H24.7055V22.0153ZM22.9393 0H7.05654C6.58848 0 6.13967 0.185539 5.8087 0.515848C5.47773 0.846157 5.2917 1.29416 5.2917 1.76128V5.28254H24.7035V1.76128C24.7035 1.29427 24.5176 0.84639 24.1868 0.516101C23.856 0.185811 23.4072 0.000183069 22.9393 0ZM13.2331 29.9402H8.82139C8.58745 29.9402 8.36306 30.0329 8.19764 30.198C8.03222 30.3631 7.93939 30.587 7.93939 30.8204V34.3417C7.93939 34.5752 8.03222 34.7991 8.19764 34.9642C8.36306 35.1293 8.58745 35.222 8.82139 35.222H13.2331C13.349 35.2221 13.4638 35.1994 13.5709 35.1552C13.678 35.111 13.7754 35.0462 13.8573 34.9644C13.9393 34.8827 14.0043 34.7856 14.0487 34.6787C14.0931 34.5719 14.1159 34.4574 14.1159 34.3417V30.8204C14.1157 30.5873 14.0229 30.3637 13.8578 30.1987C13.6928 30.0336 13.4687 29.9407 13.2351 29.9402H13.2331ZM21.1745 29.9402H16.7628C16.5288 29.9402 16.3044 30.0329 16.139 30.198C15.9736 30.3631 15.8808 30.587 15.8808 30.8204V34.3417C15.8808 34.5752 15.9736 34.7991 16.139 34.9642C16.3044 35.1293 16.5288 35.222 16.7628 35.222H21.1745C21.4084 35.222 21.6328 35.1293 21.7982 34.9642C21.9636 34.7991 22.0566 34.5752 22.0566 34.3417V30.8204C22.0566 30.5873 21.9639 30.3637 21.7989 30.1987C21.6339 30.0337 21.4101 29.9407 21.1765 29.9402H21.1745ZM13.2331 36.9826H8.82139C8.70549 36.9826 8.59065 37.0054 8.48359 37.0497C8.37652 37.094 8.27938 37.1589 8.19747 37.2407C8.11555 37.3225 8.05056 37.4196 8.00627 37.5265C7.96198 37.6334 7.9393 37.7479 7.93939 37.8636V41.3849C7.93874 41.5013 7.96108 41.6167 8.00543 41.7243C8.04977 41.832 8.11515 41.9298 8.19764 42.0122C8.28012 42.0945 8.37822 42.1597 8.48612 42.2039C8.59401 42.2482 8.70963 42.2706 8.82629 42.27H13.238C13.4721 42.27 13.6965 42.1772 13.8621 42.012C14.0276 41.8467 14.1207 41.6226 14.1207 41.389V37.8678C14.1209 37.7517 14.0982 37.6366 14.0538 37.5293C14.0094 37.422 13.9442 37.3245 13.8619 37.2425C13.7796 37.1604 13.6818 37.0954 13.5743 37.0512C13.4667 37.0069 13.3514 36.9843 13.2351 36.9847L13.2331 36.9826ZM21.1745 36.9826H16.7628C16.6469 36.9826 16.532 37.0054 16.425 37.0497C16.3179 37.094 16.2208 37.1589 16.1388 37.2407C16.0569 37.3225 15.9919 37.4196 15.9477 37.5265C15.9034 37.6334 15.8807 37.7479 15.8808 37.8636V41.3849C15.8807 41.5005 15.9034 41.6151 15.9477 41.7219C15.9919 41.8288 16.0569 41.9259 16.1388 42.0077C16.2208 42.0896 16.3179 42.1545 16.425 42.1988C16.532 42.243 16.6469 42.2659 16.7628 42.2659H21.1745C21.2904 42.2659 21.4052 42.243 21.5123 42.1988C21.6193 42.1545 21.7165 42.0896 21.7984 42.0077C21.8803 41.9259 21.9453 41.8288 21.9896 41.7219C22.0339 41.6151 22.0567 41.5005 22.0566 41.3849V37.8636C22.0563 37.6307 21.9633 37.4075 21.7984 37.2428C21.6334 37.078 21.4098 36.9852 21.1765 36.9847L21.1745 36.9826Z" fill="#FF0064"/>
</g>
<defs>
<clipPath id="clip0_152_1208">
<rect width="30" height="59" fill="white"/>
</clipPath>
</defs>
</svg>
