<svg xmlns="http://www.w3.org/2000/svg" width="184" height="107.202" viewBox="0 0 184 107.202">
  <g id="Group_1610" data-name="Group 1610" transform="translate(-348 -97.818)">
    <path id="Path_2861" data-name="Path 2861" d="M8.008-9.338H1.47a.255.255,0,0,0-.252.21l-.084.616A.251.251,0,0,0,1.4-8.2H3.836a.136.136,0,0,1,.14.154L2.744-.322A.274.274,0,0,0,3.01,0h.7a.244.244,0,0,0,.252-.21l1.246-7.9a.134.134,0,0,1,.126-.1h2.6a.256.256,0,0,0,.252-.224l.1-.6A.266.266,0,0,0,8.008-9.338ZM9.856.21A4.2,4.2,0,0,0,12.74-.714a.263.263,0,0,0,.028-.364l-.294-.392a.23.23,0,0,0-.336-.042A2.985,2.985,0,0,1,10.052-.8c-.938,0-1.834-.378-1.638-1.638L8.456-2.7a.123.123,0,0,1,.126-.112H13.02a.245.245,0,0,0,.252-.224l.1-.8c.336-2.184-.91-2.87-2.506-2.87A3.145,3.145,0,0,0,7.392-3.92l-.182,1.2C6.86-.546,8.092.21,9.856.21ZM8.722-3.584a.148.148,0,0,1-.14-.168l.056-.28A2,2,0,0,1,10.78-5.726c.854,0,1.624.364,1.484,1.694l-.028.322a.135.135,0,0,1-.126.126Zm11.41,2.128-.378-.294c-.112-.1-.252-.056-.364.056a2.593,2.593,0,0,1-2.044.882c-.994,0-1.862-.462-1.638-1.988l.154-.91A2.128,2.128,0,0,1,18.2-5.7a1.705,1.705,0,0,1,1.638.826.264.264,0,0,0,.336.112l.5-.28a.242.242,0,0,0,.112-.35,2.5,2.5,0,0,0-2.534-1.316c-1.736,0-3.22.658-3.57,2.814l-.168,1.064C14.182-.574,15.372.2,17.094.2a3.688,3.688,0,0,0,3.094-1.288A.249.249,0,0,0,20.132-1.456ZM21.994,0h.686a.241.241,0,0,0,.238-.21l.672-4.256a.6.6,0,0,1,.238-.364,3.039,3.039,0,0,1,1.988-.8c.77,0,1.512.266,1.3,1.582L26.53-.322A.268.268,0,0,0,26.8,0h.686a.244.244,0,0,0,.252-.21l.644-4.032c.308-1.96-.812-2.464-2.03-2.464a3.824,3.824,0,0,0-2.422.812c-.126.084-.238.112-.224-.056l.028-.42a.193.193,0,0,0-.21-.14h-.6a.256.256,0,0,0-.252.224L21.714-.322A.271.271,0,0,0,21.994,0ZM32.536.2c1.708,0,3.3-.658,3.654-2.856l.168-1.106c.364-2.212-1.022-2.94-2.814-2.94-1.694,0-3.29.658-3.64,2.856l-.168,1.106C29.386-.546,30.716.2,32.536.2ZM32.62-.812c-.966,0-1.9-.42-1.68-1.918l.168-1.022A2.188,2.188,0,0,1,33.474-5.7c.966,0,1.932.406,1.68,1.932L35-2.758A2.2,2.2,0,0,1,32.62-.812ZM37.744,0h.686a.255.255,0,0,0,.252-.224l1.554-9.8a.285.285,0,0,0-.266-.35h-.686a.27.27,0,0,0-.252.252L37.492-.336A.258.258,0,0,0,37.744,0Zm5.782.2c1.708,0,3.3-.658,3.654-2.856l.168-1.106c.364-2.212-1.022-2.94-2.814-2.94-1.694,0-3.29.658-3.64,2.856l-.168,1.106C40.376-.546,41.706.2,43.526.2ZM43.61-.812c-.966,0-1.9-.42-1.68-1.918L42.1-3.752A2.188,2.188,0,0,1,44.464-5.7c.966,0,1.932.406,1.68,1.932L45.99-2.758A2.2,2.2,0,0,1,43.61-.812Zm7.1,3.654c1.75,0,3.206-.5,3.556-2.786l.994-6.216a.277.277,0,0,0-.252-.35h-.56a.227.227,0,0,0-.224.14l-.1.392c-.056.154-.238.14-.35-.014a2.567,2.567,0,0,0-1.932-.714,2.922,2.922,0,0,0-3.15,2.744l-.182,1.19C48.174-.7,49.308.084,50.736.084a3.586,3.586,0,0,0,2.03-.574c.168-.112.392-.238.378-.084l-.112.686a2.079,2.079,0,0,1-2.38,1.75A2.414,2.414,0,0,1,48.79,1.19a.259.259,0,0,0-.392.042l-.252.448a.245.245,0,0,0,.056.336A3.39,3.39,0,0,0,50.708,2.842ZM51.184-.91c-.882,0-1.694-.476-1.47-1.918l.154-.994a2.051,2.051,0,0,1,2.254-1.89A1.669,1.669,0,0,1,53.7-4.8a.538.538,0,0,1,.056.364L53.4-2.156a.68.68,0,0,1-.168.364A2.551,2.551,0,0,1,51.184-.91Zm6.874-7.2a.825.825,0,0,0,.91-.756c.07-.518-.154-.714-.574-.714a.826.826,0,0,0-.91.7C57.4-8.4,57.568-8.106,58.058-8.106ZM56.56,0h.686A.246.246,0,0,0,57.5-.238l.938-5.936c.028-.21-.084-.336-.252-.336H57.5a.245.245,0,0,0-.252.224l-.952,5.95A.272.272,0,0,0,56.56,0Zm4.634.2a3.7,3.7,0,0,0,2.478-.868c.252-.224.378-.336.308.056l-.056.336a.236.236,0,0,0,.252.28h.56a.266.266,0,0,0,.252-.238l.6-3.822c.322-2.086-.812-2.646-2.352-2.646a4.605,4.605,0,0,0-2.94.91.233.233,0,0,0-.056.336l.21.392a.257.257,0,0,0,.364.084A3.076,3.076,0,0,1,62.93-5.7c.882,0,1.624.308,1.442,1.54l-.056.392a.127.127,0,0,1-.14.112H62.16c-1.736,0-2.73.7-2.758,2.2C59.388-.364,60.018.2,61.194.2Zm.476-.924c-.686,0-1.092-.308-1.092-.924,0-.826.56-1.26,1.54-1.26h1.918c.07,0,.154.07.14.14l-.07.5C63.952-1.2,62.678-.728,61.67-.728ZM74.256-6.706a3.528,3.528,0,0,0-2.31.714c-.224.2-.5.462-.462.112l.056-.448a.248.248,0,0,0-.252-.182h-.532a.256.256,0,0,0-.252.224l-1.372,8.61a.271.271,0,0,0,.28.322H70.1a.241.241,0,0,0,.238-.21l.448-2.884c.056-.294.168-.294.336-.084A2.585,2.585,0,0,0,73.108.21a3.061,3.061,0,0,0,3.374-2.8l.2-1.288C77.014-5.992,75.8-6.706,74.256-6.706Zm1.218,2.87-.182,1.078A2.214,2.214,0,0,1,72.884-.8a1.793,1.793,0,0,1-1.708-.868,1.34,1.34,0,0,1-.084-.728l.266-1.666a1.7,1.7,0,0,1,.294-.658,2.84,2.84,0,0,1,2.2-.98C74.76-5.7,75.7-5.278,75.474-3.836ZM79.366.2a3.7,3.7,0,0,0,2.478-.868c.252-.224.378-.336.308.056L82.1-.28a.236.236,0,0,0,.252.28h.56a.266.266,0,0,0,.252-.238l.6-3.822c.322-2.086-.812-2.646-2.352-2.646a4.605,4.605,0,0,0-2.94.91.233.233,0,0,0-.056.336l.21.392a.257.257,0,0,0,.364.084A3.076,3.076,0,0,1,81.1-5.7c.882,0,1.624.308,1.442,1.54l-.056.392a.127.127,0,0,1-.14.112H80.332c-1.736,0-2.73.7-2.758,2.2C77.56-.364,78.19.2,79.366.2Zm.476-.924c-.686,0-1.092-.308-1.092-.924,0-.826.56-1.26,1.54-1.26h1.918c.07,0,.154.07.14.14l-.07.5C82.124-1.2,80.85-.728,79.842-.728ZM90.258-6.4a2.154,2.154,0,0,0-1.19-.308,2.366,2.366,0,0,0-1.708.672c-.252.252-.35.238-.336.028l.042-.308a.245.245,0,0,0-.252-.2h-.588a.256.256,0,0,0-.252.224L85.022-.322A.277.277,0,0,0,85.3,0h.686a.241.241,0,0,0,.238-.21l.658-4.046a.942.942,0,0,1,.224-.476,2.137,2.137,0,0,1,1.68-.91,1.378,1.378,0,0,1,.882.252.25.25,0,0,0,.336-.1l.336-.546A.243.243,0,0,0,90.258-6.4ZM92.218.2A3.7,3.7,0,0,0,94.7-.672c.252-.224.378-.336.308.056l-.056.336A.236.236,0,0,0,95.2,0h.56a.266.266,0,0,0,.252-.238l.6-3.822c.322-2.086-.812-2.646-2.352-2.646a4.605,4.605,0,0,0-2.94.91.233.233,0,0,0-.056.336l.21.392a.257.257,0,0,0,.364.084A3.076,3.076,0,0,1,93.954-5.7c.882,0,1.624.308,1.442,1.54l-.056.392a.127.127,0,0,1-.14.112H93.184c-1.736,0-2.73.7-2.758,2.2C90.412-.364,91.042.2,92.218.2Zm.476-.924c-.686,0-1.092-.308-1.092-.924,0-.826.56-1.26,1.54-1.26H95.06c.07,0,.154.07.14.14l-.07.5C94.976-1.2,93.7-.728,92.694-.728ZM103.418.2c1.708,0,3.3-.658,3.654-2.856l.168-1.106c.364-2.212-1.022-2.94-2.814-2.94-1.694,0-3.29.658-3.64,2.856l-.168,1.106C100.268-.546,101.6.2,103.418.2ZM103.5-.812c-.966,0-1.9-.42-1.68-1.918l.168-1.022A2.188,2.188,0,0,1,104.356-5.7c.966,0,1.932.406,1.68,1.932l-.154,1.008A2.2,2.2,0,0,1,103.5-.812ZM110.726.2c1.568,0,3-.588,3-2.156,0-.966-.644-1.554-1.764-1.764l-1.022-.168c-.644-.14-1.05-.392-1.05-.938,0-.644.728-.966,1.68-.966a2.1,2.1,0,0,1,1.75.77.258.258,0,0,0,.35-.014L114-5.4a.239.239,0,0,0,0-.364,2.927,2.927,0,0,0-2.394-.938c-1.54,0-2.87.56-2.87,1.96,0,.938.6,1.554,1.722,1.75l.966.154c.742.154,1.134.476,1.134,1.008,0,.8-.882,1.134-1.778,1.134a2.176,2.176,0,0,1-1.974-.854.25.25,0,0,0-.392.014l-.252.392a.234.234,0,0,0,.014.308A2.824,2.824,0,0,0,110.726.2Zm9.45,0c1.568,0,3-.588,3-2.156,0-.966-.644-1.554-1.764-1.764l-1.022-.168c-.644-.14-1.05-.392-1.05-.938,0-.644.728-.966,1.68-.966a2.1,2.1,0,0,1,1.75.77.258.258,0,0,0,.35-.014l.336-.364a.239.239,0,0,0,0-.364,2.927,2.927,0,0,0-2.394-.938c-1.54,0-2.87.56-2.87,1.96,0,.938.6,1.554,1.722,1.75l.966.154c.742.154,1.134.476,1.134,1.008,0,.8-.882,1.134-1.778,1.134a2.176,2.176,0,0,1-1.974-.854.25.25,0,0,0-.392.014l-.252.392a.234.234,0,0,0,.014.308A2.824,2.824,0,0,0,120.176.2Zm6.986.014a4.2,4.2,0,0,0,2.884-.924.263.263,0,0,0,.028-.364l-.294-.392a.23.23,0,0,0-.336-.042,2.985,2.985,0,0,1-2.086.714c-.938,0-1.834-.378-1.638-1.638l.042-.266a.123.123,0,0,1,.126-.112h4.438a.245.245,0,0,0,.252-.224l.1-.8c.336-2.184-.91-2.87-2.506-2.87A3.145,3.145,0,0,0,124.7-3.92l-.182,1.2C124.166-.546,125.4.21,127.162.21Zm-1.134-3.794a.148.148,0,0,1-.14-.168l.056-.28a2,2,0,0,1,2.142-1.694c.854,0,1.624.364,1.484,1.694l-.028.322a.135.135,0,0,1-.126.126ZM137.088-6.4a2.154,2.154,0,0,0-1.19-.308,2.366,2.366,0,0,0-1.708.672c-.252.252-.35.238-.336.028l.042-.308a.245.245,0,0,0-.252-.2h-.588a.256.256,0,0,0-.252.224l-.952,5.964a.277.277,0,0,0,.28.322h.686a.241.241,0,0,0,.238-.21l.658-4.046a.942.942,0,0,1,.224-.476,2.137,2.137,0,0,1,1.68-.91,1.378,1.378,0,0,1,.882.252.25.25,0,0,0,.336-.1l.336-.546A.243.243,0,0,0,137.088-6.4Zm6.93-.112h-.77a.24.24,0,0,0-.224.154l-2.646,4.844c-.126.322-.252.294-.28-.042l-1.064-4.732a.256.256,0,0,0-.252-.224h-.854a.277.277,0,0,0-.266.35l1.582,5.978a.24.24,0,0,0,.238.182h1.036a.223.223,0,0,0,.2-.112l3.556-5.922A.294.294,0,0,0,144.018-6.51Zm2.534-1.6a.825.825,0,0,0,.91-.756c.07-.518-.154-.714-.574-.714a.826.826,0,0,0-.91.7C145.894-8.4,146.062-8.106,146.552-8.106ZM145.054,0h.686a.246.246,0,0,0,.252-.238l.938-5.936c.028-.21-.084-.336-.252-.336h-.686a.245.245,0,0,0-.252.224l-.952,5.95A.272.272,0,0,0,145.054,0Zm9.366-5.39a2.5,2.5,0,0,0-2.534-1.316c-1.736,0-3.22.658-3.57,2.814l-.168,1.064c-.322,2.128.728,2.94,2.3,3.01l-.2.63c-.056.21.028.322.21.35.7,0,.9.168.882.462-.028.336-.406.518-.91.518a2.245,2.245,0,0,1-.616-.084c-.126-.028-.224.028-.266.182l-.028.112a.256.256,0,0,0,.182.308,3.925,3.925,0,0,0,.854.084c.714,0,1.484-.266,1.568-1.036.07-.616-.336-.924-1.064-.966-.112,0-.154-.056-.14-.14l.112-.42a3.54,3.54,0,0,0,2.786-1.274.249.249,0,0,0-.056-.364l-.378-.294c-.112-.1-.252-.056-.364.056a2.593,2.593,0,0,1-2.044.882c-.994,0-1.862-.462-1.638-1.988l.154-.91A2.128,2.128,0,0,1,151.83-5.7a1.705,1.705,0,0,1,1.638.826.264.264,0,0,0,.336.112l.5-.28A.242.242,0,0,0,154.42-5.39ZM157.892.2c1.708,0,3.3-.658,3.654-2.856l.168-1.106c.364-2.212-1.022-2.94-2.814-2.94-1.694,0-3.29.658-3.64,2.856l-.168,1.106C154.742-.546,156.072.2,157.892.2Zm.084-1.008c-.966,0-1.9-.42-1.68-1.918l.168-1.022A2.188,2.188,0,0,1,158.83-5.7c.966,0,1.932.406,1.68,1.932l-.154,1.008A2.2,2.2,0,0,1,157.976-.812ZM165.2.2c1.568,0,3-.588,3-2.156,0-.966-.644-1.554-1.764-1.764l-1.022-.168c-.644-.14-1.05-.392-1.05-.938,0-.644.728-.966,1.68-.966a2.1,2.1,0,0,1,1.75.77.258.258,0,0,0,.35-.014l.336-.364a.239.239,0,0,0,0-.364,2.927,2.927,0,0,0-2.394-.938c-1.54,0-2.87.56-2.87,1.96,0,.938.6,1.554,1.722,1.75l.966.154c.742.154,1.134.476,1.134,1.008,0,.8-.882,1.134-1.778,1.134a2.176,2.176,0,0,1-1.974-.854.25.25,0,0,0-.392.014l-.252.392a.234.234,0,0,0,.014.308A2.824,2.824,0,0,0,165.2.2ZM7.252,9.934a4.4,4.4,0,0,0-2.142-.49c-1.386,0-2.562.49-2.926,2.716L2,13.392a.134.134,0,0,1-.126.1h-.56a.256.256,0,0,0-.252.224l-.07.42a.238.238,0,0,0,.238.308H1.68a.138.138,0,0,1,.126.168L.994,19.678a.271.271,0,0,0,.28.322h.672a.244.244,0,0,0,.252-.21l.826-5.236a.135.135,0,0,1,.126-.112H5.362a.22.22,0,0,0,.238-.2l.07-.434A.261.261,0,0,0,5.4,13.49H3.346a.136.136,0,0,1-.14-.154l.182-1.092c.21-1.386.9-1.778,1.764-1.778a3.146,3.146,0,0,1,1.512.378.249.249,0,0,0,.35-.07l.308-.476A.254.254,0,0,0,7.252,9.934Zm.924,1.96a.825.825,0,0,0,.91-.756c.07-.518-.154-.714-.574-.714a.826.826,0,0,0-.91.7C7.518,11.6,7.686,11.894,8.176,11.894ZM6.678,20h.686a.246.246,0,0,0,.252-.238l.938-5.936c.028-.21-.084-.336-.252-.336H7.616a.245.245,0,0,0-.252.224l-.952,5.95A.272.272,0,0,0,6.678,20Zm3.4,0h.686A.241.241,0,0,0,11,19.79l.672-4.256a.6.6,0,0,1,.238-.364,3.039,3.039,0,0,1,1.988-.8c.77,0,1.512.266,1.3,1.582l-.588,3.724a.268.268,0,0,0,.266.322h.686a.244.244,0,0,0,.252-.21l.644-4.032c.308-1.96-.812-2.464-2.03-2.464a3.824,3.824,0,0,0-2.422.812c-.126.084-.238.112-.224-.056l.028-.42a.193.193,0,0,0-.21-.14H11a.256.256,0,0,0-.252.224L9.8,19.678A.271.271,0,0,0,10.08,20Zm9.3.2a3.7,3.7,0,0,0,2.478-.868c.252-.224.378-.336.308.056l-.056.336a.236.236,0,0,0,.252.28h.56a.266.266,0,0,0,.252-.238l.6-3.822c.322-2.086-.812-2.646-2.352-2.646a4.605,4.605,0,0,0-2.94.91.233.233,0,0,0-.056.336l.21.392a.257.257,0,0,0,.364.084,3.076,3.076,0,0,1,2.114-.714c.882,0,1.624.308,1.442,1.54l-.056.392a.127.127,0,0,1-.14.112H20.342c-1.736,0-2.73.7-2.758,2.2C17.57,19.636,18.2,20.2,19.376,20.2Zm.476-.924c-.686,0-1.092-.308-1.092-.924,0-.826.56-1.26,1.54-1.26h1.918c.07,0,.154.07.14.14l-.07.5C22.134,18.8,20.86,19.272,19.852,19.272Zm5.46.728H26a.241.241,0,0,0,.238-.21l.672-4.256a.6.6,0,0,1,.238-.364,3.039,3.039,0,0,1,1.988-.8c.77,0,1.512.266,1.3,1.582l-.588,3.724a.268.268,0,0,0,.266.322H30.8a.244.244,0,0,0,.252-.21l.644-4.032c.308-1.96-.812-2.464-2.03-2.464a3.824,3.824,0,0,0-2.422.812c-.126.084-.238.112-.224-.056l.028-.42a.193.193,0,0,0-.21-.14h-.6a.256.256,0,0,0-.252.224l-.952,5.964A.271.271,0,0,0,25.312,20Zm13.37-1.456L38.3,18.25c-.112-.1-.252-.056-.364.056a2.593,2.593,0,0,1-2.044.882c-.994,0-1.862-.462-1.638-1.988l.154-.91A2.128,2.128,0,0,1,36.75,14.3a1.705,1.705,0,0,1,1.638.826.264.264,0,0,0,.336.112l.5-.28a.242.242,0,0,0,.112-.35,2.5,2.5,0,0,0-2.534-1.316c-1.736,0-3.22.658-3.57,2.814l-.168,1.064c-.336,2.254.854,3.024,2.576,3.024a3.688,3.688,0,0,0,3.094-1.288A.249.249,0,0,0,38.682,18.544Zm3.976,1.666a4.2,4.2,0,0,0,2.884-.924.263.263,0,0,0,.028-.364l-.294-.392a.23.23,0,0,0-.336-.042,2.985,2.985,0,0,1-2.086.714c-.938,0-1.834-.378-1.638-1.638l.042-.266a.123.123,0,0,1,.126-.112h4.438a.245.245,0,0,0,.252-.224l.1-.8c.336-2.184-.91-2.87-2.506-2.87a3.145,3.145,0,0,0-3.472,2.786l-.182,1.2C39.662,19.454,40.894,20.21,42.658,20.21Zm-1.134-3.794a.148.148,0,0,1-.14-.168l.056-.28a2,2,0,0,1,2.142-1.694c.854,0,1.624.364,1.484,1.694l-.028.322a.135.135,0,0,1-.126.126Zm7.6-4.522a.825.825,0,0,0,.91-.756c.07-.518-.154-.714-.574-.714a.826.826,0,0,0-.91.7C48.468,11.6,48.636,11.894,49.126,11.894ZM47.628,20h.686a.246.246,0,0,0,.252-.238l.938-5.936c.028-.21-.084-.336-.252-.336h-.686a.245.245,0,0,0-.252.224l-.952,5.95A.272.272,0,0,0,47.628,20Zm8.358-6.4a2.154,2.154,0,0,0-1.19-.308,2.366,2.366,0,0,0-1.708.672c-.252.252-.35.238-.336.028l.042-.308a.245.245,0,0,0-.252-.2h-.588a.256.256,0,0,0-.252.224l-.952,5.964a.277.277,0,0,0,.28.322h.686a.241.241,0,0,0,.238-.21l.658-4.046a.942.942,0,0,1,.224-.476,2.137,2.137,0,0,1,1.68-.91,1.378,1.378,0,0,1,.882.252.25.25,0,0,0,.336-.1l.336-.546A.243.243,0,0,0,55.986,13.6Zm2.94,6.594c1.708,0,3.3-.658,3.654-2.856l.168-1.106c.364-2.212-1.022-2.94-2.814-2.94-1.694,0-3.29.658-3.64,2.856l-.168,1.106C55.776,19.454,57.106,20.2,58.926,20.2Zm.084-1.008c-.966,0-1.9-.42-1.68-1.918l.168-1.022A2.188,2.188,0,0,1,59.864,14.3c.966,0,1.932.406,1.68,1.932l-.154,1.008A2.2,2.2,0,0,1,59.01,19.188ZM66.234,20.2c1.568,0,3-.588,3-2.156,0-.966-.644-1.554-1.764-1.764l-1.022-.168c-.644-.14-1.05-.392-1.05-.938,0-.644.728-.966,1.68-.966a2.1,2.1,0,0,1,1.75.77.258.258,0,0,0,.35-.014l.336-.364a.239.239,0,0,0,0-.364,2.927,2.927,0,0,0-2.394-.938c-1.54,0-2.87.56-2.87,1.96,0,.938.6,1.554,1.722,1.75l.966.154c.742.154,1.134.476,1.134,1.008,0,.8-.882,1.134-1.778,1.134a2.176,2.176,0,0,1-1.974-.854.25.25,0,0,0-.392.014l-.252.392a.234.234,0,0,0,.014.308A2.824,2.824,0,0,0,66.234,20.2Zm9.59,0a3.766,3.766,0,0,0,2.422-.9c.154-.126.406-.308.364.126l-.028.35a.246.246,0,0,0,.252.224h.5a.241.241,0,0,0,.238-.21L81.13,9.962a.279.279,0,0,0-.266-.336h-.686a.268.268,0,0,0-.252.238l-.644,4.116c-.028.2-.224.2-.336.07a2.7,2.7,0,0,0-2.044-.756,3.075,3.075,0,0,0-3.36,2.814l-.182,1.176C73.066,19.3,74.158,20.2,75.824,20.2Zm.476-1.008A1.559,1.559,0,0,1,74.578,17.2l.154-.98a2.157,2.157,0,0,1,2.31-1.918c.77,0,1.694.238,1.9,1.008a.827.827,0,0,1,.056.5l-.28,1.806a.883.883,0,0,1-.182.476A2.684,2.684,0,0,1,76.3,19.188ZM84.42,20.2c1.708,0,3.3-.658,3.654-2.856l.168-1.106c.364-2.212-1.022-2.94-2.814-2.94-1.694,0-3.29.658-3.64,2.856l-.168,1.106C81.27,19.454,82.6,20.2,84.42,20.2Zm.084-1.008c-.966,0-1.9-.42-1.68-1.918l.168-1.022A2.188,2.188,0,0,1,85.358,14.3c.966,0,1.932.406,1.68,1.932l-.154,1.008A2.2,2.2,0,0,1,84.5,19.188ZM98.868,9.934a4.4,4.4,0,0,0-2.142-.49c-1.386,0-2.562.49-2.926,2.716l-.182,1.232a.134.134,0,0,1-.126.1h-.56a.256.256,0,0,0-.252.224l-.07.42a.238.238,0,0,0,.238.308H93.3a.138.138,0,0,1,.126.168l-.812,5.068a.271.271,0,0,0,.28.322h.672a.244.244,0,0,0,.252-.21l.826-5.236a.135.135,0,0,1,.126-.112h2.212a.22.22,0,0,0,.238-.2l.07-.434a.261.261,0,0,0-.266-.322H94.962a.136.136,0,0,1-.14-.154L95,12.244c.21-1.386.9-1.778,1.764-1.778a3.146,3.146,0,0,1,1.512.378.249.249,0,0,0,.35-.07l.308-.476A.254.254,0,0,0,98.868,9.934Zm5.5,3.556h-.686a.268.268,0,0,0-.252.224l-.658,4.13a.907.907,0,0,1-.266.518,2.9,2.9,0,0,1-1.932.756c-.756,0-1.47-.322-1.274-1.6l.574-3.7a.271.271,0,0,0-.252-.336h-.686a.257.257,0,0,0-.252.238l-.644,4.046c-.28,1.806.728,2.422,1.96,2.422a4.146,4.146,0,0,0,2.408-.77c.1-.084.28-.182.238.1l-.028.308c.014.112.1.168.224.168h.588a.255.255,0,0,0,.252-.21l.952-5.978A.274.274,0,0,0,104.37,13.49Zm6.846,0H108.5a.13.13,0,0,1-.14-.154l.168-1.092a.267.267,0,0,0-.266-.322h-.686a.256.256,0,0,0-.252.224l-.182,1.246a.134.134,0,0,1-.126.1h-.644a.243.243,0,0,0-.238.224l-.07.434a.251.251,0,0,0,.266.308h.476a.136.136,0,0,1,.14.154l-.462,2.954c-.322,1.974.616,2.632,2.058,2.632a5.583,5.583,0,0,0,2.492-.532.221.221,0,0,0,.056-.294l-.154-.476a.253.253,0,0,0-.364-.14,3.82,3.82,0,0,1-1.708.406c-.77,0-1.372-.322-1.162-1.638l.462-2.954a.149.149,0,0,1,.126-.112h2.884a.242.242,0,0,0,.252-.21l.056-.434A.256.256,0,0,0,111.216,13.49Zm7.574,0H118.1a.268.268,0,0,0-.252.224l-.658,4.13a.907.907,0,0,1-.266.518,2.9,2.9,0,0,1-1.932.756c-.756,0-1.47-.322-1.274-1.6l.574-3.7a.271.271,0,0,0-.252-.336h-.686a.257.257,0,0,0-.252.238l-.644,4.046c-.28,1.806.728,2.422,1.96,2.422a4.146,4.146,0,0,0,2.408-.77c.1-.084.28-.182.238.1l-.028.308c.014.112.1.168.224.168h.588a.255.255,0,0,0,.252-.21l.952-5.978A.274.274,0,0,0,118.79,13.49Zm6.678.112a2.154,2.154,0,0,0-1.19-.308,2.366,2.366,0,0,0-1.708.672c-.252.252-.35.238-.336.028l.042-.308a.245.245,0,0,0-.252-.2h-.588a.256.256,0,0,0-.252.224l-.952,5.964a.277.277,0,0,0,.28.322h.686a.241.241,0,0,0,.238-.21l.658-4.046a.941.941,0,0,1,.224-.476,2.137,2.137,0,0,1,1.68-.91,1.378,1.378,0,0,1,.882.252.25.25,0,0,0,.336-.1l.336-.546A.243.243,0,0,0,125.468,13.6Zm2.94,6.594c1.708,0,3.3-.658,3.654-2.856l.168-1.106c.364-2.212-1.022-2.94-2.814-2.94-1.694,0-3.29.658-3.64,2.856l-.168,1.106C125.258,19.454,126.588,20.2,128.408,20.2Zm.084-1.008c-.966,0-1.9-.42-1.68-1.918l.168-1.022a2.188,2.188,0,0,1,2.366-1.946c.966,0,1.932.406,1.68,1.932l-.154,1.008A2.2,2.2,0,0,1,128.492,19.188Z" transform="translate(348 184.81)" fill="#fff"/>
    <g id="Group_1491" data-name="Group 1491" transform="translate(-4219.801 -900.334)">
      <path id="Path_1178" data-name="Path 1178" d="M4851.833,1079.824c-5.422,0-9.418.912-13.362,3.05a17.637,17.637,0,0,0-8.926,12.023l-.48,2.162c-1.111,4.606-.634,8.288,1.416,10.946,2.733,3.541,7.024,5.052,14.352,5.052,12.951,0,20.112-4.789,22.537-15.073l.479-2.155c1.084-4.493.589-8.126-1.472-10.8C4863.6,1081.43,4859.112,1079.824,4851.833,1079.824Zm6.018,15.547-.365,1.483c-1.268,4.928-5.029,7.323-11.5,7.323-3.871,0-5.3-.839-6.363-2.193-.824-1.054-1.007-2.52-.559-4.481l.367-1.534c1.309-5.092,4.728-7.266,11.434-7.266,3.992,0,5.395.8,6.469,2.187C4858.147,1091.939,4858.316,1093.4,4857.851,1095.37Z" transform="translate(-209.969 -65.784)" fill="#ff7300"/>
      <path id="Path_1179" data-name="Path 1179" d="M5087.327,1079.824c-5.422,0-9.418.912-13.363,3.05a17.638,17.638,0,0,0-8.926,12.023l-.48,2.162c-1.11,4.606-.634,8.288,1.417,10.946,2.732,3.541,7.024,5.052,14.352,5.052,12.951,0,20.111-4.789,22.537-15.073l.479-2.155c1.084-4.493.59-8.126-1.472-10.8C5099.091,1081.43,5094.605,1079.824,5087.327,1079.824Zm6.018,15.547-.365,1.483c-1.269,4.928-5.03,7.323-11.5,7.323-3.871,0-5.3-.839-6.363-2.193-.824-1.054-1.007-2.52-.558-4.481l.367-1.534c1.308-5.092,4.728-7.266,11.434-7.266,3.991,0,5.395.8,6.469,2.187C5093.642,1091.939,5093.81,1093.4,5093.345,1095.37Z" transform="translate(-399.651 -65.784)" fill="#ff7300"/>
      <path id="Path_1180" data-name="Path 1180" d="M4611.541,1195.178h-40.549a1.589,1.589,0,0,0-1.549,1.217l-1.6,6.69a1.592,1.592,0,0,0,1.548,1.97h40.549a1.59,1.59,0,0,0,1.548-1.217l1.6-6.69a1.593,1.593,0,0,0-1.548-1.97Z" transform="translate(0 -158.698)" fill="#ff7300"/>
      <path id="Path_1181" data-name="Path 1181" d="M4621.968,1007.96h26.925l-18.149,15.094a1.594,1.594,0,0,0-.109,2.389l4.929,4.752a1.6,1.6,0,0,0,2.106.094l37.589-31.983.183-.154h-51.921a1.587,1.587,0,0,0-1.551,1.229l-1.553,6.621a1.593,1.593,0,0,0,1.551,1.957Z" transform="translate(-42.347)" fill="#ff9a00"/>
      <path id="Path_1182" data-name="Path 1182" d="M5318.178,1084.619c-2.451-3.137-6.229-4.8-12.47-4.8s-9.9,1.149-13.774,3.951l-.025-1.627a1.267,1.267,0,0,0-1.257-1.329h-6.027a1.518,1.518,0,0,0-1.482,1.172l-9.492,40.019a1.579,1.579,0,0,0,.16,1.172,1.518,1.518,0,0,0,1.312.748h7.026a1.517,1.517,0,0,0,1.482-1.172l3.14-13.331c2.86,2.481,5.971,3.632,11.5,3.632,12.219,0,18.772-5.179,21.09-15.394l.395-1.853C5320.836,1091.109,5320.306,1087.344,5318.178,1084.619Zm-8.41,10.569-.372,1.552c-1.57,6.471-8.095,7.437-12.33,7.437-7.182,0-7.608-2.575-7.938-4.652l1.071-4.805c2.055-4.048,6.1-6.016,12.367-6.016,3.895,0,5.623.748,6.75,2.222C5310.086,1091.935,5310.234,1093.329,5309.768,1095.188Z" transform="translate(-568.499 -65.784)" fill="#ff7300"/>
    </g>
  </g>
</svg>
