<svg width="53" height="34" viewBox="0 0 53 34" fill="none" xmlns="http://www.w3.org/2000/svg">
<g clip-path="url(#clip0)">
<path d="M30.3988 26.8809H44.4325C45.2903 26.8809 45.9942 26.1779 45.9942 25.2964V1.5734C45.9942 0.703037 45.3013 -0.0111084 44.4325 -0.0111084H31.9496C31.5206 -0.0111084 31.1687 0.345964 31.1687 0.781146V3.93901C31.1687 4.37419 31.5206 4.73126 31.9496 4.73126H41.298V22.1274H30.3878C29.9589 22.1274 29.607 22.4845 29.607 22.9196V26.0775C29.618 26.535 29.9699 26.8809 30.3988 26.8809ZM14.0336 26.0998V22.942C14.0336 22.5068 13.6817 22.1497 13.2528 22.1497H4.6852V4.74242H14.8145C15.2434 4.74242 15.5954 4.38535 15.5954 3.95016V0.792305C15.5954 0.357123 15.2434 5.01173e-05 14.8145 5.01173e-05H1.56173C0.692882 5.01173e-05 0 0.703037 0 1.58456V25.3076C0 26.1779 0.692882 26.8921 1.56173 26.8921H13.2528C13.6817 26.8809 14.0336 26.535 14.0336 26.0998ZM18.2899 15.5885C18.4329 15.7336 18.6308 15.8228 18.8398 15.8228H24.1629V17.4073H17.927C17.498 17.4073 17.1461 17.7644 17.1461 18.1996V21.3574C17.1461 21.7926 17.498 22.1497 17.927 22.1497H20.2696V24.5265C20.2696 24.9617 20.6215 25.3187 21.0504 25.3187H24.1629C24.5918 25.3187 24.9438 24.9617 24.9438 24.5265V22.1497H26.3735C26.5825 22.1497 26.7805 22.0716 26.9234 21.9154L28.6171 20.197C28.7601 20.0519 28.8481 19.851 28.8481 19.639V13.58C28.8481 13.368 28.7711 13.1671 28.6171 13.022L26.9234 11.3036C26.7805 11.1586 26.5825 11.0693 26.3735 11.0693H21.0504V9.49595H27.2754C27.7043 9.49595 28.0562 9.13887 28.0562 8.70369V5.53467C28.0562 5.09949 27.7043 4.74242 27.2754 4.74242H24.9328V2.37681C24.9328 1.94163 24.5808 1.58456 24.1519 1.58456H21.0394C20.6105 1.58456 20.2586 1.94163 20.2586 2.37681V4.75358H18.8288C18.6198 4.75358 18.4219 4.83169 18.2789 4.98791L16.5962 6.69516C16.4532 6.84022 16.3652 7.04107 16.3652 7.25309V13.3122C16.3652 13.5242 16.4422 13.725 16.5962 13.8701L18.2899 15.5885ZM52.2191 4.74242H49.1067C48.6777 4.74242 48.3258 5.09949 48.3258 5.53467V29.2577H5.45507C5.02615 29.2577 4.67421 29.6147 4.67421 30.0499V33.2078C4.67421 33.643 5.02615 34 5.45507 34H51.4383C52.2961 34 53 33.2971 53 32.4155V5.53467C53 5.09949 52.6481 4.74242 52.2191 4.74242Z" fill="#FF9B00"/>
</g>
<defs>
<clipPath id="clip0">
<rect width="53" height="34" fill="white"/>
</clipPath>
</defs>
</svg>
