<svg width="38" height="32" viewBox="0 0 38 32" fill="none" xmlns="http://www.w3.org/2000/svg">
<path d="M37.9222 20.1562L31.9857 4.16024C31.8223 3.71681 31.4099 3.42656 30.9587 3.42656H20.6495V0.572436C20.6495 0.258 20.4005 0 20.0971 0H17.8952C17.5918 0 17.3428 0.258 17.3428 0.572436V3.42656H7.04139C6.58234 3.42656 6.17776 3.71681 6.01436 4.16024L0.0778372 20.1562C-0.202261 20.906 0.334594 21.7123 1.10486 21.7123H13.1569C13.9116 21.7123 14.4484 20.9383 14.1995 20.1965L9.74123 6.85311H17.3428V28.5654H12.3788C12.0754 28.5654 11.8264 28.8234 11.8264 29.1378V31.4195C11.8264 31.7339 12.0754 31.9919 12.3788 31.9919H25.6135C25.9169 31.9919 26.1659 31.7339 26.1659 31.4195V29.1378C26.1659 28.8234 25.9169 28.5654 25.6135 28.5654H20.6495V6.85311H28.1655L23.2248 20.1562C22.9447 20.906 23.4816 21.7123 24.2519 21.7123H36.8874C37.6655 21.7123 38.2023 20.906 37.9222 20.1562ZM10.0602 18.2857H4.31821L7.34483 10.1426L10.0602 18.2857ZM27.473 18.2857L30.5774 9.91686L33.6818 18.2857H27.473Z" fill="#FF9B00"/>
</svg>
