<svg width="44" height="44" viewBox="0 0 44 44" fill="none" xmlns="http://www.w3.org/2000/svg">
<path d="M20.3731 19.5568V17.9242H26.8921C27.3405 17.9242 27.7084 17.5563 27.7084 17.1079V13.8542C27.7084 13.4058 27.3405 13.0379 26.8921 13.0379H24.4432V10.589C24.4432 10.1406 24.0753 9.77267 23.6269 9.77267H20.3731C19.9247 9.77267 19.5568 10.1406 19.5568 10.589V13.0379H18.0622C17.8437 13.0379 17.6368 13.1184 17.4873 13.2793L15.7167 15.0499C15.5673 15.1994 15.4753 15.4063 15.4753 15.6248V21.8678C15.4753 22.0862 15.5558 22.2932 15.7167 22.4426L17.4873 24.2132C17.6368 24.3627 17.8437 24.4547 18.0622 24.4547H23.6269V26.0873H17.1079C16.6595 26.0873 16.2916 26.4552 16.2916 26.9036V30.1573C16.2916 30.6057 16.6595 30.9736 17.1079 30.9736H19.5568V33.4225C19.5568 33.8709 19.9247 34.2388 20.3731 34.2388H23.6269C24.0753 34.2388 24.4432 33.8709 24.4432 33.4225V30.9736H25.9378C26.1563 30.9736 26.3632 30.8931 26.5127 30.7322L28.2833 28.9616C28.4327 28.8121 28.5247 28.6052 28.5247 28.3867V22.1437C28.5247 21.9253 28.4442 21.7183 28.2833 21.5689L26.5127 19.7983C26.3632 19.6488 26.1563 19.5568 25.9378 19.5568H20.3731ZM21.9943 0C9.86465 0 0 9.86465 0 21.9943C0 34.1239 9.86465 43.9885 21.9943 43.9885C34.1239 43.9885 43.9885 34.1239 43.9885 21.9943C44 9.86465 34.1239 0 21.9943 0ZM21.9943 39.1137C12.555 39.1137 4.88633 31.4335 4.88633 22.0057C4.88633 12.5665 12.5665 4.89783 21.9943 4.89783C31.422 4.89783 39.1022 12.578 39.1022 22.0057C39.1137 31.4335 31.4335 39.1137 21.9943 39.1137Z" fill="#FF9B00"/>
</svg>
