<svg width="50" height="50" viewBox="0 0 50 50" fill="none" xmlns="http://www.w3.org/2000/svg">
<g clip-path="url(#clip0)">
<path d="M25.9217 27.7763H39.6269C40.6068 29.4748 42.4621 30.5984 44.5655 30.5461C47.4791 30.4808 49.87 28.116 49.9875 25.2156C50.1051 22.0538 47.5705 19.4408 44.4349 19.4408C42.3837 19.4408 40.5807 20.5644 39.6269 22.2237H25.9217V8.33551H39.6269C40.6068 10.034 42.4621 11.1576 44.5655 11.1053C47.4791 11.04 49.87 8.6752 49.9875 5.77476C50.1182 2.59995 47.5836 0 44.448 0C42.3967 0 40.5938 1.1236 39.64 2.78286H22.2243C21.2052 2.78286 20.369 3.60596 20.369 4.6381V22.2237H10.3612C9.38133 20.5252 7.52609 19.4016 5.42262 19.4539C2.50911 19.5061 0.118199 21.8709 0.000613715 24.7844C-0.116972 27.9462 2.41765 30.5592 5.55327 30.5592C7.60448 30.5592 9.40746 29.4356 10.3612 27.7763H20.369V45.3619C20.369 46.381 21.1921 47.2171 22.2243 47.2171H39.64C40.6199 48.9156 42.4751 50.0392 44.5786 49.9869C47.4921 49.9216 49.883 47.5568 50.0006 44.6564C50.1182 41.4946 47.5836 38.8816 44.448 38.8816C42.3967 38.8816 40.5938 40.0052 39.64 41.6645H25.9217V27.7763Z" fill="#FF9B00"/>
</g>
<defs>
<clipPath id="clip0">
<rect width="50" height="50" fill="white"/>
</clipPath>
</defs>
</svg>
