<svg width="47" height="36" viewBox="0 0 47 36" fill="none" xmlns="http://www.w3.org/2000/svg">
<path d="M10.0655 0H9.23658C8.77475 0 8.39582 0.369468 8.39582 0.819756V35.1802C8.39582 35.6305 8.77475 36 9.23658 36H10.0655C10.5273 36 10.9063 35.6305 10.9063 35.1802V0.819756C10.9063 0.369468 10.5392 0 10.0655 0ZM4.19199 0H0.840766C0.378937 0 0 0.369468 0 0.819756V35.1802C0 35.6305 0.378937 36 0.840766 36H4.19199C4.65382 36 5.03275 35.6305 5.03275 35.1802V0.819756C5.03275 0.369468 4.65382 0 4.19199 0ZM20.9836 0H17.6324C17.1706 0 16.7916 0.369468 16.7916 0.819756V35.1802C16.7916 35.6305 17.1706 36 17.6324 36H20.9836C21.4455 36 21.8244 35.6305 21.8244 35.1802V0.819756C21.8244 0.369468 21.4455 0 20.9836 0ZM46.1592 0H42.808C42.3462 0 41.9672 0.369468 41.9672 0.819756V35.1802C41.9672 35.6305 42.3462 36 42.808 36H46.1592C46.6211 36 47 35.6305 47 35.1802V0.819756C47 0.369468 46.6211 0 46.1592 0ZM29.3676 0H26.0164C25.5545 0 25.1756 0.369468 25.1756 0.819756V35.1802C25.1756 35.6305 25.5545 36 26.0164 36H29.3676C29.8294 36 30.2084 35.6305 30.2084 35.1802V0.819756C30.2084 0.369468 29.8294 0 29.3676 0ZM35.2411 0H34.4004C33.9385 0 33.5596 0.369468 33.5596 0.819756V35.1802C33.5596 35.6305 33.9385 36 34.4004 36H35.2411C35.7029 36 36.0819 35.6305 36.0819 35.1802V0.819756C36.0819 0.369468 35.7148 0 35.2411 0Z" fill="#FF9B00"/>
</svg>
