<svg width="51" height="36" viewBox="0 0 51 36" fill="none" xmlns="http://www.w3.org/2000/svg">
<g clip-path="url(#clip0)">
<path d="M47.0647 0.249835L33.8856 13.039L26.7873 6.15069C26.444 5.81758 25.8923 5.81758 25.5613 6.15069L23.1094 8.53007C22.7661 8.86318 22.7661 9.39854 23.1094 9.71976L32.6719 18.9993C33.3461 19.6537 34.4495 19.6537 35.1238 18.9993L38.2377 15.9775V30.9438H5.21034V11.5519H18.2423C18.7204 11.5519 19.1127 11.1712 19.1127 10.7072V7.34038C19.1127 6.8764 18.7204 6.4957 18.2423 6.4957H1.74086C0.772356 6.4957 0 7.2571 0 8.18506V34.3225C0 35.2505 0.772356 36.0119 1.74086 36.0119H41.7072C42.6635 36.0119 43.4481 35.2624 43.4481 34.3225V10.9213L50.7548 3.8189C51.0981 3.48579 51.0981 2.95043 50.7548 2.62921L48.3029 0.249835C47.9473 -0.0832782 47.4079 -0.0832782 47.0647 0.249835ZM7.82163 14.9306V19.9868H14.7728V14.9306H7.82163ZM7.82163 27.577H32.1447V22.5208H7.82163V27.577Z" fill="#FF9B00"/>
</g>
<defs>
<clipPath id="clip0">
<rect width="51" height="36" fill="white"/>
</clipPath>
</defs>
</svg>
