<svg width="48" height="40" viewBox="0 0 48 40" fill="none" xmlns="http://www.w3.org/2000/svg">
<path d="M47.9018 25.1953L40.4031 5.2003C40.1967 4.64601 39.6758 4.28319 39.1058 4.28319H26.0837V0.715545C26.0837 0.322499 25.7692 0 25.3859 0H22.6045C22.2212 0 21.9067 0.322499 21.9067 0.715545V4.28319H8.89446C8.31461 4.28319 7.80355 4.64601 7.59717 5.2003L0.0983938 25.1953C-0.255415 26.1325 0.422718 27.1403 1.39569 27.1403H16.6193C17.5726 27.1403 18.2507 26.1728 17.9362 25.2457L12.3048 8.56639H21.9067V35.7067H15.6365C15.2532 35.7067 14.9387 36.0292 14.9387 36.4223V39.2744C14.9387 39.6674 15.2532 39.9899 15.6365 39.9899H32.3539C32.7372 39.9899 33.0517 39.6674 33.0517 39.2744V36.4223C33.0517 36.0292 32.7372 35.7067 32.3539 35.7067H26.0837V8.56639H35.5775L29.3367 25.1953C28.9829 26.1325 29.6611 27.1403 30.634 27.1403H46.5947C47.5775 27.1403 48.2556 26.1325 47.9018 25.1953ZM12.7077 22.8571H5.45466L9.27776 12.6783L12.7077 22.8571ZM34.7028 22.8571L38.6242 12.3961L42.5456 22.8571H34.7028Z" fill="#FF9B00"/>
</svg>
