<svg width="31" height="34" viewBox="0 0 31 34" fill="none" xmlns="http://www.w3.org/2000/svg">
<g clip-path="url(#clip0)">
<path d="M1.80298 33.9996H4.47442C4.84257 33.9996 5.14464 33.6972 5.14464 33.3285V23.9518C5.14464 23.5832 4.84257 23.2807 4.47442 23.2807H1.80298C1.43484 23.2807 1.13277 23.5832 1.13277 23.9518V33.3285C1.13276 33.7066 1.4254 33.9996 1.80298 33.9996ZM8.15591 33.9996H10.8273C11.1955 33.9996 11.4976 33.6972 11.4976 33.3285V17.9212C11.4976 17.5526 11.1955 17.2501 10.8273 17.2501H8.15591C7.78776 17.2501 7.48569 17.5526 7.48569 17.9212V33.3285C7.48569 33.7066 7.78776 33.9996 8.15591 33.9996ZM27.2147 33.9996H29.8861C30.2543 33.9996 30.5563 33.6972 30.5563 33.3285V11.229C30.5563 10.8603 30.2543 10.5579 29.8861 10.5579H27.2147C26.8465 10.5579 26.5445 10.8603 26.5445 11.229V33.338C26.5539 33.7066 26.8465 33.9996 27.2147 33.9996ZM14.5088 33.9996H17.1803C17.5484 33.9996 17.8505 33.6972 17.8505 33.3285V21.9479C17.8505 21.5793 17.5484 21.2768 17.1803 21.2768H14.5088C14.1407 21.2768 13.8386 21.5793 13.8386 21.9479V33.338C13.8386 33.7066 14.1407 33.9996 14.5088 33.9996ZM20.8618 33.9996H23.5332C23.9013 33.9996 24.2034 33.6972 24.2034 33.3285V19.2635C24.2034 18.8948 23.9013 18.5923 23.5332 18.5923H20.8618C20.4936 18.5923 20.1915 18.8948 20.1915 19.2635V33.3285C20.1915 33.7066 20.4936 33.9996 20.8618 33.9996ZM9.82674 10.0474L15.5566 15.785C16.0664 16.2954 16.8971 16.3049 17.4257 15.8134L30.7923 3.09999C31.0566 2.84478 31.0755 2.41942 30.8206 2.15476L28.9705 0.207582C28.7156 -0.057083 28.2908 -0.0759877 28.0265 0.179225L16.5478 11.0967L10.7707 5.31183C10.2515 4.79196 9.40195 4.79196 8.88277 5.31183L0.198234 14.008C-0.066078 14.2726 -0.066078 14.698 0.198234 14.9532L2.08618 16.8437C2.35049 17.1083 2.77527 17.1083 3.03015 16.8437L9.82674 10.0474Z" fill="#FF9B00"/>
</g>
<defs>
<clipPath id="clip0">
<rect width="31" height="34" fill="white"/>
</clipPath>
</defs>
</svg>
