<svg width="56" height="53" viewBox="0 0 56 53" fill="none" xmlns="http://www.w3.org/2000/svg">
<path d="M51.9525 4.50091L51.7307 4.15469L49.097 0.13849C49.0416 0.0553959 48.9446 0 48.8337 0H7.09703C6.97228 0 6.84753 0.0692448 6.77822 0.166188L2.81386 6.24588L2.59208 6.59211L0.152475 10.3036C0.0554456 10.4698 0 10.6499 0 10.8437C0 10.8437 0 11.0792 0 11.4115C0 13.4473 0.512871 15.4693 1.53861 17.2281C1.66337 17.4359 1.78812 17.6297 1.91287 17.8375C2.63366 18.9038 3.49307 19.8733 4.49109 20.6765C4.71287 20.8565 4.83762 21.1335 4.83762 21.4244V52.0167C4.83762 52.5568 5.26733 52.9862 5.80792 52.9862H8.7604V53H47.0733V52.9862H51.0099C51.5505 52.9862 51.9802 52.5568 51.9802 52.0167V20.5242C51.9802 20.2749 52.0772 20.0256 52.2574 19.8456C52.8812 19.2362 53.4356 18.5576 53.9208 17.8236C54.9188 16.3279 55.6812 14.6384 55.903 12.7826C56.0416 11.647 55.903 11.5085 55.903 10.9268C55.903 10.733 55.8475 10.5529 55.7505 10.4006L51.9525 4.50091ZM28.4297 47.1142H22.5386V35.3426H28.4297V47.1142ZM46.1168 47.1142H34.3347V34.4839H34.3069V29.4568H16.6475V34.4839V47.1142H10.7426V23.4048C11.3248 23.4879 11.9208 23.5294 12.5168 23.5294C15.4139 23.5294 18.0752 22.56 20.2238 20.9258C22.3584 22.56 25.0337 23.5294 27.9307 23.5294C30.8277 23.5294 33.4891 22.56 35.6376 20.9258C37.7861 22.56 40.4475 23.5294 43.3446 23.5294C44.2871 23.5294 45.2158 23.4186 46.103 23.2247L46.1168 47.1142ZM50.0119 12.3533C49.2634 15.3862 46.5465 17.6297 43.3446 17.6297C41.8753 17.6297 40.5168 17.1589 39.3941 16.3556C37.9386 15.317 37.5921 13.6135 37.2594 11.7578H34.3069C33.9881 13.6135 33.3228 15.317 31.8673 16.3556C30.7446 17.1589 29.3861 17.6297 27.9307 17.6297C26.4614 17.6297 25.103 17.1589 23.9802 16.3556C22.5248 15.317 21.8594 13.6135 21.5406 11.7578H18.5881C18.2693 13.6135 17.9089 15.317 16.4535 16.3556C15.3307 17.1589 13.9723 17.6297 12.503 17.6297C9.32871 17.6297 6.65347 15.4278 5.86337 12.4641C5.8495 12.4364 5.8495 12.4087 5.83564 12.381L5.86337 12.3394L7.51287 9.83277L7.73465 9.48654L10.0634 5.88581H45.8257L46.796 7.3815L47.0178 7.72772L50.0119 12.3533Z" fill="#FF9B00"/>
</svg>
