<svg width="54" height="57" viewBox="0 0 54 57" fill="none" xmlns="http://www.w3.org/2000/svg">
<path d="M53.2044 26.1162H42.0884C41.6514 26.1162 41.2928 26.4735 41.2928 26.9089V30.0688C41.2928 30.5042 41.6514 30.8615 42.0884 30.8615H53.2044C53.6414 30.8615 54 30.5042 54 30.0688V26.9089C54 26.4623 53.6414 26.1162 53.2044 26.1162ZM12.7072 30.0688V26.9089C12.7072 26.4735 12.3486 26.1162 11.9116 26.1162H0.795601C0.358581 26.1162 0 26.4735 0 26.9089V30.0688C0 30.5042 0.358581 30.8615 0.795601 30.8615H11.9116C12.3486 30.8615 12.7072 30.5042 12.7072 30.0688ZM25.4144 11.869H28.5856C29.0226 11.869 29.3812 11.5117 29.3812 11.0762V0.792752C29.3812 0.357297 29.0226 0 28.5856 0H25.4144C24.9774 0 24.6188 0.357297 24.6188 0.792752V11.0762C24.6188 11.5117 24.9774 11.869 25.4144 11.869ZM28.5856 45.0976H25.4144C24.9774 45.0976 24.6188 45.4548 24.6188 45.8903V56.2072C24.6188 56.6427 24.9774 57 25.4144 57H28.5856C29.0226 57 29.3812 56.6427 29.3812 56.2072V45.8903C29.3812 45.4548 29.0226 45.0976 28.5856 45.0976ZM38.2337 19.5285C38.5474 19.8411 39.0517 19.8411 39.3542 19.5285L47.2206 11.6903C47.5343 11.3777 47.5343 10.8752 47.2206 10.5738L44.9795 8.34065C44.6657 8.02801 44.1614 8.02801 43.8589 8.34065L35.9925 16.1788C35.6788 16.4915 35.6788 16.9939 35.9925 17.2954L38.2337 19.5285ZM15.7663 37.438C15.4526 37.1254 14.9483 37.1254 14.6458 37.438L6.77941 45.2762C6.46566 45.5888 6.46566 46.0913 6.77941 46.3928L9.02054 48.6259C9.3343 48.9385 9.83856 48.9385 10.1411 48.6259L18.0075 40.7877C18.3212 40.475 18.3212 39.9726 18.0075 39.6711L15.7663 37.438ZM39.3542 37.438C39.0405 37.1254 38.5362 37.1254 38.2337 37.438L35.9925 39.6711C35.6788 39.9837 35.6788 40.4862 35.9925 40.7877L43.8589 48.6259C44.1726 48.9385 44.6769 48.9385 44.9795 48.6259L47.2206 46.3928C47.5343 46.0801 47.5343 45.5777 47.2206 45.2762L39.3542 37.438ZM10.1523 8.34065C9.83856 8.02801 9.3343 8.02801 9.03175 8.34065L6.79062 10.5738C6.47686 10.8864 6.47686 11.3888 6.79062 11.6903L14.657 19.5285C14.9707 19.8411 15.475 19.8411 15.7775 19.5285L18.0187 17.2954C18.3324 16.9828 18.3324 16.4803 18.0187 16.1788L10.1523 8.34065ZM31.3982 26.3395C31.2525 26.1943 31.0508 26.105 30.8379 26.105H25.4144V24.5195H31.768C32.205 24.5195 32.5636 24.1622 32.5636 23.7267V20.5669C32.5636 20.1314 32.205 19.7741 31.768 19.7741H29.3812V18.1998C29.3812 17.7643 29.0226 17.4071 28.5856 17.4071H25.4144C24.9774 17.4071 24.6188 17.7643 24.6188 18.1998V19.7853H23.1621C22.9492 19.7853 22.7475 19.8635 22.6018 20.0198L20.8761 21.7393C20.7304 21.8844 20.6408 22.0854 20.6408 22.2976V28.3604C20.6408 28.5726 20.7192 28.7736 20.8761 28.9187L22.6018 30.6382C22.7475 30.7833 22.9492 30.8727 23.1621 30.8727H28.5856V32.4582H22.232C21.795 32.4582 21.4364 32.8155 21.4364 33.2509V36.3996C21.4364 36.8351 21.795 37.1924 22.232 37.1924H24.6188V38.7779C24.6188 39.2133 24.9774 39.5706 25.4144 39.5706H28.5856C29.0226 39.5706 29.3812 39.2133 29.3812 38.7779V37.1924H30.8379C31.0508 37.1924 31.2525 37.1142 31.3982 36.9579L33.1239 35.2384C33.2696 35.0932 33.3592 34.8923 33.3592 34.6801V28.6172C33.3592 28.4051 33.2808 28.2041 33.1239 28.059L31.3982 26.3395Z" fill="#FF9B00"/>
</svg>
