<svg width="123" height="40" viewBox="0 0 123 40" fill="none" xmlns="http://www.w3.org/2000/svg">
<path d="M49.3026 10.5968C46.222 10.4797 43.1652 11.1809 40.4422 12.6294C38.9326 13.4503 37.6212 14.5932 36.6005 15.9776C35.5799 17.3619 34.8748 18.954 34.5352 20.6412L34.2103 22.0818C33.472 25.1602 33.7968 27.6171 35.1948 29.3832C37.0161 31.7414 39.8712 32.7478 44.7444 32.7478C53.2602 32.7478 58.0252 29.6003 59.6398 22.6935L59.9548 21.253C60.6833 18.2929 60.3486 15.8361 58.9703 14.0601C57.1293 11.6625 54.1758 10.5968 49.3026 10.5968ZM53.3095 20.957L53.0634 21.9437C52.2167 25.2293 49.7161 26.8179 45.4138 26.8179C42.8345 26.8179 41.8894 26.2653 41.1805 25.3576C40.8993 24.9245 40.7196 24.4332 40.6548 23.9205C40.59 23.4079 40.6419 22.8872 40.8064 22.3975L41.0525 21.4109C41.9189 18.0167 44.2029 16.5663 48.6627 16.5663C51.311 16.5663 52.2462 17.0991 52.9649 18.0265C53.238 18.4578 53.4108 18.9451 53.4705 19.4524C53.5301 19.9597 53.4751 20.4739 53.3095 20.957Z" fill="white"/>
<path d="M79.7727 10.5968C76.6921 10.4797 73.6353 11.1809 70.9123 12.6294C69.4027 13.4503 68.0913 14.5932 67.0706 15.9776C66.05 17.3619 65.3449 18.954 65.0053 20.6412L64.6804 22.0818C63.9421 25.1602 64.2571 27.6171 65.6649 29.3832C67.4862 31.7414 70.3413 32.7478 75.2145 32.7478C83.7107 32.7478 88.5051 29.6003 90.1197 22.6935L90.4347 21.253C91.1633 18.2929 90.8285 15.8361 89.4502 14.0601C87.6486 11.6625 84.6262 10.5968 79.7727 10.5968ZM83.7796 20.957L83.5334 21.9437C82.6868 25.2293 80.1862 26.8179 75.8839 26.8179C73.3046 26.8179 72.3496 26.2653 71.6506 25.3576C71.3694 24.9245 71.1897 24.4332 71.1249 23.9205C71.0601 23.4079 71.112 22.8872 71.2765 22.3975L71.5227 21.4109C72.389 18.0167 74.6632 16.5663 79.1328 16.5663C81.7811 16.5663 82.7163 17.0991 83.435 18.0265C83.7098 18.457 83.8843 18.944 83.9456 19.4513C84.007 19.9586 83.9536 20.4732 83.7894 20.957H83.7796Z" fill="white"/>
<path d="M121.033 13.8138C119.399 11.722 116.888 10.6169 112.734 10.6169C108.579 10.6169 106.147 11.3767 103.578 13.2514L103.834 12.166C103.863 12.0612 103.866 11.951 103.844 11.8446C103.822 11.7381 103.774 11.6386 103.706 11.5543C103.639 11.467 103.552 11.3966 103.453 11.3486C103.354 11.3006 103.245 11.2765 103.135 11.278H98.7144C98.4855 11.2729 98.2619 11.348 98.0822 11.4902C97.9025 11.6325 97.7779 11.8331 97.7299 12.0575L91.3996 38.7472C91.3622 38.8972 91.3606 39.054 91.3948 39.2048C91.429 39.3557 91.4981 39.4963 91.5965 39.6155C91.6892 39.7362 91.8086 39.8338 91.9452 39.9005C92.0819 39.9673 92.2321 40.0014 92.3841 40.0003H97.0604C97.2894 40.0054 97.5129 39.9303 97.6926 39.7881C97.8723 39.6458 97.9969 39.4452 98.0449 39.2208L100.112 30.4788C102.012 32.1364 104.109 32.7482 107.791 32.7482C115.923 32.7482 120.275 29.3047 121.82 22.4867L122.086 21.2534C122.805 18.1157 122.45 15.6095 121.033 13.8138ZM115.441 20.8587L115.214 21.875C114.161 26.1867 109.829 26.8084 107.004 26.8084C102.229 26.8084 101.944 25.0915 101.727 23.7102L102.416 20.5232C103.785 17.8296 106.482 16.5173 110.646 16.5173C113.236 16.5173 114.388 17.0106 115.136 17.9973C115.401 18.4156 115.566 18.8896 115.619 19.3824C115.672 19.8752 115.611 20.3736 115.441 20.8389V20.8587Z" fill="white"/>
<path d="M29.1305 25.5549H2.15538C1.92614 25.5653 1.70639 25.6496 1.52895 25.7955C1.35151 25.9413 1.2259 26.1407 1.17089 26.364L0.0288759 30.8337C-0.00808474 30.9901 -0.00958279 31.1529 0.024492 31.3099C0.0585667 31.467 0.127347 31.6145 0.225774 31.7414C0.325615 31.8679 0.452807 31.9701 0.597763 32.0401C0.742719 32.1102 0.901655 32.1464 1.06259 32.146H28.0377C28.2768 32.1458 28.5088 32.0649 28.6964 31.9163C28.8839 31.7677 29.0161 31.5601 29.0714 31.327L30.1346 26.8672C30.1695 26.7107 30.17 26.5484 30.136 26.3916C30.102 26.2348 30.0343 26.0874 29.9377 25.9595C29.8406 25.8373 29.718 25.7379 29.5786 25.668C29.4392 25.5981 29.2863 25.5596 29.1305 25.5549Z" fill="white"/>
<path d="M7.9047 6.54169H25.8028L13.7329 16.6058C13.6151 16.6996 13.5189 16.8178 13.4509 16.9524C13.3829 17.0869 13.3448 17.2346 13.3391 17.3853C13.3278 17.5361 13.3512 17.6875 13.4075 17.8278C13.4638 17.9681 13.5516 18.0935 13.664 18.1944L16.9423 21.3616C17.1352 21.5562 17.3972 21.6662 17.6709 21.6675C17.9144 21.667 18.1504 21.5835 18.3403 21.4307L43.3464 0.098668L43.4744 0H8.8892C8.65816 0.00929843 8.4366 0.0945197 8.25869 0.242519C8.08077 0.390519 7.95638 0.593075 7.9047 0.818944L6.92021 5.23927C6.88263 5.39408 6.88083 5.55544 6.91495 5.71105C6.94908 5.86666 7.01822 6.0124 7.11711 6.13715C7.21214 6.25683 7.33154 6.35482 7.46736 6.42458C7.60317 6.49434 7.75227 6.53426 7.9047 6.54169Z" fill="white"/>
</svg>
