<svg width="282" height="37" viewBox="0 0 282 37" fill="none" xmlns="http://www.w3.org/2000/svg">
<path d="M45.4451 10.5074C42.6664 10.402 39.9092 11.0331 37.453 12.3367C36.0913 13.0755 34.9084 14.1042 33.9878 15.3501C33.0672 16.596 32.4312 18.0288 32.1249 19.5474L31.8319 20.8439C31.1659 23.6145 31.4589 25.8257 32.7199 27.4152C34.3627 29.5375 36.9379 30.4433 41.3336 30.4433C49.0149 30.4433 53.3129 27.6106 54.7692 21.3945L55.0534 20.098C55.7105 17.4339 55.4086 15.2228 54.1654 13.6244C52.5048 11.4665 49.8407 10.5074 45.4451 10.5074ZM49.0593 19.8316L48.8373 20.7196C48.0736 23.6767 45.818 25.1064 41.9374 25.1064C39.6108 25.1064 38.7584 24.6091 38.119 23.7921C37.8654 23.4023 37.7032 22.9601 37.6448 22.4988C37.5864 22.0374 37.6331 21.5688 37.7815 21.1281L38.0035 20.2401C38.785 17.1853 40.8452 15.8799 44.8679 15.8799C47.2566 15.8799 48.1002 16.3594 48.7485 17.1942C48.9949 17.5823 49.1507 18.0209 49.2045 18.4774C49.2583 18.934 49.2087 19.3968 49.0593 19.8316V19.8316Z" fill="#FF7300"/>
<path d="M72.9291 10.5074C70.1504 10.402 67.3932 11.0331 64.937 12.3367C63.5754 13.0755 62.3925 14.1042 61.4719 15.3501C60.5512 16.596 59.9153 18.0288 59.6089 19.5474L59.3159 20.8439C58.6499 23.6145 58.934 25.8257 60.2039 27.4152C61.8467 29.5375 64.422 30.4433 68.8176 30.4433C76.4812 30.4433 80.8058 27.6106 82.2621 21.3945L82.5463 20.098C83.2034 17.4339 82.9015 15.2228 81.6583 13.6244C80.0332 11.4665 77.307 10.5074 72.9291 10.5074ZM76.5433 19.8316L76.3213 20.7196C75.5576 23.6767 73.3021 25.1064 69.4215 25.1064C67.0949 25.1064 66.2335 24.6091 65.603 23.7921C65.3494 23.4023 65.1873 22.9601 65.1288 22.4988C65.0704 22.0374 65.1171 21.5688 65.2656 21.1281L65.4876 20.2401C66.269 17.1853 68.3203 15.8799 72.3519 15.8799C74.7407 15.8799 75.5843 16.3594 76.2325 17.1942C76.4804 17.5816 76.6378 18.0198 76.6931 18.4764C76.7485 18.933 76.7003 19.3962 76.5522 19.8316H76.5433Z" fill="#FF7300"/>
<path d="M110.146 13.4025C108.672 11.52 106.407 10.5254 102.66 10.5254C98.9124 10.5254 96.719 11.2092 94.4013 12.8964L94.6322 11.9196C94.6583 11.8252 94.6615 11.726 94.6414 11.6303C94.6213 11.5345 94.5785 11.4449 94.5167 11.369C94.4561 11.2904 94.378 11.227 94.2886 11.1839C94.1992 11.1407 94.1009 11.119 94.0017 11.1204H90.0145C89.808 11.1158 89.6064 11.1833 89.4443 11.3113C89.2822 11.4394 89.1698 11.6199 89.1265 11.8219L83.4166 35.8426C83.3829 35.9777 83.3814 36.1188 83.4122 36.2545C83.4431 36.3902 83.5054 36.5168 83.5942 36.6241C83.6778 36.7327 83.7855 36.8205 83.9087 36.8806C84.032 36.9407 84.1675 36.9714 84.3046 36.9704H88.5226C88.7292 36.975 88.9308 36.9074 89.0929 36.7794C89.255 36.6513 89.3673 36.4708 89.4107 36.2688L91.2755 28.4011C92.9894 29.8929 94.8808 30.4435 98.202 30.4435C105.537 30.4435 109.462 27.3443 110.856 21.2082L111.096 20.0982C111.744 17.2743 111.424 15.0187 110.146 13.4025ZM105.102 19.743L104.898 20.6576C103.947 24.5382 100.04 25.0977 97.4916 25.0977C93.1847 25.0977 92.9272 23.5525 92.7318 22.3093L93.3534 19.441C94.5878 17.0168 97.0209 15.8357 100.777 15.8357C103.113 15.8357 104.152 16.2797 104.827 17.1677C105.066 17.5442 105.215 17.9708 105.263 18.4143C105.311 18.8578 105.255 19.3064 105.102 19.7252V19.743Z" fill="#FF7300"/>
<path d="M27.2498 23.9697H2.91827C2.7115 23.979 2.51328 24.055 2.35323 24.1862C2.19318 24.3175 2.07988 24.497 2.03026 24.6979L1.00017 28.7206C0.966829 28.8614 0.965477 29.0079 0.996213 29.1492C1.02695 29.2906 1.08899 29.4233 1.17777 29.5376C1.26783 29.6514 1.38255 29.7433 1.5133 29.8064C1.64405 29.8695 1.78741 29.902 1.93258 29.9016H26.2641C26.4798 29.9015 26.6891 29.8287 26.8582 29.695C27.0274 29.5612 27.1466 29.3744 27.1965 29.1646L28.1556 25.1508C28.187 25.0099 28.1875 24.8638 28.1568 24.7227C28.1261 24.5816 28.0651 24.4489 27.978 24.3338C27.8903 24.2239 27.7798 24.1344 27.654 24.0715C27.5283 24.0086 27.3903 23.9739 27.2498 23.9697V23.9697Z" fill="#FF7300"/>
<path d="M8.10415 6.85773H24.2482L13.3612 15.9155C13.2549 15.9999 13.1681 16.1063 13.1068 16.2274C13.0455 16.3484 13.0111 16.4814 13.006 16.617C12.9958 16.7527 13.0169 16.8889 13.0677 17.0152C13.1185 17.1415 13.1976 17.2544 13.299 17.3452L16.2561 20.1957C16.4301 20.3708 16.6664 20.4698 16.9132 20.471C17.1329 20.4705 17.3458 20.3953 17.5171 20.2578L40.0726 1.05902L40.188 0.970215H8.99216C8.78377 0.978583 8.58393 1.05528 8.42344 1.18848C8.26296 1.32168 8.15076 1.50398 8.10415 1.70726L7.21614 5.68556C7.18224 5.82488 7.18062 5.97011 7.2114 6.11016C7.24218 6.25021 7.30454 6.38138 7.39374 6.49365C7.47946 6.60136 7.58716 6.68955 7.70967 6.75234C7.83217 6.81512 7.96666 6.85105 8.10415 6.85773V6.85773Z" fill="#FF9B00"/>
<path d="M138.938 8.93115C139.035 8.93115 139.115 8.96826 139.178 9.04248C139.24 9.11279 139.264 9.19873 139.248 9.30029L139.131 10.1089C139.107 10.2769 139.01 10.3608 138.838 10.3608H136.834C136.764 10.3608 136.721 10.3921 136.705 10.4546L135.721 16.7183C135.697 16.8862 135.602 16.9702 135.434 16.9702H134.496C134.398 16.9702 134.318 16.9351 134.256 16.8647C134.193 16.7905 134.17 16.7026 134.186 16.6011L135.158 10.5132C135.174 10.4077 135.125 10.3569 135.012 10.3608H133.201C133.096 10.3608 133.012 10.3276 132.949 10.2612C132.891 10.1909 132.871 10.103 132.891 9.99756L133.008 9.18311C133.031 9.01514 133.127 8.93115 133.295 8.93115H138.938Z" fill="white"/>
<path d="M140.654 17.1636C138.783 17.1636 137.984 16.3022 138.258 14.5796L138.41 13.6011C138.668 11.9917 139.697 11.187 141.498 11.187C143.24 11.187 143.992 12.0229 143.754 13.6948L143.666 14.4507C143.643 14.6265 143.543 14.7144 143.367 14.7144H139.934C139.844 14.7144 139.801 14.7456 139.805 14.8081L139.781 14.9663C139.734 15.2866 139.82 15.5229 140.039 15.6753C140.258 15.8276 140.547 15.9038 140.906 15.9038C141.547 15.9038 142.068 15.7437 142.471 15.4233C142.631 15.3257 142.762 15.3491 142.863 15.4937L143.238 16.0093C143.367 16.1772 143.355 16.314 143.203 16.4194C142.602 16.9155 141.752 17.1636 140.654 17.1636ZM140.08 13.7769H142.23C142.309 13.7769 142.348 13.7339 142.348 13.6479L142.359 13.4312C142.422 12.7437 142.098 12.3999 141.387 12.3999C140.602 12.3999 140.139 12.7476 139.998 13.4429L139.945 13.6245C139.938 13.6636 139.947 13.6987 139.975 13.73C140.006 13.7612 140.041 13.7769 140.08 13.7769Z" fill="white"/>
<path d="M149.684 15.5874C149.844 15.7085 149.867 15.8452 149.754 15.9976C149.18 16.7671 148.236 17.1519 146.924 17.1519C145.139 17.1519 144.379 16.2671 144.645 14.4976L144.785 13.5835C145.043 11.9819 146.1 11.1831 147.955 11.187C149.1 11.187 149.867 11.5659 150.258 12.3237C150.348 12.5073 150.309 12.644 150.141 12.7339L149.443 13.0913C149.314 13.1616 149.195 13.1265 149.086 12.9858C148.863 12.6265 148.467 12.4468 147.897 12.4468C146.959 12.4468 146.414 12.9058 146.262 13.8237L146.156 14.5327C146.086 15.0054 146.154 15.3511 146.361 15.5698C146.568 15.7847 146.867 15.8921 147.258 15.8921C147.898 15.8921 148.398 15.6831 148.758 15.2651C148.895 15.1128 149.035 15.0894 149.18 15.1948L149.684 15.5874Z" fill="white"/>
<path d="M151.236 16.9702C151.131 16.9702 151.049 16.9351 150.99 16.8647C150.932 16.7905 150.91 16.7026 150.926 16.6011L151.705 11.6206C151.729 11.4526 151.824 11.3687 151.992 11.3687H152.795C152.924 11.3687 153.008 11.4116 153.047 11.4976V11.7495C153.063 11.8706 153.131 11.8823 153.252 11.7847C153.764 11.3862 154.416 11.187 155.209 11.187C155.818 11.187 156.291 11.3511 156.627 11.6792C156.963 12.0073 157.066 12.5679 156.938 13.3608L156.41 16.7183C156.387 16.8862 156.287 16.9702 156.111 16.9702H155.197C155.092 16.9702 155.01 16.9351 154.951 16.8647C154.893 16.7905 154.871 16.7026 154.887 16.6011L155.355 13.6245C155.477 12.9058 155.191 12.5444 154.5 12.5405C154.012 12.5405 153.576 12.7046 153.193 13.0327C153.057 13.1108 152.98 13.2202 152.965 13.3608L152.438 16.7183C152.414 16.8862 152.318 16.9702 152.15 16.9702H151.236Z" fill="white"/>
<path d="M160.535 17.1519C158.566 17.1519 157.719 16.2944 157.992 14.5796L158.133 13.6597C158.391 12.0112 159.467 11.187 161.361 11.187C162.264 11.187 162.955 11.3901 163.436 11.7964C163.916 12.1987 164.086 12.8511 163.945 13.7534L163.799 14.6792C163.545 16.3276 162.457 17.1519 160.535 17.1519ZM160.629 15.8921C161.59 15.8921 162.147 15.4468 162.299 14.5562L162.416 13.7651C162.553 12.8862 162.174 12.4468 161.279 12.4468C160.334 12.4468 159.789 12.8901 159.645 13.7769L159.516 14.5796C159.445 15.0444 159.518 15.3804 159.732 15.5874C159.947 15.7905 160.246 15.8921 160.629 15.8921Z" fill="white"/>
<path d="M165.088 16.9702C164.982 16.9702 164.902 16.9351 164.848 16.8647C164.793 16.7905 164.773 16.7026 164.789 16.6011L166.084 8.31592C166.123 8.14014 166.223 8.05225 166.383 8.05225H167.297C167.402 8.05225 167.484 8.09131 167.543 8.16943C167.602 8.24365 167.623 8.3335 167.607 8.43896L166.301 16.7183C166.277 16.8862 166.182 16.9702 166.014 16.9702H165.088Z" fill="white"/>
<path d="M170.449 17.1519C168.48 17.1519 167.633 16.2944 167.906 14.5796L168.047 13.6597C168.305 12.0112 169.381 11.187 171.275 11.187C172.178 11.187 172.869 11.3901 173.35 11.7964C173.83 12.1987 174 12.8511 173.859 13.7534L173.713 14.6792C173.459 16.3276 172.371 17.1519 170.449 17.1519ZM170.543 15.8921C171.504 15.8921 172.061 15.4468 172.213 14.5562L172.33 13.7651C172.467 12.8862 172.088 12.4468 171.193 12.4468C170.248 12.4468 169.703 12.8901 169.559 13.7769L169.43 14.5796C169.359 15.0444 169.432 15.3804 169.647 15.5874C169.861 15.7905 170.16 15.8921 170.543 15.8921Z" fill="white"/>
<path d="M176.742 19.4429C175.758 19.4429 175.014 19.2339 174.51 18.8159C174.365 18.7183 174.338 18.5913 174.428 18.4351L174.75 17.8491C174.855 17.6655 175.012 17.6362 175.219 17.7612C175.555 18.0737 176.025 18.23 176.631 18.23C177.67 18.23 178.272 17.8101 178.436 16.9702L178.494 16.5718C178.486 16.5171 178.451 16.4956 178.389 16.5073C178.33 16.519 178.258 16.5503 178.172 16.6011C177.738 16.8667 177.221 16.9976 176.619 16.9937C175.947 16.9937 175.428 16.7983 175.061 16.4077C174.693 16.0132 174.578 15.396 174.715 14.5562L174.867 13.5366C174.938 13.0952 175.061 12.7183 175.236 12.4058C175.416 12.0894 175.627 11.8452 175.869 11.6733C176.115 11.5015 176.373 11.3784 176.643 11.3042C176.916 11.2261 177.209 11.187 177.522 11.187C178.225 11.187 178.744 11.3628 179.08 11.7144C179.232 11.8511 179.35 11.8589 179.432 11.7378L179.49 11.4976C179.537 11.4077 179.629 11.3647 179.766 11.3687H180.498C180.604 11.3687 180.684 11.4058 180.738 11.48C180.793 11.5542 180.813 11.644 180.797 11.7495L179.982 16.9116C179.83 17.8804 179.477 18.5444 178.922 18.9038C178.371 19.2632 177.645 19.4429 176.742 19.4429ZM177.234 15.7573C177.828 15.7573 178.291 15.5659 178.623 15.1831C178.701 15.1206 178.75 15.021 178.77 14.8843L179.022 13.3081C179.029 13.187 179.014 13.0913 178.975 13.021C178.791 12.6304 178.43 12.4351 177.891 12.4351C177.012 12.4351 176.5 12.8667 176.355 13.73L176.238 14.4624C176.176 14.9194 176.238 15.2495 176.426 15.4526C176.613 15.6558 176.883 15.7573 177.234 15.7573Z" fill="white"/>
<path d="M183.217 10.2847C182.65 10.2847 182.426 9.98193 182.543 9.37646C182.656 8.8335 183.016 8.56006 183.621 8.55615C184.164 8.55615 184.393 8.8374 184.307 9.3999C184.229 9.98975 183.865 10.2847 183.217 10.2847ZM181.857 16.9585C181.752 16.9585 181.672 16.9233 181.617 16.853C181.563 16.7788 181.539 16.689 181.547 16.5835L182.338 11.6206C182.361 11.4526 182.457 11.3687 182.625 11.3687H183.551C183.648 11.3687 183.727 11.4019 183.785 11.4683C183.844 11.5347 183.865 11.6245 183.85 11.7378L183.07 16.7065C183.047 16.8745 182.947 16.9585 182.772 16.9585H181.857Z" fill="white"/>
<path d="M186.088 17.1519C185.561 17.1519 185.168 17.0288 184.91 16.7827C184.656 16.5327 184.537 16.1675 184.553 15.687C184.584 14.3979 185.42 13.7534 187.061 13.7534H188.443C188.541 13.7534 188.588 13.7144 188.584 13.6362L188.607 13.4077C188.654 13.064 188.582 12.8179 188.391 12.6694C188.199 12.521 187.924 12.4468 187.564 12.4468C186.963 12.4468 186.439 12.5991 185.994 12.9038C185.811 13.0015 185.67 12.9683 185.572 12.8042L185.285 12.2769C185.195 12.1167 185.223 11.9897 185.367 11.896C186.023 11.4233 186.889 11.187 187.963 11.187C188.756 11.187 189.352 11.3628 189.75 11.7144C190.148 12.0659 190.279 12.6694 190.143 13.5249L189.639 16.7065C189.615 16.8823 189.52 16.9702 189.352 16.9702H188.607C188.51 16.9702 188.432 16.939 188.373 16.8765C188.314 16.8101 188.293 16.7417 188.309 16.6714L188.332 16.478C188.355 16.3726 188.352 16.3159 188.32 16.3081C188.297 16.3081 188.221 16.3647 188.092 16.478C187.564 16.9272 186.897 17.1519 186.088 17.1519ZM186.715 15.9976C187.121 15.9976 187.49 15.9136 187.822 15.7456C188.154 15.5776 188.34 15.3413 188.379 15.0366L188.414 14.7612C188.422 14.73 188.412 14.7026 188.385 14.6792C188.357 14.6558 188.324 14.644 188.285 14.644H187.014C186.357 14.644 186.029 14.9077 186.029 15.4351C186.029 15.8101 186.258 15.9976 186.715 15.9976Z" fill="white"/>
<path d="M197.924 11.187C198.658 11.187 199.217 11.3862 199.6 11.7847C199.986 12.1792 200.111 12.8081 199.975 13.6714L199.822 14.7144C199.576 16.3472 198.607 17.1636 196.916 17.1636C196.221 17.1636 195.693 16.9956 195.334 16.6597C195.272 16.5894 195.211 16.562 195.152 16.5776C195.098 16.5933 195.066 16.6479 195.059 16.7417L194.695 19.0093C194.672 19.1772 194.58 19.2612 194.42 19.2612H193.494C193.389 19.2612 193.307 19.2241 193.248 19.1499C193.189 19.0796 193.168 18.9937 193.184 18.8921L194.338 11.6206C194.361 11.4526 194.457 11.3687 194.625 11.3687H195.346C195.49 11.3687 195.582 11.4312 195.621 11.5562L195.609 11.8198C195.602 11.9644 195.674 11.978 195.826 11.8608C195.857 11.8374 195.889 11.8081 195.92 11.7729C196.377 11.3823 197.045 11.187 197.924 11.187ZM198.451 13.7417C198.522 13.2847 198.451 12.9546 198.24 12.7515C198.029 12.5483 197.736 12.4468 197.361 12.4468C196.705 12.4468 196.172 12.6792 195.762 13.144C195.648 13.2808 195.578 13.4331 195.551 13.6011L195.357 14.8198C195.326 15.0503 195.35 15.228 195.428 15.353C195.643 15.7202 196.031 15.9038 196.594 15.9038C197.602 15.9038 198.182 15.439 198.334 14.5093L198.451 13.7417Z" fill="white"/>
<path d="M202.189 17.1519C201.662 17.1519 201.27 17.0288 201.012 16.7827C200.758 16.5327 200.639 16.1675 200.654 15.687C200.686 14.3979 201.522 13.7534 203.162 13.7534H204.545C204.643 13.7534 204.689 13.7144 204.686 13.6362L204.709 13.4077C204.756 13.064 204.684 12.8179 204.492 12.6694C204.301 12.521 204.025 12.4468 203.666 12.4468C203.064 12.4468 202.541 12.5991 202.096 12.9038C201.912 13.0015 201.772 12.9683 201.674 12.8042L201.387 12.2769C201.297 12.1167 201.324 11.9897 201.469 11.896C202.125 11.4233 202.99 11.187 204.064 11.187C204.857 11.187 205.453 11.3628 205.852 11.7144C206.25 12.0659 206.381 12.6694 206.244 13.5249L205.74 16.7065C205.717 16.8823 205.621 16.9702 205.453 16.9702H204.709C204.611 16.9702 204.533 16.939 204.475 16.8765C204.416 16.8101 204.395 16.7417 204.41 16.6714L204.434 16.478C204.457 16.3726 204.453 16.3159 204.422 16.3081C204.398 16.3081 204.322 16.3647 204.193 16.478C203.666 16.9272 202.998 17.1519 202.189 17.1519ZM202.816 15.9976C203.223 15.9976 203.592 15.9136 203.924 15.7456C204.256 15.5776 204.441 15.3413 204.48 15.0366L204.516 14.7612C204.523 14.73 204.514 14.7026 204.486 14.6792C204.459 14.6558 204.426 14.644 204.387 14.644H203.115C202.459 14.644 202.131 14.9077 202.131 15.4351C202.131 15.8101 202.359 15.9976 202.816 15.9976Z" fill="white"/>
<path d="M211.928 11.4155C212.104 11.5132 212.135 11.6519 212.022 11.8315L211.582 12.564C211.504 12.6929 211.379 12.73 211.207 12.6753C211.047 12.5698 210.844 12.5171 210.598 12.5171C210.125 12.5171 209.717 12.73 209.373 13.1558C209.275 13.269 209.211 13.3999 209.18 13.5483L208.664 16.7183C208.641 16.8862 208.545 16.9702 208.377 16.9702H207.463C207.357 16.9702 207.275 16.9351 207.217 16.8647C207.158 16.7905 207.137 16.7026 207.152 16.6011L207.932 11.6206C207.955 11.4526 208.051 11.3687 208.219 11.3687H209.022C209.174 11.3687 209.272 11.4312 209.314 11.5562L209.285 11.7378C209.301 11.9058 209.385 11.9058 209.537 11.7378C209.897 11.3706 210.369 11.187 210.955 11.187C211.338 11.187 211.662 11.2632 211.928 11.4155Z" fill="white"/>
<path d="M213.592 17.1519C213.064 17.1519 212.672 17.0288 212.414 16.7827C212.16 16.5327 212.041 16.1675 212.057 15.687C212.088 14.3979 212.924 13.7534 214.564 13.7534H215.947C216.045 13.7534 216.092 13.7144 216.088 13.6362L216.111 13.4077C216.158 13.064 216.086 12.8179 215.895 12.6694C215.703 12.521 215.428 12.4468 215.068 12.4468C214.467 12.4468 213.943 12.5991 213.498 12.9038C213.314 13.0015 213.174 12.9683 213.076 12.8042L212.789 12.2769C212.699 12.1167 212.727 11.9897 212.871 11.896C213.527 11.4233 214.393 11.187 215.467 11.187C216.26 11.187 216.855 11.3628 217.254 11.7144C217.652 12.0659 217.783 12.6694 217.647 13.5249L217.143 16.7065C217.119 16.8823 217.023 16.9702 216.855 16.9702H216.111C216.014 16.9702 215.936 16.939 215.877 16.8765C215.818 16.8101 215.797 16.7417 215.813 16.6714L215.836 16.478C215.859 16.3726 215.855 16.3159 215.824 16.3081C215.801 16.3081 215.725 16.3647 215.596 16.478C215.068 16.9272 214.4 17.1519 213.592 17.1519ZM214.219 15.9976C214.625 15.9976 214.994 15.9136 215.326 15.7456C215.658 15.5776 215.844 15.3413 215.883 15.0366L215.918 14.7612C215.926 14.73 215.916 14.7026 215.889 14.6792C215.861 14.6558 215.828 14.644 215.789 14.644H214.518C213.861 14.644 213.533 14.9077 213.533 15.4351C213.533 15.8101 213.762 15.9976 214.219 15.9976Z" fill="white"/>
<path d="M223.629 17.1519C221.66 17.1519 220.813 16.2944 221.086 14.5796L221.227 13.6597C221.484 12.0112 222.561 11.187 224.455 11.187C225.357 11.187 226.049 11.3901 226.529 11.7964C227.01 12.1987 227.18 12.8511 227.039 13.7534L226.893 14.6792C226.639 16.3276 225.551 17.1519 223.629 17.1519ZM223.723 15.8921C224.684 15.8921 225.24 15.4468 225.393 14.5562L225.51 13.7651C225.647 12.8862 225.268 12.4468 224.373 12.4468C223.428 12.4468 222.883 12.8901 222.738 13.7769L222.609 14.5796C222.539 15.0444 222.611 15.3804 222.826 15.5874C223.041 15.7905 223.34 15.8921 223.723 15.8921Z" fill="white"/>
<path d="M229.992 17.1519C228.938 17.1519 228.197 16.8999 227.772 16.396C227.65 16.2983 227.635 16.1772 227.725 16.0327L228.059 15.5171C228.164 15.3491 228.313 15.3335 228.504 15.4702C228.809 15.8452 229.32 16.0327 230.039 16.0327C230.383 16.0327 230.67 15.9741 230.9 15.8569C231.135 15.7358 231.252 15.562 231.252 15.3354C231.252 15.0151 230.992 14.8081 230.473 14.7144L229.729 14.5913C229.217 14.5132 228.828 14.3374 228.563 14.064C228.301 13.7866 228.17 13.4351 228.17 13.0093C228.17 12.3843 228.412 11.9253 228.897 11.6323C229.381 11.3354 230.002 11.187 230.76 11.187C231.67 11.187 232.354 11.4155 232.811 11.8726C232.971 11.9937 232.979 12.1323 232.834 12.2886L232.395 12.7808C232.281 12.894 232.148 12.9019 231.996 12.8042C231.684 12.4683 231.252 12.3003 230.701 12.3003C230.373 12.3003 230.111 12.353 229.916 12.4585C229.721 12.564 229.623 12.7124 229.623 12.9038C229.623 13.2007 229.857 13.3999 230.326 13.5015L231.147 13.6245C232.178 13.7925 232.693 14.312 232.693 15.1831C232.693 15.8628 232.441 16.3608 231.938 16.6772C231.434 16.9937 230.785 17.1519 229.992 17.1519Z" fill="white"/>
<path d="M238.324 17.1519C237.27 17.1519 236.529 16.8999 236.104 16.396C235.982 16.2983 235.967 16.1772 236.057 16.0327L236.391 15.5171C236.496 15.3491 236.645 15.3335 236.836 15.4702C237.141 15.8452 237.652 16.0327 238.371 16.0327C238.715 16.0327 239.002 15.9741 239.232 15.8569C239.467 15.7358 239.584 15.562 239.584 15.3354C239.584 15.0151 239.324 14.8081 238.805 14.7144L238.061 14.5913C237.549 14.5132 237.16 14.3374 236.895 14.064C236.633 13.7866 236.502 13.4351 236.502 13.0093C236.502 12.3843 236.744 11.9253 237.229 11.6323C237.713 11.3354 238.334 11.187 239.092 11.187C240.002 11.187 240.686 11.4155 241.143 11.8726C241.303 11.9937 241.311 12.1323 241.166 12.2886L240.727 12.7808C240.613 12.894 240.48 12.9019 240.328 12.8042C240.016 12.4683 239.584 12.3003 239.033 12.3003C238.705 12.3003 238.443 12.353 238.248 12.4585C238.053 12.564 237.955 12.7124 237.955 12.9038C237.955 13.2007 238.189 13.3999 238.658 13.5015L239.479 13.6245C240.51 13.7925 241.025 14.312 241.025 15.1831C241.025 15.8628 240.773 16.3608 240.27 16.6772C239.766 16.9937 239.117 17.1519 238.324 17.1519Z" fill="white"/>
<path d="M244.4 17.1636C242.529 17.1636 241.73 16.3022 242.004 14.5796L242.156 13.6011C242.414 11.9917 243.443 11.187 245.244 11.187C246.986 11.187 247.738 12.0229 247.5 13.6948L247.412 14.4507C247.389 14.6265 247.289 14.7144 247.113 14.7144H243.68C243.59 14.7144 243.547 14.7456 243.551 14.8081L243.527 14.9663C243.48 15.2866 243.566 15.5229 243.785 15.6753C244.004 15.8276 244.293 15.9038 244.652 15.9038C245.293 15.9038 245.814 15.7437 246.217 15.4233C246.377 15.3257 246.508 15.3491 246.609 15.4937L246.984 16.0093C247.113 16.1772 247.102 16.314 246.949 16.4194C246.348 16.9155 245.498 17.1636 244.4 17.1636ZM243.826 13.7769H245.977C246.055 13.7769 246.094 13.7339 246.094 13.6479L246.105 13.4312C246.168 12.7437 245.844 12.3999 245.133 12.3999C244.348 12.3999 243.885 12.7476 243.744 13.4429L243.691 13.6245C243.684 13.6636 243.693 13.6987 243.721 13.73C243.752 13.7612 243.787 13.7769 243.826 13.7769Z" fill="white"/>
<path d="M253.189 11.4155C253.365 11.5132 253.397 11.6519 253.283 11.8315L252.844 12.564C252.766 12.6929 252.641 12.73 252.469 12.6753C252.309 12.5698 252.105 12.5171 251.859 12.5171C251.387 12.5171 250.979 12.73 250.635 13.1558C250.537 13.269 250.473 13.3999 250.441 13.5483L249.926 16.7183C249.902 16.8862 249.807 16.9702 249.639 16.9702H248.725C248.619 16.9702 248.537 16.9351 248.479 16.8647C248.42 16.7905 248.398 16.7026 248.414 16.6011L249.193 11.6206C249.217 11.4526 249.313 11.3687 249.48 11.3687H250.283C250.436 11.3687 250.533 11.4312 250.576 11.5562L250.547 11.7378C250.563 11.9058 250.647 11.9058 250.799 11.7378C251.158 11.3706 251.631 11.187 252.217 11.187C252.6 11.187 252.924 11.2632 253.189 11.4155Z" fill="white"/>
<path d="M259.389 11.3687C259.541 11.3687 259.648 11.4272 259.711 11.5444C259.777 11.6577 259.77 11.7827 259.688 11.9194L256.811 16.8354C256.764 16.9253 256.688 16.9702 256.582 16.9702H255.24C255.096 16.9702 255.004 16.8979 254.965 16.7534L253.717 11.7729C253.693 11.6597 253.713 11.564 253.775 11.4858C253.838 11.4077 253.926 11.3687 254.039 11.3687H255.152C255.23 11.3687 255.297 11.394 255.352 11.4448C255.41 11.4956 255.445 11.562 255.457 11.644L256.066 15.1714C256.074 15.3706 256.102 15.4702 256.148 15.4702C256.199 15.4702 256.256 15.3784 256.318 15.1948L258.094 11.5444C258.148 11.4233 258.236 11.3647 258.357 11.3687H259.389Z" fill="white"/>
<path d="M261.779 10.2847C261.213 10.2847 260.988 9.98193 261.105 9.37646C261.219 8.8335 261.578 8.56006 262.184 8.55615C262.727 8.55615 262.955 8.8374 262.869 9.3999C262.791 9.98975 262.428 10.2847 261.779 10.2847ZM260.42 16.9585C260.314 16.9585 260.234 16.9233 260.18 16.853C260.125 16.7788 260.102 16.689 260.109 16.5835L260.9 11.6206C260.924 11.4526 261.02 11.3687 261.188 11.3687H262.113C262.211 11.3687 262.289 11.4019 262.348 11.4683C262.406 11.5347 262.428 11.6245 262.412 11.7378L261.633 16.7065C261.609 16.8745 261.51 16.9585 261.334 16.9585H260.42Z" fill="white"/>
<path d="M268.934 12.3237C269.023 12.5073 268.984 12.644 268.816 12.7339L268.119 13.0913C267.99 13.1616 267.871 13.1265 267.762 12.9858C267.539 12.6265 267.143 12.4468 266.572 12.4468C265.635 12.4468 265.09 12.9058 264.938 13.8237L264.832 14.5327C264.762 15.0054 264.83 15.3511 265.037 15.5698C265.244 15.7847 265.543 15.8921 265.934 15.8921C266.574 15.8921 267.074 15.6831 267.434 15.2651C267.57 15.1128 267.711 15.0894 267.855 15.1948L268.359 15.5874C268.52 15.7085 268.543 15.8452 268.43 15.9976C267.918 16.6851 267.115 17.0659 266.022 17.1401L265.945 17.4038C265.93 17.5015 265.979 17.5522 266.092 17.5562C266.412 17.5796 266.648 17.6714 266.801 17.8315C266.953 17.9917 267.008 18.2007 266.965 18.4585C266.926 18.7944 266.766 19.0386 266.484 19.1909C266.207 19.3433 265.885 19.4194 265.518 19.4194C265.236 19.4194 264.984 19.396 264.762 19.3491C264.594 19.3101 264.525 19.1968 264.557 19.0093L264.592 18.8569C264.631 18.6812 264.727 18.6089 264.879 18.6401C265.039 18.6714 265.191 18.687 265.336 18.687C265.77 18.687 265.994 18.5757 266.01 18.353C266.025 18.1694 265.816 18.0601 265.383 18.0249C265.16 18.0015 265.084 17.8745 265.154 17.644L265.301 17.1401C263.742 17.0425 263.082 16.1616 263.32 14.4976L263.461 13.5835C263.719 11.9819 264.775 11.1831 266.631 11.187C267.775 11.1831 268.543 11.562 268.934 12.3237Z" fill="white"/>
<path d="M271.922 17.1519C269.953 17.1519 269.105 16.2944 269.379 14.5796L269.52 13.6597C269.777 12.0112 270.854 11.187 272.748 11.187C273.65 11.187 274.342 11.3901 274.822 11.7964C275.303 12.1987 275.473 12.8511 275.332 13.7534L275.186 14.6792C274.932 16.3276 273.844 17.1519 271.922 17.1519ZM272.016 15.8921C272.977 15.8921 273.533 15.4468 273.686 14.5562L273.803 13.7651C273.939 12.8862 273.561 12.4468 272.666 12.4468C271.721 12.4468 271.176 12.8901 271.031 13.7769L270.902 14.5796C270.832 15.0444 270.904 15.3804 271.119 15.5874C271.334 15.7905 271.633 15.8921 272.016 15.8921Z" fill="white"/>
<path d="M278.285 17.1519C277.23 17.1519 276.49 16.8999 276.064 16.396C275.943 16.2983 275.928 16.1772 276.018 16.0327L276.352 15.5171C276.457 15.3491 276.605 15.3335 276.797 15.4702C277.102 15.8452 277.613 16.0327 278.332 16.0327C278.676 16.0327 278.963 15.9741 279.193 15.8569C279.428 15.7358 279.545 15.562 279.545 15.3354C279.545 15.0151 279.285 14.8081 278.766 14.7144L278.022 14.5913C277.51 14.5132 277.121 14.3374 276.855 14.064C276.594 13.7866 276.463 13.4351 276.463 13.0093C276.463 12.3843 276.705 11.9253 277.189 11.6323C277.674 11.3354 278.295 11.187 279.053 11.187C279.963 11.187 280.647 11.4155 281.104 11.8726C281.264 11.9937 281.272 12.1323 281.127 12.2886L280.688 12.7808C280.574 12.894 280.441 12.9019 280.289 12.8042C279.977 12.4683 279.545 12.3003 278.994 12.3003C278.666 12.3003 278.404 12.353 278.209 12.4585C278.014 12.564 277.916 12.7124 277.916 12.9038C277.916 13.2007 278.15 13.3999 278.619 13.5015L279.439 13.6245C280.471 13.7925 280.986 14.312 280.986 15.1831C280.986 15.8628 280.734 16.3608 280.23 16.6772C279.727 16.9937 279.078 17.1519 278.285 17.1519Z" fill="white"/>
<path d="M138.334 22.2925C138.494 22.4058 138.52 22.5464 138.41 22.7144L138.012 23.3354C137.914 23.4878 137.777 23.5171 137.602 23.4233C137.289 23.2554 136.934 23.1714 136.535 23.1714C136.176 23.1714 135.891 23.271 135.68 23.4702C135.473 23.6694 135.334 24.0015 135.264 24.4663L135.135 25.2104C135.119 25.3159 135.162 25.3687 135.264 25.3687H136.693C136.799 25.3687 136.881 25.4038 136.939 25.4741C136.998 25.5444 137.02 25.6323 137.004 25.7378L136.922 26.312C136.898 26.4722 136.807 26.5522 136.647 26.5522H135.035C134.973 26.5522 134.934 26.5894 134.918 26.6636L134.268 30.7183C134.244 30.8862 134.152 30.9702 133.992 30.9702H133.078C132.973 30.9702 132.891 30.9351 132.832 30.8647C132.773 30.7905 132.752 30.7026 132.768 30.6011L133.383 26.7104C133.398 26.605 133.361 26.5522 133.272 26.5522H133.008C132.895 26.5522 132.816 26.519 132.773 26.4526C132.73 26.3862 132.717 26.3003 132.732 26.1948L132.814 25.6206C132.838 25.4526 132.934 25.3687 133.102 25.3687H133.488C133.566 25.3687 133.605 25.3354 133.605 25.269L133.752 24.3608C133.904 23.4077 134.209 22.7554 134.666 22.4038C135.127 22.0522 135.723 21.8765 136.453 21.8765C137.188 21.8726 137.814 22.0112 138.334 22.2925Z" fill="white"/>
<path d="M139.272 24.2847C138.705 24.2847 138.48 23.9819 138.598 23.3765C138.711 22.8335 139.07 22.5601 139.676 22.5562C140.219 22.5562 140.447 22.8374 140.361 23.3999C140.283 23.9897 139.92 24.2847 139.272 24.2847ZM137.912 30.9585C137.807 30.9585 137.727 30.9233 137.672 30.853C137.617 30.7788 137.594 30.689 137.602 30.5835L138.393 25.6206C138.416 25.4526 138.512 25.3687 138.68 25.3687H139.605C139.703 25.3687 139.781 25.4019 139.84 25.4683C139.898 25.5347 139.92 25.6245 139.904 25.7378L139.125 30.7065C139.102 30.8745 139.002 30.9585 138.826 30.9585H137.912Z" fill="white"/>
<path d="M141.147 30.9702C141.041 30.9702 140.959 30.9351 140.9 30.8647C140.842 30.7905 140.82 30.7026 140.836 30.6011L141.615 25.6206C141.639 25.4526 141.734 25.3687 141.902 25.3687H142.705C142.834 25.3687 142.918 25.4116 142.957 25.4976V25.7495C142.973 25.8706 143.041 25.8823 143.162 25.7847C143.674 25.3862 144.326 25.187 145.119 25.187C145.729 25.187 146.201 25.3511 146.537 25.6792C146.873 26.0073 146.977 26.5679 146.848 27.3608L146.32 30.7183C146.297 30.8862 146.197 30.9702 146.022 30.9702H145.107C145.002 30.9702 144.92 30.9351 144.861 30.8647C144.803 30.7905 144.781 30.7026 144.797 30.6011L145.266 27.6245C145.387 26.9058 145.102 26.5444 144.41 26.5405C143.922 26.5405 143.486 26.7046 143.104 27.0327C142.967 27.1108 142.891 27.2202 142.875 27.3608L142.348 30.7183C142.324 30.8862 142.229 30.9702 142.061 30.9702H141.147Z" fill="white"/>
<path d="M149.244 31.1519C148.717 31.1519 148.324 31.0288 148.066 30.7827C147.813 30.5327 147.693 30.1675 147.709 29.687C147.74 28.3979 148.576 27.7534 150.217 27.7534H151.6C151.697 27.7534 151.744 27.7144 151.74 27.6362L151.764 27.4077C151.811 27.064 151.738 26.8179 151.547 26.6694C151.355 26.521 151.08 26.4468 150.721 26.4468C150.119 26.4468 149.596 26.5991 149.15 26.9038C148.967 27.0015 148.826 26.9683 148.729 26.8042L148.441 26.2769C148.352 26.1167 148.379 25.9897 148.523 25.896C149.18 25.4233 150.045 25.187 151.119 25.187C151.912 25.187 152.508 25.3628 152.906 25.7144C153.305 26.0659 153.436 26.6694 153.299 27.5249L152.795 30.7065C152.772 30.8823 152.676 30.9702 152.508 30.9702H151.764C151.666 30.9702 151.588 30.939 151.529 30.8765C151.471 30.8101 151.449 30.7417 151.465 30.6714L151.488 30.478C151.512 30.3726 151.508 30.3159 151.477 30.3081C151.453 30.3081 151.377 30.3647 151.248 30.478C150.721 30.9272 150.053 31.1519 149.244 31.1519ZM149.871 29.9976C150.277 29.9976 150.647 29.9136 150.979 29.7456C151.311 29.5776 151.496 29.3413 151.535 29.0366L151.57 28.7612C151.578 28.73 151.568 28.7026 151.541 28.6792C151.514 28.6558 151.48 28.644 151.441 28.644H150.17C149.514 28.644 149.186 28.9077 149.186 29.4351C149.186 29.8101 149.414 29.9976 149.871 29.9976Z" fill="white"/>
<path d="M154.518 30.9702C154.412 30.9702 154.33 30.9351 154.272 30.8647C154.213 30.7905 154.191 30.7026 154.207 30.6011L154.986 25.6206C155.01 25.4526 155.105 25.3687 155.273 25.3687H156.076C156.205 25.3687 156.289 25.4116 156.328 25.4976V25.7495C156.344 25.8706 156.412 25.8823 156.533 25.7847C157.045 25.3862 157.697 25.187 158.49 25.187C159.1 25.187 159.572 25.3511 159.908 25.6792C160.244 26.0073 160.348 26.5679 160.219 27.3608L159.691 30.7183C159.668 30.8862 159.568 30.9702 159.393 30.9702H158.479C158.373 30.9702 158.291 30.9351 158.232 30.8647C158.174 30.7905 158.152 30.7026 158.168 30.6011L158.637 27.6245C158.758 26.9058 158.473 26.5444 157.781 26.5405C157.293 26.5405 156.857 26.7046 156.475 27.0327C156.338 27.1108 156.262 27.2202 156.246 27.3608L155.719 30.7183C155.695 30.8862 155.6 30.9702 155.432 30.9702H154.518Z" fill="white"/>
<path d="M166.324 29.5874C166.484 29.7085 166.508 29.8452 166.395 29.9976C165.82 30.7671 164.877 31.1519 163.564 31.1519C161.779 31.1519 161.02 30.2671 161.285 28.4976L161.426 27.5835C161.684 25.9819 162.74 25.1831 164.596 25.187C165.74 25.187 166.508 25.5659 166.898 26.3237C166.988 26.5073 166.949 26.644 166.781 26.7339L166.084 27.0913C165.955 27.1616 165.836 27.1265 165.727 26.9858C165.504 26.6265 165.107 26.4468 164.537 26.4468C163.6 26.4468 163.055 26.9058 162.902 27.8237L162.797 28.5327C162.727 29.0054 162.795 29.3511 163.002 29.5698C163.209 29.7847 163.508 29.8921 163.898 29.8921C164.539 29.8921 165.039 29.6831 165.398 29.2651C165.535 29.1128 165.676 29.0894 165.82 29.1948L166.324 29.5874Z" fill="white"/>
<path d="M169.74 31.1636C167.869 31.1636 167.07 30.3022 167.344 28.5796L167.496 27.6011C167.754 25.9917 168.783 25.187 170.584 25.187C172.326 25.187 173.078 26.0229 172.84 27.6948L172.752 28.4507C172.729 28.6265 172.629 28.7144 172.453 28.7144H169.02C168.93 28.7144 168.887 28.7456 168.891 28.8081L168.867 28.9663C168.82 29.2866 168.906 29.5229 169.125 29.6753C169.344 29.8276 169.633 29.9038 169.992 29.9038C170.633 29.9038 171.154 29.7437 171.557 29.4233C171.717 29.3257 171.848 29.3491 171.949 29.4937L172.324 30.0093C172.453 30.1772 172.441 30.314 172.289 30.4194C171.688 30.9155 170.838 31.1636 169.74 31.1636ZM169.166 27.7769H171.316C171.395 27.7769 171.434 27.7339 171.434 27.6479L171.445 27.4312C171.508 26.7437 171.184 26.3999 170.473 26.3999C169.688 26.3999 169.225 26.7476 169.084 27.4429L169.031 27.6245C169.023 27.6636 169.033 27.6987 169.061 27.73C169.092 27.7612 169.127 27.7769 169.166 27.7769Z" fill="white"/>
<path d="M175.424 24.2847C174.857 24.2847 174.633 23.9819 174.75 23.3765C174.863 22.8335 175.223 22.5601 175.828 22.5562C176.371 22.5562 176.6 22.8374 176.514 23.3999C176.436 23.9897 176.072 24.2847 175.424 24.2847ZM174.064 30.9585C173.959 30.9585 173.879 30.9233 173.824 30.853C173.77 30.7788 173.746 30.689 173.754 30.5835L174.545 25.6206C174.568 25.4526 174.664 25.3687 174.832 25.3687H175.758C175.855 25.3687 175.934 25.4019 175.992 25.4683C176.051 25.5347 176.072 25.6245 176.057 25.7378L175.277 30.7065C175.254 30.8745 175.154 30.9585 174.979 30.9585H174.064Z" fill="white"/>
<path d="M181.764 25.4155C181.939 25.5132 181.971 25.6519 181.857 25.8315L181.418 26.564C181.34 26.6929 181.215 26.73 181.043 26.6753C180.883 26.5698 180.68 26.5171 180.434 26.5171C179.961 26.5171 179.553 26.73 179.209 27.1558C179.111 27.269 179.047 27.3999 179.016 27.5483L178.5 30.7183C178.477 30.8862 178.381 30.9702 178.213 30.9702H177.299C177.193 30.9702 177.111 30.9351 177.053 30.8647C176.994 30.7905 176.973 30.7026 176.988 30.6011L177.768 25.6206C177.791 25.4526 177.887 25.3687 178.055 25.3687H178.857C179.01 25.3687 179.107 25.4312 179.15 25.5562L179.121 25.7378C179.137 25.9058 179.221 25.9058 179.373 25.7378C179.732 25.3706 180.205 25.187 180.791 25.187C181.174 25.187 181.498 25.2632 181.764 25.4155Z" fill="white"/>
<path d="M184.395 31.1519C182.426 31.1519 181.578 30.2944 181.852 28.5796L181.992 27.6597C182.25 26.0112 183.326 25.187 185.221 25.187C186.123 25.187 186.814 25.3901 187.295 25.7964C187.775 26.1987 187.945 26.8511 187.805 27.7534L187.658 28.6792C187.404 30.3276 186.316 31.1519 184.395 31.1519ZM184.488 29.8921C185.449 29.8921 186.006 29.4468 186.158 28.5562L186.275 27.7651C186.412 26.8862 186.033 26.4468 185.139 26.4468C184.193 26.4468 183.648 26.8901 183.504 27.7769L183.375 28.5796C183.305 29.0444 183.377 29.3804 183.592 29.5874C183.807 29.7905 184.105 29.8921 184.488 29.8921Z" fill="white"/>
<path d="M190.758 31.1519C189.703 31.1519 188.963 30.8999 188.537 30.396C188.416 30.2983 188.4 30.1772 188.49 30.0327L188.824 29.5171C188.93 29.3491 189.078 29.3335 189.27 29.4702C189.574 29.8452 190.086 30.0327 190.805 30.0327C191.148 30.0327 191.436 29.9741 191.666 29.8569C191.9 29.7358 192.018 29.562 192.018 29.3354C192.018 29.0151 191.758 28.8081 191.238 28.7144L190.494 28.5913C189.982 28.5132 189.594 28.3374 189.328 28.064C189.066 27.7866 188.936 27.4351 188.936 27.0093C188.936 26.3843 189.178 25.9253 189.662 25.6323C190.147 25.3354 190.768 25.187 191.525 25.187C192.436 25.187 193.119 25.4155 193.576 25.8726C193.736 25.9937 193.744 26.1323 193.6 26.2886L193.16 26.7808C193.047 26.894 192.914 26.9019 192.762 26.8042C192.449 26.4683 192.018 26.3003 191.467 26.3003C191.139 26.3003 190.877 26.353 190.682 26.4585C190.486 26.564 190.389 26.7124 190.389 26.9038C190.389 27.2007 190.623 27.3999 191.092 27.5015L191.912 27.6245C192.943 27.7925 193.459 28.312 193.459 29.1831C193.459 29.8628 193.207 30.3608 192.703 30.6772C192.199 30.9937 191.551 31.1519 190.758 31.1519Z" fill="white"/>
<path d="M199.09 31.1519C198.328 31.1519 197.76 30.9331 197.385 30.4956C197.01 30.0581 196.883 29.437 197.004 28.6323L197.156 27.5835C197.293 26.728 197.617 26.1147 198.129 25.7437C198.641 25.3726 199.266 25.187 200.004 25.187C200.73 25.187 201.285 25.3784 201.668 25.7612C201.707 25.7925 201.746 25.812 201.785 25.8198C201.828 25.8276 201.869 25.8179 201.908 25.7905C201.951 25.7632 201.977 25.7222 201.984 25.6675L202.5 22.3042C202.523 22.1362 202.615 22.0522 202.775 22.0522H203.701C203.807 22.0522 203.887 22.0894 203.941 22.1636C203.996 22.2339 204.016 22.3218 204 22.4272L202.705 30.7183C202.682 30.8862 202.588 30.9702 202.424 30.9702H201.768C201.584 30.9702 201.484 30.894 201.469 30.7417V30.4897C201.469 30.3999 201.449 30.3413 201.41 30.314C201.375 30.2866 201.334 30.2827 201.287 30.3022C201.24 30.3218 201.188 30.3569 201.129 30.4077C200.539 30.9038 199.859 31.1519 199.09 31.1519ZM199.729 29.8921C200.447 29.8921 200.979 29.6558 201.322 29.1831C201.42 29.0698 201.48 28.9253 201.504 28.7495L201.691 27.5015C201.715 27.3569 201.688 27.2163 201.609 27.0796C201.441 26.6538 200.979 26.4429 200.221 26.4468C199.822 26.4468 199.479 26.5503 199.189 26.7573C198.9 26.9644 198.723 27.2925 198.656 27.7417L198.539 28.5327C198.477 28.9819 198.557 29.3218 198.779 29.5522C199.006 29.7788 199.322 29.8921 199.729 29.8921Z" fill="white"/>
<path d="M206.859 31.1519C204.891 31.1519 204.043 30.2944 204.316 28.5796L204.457 27.6597C204.715 26.0112 205.791 25.187 207.686 25.187C208.588 25.187 209.279 25.3901 209.76 25.7964C210.24 26.1987 210.41 26.8511 210.27 27.7534L210.123 28.6792C209.869 30.3276 208.781 31.1519 206.859 31.1519ZM206.953 29.8921C207.914 29.8921 208.471 29.4468 208.623 28.5562L208.74 27.7651C208.877 26.8862 208.498 26.4468 207.604 26.4468C206.658 26.4468 206.113 26.8901 205.969 27.7769L205.84 28.5796C205.77 29.0444 205.842 29.3804 206.057 29.5874C206.272 29.7905 206.57 29.8921 206.953 29.8921Z" fill="white"/>
<path d="M219.604 22.2925C219.764 22.4058 219.789 22.5464 219.68 22.7144L219.281 23.3354C219.184 23.4878 219.047 23.5171 218.871 23.4233C218.559 23.2554 218.203 23.1714 217.805 23.1714C217.445 23.1714 217.16 23.271 216.949 23.4702C216.742 23.6694 216.604 24.0015 216.533 24.4663L216.404 25.2104C216.389 25.3159 216.432 25.3687 216.533 25.3687H217.963C218.068 25.3687 218.15 25.4038 218.209 25.4741C218.268 25.5444 218.289 25.6323 218.273 25.7378L218.191 26.312C218.168 26.4722 218.076 26.5522 217.916 26.5522H216.305C216.242 26.5522 216.203 26.5894 216.188 26.6636L215.537 30.7183C215.514 30.8862 215.422 30.9702 215.262 30.9702H214.348C214.242 30.9702 214.16 30.9351 214.102 30.8647C214.043 30.7905 214.022 30.7026 214.037 30.6011L214.652 26.7104C214.668 26.605 214.631 26.5522 214.541 26.5522H214.277C214.164 26.5522 214.086 26.519 214.043 26.4526C214 26.3862 213.986 26.3003 214.002 26.1948L214.084 25.6206C214.107 25.4526 214.203 25.3687 214.371 25.3687H214.758C214.836 25.3687 214.875 25.3354 214.875 25.269L215.022 24.3608C215.174 23.4077 215.479 22.7554 215.936 22.4038C216.397 22.0522 216.992 21.8765 217.723 21.8765C218.457 21.8726 219.084 22.0112 219.604 22.2925Z" fill="white"/>
<path d="M224.549 25.3687C224.654 25.3687 224.736 25.4038 224.795 25.4741C224.857 25.5444 224.881 25.6323 224.865 25.7378L224.074 30.73C224.051 30.8901 223.953 30.9702 223.781 30.9702H222.99C222.838 30.9702 222.75 30.9136 222.727 30.8003L222.738 30.6245C222.738 30.48 222.67 30.4546 222.533 30.5483C221.975 30.9468 221.311 31.1479 220.541 31.1519C219.955 31.1519 219.504 30.978 219.188 30.6304C218.875 30.2827 218.775 29.7437 218.889 29.0132L219.416 25.6323C219.439 25.4565 219.535 25.3687 219.703 25.3687H220.629C220.727 25.3687 220.805 25.4058 220.863 25.48C220.922 25.5542 220.943 25.644 220.928 25.7495L220.471 28.6558C220.357 29.4175 220.633 29.7964 221.297 29.7925C221.785 29.7925 222.219 29.6323 222.598 29.312C222.711 29.2222 222.787 29.0952 222.826 28.9312L223.342 25.6206C223.381 25.4526 223.48 25.3687 223.641 25.3687H224.549Z" fill="white"/>
<path d="M230.525 25.3687C230.631 25.3687 230.713 25.4038 230.772 25.4741C230.83 25.5444 230.852 25.6323 230.836 25.7378L230.754 26.3237C230.715 26.4839 230.619 26.564 230.467 26.564H228.258C228.195 26.564 228.154 26.6011 228.135 26.6753L227.824 28.6909C227.695 29.4683 227.959 29.8569 228.615 29.8569C229.029 29.8569 229.434 29.7632 229.828 29.5757C230.035 29.4976 230.18 29.562 230.262 29.769L230.455 30.396C230.525 30.564 230.5 30.6753 230.379 30.73C229.793 31.0112 229.063 31.1519 228.188 31.1519C226.668 31.1519 226.031 30.3511 226.277 28.7495L226.6 26.7222C226.615 26.6167 226.572 26.564 226.471 26.564H226.172C226.066 26.564 225.982 26.5308 225.92 26.4644C225.861 26.3979 225.84 26.312 225.855 26.2065L225.943 25.6206C225.967 25.4526 226.063 25.3687 226.23 25.3687H226.711C226.773 25.3687 226.813 25.3354 226.828 25.269L226.986 24.2612C227.002 24.0933 227.098 24.0093 227.273 24.0093H228.188C228.293 24.0093 228.375 24.0464 228.434 24.1206C228.492 24.1909 228.514 24.2788 228.498 24.3843L228.363 25.2104C228.348 25.3159 228.393 25.3687 228.498 25.3687H230.525Z" fill="white"/>
<path d="M237.252 25.3687C237.357 25.3687 237.439 25.4038 237.498 25.4741C237.561 25.5444 237.584 25.6323 237.568 25.7378L236.777 30.73C236.754 30.8901 236.656 30.9702 236.484 30.9702H235.693C235.541 30.9702 235.453 30.9136 235.43 30.8003L235.441 30.6245C235.441 30.48 235.373 30.4546 235.236 30.5483C234.678 30.9468 234.014 31.1479 233.244 31.1519C232.658 31.1519 232.207 30.978 231.891 30.6304C231.578 30.2827 231.479 29.7437 231.592 29.0132L232.119 25.6323C232.143 25.4565 232.238 25.3687 232.406 25.3687H233.332C233.43 25.3687 233.508 25.4058 233.566 25.48C233.625 25.5542 233.647 25.644 233.631 25.7495L233.174 28.6558C233.061 29.4175 233.336 29.7964 234 29.7925C234.488 29.7925 234.922 29.6323 235.301 29.312C235.414 29.2222 235.49 29.0952 235.529 28.9312L236.045 25.6206C236.084 25.4526 236.184 25.3687 236.344 25.3687H237.252Z" fill="white"/>
<path d="M243.217 25.4155C243.393 25.5132 243.424 25.6519 243.311 25.8315L242.871 26.564C242.793 26.6929 242.668 26.73 242.496 26.6753C242.336 26.5698 242.133 26.5171 241.887 26.5171C241.414 26.5171 241.006 26.73 240.662 27.1558C240.564 27.269 240.5 27.3999 240.469 27.5483L239.953 30.7183C239.93 30.8862 239.834 30.9702 239.666 30.9702H238.752C238.647 30.9702 238.564 30.9351 238.506 30.8647C238.447 30.7905 238.426 30.7026 238.441 30.6011L239.221 25.6206C239.244 25.4526 239.34 25.3687 239.508 25.3687H240.311C240.463 25.3687 240.561 25.4312 240.604 25.5562L240.574 25.7378C240.59 25.9058 240.674 25.9058 240.826 25.7378C241.186 25.3706 241.658 25.187 242.244 25.187C242.627 25.187 242.951 25.2632 243.217 25.4155Z" fill="white"/>
<path d="M245.848 31.1519C243.879 31.1519 243.031 30.2944 243.305 28.5796L243.445 27.6597C243.703 26.0112 244.779 25.187 246.674 25.187C247.576 25.187 248.268 25.3901 248.748 25.7964C249.229 26.1987 249.398 26.8511 249.258 27.7534L249.111 28.6792C248.857 30.3276 247.77 31.1519 245.848 31.1519ZM245.941 29.8921C246.902 29.8921 247.459 29.4468 247.611 28.5562L247.729 27.7651C247.865 26.8862 247.486 26.4468 246.592 26.4468C245.647 26.4468 245.102 26.8901 244.957 27.7769L244.828 28.5796C244.758 29.0444 244.83 29.3804 245.045 29.5874C245.26 29.7905 245.559 29.8921 245.941 29.8921Z" fill="white"/>
</svg>
