<svg width="41" height="39" viewBox="0 0 41 39" fill="none" xmlns="http://www.w3.org/2000/svg">
<g clip-path="url(#clip0)">
<path d="M41 1.34745C41 0.59781 40.3829 0 39.6308 0H1.36924C0.607479 0 0 0.59781 0 1.34745V29.5869C0 30.327 0.607479 30.9343 1.36924 30.9343H18.4558V34.9672H12.3039C11.9278 34.9672 11.6192 35.2708 11.6192 35.6409V38.3263C11.6192 38.6964 11.9278 39 12.3039 39H28.7058C29.0819 39 29.3904 38.6964 29.3904 38.3263V35.6409C29.3904 35.2708 29.0819 34.9672 28.7058 34.9672H22.5539V30.9343H39.6404C40.3925 30.9343 41.0097 30.3365 41.0097 29.5869L41 1.34745ZM4.09807 26.9015V4.03285H36.9019V26.892L4.09807 26.9015ZM19.1308 17.4883H16.4019C16.0259 17.4883 15.7173 17.792 15.7173 18.162V22.8686C15.7173 23.2387 16.0259 23.5423 16.4019 23.5423H19.1308C19.5068 23.5423 19.8154 23.2387 19.8154 22.8686V18.162C19.8154 17.7825 19.5068 17.4883 19.1308 17.4883ZM32.8039 7.40146H30.075C29.699 7.40146 29.3904 7.70511 29.3904 8.07518V22.8686C29.3904 23.2387 29.699 23.5423 30.075 23.5423H32.8039C33.1799 23.5423 33.4885 23.2387 33.4885 22.8686V8.06569C33.4788 7.69562 33.1799 7.40146 32.8039 7.40146ZM25.9673 12.108H23.2385C22.8624 12.108 22.5539 12.4117 22.5539 12.7818V22.8686C22.5539 23.2387 22.8624 23.5423 23.2385 23.5423H25.9673C26.3434 23.5423 26.6519 23.2387 26.6519 22.8686V12.7723C26.6519 12.4022 26.3434 12.108 25.9673 12.108Z" fill="#FF9B00"/>
</g>
<defs>
<clipPath id="clip0">
<rect width="41" height="39" fill="white"/>
</clipPath>
</defs>
</svg>
