<svg width="40" height="40" viewBox="0 0 40 40" fill="none" xmlns="http://www.w3.org/2000/svg">
<path d="M30.708 21.4261C25.5782 21.4261 21.4261 25.5782 21.4261 30.708C21.4261 35.8377 25.5782 39.9899 30.708 39.9899C35.8377 39.9899 39.9899 35.8377 39.9899 30.708C40 25.5782 35.8377 21.4261 30.708 21.4261ZM30.708 35.7067C27.9466 35.7067 25.7092 33.4593 25.7092 30.708C25.7092 27.9466 27.9567 25.7092 30.708 25.7092C33.4593 25.7092 35.7067 27.9567 35.7067 30.708C35.7067 33.4694 33.4694 35.7067 30.708 35.7067ZM0.715545 39.2845H17.8584V22.1416H0.715545V39.2845ZM4.99874 26.4248H13.5651V34.9912H4.99874V26.4248ZM9.28193 0C4.15218 0 0 4.15218 0 9.28193C0 14.4117 4.15218 18.5639 9.28193 18.5639C14.4117 18.5639 18.5639 14.4117 18.5639 9.28193C18.5739 4.15218 14.4117 0 9.28193 0ZM9.28193 14.2807C6.52053 14.2807 4.28319 12.0333 4.28319 9.28193C4.28319 6.52053 6.53061 4.28319 9.28193 4.28319C12.0333 4.28319 14.2807 6.53061 14.2807 9.28193C14.2807 12.0433 12.0433 14.2807 9.28193 14.2807ZM39.2845 0.715545H22.1416V17.8584H39.2845V0.715545ZM34.9912 13.5651H26.4248V4.99874H34.9912V13.5651Z" fill="#FF9B00"/>
</svg>
