<svg xmlns="http://www.w3.org/2000/svg" width="107" height="101" viewBox="0 0 107 101">
  <g id="Grupo_1546" data-name="Grupo 1546" transform="translate(-972 -2952)">
    <path id="Docs" d="M434.634,388.431H417.444a1.228,1.228,0,0,0-1.228,1.228v4.912a1.228,1.228,0,0,0,1.228,1.228h17.191a1.228,1.228,0,0,0,1.228-1.228v-4.912A1.228,1.228,0,0,0,434.634,388.431Zm0,11.051H417.444a1.228,1.228,0,0,0-1.228,1.228v4.911a1.228,1.228,0,0,0,1.228,1.228h17.191a1.228,1.228,0,0,0,1.228-1.228V400.71A1.228,1.228,0,0,0,434.634,399.482Zm0,11.051H417.444a1.228,1.228,0,0,0-1.228,1.228v4.911a1.228,1.228,0,0,0,1.228,1.228h17.191a1.228,1.228,0,0,0,1.228-1.228v-4.911A1.228,1.228,0,0,0,434.634,410.533Zm-18.418-46.66V373.7h-9.823a2.456,2.456,0,0,0-2.456,2.456v54.027a2.456,2.456,0,0,0,2.456,2.456h39.292a2.456,2.456,0,0,0,2.456-2.456v-9.823h9.794a2.456,2.456,0,0,0,2.456-2.456V363.873a2.456,2.456,0,0,0-2.456-2.456H418.672A2.456,2.456,0,0,0,416.216,363.873Zm24.558,61.394H411.3v-44.2h29.469Zm12.25-12.279h-4.883V373.7H423.583v-4.912h29.441Z" transform="translate(568.063 2609.906)" fill="#ff9b00"/>
    <rect id="Retângulo_163" data-name="Retângulo 163" width="107" height="101" transform="translate(972 2952)" fill="none"/>
  </g>
</svg>
