<svg width="39" height="28" viewBox="0 0 39 28" fill="none" xmlns="http://www.w3.org/2000/svg">
<g clip-path="url(#clip0)">
<path d="M19.5053 4.53852C27.5381 4.53852 34.121 10.9458 34.4915 18.955C34.5126 19.3608 34.8407 19.6705 35.2429 19.6705H38.2486C38.6719 19.6705 39.0106 19.3074 39 18.8802C38.5767 8.40427 29.9935 0 19.5053 0C9.00651 0 0.423338 8.40427 0.0105834 18.8909C-0.0105834 19.3181 0.33867 19.6812 0.762008 19.6812H3.76771C4.16988 19.6812 4.49796 19.3715 4.51913 18.9657C4.88955 10.9458 11.4619 4.53852 19.5053 4.53852ZM29.0516 12.1098L26.4586 10.5934C26.0988 10.3799 25.6437 10.508 25.432 10.8711L18.2035 23.4615H0.751425C0.33867 23.4615 0 23.8032 0 24.2197V27.2418C0 27.6583 0.33867 28 0.751425 28H38.2486C38.6613 28 39 27.6583 39 27.2418V24.2197C39 23.8032 38.6613 23.4615 38.2486 23.4615H23.4L29.3161 13.1457C29.5278 12.7826 29.4114 12.3234 29.0516 12.1098Z" fill="#FF9B00"/>
</g>
<defs>
<clipPath id="clip0">
<rect width="39" height="28" fill="white"/>
</clipPath>
</defs>
</svg>
