<svg xmlns="http://www.w3.org/2000/svg" xmlns:xlink="http://www.w3.org/1999/xlink" width="108" height="101" viewBox="0 0 108 101">
  <defs>
    <clipPath id="clip-path">
      <rect id="Ret창ngulo_159" data-name="Ret창ngulo 159" width="87.717" height="92.931" fill="#ff9b00"/>
    </clipPath>
  </defs>
  <g id="Grupo_1543" data-name="Grupo 1543" transform="translate(-348 -2946)">
    <g id="Grupo_1503" data-name="Grupo 1503" transform="translate(348 2949.068)">
      <g id="Grupo_1502" data-name="Grupo 1502" clip-path="url(#clip-path)">
        <g id="Grupo_1501" data-name="Grupo 1501" transform="translate(0 0)">
          <path id="Fill-1" d="M157.1-74.107h-5.16a1.29,1.29,0,0,1-1.29-1.29v-16.77a1.29,1.29,0,0,1,1.29-1.29h5.16a1.29,1.29,0,0,1,1.29,1.29V-75.4A1.29,1.29,0,0,1,157.1-74.107Zm-29.945-5.748a1.29,1.29,0,0,0-1.824,0l-3.649,3.649a1.29,1.29,0,0,0,0,1.824l12.77,12.77a1.291,1.291,0,0,0,1.825,0l3.648-3.648a1.291,1.291,0,0,0,0-1.825Zm47.432,18.243a1.29,1.29,0,0,1-1.824,0l-3.649-3.648a1.291,1.291,0,0,1,0-1.825l12.77-12.77a1.29,1.29,0,0,1,1.824,0l3.649,3.649a1.29,1.29,0,0,1,0,1.824ZM160.749-50.888a1.291,1.291,0,0,1,.913.377l2.8,2.8a1.293,1.293,0,0,1,.377.913v9.877a1.293,1.293,0,0,1-.377.913l-2.8,2.8a1.291,1.291,0,0,1-.913.377h-2.358v2.581a1.29,1.29,0,0,1-1.29,1.29h-5.16a1.29,1.29,0,0,1-1.29-1.29v-2.581h-3.87a1.29,1.29,0,0,1-1.29-1.29v-5.16a1.29,1.29,0,0,1,1.29-1.29H157.1v-2.579h-8.809a1.293,1.293,0,0,1-.913-.377l-2.8-2.8a1.291,1.291,0,0,1-.377-.913v-9.877a1.294,1.294,0,0,1,.377-.913l2.8-2.8a1.294,1.294,0,0,1,.913-.377h2.359v-2.58a1.29,1.29,0,0,1,1.29-1.29h5.16a1.29,1.29,0,0,1,1.29,1.29v2.58h3.87a1.29,1.29,0,0,1,1.29,1.29v5.16a1.29,1.29,0,0,1-1.29,1.29h-10.32v2.579ZM131.3-44.438V-49.6a1.29,1.29,0,0,0-1.29-1.29h-18.06a1.29,1.29,0,0,0-1.29,1.29v5.16a1.29,1.29,0,0,0,1.29,1.29h18.06A1.29,1.29,0,0,0,131.3-44.438Zm47.728-6.45h18.06a1.289,1.289,0,0,1,1.29,1.29v5.16a1.289,1.289,0,0,1-1.29,1.29H179.03a1.29,1.29,0,0,1-1.29-1.29V-49.6A1.29,1.29,0,0,1,179.03-50.888ZM136.278-32.424a1.291,1.291,0,0,0-1.825,0l-12.77,12.77a1.29,1.29,0,0,0,0,1.824l3.649,3.649a1.29,1.29,0,0,0,1.824,0l12.77-12.77a1.29,1.29,0,0,0,0-1.824Zm36.486,0a1.29,1.29,0,0,1,1.824,0l12.77,12.77a1.29,1.29,0,0,1,0,1.824l-3.649,3.649a1.29,1.29,0,0,1-1.824,0l-12.77-12.77a1.29,1.29,0,0,1,0-1.824ZM157.1-19.928h-5.16a1.289,1.289,0,0,0-1.29,1.289V-1.815a1.29,1.29,0,0,0,1.29,1.29h5.16a1.29,1.29,0,0,0,1.29-1.29V-18.64A1.289,1.289,0,0,0,157.1-19.928Z" transform="translate(-110.662 93.457)" fill="#ff9b00" fill-rule="evenodd"/>
        </g>
      </g>
    </g>
    <rect id="Ret창ngulo_160" data-name="Ret창ngulo 160" width="107" height="101" transform="translate(349 2946)" fill="none"/>
  </g>
</svg>
