<svg width="54" height="52" viewBox="0 0 54 52" fill="none" xmlns="http://www.w3.org/2000/svg">
<path d="M53.44 5.67242L50.8937 3.13242C50.7251 2.96428 50.4968 2.86986 50.2587 2.86986C50.0206 2.86986 49.7922 2.96428 49.6237 3.13242L26.0627 26.682L17.8077 18.427C17.6391 18.2589 17.4108 18.1645 17.1727 18.1645C16.9346 18.1645 16.7062 18.2589 16.5377 18.427L13.9913 20.9734C13.8235 21.1421 13.7293 21.3704 13.7293 21.6084C13.7293 21.8464 13.8235 22.0747 13.9913 22.2434L24.7863 33.0384C25.1242 33.3757 25.5821 33.5651 26.0595 33.5651C26.5369 33.5651 26.9948 33.3757 27.3327 33.0384L53.44 6.94623C53.6084 6.77702 53.7029 6.54803 53.7029 6.30933C53.7029 6.07062 53.6084 5.84163 53.44 5.67242ZM50.3463 26H46.7433C46.5125 25.9991 46.2903 26.0874 46.123 26.2464C45.9557 26.4054 45.8562 26.6229 45.8454 26.8535C45.3946 37.4275 36.61 45.8819 25.9065 45.7993C15.1369 45.7168 6.3485 36.9246 6.26087 26.155C6.17959 15.4527 14.6327 6.66937 25.2067 6.21598C25.4374 6.20486 25.6549 6.10516 25.8138 5.93765C25.9728 5.77015 26.0611 5.54776 26.0601 5.31682V1.71637C26.0599 1.5949 26.0351 1.47472 25.9873 1.36306C25.9395 1.2514 25.8696 1.15055 25.7818 1.06658C25.694 0.9826 25.5902 0.917222 25.4765 0.874371C25.3628 0.83152 25.2417 0.812079 25.1203 0.817212C11.638 1.31505 0.826545 12.4542 0.863375 26.0635C0.897665 39.8799 12.1829 51.1651 25.9992 51.1994C39.6085 51.2337 50.7489 40.4234 51.2455 26.9424C51.2508 26.8208 51.2315 26.6995 51.1887 26.5856C51.1459 26.4717 51.0806 26.3677 50.9966 26.2796C50.9127 26.1916 50.8118 26.1215 50.7 26.0735C50.5883 26.0254 50.4679 26.0004 50.3463 26Z" fill="white"/>
</svg>
