<svg width="211" height="529" viewBox="0 0 211 529" fill="none" xmlns="http://www.w3.org/2000/svg">
<g clip-path="url(#clip0)">
<path d="M243.128 42.78L158.584 251.967L331.325 157.752C332.965 156.82 334.779 156.249 336.648 156.078C338.516 155.906 340.396 156.139 342.162 156.759C343.927 157.379 345.538 158.374 346.887 159.675C348.237 160.977 349.293 162.557 349.986 164.309L370.978 217.305C372.161 220.31 372.216 223.656 371.134 226.719C370.052 229.782 367.906 232.353 365.098 233.953L1.74792 426.913L-0.0098294 427.845L163.025 24.4484C164.144 21.6508 166.168 19.3114 168.766 17.8136C171.363 16.3158 174.379 15.7485 177.321 16.2046L233.023 24.6849C234.989 24.9809 236.86 25.7227 238.495 26.8549C240.13 27.9872 241.486 29.4804 242.463 31.2229C243.439 32.9653 244.01 34.9117 244.133 36.9163C244.256 38.9209 243.928 40.9317 243.173 42.7981" fill="#FFB400"/>
</g>
<defs>
<clipPath id="clip0">
<rect width="461.47" height="268.744" fill="white" transform="matrix(-0.374709 0.927142 0.927142 0.374709 172.917 0)"/>
</clipPath>
</defs>
</svg>
