<svg width="19" height="15" viewBox="0 0 19 15" fill="none" xmlns="http://www.w3.org/2000/svg">
<g clip-path="url(#clip0_909_28231)">
<path fill-rule="evenodd" clip-rule="evenodd" d="M12.8975 1.04268C12.971 0.949597 13.0584 0.875743 13.1545 0.825352C13.2506 0.774961 13.3537 0.749023 13.4578 0.749023C13.5619 0.749023 13.6649 0.774961 13.7611 0.825352C13.8572 0.875743 13.9445 0.949597 14.018 1.04268L18.766 7.04008C18.8397 7.13293 18.8981 7.24323 18.938 7.36467C18.9779 7.48611 18.9985 7.61629 18.9985 7.74777C18.9985 7.87925 18.9779 8.00943 18.938 8.13087C18.8981 8.25231 18.8397 8.36261 18.766 8.45546L14.018 14.4529C13.8694 14.6406 13.6679 14.746 13.4578 14.746C13.2476 14.746 13.0461 14.6406 12.8975 14.4529C12.7489 14.2652 12.6655 14.0106 12.6655 13.7452C12.6655 13.4797 12.7489 13.2252 12.8975 13.0375L17.0868 7.74777L12.8975 2.45807C12.8238 2.36522 12.7654 2.25491 12.7255 2.13348C12.6856 2.01204 12.665 1.88185 12.665 1.75038C12.665 1.6189 12.6856 1.48871 12.7255 1.36727C12.7654 1.24584 12.8238 1.13553 12.8975 1.04268V1.04268Z" fill="#8A8A8A"/>
<path fill-rule="evenodd" clip-rule="evenodd" d="M1.82571e-08 7.74883C1.3415e-08 7.48373 0.0833715 7.22949 0.231773 7.04203C0.380175 6.85458 0.581451 6.74927 0.791323 6.74927L17.4091 6.74927C17.619 6.74927 17.8203 6.85458 17.9687 7.04203C18.1171 7.22949 18.2004 7.48373 18.2004 7.74883C18.2004 8.01393 18.1171 8.26818 17.9687 8.45563C17.8203 8.64309 17.619 8.7484 17.4091 8.7484L0.791323 8.7484C0.581451 8.7484 0.380175 8.64309 0.231773 8.45563C0.0833715 8.26818 2.30991e-08 8.01393 1.82571e-08 7.74883Z" fill="#8A8A8A"/>
</g>
<defs>
<clipPath id="clip0_909_28231">
<rect width="19" height="15" fill="white"/>
</clipPath>
</defs>
</svg>
