<svg width="86" height="89" viewBox="0 0 86 89" fill="none" xmlns="http://www.w3.org/2000/svg">
<path d="M85.3245 7.15992L78.8369 0.669565C78.4059 0.240727 77.8228 0 77.215 0C76.6071 0 76.024 0.240727 75.5931 0.669565L29.2032 47.0464L10.4183 28.2536C9.98775 27.8239 9.40448 27.5827 8.79638 27.5827C8.18828 27.5827 7.605 27.8239 7.17447 28.2536L0.670621 34.7439C0.241173 35.1746 0 35.7581 0 36.3665C0 36.9748 0.241173 37.5584 0.670621 37.9891L25.9724 63.3015C26.8347 64.1583 28.0008 64.6393 29.2162 64.6393C30.4316 64.6393 31.5977 64.1583 32.46 63.3015L85.3342 10.4051C85.7624 9.97309 86.0018 9.38884 86 8.78048C85.9982 8.17213 85.7552 7.58934 85.3245 7.15992V7.15992ZM10.8108 89H70.5781C71.1881 89 71.7731 88.7576 72.2044 88.3261C72.6357 87.8946 72.878 87.3094 72.878 86.6992V77.4991C72.878 77.1971 72.8185 76.8981 72.7028 76.6191C72.5872 76.3401 72.4178 76.0867 72.2042 75.8733C71.9906 75.6599 71.737 75.4907 71.458 75.3755C71.179 75.2602 70.88 75.2011 70.5781 75.2015H10.8108C10.2017 75.2015 9.61753 75.4436 9.18683 75.8744C8.75613 76.3053 8.51417 76.8897 8.51417 77.4991V86.6992C8.51417 87.3088 8.75603 87.8936 9.18664 88.325C9.61725 88.7564 10.2014 88.9991 10.8108 89V89Z" fill="#F2F2F2"/>
</svg>
