<svg width="69" height="22" viewBox="0 0 69 22" fill="none" xmlns="http://www.w3.org/2000/svg">
<g clip-path="url(#clip0_341_2083)">
<path d="M27.7728 5.82386C26.0307 5.7568 24.3017 6.14332 22.7624 6.94388C21.9071 7.39268 21.1635 8.02047 20.5847 8.7825C20.0059 9.54453 19.6062 10.422 19.414 11.3525L19.2337 12.1436C18.8194 13.8308 18.9949 15.1843 19.7649 16.1566C20.7885 17.4577 22.4017 18.0106 25.1262 18.0106C30.0002 18.0106 32.6711 16.2519 33.5776 12.482L33.7579 11.6908C34.1625 10.0466 33.9773 8.71207 33.2072 7.73503C32.1837 6.41484 30.5022 5.82386 27.7728 5.82386ZM30.0294 11.5431L29.8929 12.0864C29.4055 13.8927 28.0067 14.7745 25.5795 14.7745C24.1173 14.7745 23.591 14.4647 23.1913 13.969C23.0321 13.728 22.9306 13.455 22.8943 13.1703C22.858 12.8856 22.8879 12.5966 22.9817 12.3247L23.1231 11.7623C23.6105 9.89405 24.8923 9.09812 27.4072 9.09812C28.9084 9.09812 29.4299 9.39362 29.8442 9.89882C29.9991 10.1383 30.0962 10.409 30.1283 10.6906C30.1604 10.9721 30.1266 11.2571 30.0294 11.524V11.5431Z" fill="#FF7300"/>
<path d="M44.9507 5.82384C43.2071 5.75686 41.4765 6.14334 39.9355 6.94386C39.0812 7.39347 38.3388 8.02157 37.7609 8.78352C37.1831 9.54548 36.7839 10.4226 36.592 11.3524L36.4116 12.1436C35.9925 13.8308 36.1728 15.1843 36.9429 16.1566C37.9664 17.4577 39.5748 18.0106 42.3042 18.0106C47.1781 18.0106 49.8441 16.2519 50.7556 12.482L50.9359 11.6908C51.3404 10.0465 51.1552 8.71206 50.3803 7.73502C49.3616 6.41483 47.7045 5.82384 44.9507 5.82384ZM47.2073 11.5431L47.066 12.0864C46.5786 13.8927 45.1798 14.7744 42.7575 14.7744C41.2953 14.7744 40.7689 14.4647 40.3692 13.969C40.21 13.728 40.1085 13.455 40.0722 13.1703C40.0359 12.8856 40.0658 12.5965 40.1597 12.3247L40.2961 11.7623C40.7835 9.89404 42.0702 9.0981 44.5852 9.0981C46.0815 9.0981 46.6079 9.3936 47.0221 9.8988C47.176 10.1386 47.2733 10.4088 47.307 10.6899C47.3407 10.971 47.31 11.256 47.2171 11.524L47.2073 11.5431Z" fill="#FF7300"/>
<path d="M16.3997 14.05H1.19305C1.05886 14.0497 0.928512 14.0939 0.823211 14.1752C0.717911 14.2565 0.643846 14.3703 0.613049 14.498L0.0135525 16.9525C-0.00495732 17.0351 -0.00450033 17.1207 0.0148837 17.2031C0.0342678 17.2855 0.0721019 17.3627 0.125658 17.4291C0.183647 17.5005 0.257971 17.5575 0.342632 17.5956C0.427294 17.6336 0.519923 17.6517 0.613049 17.6484H15.8197C15.9534 17.6498 16.0837 17.6066 16.1891 17.5261C16.2944 17.4456 16.3687 17.3324 16.3997 17.2051L16.9991 14.7506C17.0177 14.668 17.0172 14.5824 16.9978 14.5C16.9784 14.4176 16.9406 14.3404 16.887 14.274C16.8293 14.2021 16.7551 14.1444 16.6705 14.1055C16.5859 14.0666 16.4931 14.0476 16.3997 14.05Z" fill="#FF7300"/>
<path d="M4.43181 3.59367H14.5305L7.74119 9.10797C7.67578 9.16031 7.62242 9.22558 7.58462 9.29951C7.54682 9.37343 7.52544 9.45433 7.52187 9.53691C7.51714 9.61988 7.53081 9.70287 7.56194 9.7802C7.59306 9.85752 7.64091 9.92736 7.7022 9.98492L9.54942 11.7293C9.66048 11.8343 9.80923 11.8925 9.96369 11.8913C10.1001 11.8914 10.2325 11.8461 10.339 11.7627L24.4149 0.0525092L24.4831 8.25818e-05H5.01667C4.88143 -0.00215496 4.74951 0.0411365 4.64302 0.122702C4.53654 0.204268 4.46197 0.319151 4.43181 0.448091L3.85181 2.87876C3.8312 2.96423 3.83065 3.05314 3.85021 3.13884C3.86977 3.22454 3.90892 3.30481 3.96473 3.3736C4.02053 3.44239 4.09155 3.49792 4.17244 3.53603C4.25334 3.57415 4.34201 3.59385 4.43181 3.59367Z" fill="#FF9A00"/>
<path d="M68.2013 7.58289C67.2802 6.43427 65.8667 5.82422 63.5273 5.82422C61.1878 5.82422 59.8133 6.24363 58.3609 7.25403V6.65827C58.3609 6.53187 58.3096 6.41065 58.2182 6.32126C58.1268 6.23188 58.0028 6.18167 57.8735 6.18167H55.612C55.4831 6.1826 55.3582 6.22586 55.2575 6.30452C55.1567 6.38317 55.0859 6.49265 55.0564 6.61538L51.4984 21.29C51.4613 21.435 51.4822 21.5885 51.5569 21.7189C51.6077 21.8011 51.6791 21.8693 51.7644 21.9168C51.8498 21.9644 51.9461 21.9898 52.0443 21.9906H54.6811C54.8094 21.9899 54.9337 21.9474 55.0344 21.8696C55.1351 21.7919 55.2063 21.6835 55.2367 21.5617L56.4113 16.6717C57.4885 17.582 58.6533 18.0062 60.7248 18.0062C65.3062 18.0062 67.7676 16.0998 68.6351 12.3585L68.7813 11.6817C69.1956 9.96113 69.0007 8.58375 68.2013 7.58289ZM65.0479 11.4577L64.9066 12.0248C64.3168 14.4078 61.8701 14.7558 60.2861 14.7558C57.5908 14.7558 57.43 13.8026 57.3082 13.0495L57.7078 11.2861C58.4779 9.80386 59.9986 9.07942 62.3478 9.07942C63.81 9.07942 64.4533 9.35585 64.8773 9.89441C65.0268 10.1246 65.1199 10.3854 65.1495 10.6565C65.1791 10.9277 65.1443 11.2018 65.0479 11.4577Z" fill="#FF7300"/>
</g>
<defs>
<clipPath id="clip0_341_2083">
<rect width="69" height="22" fill="white"/>
</clipPath>
</defs>
</svg>
