<svg width="9" height="8" viewBox="0 0 9 8" fill="none" xmlns="http://www.w3.org/2000/svg">
<path d="M0.173018 0.563549L1.29541 0.0313421C1.36986 -0.00389131 1.45602 -0.00966925 1.53496 0.0152777C1.6139 0.0402247 1.67917 0.0938571 1.71643 0.164394L4.49971 4.53283L7.283 0.164394C7.32026 0.0938571 7.38553 0.0402247 7.46447 0.0152777C7.54341 -0.00966925 7.62957 -0.00389131 7.70402 0.0313421L8.82673 0.563549C8.90094 0.598824 8.95739 0.660524 8.98375 0.735154C9.01011 0.809784 9.00422 0.891273 8.96738 0.961802L4.50003 8L0.0326795 0.961802C-0.00418343 0.89131 -0.0101149 0.80985 0.016182 0.735225C0.042479 0.6606 0.0988654 0.598877 0.173018 0.563549Z" fill="#FF7300"/>
</svg>
