<svg width="736" height="648" viewBox="0 0 736 648" fill="none" xmlns="http://www.w3.org/2000/svg">
<path d="M27.6122 138.68L467.328 138.68L170.719 384.959C167.826 387.254 165.464 390.147 163.795 393.439C162.126 396.732 161.189 400.346 161.05 404.033C160.742 407.704 161.278 411.397 162.619 414.829C163.96 418.26 166.069 421.34 168.785 423.832L249.283 501.338C253.818 505.835 259.859 508.496 266.242 508.808C272.625 509.12 278.898 507.061 283.851 503.028L898.099 -18.9869L901 -21.4014L52.9943 -21.4014C47.3096 -21.2145 41.8488 -19.1437 37.4721 -15.5154C33.0955 -11.8871 30.0519 -6.90743 28.8208 -1.36103L1.5048 106.809C0.581914 110.597 0.537733 114.546 1.37563 118.354C2.21352 122.161 3.91134 125.728 6.33949 128.78C8.8784 131.96 12.1206 134.509 15.8115 136.226C19.5024 137.944 23.5416 138.784 27.6122 138.68Z" fill="#FF9B00"/>
<path d="M555.687 693.404H24.0739C20.8443 693.404 17.657 692.665 14.7527 691.244C11.8484 689.824 9.30293 687.758 7.30846 685.203C5.31399 682.649 3.92263 679.672 3.23941 676.497C2.55618 673.323 2.59895 670.034 3.36447 666.878L24.2951 578.666C25.4171 573.995 28.0704 569.839 31.8274 566.87C35.5843 563.9 40.2261 562.289 45.0046 562.297H576.627C579.856 562.298 583.043 563.036 585.948 564.457C588.852 565.878 591.397 567.943 593.392 570.498C595.386 573.052 596.778 576.029 597.461 579.204C598.144 582.378 598.102 585.668 597.336 588.823L576.405 677.035C575.283 681.708 572.628 685.864 568.87 688.834C565.111 691.804 560.467 693.414 555.687 693.404ZM45.0046 563.178C40.4115 563.172 35.9507 564.724 32.3427 567.583C28.7347 570.441 26.1902 574.439 25.1205 578.931L4.18979 667.109C3.45803 670.137 3.41952 673.293 4.07717 676.338C4.73481 679.383 6.07144 682.238 7.98623 684.687C9.90102 687.137 12.344 689.118 15.1308 690.479C17.9176 691.841 20.9755 692.549 24.0739 692.549H555.687C560.275 692.557 564.731 691.011 568.338 688.161C571.946 685.311 574.493 681.323 575.571 676.838L596.511 588.626C597.244 585.598 597.284 582.441 596.627 579.395C595.97 576.349 594.633 573.493 592.718 571.042C590.803 568.591 588.36 566.61 585.572 565.248C582.785 563.886 579.726 563.178 576.627 563.178H45.0046Z" fill="#FF7300"/>
<path d="M349.896 487.378C344.38 487.396 339.074 485.254 335.108 481.41L270.529 418.976C268.353 416.87 266.649 414.324 265.531 411.507C264.412 408.69 263.904 405.666 264.041 402.637C264.177 399.608 264.956 396.643 266.324 393.939C267.692 391.234 269.618 388.853 271.975 386.953L508.885 189.42H157.258C154.046 189.421 150.875 188.695 147.983 187.294C145.091 185.894 142.552 183.856 140.556 181.333C138.561 178.81 137.16 175.867 136.459 172.724C135.758 169.582 135.775 166.321 136.508 163.186L156.858 76.2234C157.943 71.5256 160.585 67.3355 164.352 64.3375C168.119 61.3396 172.789 59.7109 177.599 59.7175H859.118L855.827 62.4969L363.281 482.655C359.485 485.709 354.764 487.375 349.896 487.378ZM177.599 60.5701C172.985 60.5634 168.505 62.1242 164.89 64.9979C161.275 67.8717 158.737 71.8887 157.691 76.3939L137.341 163.357C136.638 166.366 136.622 169.496 137.295 172.512C137.967 175.529 139.312 178.354 141.227 180.776C143.143 183.198 145.579 185.155 148.355 186.499C151.131 187.844 154.175 188.542 157.258 188.542H511.241L510.339 189.292L272.519 387.609C270.254 389.432 268.401 391.718 267.086 394.315C265.77 396.912 265.021 399.76 264.889 402.67C264.757 405.579 265.245 408.484 266.32 411.189C267.396 413.895 269.033 416.34 271.125 418.362L335.695 480.796C339.288 484.254 344.014 486.283 348.99 486.504C353.966 486.725 358.853 485.124 362.737 481.998L855.274 61.849L856.779 60.5701H177.599Z" fill="#FF7300"/>
</svg>
