<svg xmlns="http://www.w3.org/2000/svg" width="48" height="34.758" viewBox="0 0 48 34.758">
  <path id="Cartão" d="M407.762,418.11h-44.69a1.655,1.655,0,0,0-1.655,1.655v31.448a1.655,1.655,0,0,0,1.655,1.655h44.69a1.655,1.655,0,0,0,1.655-1.655V419.765A1.655,1.655,0,0,0,407.762,418.11Zm-3.31,29.793H366.383v-14.9h38.069Zm0-19.862H366.383v-4.965h38.069ZM370.52,444.593h16.552a.828.828,0,0,0,.828-.828v-3.31a.828.828,0,0,0-.828-.828H370.52a.828.828,0,0,0-.828.828v3.31A.828.828,0,0,0,370.52,444.593Z" transform="translate(-361.417 -418.11)" fill="#ff0662"/>
</svg>
