<svg width="1174" height="900" viewBox="0 0 1174 900" fill="none" xmlns="http://www.w3.org/2000/svg">
<path d="M-311.274 865.171L212.659 534.998L42.2192 1047.47C40.4981 1052.35 39.8389 1057.53 40.2855 1062.66C40.732 1067.79 42.2741 1072.76 44.809 1077.22C47.344 1081.69 50.8135 1085.56 54.9865 1088.57C59.1595 1091.58 63.9403 1093.67 69.0102 1094.68L222.386 1125.6C231.077 1127.33 240.141 1125.86 247.889 1121.44C255.636 1117.03 261.538 1109.98 264.493 1101.62L608.918 26.2031L610.581 21.0012L-399.773 657.709C-406.786 662.094 -412.12 668.7 -414.902 676.445C-417.684 684.19 -417.749 692.615 -415.085 700.338L-365.071 846.679C-363.315 851.847 -360.401 856.539 -356.547 860.404C-352.693 864.269 -347.999 867.207 -342.817 868.997C-337.635 870.786 -332.099 871.382 -326.624 870.739C-321.149 870.096 -315.877 868.231 -311.203 865.284" fill="#FFB400"/>
</svg>
