<svg width="47" height="28" viewBox="0 0 47 28" fill="none" xmlns="http://www.w3.org/2000/svg">
<path d="M2.08572 25.9994C2.05688 25.9994 2.03766 25.9806 2.03766 25.9524V25.6894H6.43009V2.00073H40.5315V25.6988H44.9528V25.9618C44.9528 25.99 44.9336 26.0088 44.9047 26.0088H2.08572V25.9994ZM40.2143 25.6894V2.3107H6.75688V25.6894H34.6301H40.2143Z" fill="black"/>
<path d="M41.1082 0H5.86299C5.05562 0 4.39243 0.638712 4.39243 1.4371V23.6981H0V25.9618C0 27.0889 0.932311 28 2.08569 28H44.9143C46.0677 28 47 27.0889 47 25.9618V23.6981H42.5787V1.4371C42.5787 0.638712 41.9155 0 41.1082 0ZM8.79448 23.6981V4.30191H38.1671V23.6887H35.9853V6.26501C35.9853 5.95505 35.7258 5.71083 35.4182 5.71083H33.1499C32.8327 5.71083 32.5828 5.96444 32.5828 6.26501V23.6887H30.5933V12.9245C30.5933 12.6146 30.3434 12.3703 30.0262 12.3703H27.7579C27.4407 12.3703 27.1908 12.624 27.1908 12.9245V23.6981H25.2012V15.1412C25.2012 14.8313 24.9417 14.5871 24.6341 14.5871H22.3658C22.0487 14.5871 21.7988 14.8407 21.7988 15.1412V23.6981H19.8092V11.8162C19.8092 11.5062 19.5593 11.262 19.2421 11.262H16.9738C16.6566 11.262 16.4067 11.5062 16.4067 11.8162V23.6981H14.4172V16.8132C14.4172 16.5032 14.1673 16.259 13.8501 16.259H11.5818C11.2646 16.259 11.0147 16.5032 11.0147 16.8132V23.6981H8.79448Z" fill="black"/>
</svg>
