<svg width="39" height="43" viewBox="0 0 39 43" fill="none" xmlns="http://www.w3.org/2000/svg">
<path d="M38.3698 22.0043C38.2252 20.492 37.9051 19.0415 37.4198 17.6526C36.6248 18.5374 35.6852 19.2884 34.6423 19.885C34.8178 20.5743 34.952 21.2841 35.045 22.0043H28.0133C27.9926 21.7574 27.9616 21.5207 27.9307 21.2841C26.6813 21.1504 25.4835 20.8109 24.389 20.2965C24.5232 20.8521 24.6265 21.4282 24.6884 22.0043H13.8466C14.2699 18.4756 15.8807 15.2968 18.2556 12.8793C18.0388 12.0151 17.9252 11.1201 17.9252 10.1942C17.9252 8.20874 18.4518 6.3467 19.3604 4.73157C19.3191 4.73157 19.2675 4.73157 19.2262 4.73157C17.3986 4.73157 15.6226 4.98875 13.9395 5.46198C11.9157 6.03808 10.0261 6.93309 8.33273 8.09558C3.77916 11.2127 0.650511 16.233 0.0929301 22.0043C0.0309767 22.6112 0 23.2285 0 23.856C0 24.3395 0.0206511 24.823 0.0516278 25.2962C0.505953 31.3144 3.75851 36.561 8.51859 39.7399C10.2223 40.8818 12.1222 41.7562 14.1564 42.3015C15.7671 42.7438 17.4709 42.9701 19.2262 42.9701C20.9919 42.9701 22.7059 42.7335 24.3374 42.2912C26.3508 41.7356 28.2404 40.8715 29.9338 39.7399C34.7042 36.561 37.9568 31.3144 38.4008 25.2962C38.4318 24.823 38.4524 24.3395 38.4524 23.856C38.4627 23.2285 38.4318 22.6112 38.3698 22.0043ZM13.9705 8.91857C14.8378 9.20662 15.6742 9.57697 16.4693 10.009C13.1857 13.085 10.9967 17.2926 10.5218 22.0145H3.40744C4.13023 15.9244 8.32241 10.8835 13.9705 8.91857ZM14.146 38.8552C8.2811 36.8902 3.94437 31.6231 3.36613 25.2962H10.4804C10.8315 30.224 13.0722 34.6373 16.4693 37.8264C15.7258 38.2276 14.9514 38.5671 14.146 38.8552ZM19.2675 35.9026C16.2111 33.2793 14.1564 29.5244 13.795 25.2962H24.7504C24.3787 29.5244 22.3239 33.2793 19.2675 35.9026ZM24.358 38.8346C23.5629 38.5568 22.7988 38.2173 22.0657 37.8161C25.4732 34.627 27.7035 30.2137 28.0546 25.286H35.0863C34.5184 31.6128 30.192 36.8594 24.358 38.8346ZM34.9314 15.1939C35.0037 15.1116 35.0759 15.0191 35.1482 14.9265C35.0863 15.0191 35.014 15.1116 34.9314 15.1939ZM33.713 16.3358C33.5994 16.4181 33.4961 16.4902 33.3825 16.5725C33.4858 16.4902 33.5994 16.4181 33.713 16.3358Z" fill="black"/>
<path d="M34.9315 15.1946C35.0037 15.1123 35.076 15.0197 35.1483 14.9271C35.0863 15.0197 35.0141 15.1123 34.9315 15.1946ZM33.713 16.3365C33.5995 16.4188 33.4962 16.4908 33.3826 16.5731C33.4859 16.4908 33.5995 16.4188 33.713 16.3365Z" fill="black"/>
<path d="M34.9315 15.1946C35.0037 15.1123 35.076 15.0197 35.1483 14.9271C35.0863 15.0197 35.0141 15.1123 34.9315 15.1946ZM33.713 16.3365C33.5995 16.4188 33.4962 16.4908 33.3826 16.5731C33.4859 16.4908 33.5995 16.4188 33.713 16.3365Z" fill="black"/>
<path d="M29.118 0.349609C25.6589 0.349609 22.6129 2.12934 20.8472 4.80409C19.825 6.3575 19.2261 8.20925 19.2261 10.1947C19.2261 10.8223 19.288 11.4498 19.4016 12.0465C19.9179 14.7727 21.5803 17.0976 23.8519 18.5276C24.9981 19.2477 26.2888 19.7415 27.6827 19.937C28.1474 20.009 28.6223 20.0399 29.1076 20.0399C30.9869 20.0399 32.7526 19.5152 34.2498 18.5996C35.2617 17.9824 36.1497 17.1902 36.8828 16.2643C38.2045 14.5875 38.9995 12.4786 38.9995 10.1844C38.9995 4.76294 34.5699 0.349609 29.118 0.349609ZM35.7057 14.1348C35.685 14.1657 35.6747 14.1863 35.654 14.2171C35.6437 14.2274 35.6437 14.2377 35.6334 14.248C35.6024 14.2994 35.5714 14.3509 35.5405 14.392C35.5095 14.4332 35.4785 14.4846 35.4475 14.5258C35.4372 14.5463 35.4166 14.5669 35.3959 14.5978C35.3856 14.6184 35.3649 14.6389 35.3546 14.6595C35.3236 14.7007 35.2823 14.7521 35.2513 14.7932C35.2204 14.8344 35.1791 14.8858 35.1481 14.927C35.0758 15.0196 35.0035 15.1019 34.9313 15.1944C34.9209 15.2047 34.9106 15.215 34.9003 15.2253C34.89 15.2356 34.8796 15.2562 34.859 15.2665C34.8383 15.2973 34.8177 15.3179 34.7867 15.3385C34.7454 15.3796 34.7041 15.4311 34.6628 15.4722C34.5802 15.5648 34.4873 15.6471 34.4047 15.7294C34.3737 15.7603 34.3427 15.7911 34.3117 15.822C34.2911 15.8426 34.2807 15.8528 34.2601 15.8734C34.2188 15.9043 34.1878 15.9351 34.1465 15.9763C34.1052 16.0174 34.0639 16.0483 34.0226 16.0792C33.9916 16.11 33.9503 16.1409 33.909 16.1718C33.8367 16.2232 33.7748 16.2849 33.7025 16.3364C33.5889 16.4187 33.4857 16.501 33.3721 16.573L33.3618 16.5833C33.3514 16.5935 33.3411 16.5935 33.3411 16.6038C33.3411 16.6038 33.3411 16.6038 33.3308 16.6038C33.2688 16.645 33.2069 16.6861 33.1346 16.7273C33.114 16.7479 33.083 16.7581 33.0623 16.7787C33.0623 16.7787 33.0623 16.7787 33.052 16.7787C33.0107 16.7993 32.9694 16.8302 32.9281 16.8507C32.8352 16.9022 32.7422 16.9536 32.6493 17.005C32.608 17.0256 32.5564 17.0565 32.5151 17.0771C32.4738 17.0976 32.4428 17.1182 32.4015 17.1285C32.3499 17.1594 32.2879 17.1799 32.226 17.2108C32.1847 17.2314 32.1537 17.2417 32.1124 17.2622C32.0814 17.2725 32.0504 17.2931 32.0091 17.3034C31.9265 17.3342 31.8439 17.3754 31.751 17.4063C31.72 17.4165 31.689 17.4268 31.6581 17.4371C31.6168 17.4474 31.5858 17.468 31.5445 17.4783C31.5032 17.4886 31.4722 17.5091 31.4309 17.5194C31.3896 17.5297 31.3586 17.54 31.3173 17.5503C31.2657 17.5709 31.2141 17.5811 31.1624 17.5914C31.1418 17.6017 31.1211 17.6017 31.1005 17.612C31.0592 17.6223 31.0179 17.6326 30.9766 17.6429C30.8733 17.6737 30.7701 17.6943 30.6668 17.7149C30.6461 17.7252 30.6255 17.7252 30.5945 17.7252C30.5842 17.7252 30.5739 17.7252 30.5739 17.7355C30.5326 17.7457 30.4913 17.756 30.4396 17.756C30.2641 17.7869 30.0782 17.8178 29.9027 17.828C29.8717 17.828 29.8408 17.8383 29.8201 17.8383C29.7272 17.8486 29.6239 17.8589 29.531 17.8589C29.5 17.8589 29.4587 17.8589 29.4277 17.8692C29.4174 17.8692 29.4174 17.8692 29.4071 17.8692C29.3864 17.8692 29.3658 17.8692 29.3555 17.8692C29.3348 17.8692 29.3245 17.8692 29.3038 17.8692C29.2935 17.8692 29.2832 17.8692 29.2728 17.8692C29.2109 17.8692 29.1489 17.8692 29.087 17.8692C28.9631 17.8692 28.8392 17.8692 28.7153 17.8589C28.6636 17.8589 28.612 17.8486 28.5604 17.8486C28.4881 17.8486 28.4262 17.8383 28.3539 17.828C28.3126 17.828 28.2713 17.8178 28.23 17.8178C28.2196 17.8178 28.2196 17.8178 28.2093 17.8178C28.1783 17.8178 28.137 17.8075 28.1061 17.8075C28.0441 17.7972 27.9822 17.7869 27.9099 17.7766C27.7963 17.756 27.6724 17.7355 27.5588 17.7149C27.5382 17.7149 27.5175 17.7046 27.4969 17.7046C27.4452 17.6943 27.3936 17.684 27.342 17.6737C27.2903 17.6634 27.2387 17.6532 27.1871 17.6326C27.1561 17.6223 27.1355 17.6223 27.1045 17.612C27.0632 17.6017 27.0219 17.5914 26.9806 17.5811C26.8154 17.54 26.6605 17.4886 26.5056 17.4268C26.4643 17.4165 26.423 17.396 26.3817 17.3857C26.3301 17.3651 26.2784 17.3445 26.2268 17.324C26.1752 17.3034 26.1236 17.2828 26.0719 17.2622C25.979 17.2211 25.8861 17.1799 25.8035 17.1388C25.7622 17.1182 25.7209 17.0976 25.6796 17.0771C25.6279 17.0565 25.5866 17.0256 25.535 17.005C25.4421 16.9536 25.3491 16.9022 25.2562 16.8507C25.2149 16.8199 25.1633 16.7993 25.122 16.7684C25.091 16.7479 25.06 16.7273 25.029 16.7067C25.0187 16.6964 24.9981 16.6861 24.9877 16.6758C24.9568 16.6553 24.9258 16.645 24.9051 16.6244C24.9051 16.6244 24.8948 16.6244 24.8948 16.6141C24.8535 16.5935 24.8225 16.5627 24.7812 16.5421C24.678 16.4701 24.5747 16.3981 24.4715 16.3261C24.4405 16.2952 24.3992 16.2746 24.3682 16.2438C24.3166 16.2129 24.2753 16.1718 24.234 16.1306C24.2133 16.11 24.1823 16.0895 24.1617 16.0689C24.1307 16.038 24.0894 16.0072 24.0584 15.9763C24.0171 15.9351 23.9655 15.894 23.9242 15.8528C23.8932 15.822 23.8623 15.8014 23.8416 15.7705C23.8106 15.7397 23.7796 15.7088 23.7487 15.6882C23.5525 15.4928 23.3563 15.2973 23.1808 15.0813C23.1704 15.071 23.1498 15.0504 23.1395 15.0401C23.0775 14.9681 23.0259 14.9064 22.9743 14.8344C22.9433 14.8035 22.9226 14.7624 22.8916 14.7315C22.8607 14.6904 22.8297 14.6492 22.7987 14.6081C22.7987 14.6081 22.7987 14.5978 22.7884 14.5978C22.7677 14.5669 22.7368 14.5258 22.7161 14.4949C22.6851 14.4538 22.6542 14.4126 22.6335 14.3612C22.6129 14.3406 22.6025 14.3097 22.5819 14.2892C22.458 14.0937 22.3444 13.8982 22.2411 13.7028C22.2205 13.6513 22.1895 13.6102 22.1689 13.5587C22.1482 13.5176 22.1276 13.4662 22.1069 13.4147C22.0863 13.3736 22.0656 13.3221 22.045 13.2707C21.983 13.1267 21.921 12.9826 21.8694 12.8386C21.8591 12.8078 21.8488 12.7769 21.8384 12.7563C21.8281 12.7357 21.8281 12.7255 21.8178 12.7049C21.8075 12.674 21.7971 12.6329 21.7765 12.602C21.7455 12.5094 21.7145 12.4271 21.6939 12.3345C21.6836 12.3037 21.6732 12.2831 21.6732 12.2522C21.6629 12.2111 21.6526 12.1802 21.6423 12.1391C21.6319 12.1185 21.6319 12.0979 21.6216 12.0773C21.6113 12.0362 21.601 11.995 21.5906 11.9436C21.5803 11.9127 21.5803 11.8922 21.57 11.8613C21.57 11.851 21.5597 11.8407 21.5597 11.8304V11.8202C21.5493 11.7893 21.5493 11.7584 21.539 11.7276C21.5184 11.635 21.4977 11.5321 21.4874 11.4395C21.477 11.3984 21.477 11.3572 21.4667 11.3161C21.4461 11.2132 21.4357 11.1 21.4254 10.9972C21.4254 10.9663 21.4151 10.9354 21.4151 10.9046C21.4048 10.8223 21.3944 10.7297 21.3944 10.6371C21.3944 10.5959 21.3944 10.5548 21.3841 10.5136C21.3841 10.4622 21.3841 10.4211 21.3738 10.3696C21.3738 10.3079 21.3738 10.2462 21.3738 10.1844C21.3738 10.061 21.3738 9.93754 21.3841 9.8141C21.3841 9.80381 21.3841 9.78323 21.3841 9.77295C21.3841 9.75237 21.3841 9.74208 21.3841 9.72151C21.3841 9.68036 21.3944 9.63921 21.3944 9.59806C21.3944 9.54662 21.4048 9.50547 21.4048 9.45403C21.4048 9.41288 21.4151 9.36145 21.4151 9.3203C21.4254 9.238 21.4357 9.14541 21.4461 9.06311C21.4461 9.04253 21.4564 9.01167 21.4564 8.9911C21.4667 8.93966 21.477 8.88822 21.4874 8.83678C21.4977 8.77506 21.508 8.71333 21.5183 8.65161C21.5287 8.58988 21.5493 8.52816 21.5597 8.46643C21.57 8.42529 21.5803 8.38413 21.5906 8.34298V8.3327C21.601 8.30183 21.6113 8.27097 21.6113 8.22982C21.6216 8.17838 21.6423 8.12695 21.6526 8.07551C21.7042 7.90062 21.7558 7.73602 21.8178 7.57142C21.8281 7.56114 21.8281 7.54056 21.8384 7.53027C21.8591 7.46855 21.8797 7.41711 21.9004 7.36567C21.9417 7.27309 21.983 7.17021 22.0243 7.07762C22.045 7.02619 22.0656 6.97475 22.0966 6.92331C22.1069 6.89245 22.1172 6.87187 22.1379 6.84101C22.1585 6.78957 22.1895 6.73814 22.2102 6.6867C22.2824 6.54268 22.365 6.39865 22.4476 6.26491C22.4683 6.23405 22.489 6.1929 22.5096 6.16204C22.5096 6.16204 22.5096 6.16204 22.5096 6.15175C22.5406 6.10031 22.5716 6.05916 22.6025 6.00773C22.6025 6.00773 22.6025 6.00773 22.6025 5.99744C22.6129 5.97686 22.6232 5.95629 22.6438 5.93571C22.6851 5.88428 22.7161 5.82255 22.7574 5.77111C22.7677 5.75054 22.7781 5.74025 22.7884 5.71968C22.8194 5.67853 22.84 5.63738 22.871 5.60651C22.8916 5.58594 22.902 5.56536 22.9226 5.5345C23.0259 5.40076 23.1291 5.26703 23.2427 5.14358C23.2737 5.10243 23.315 5.06128 23.3563 5.02013C23.4389 4.93783 23.5112 4.84524 23.6041 4.76294C23.6248 4.74237 23.6351 4.73208 23.6557 4.72179C23.697 4.68064 23.728 4.64978 23.7693 4.60863C23.8829 4.49547 24.0068 4.39259 24.1307 4.28972C24.1617 4.25885 24.1927 4.23828 24.2236 4.2177C24.265 4.18684 24.3063 4.15598 24.3476 4.12512C24.4302 4.06339 24.5128 4.00167 24.5954 3.93994C24.6263 3.91937 24.647 3.89879 24.678 3.87822L24.6883 3.86793C24.7606 3.81649 24.8432 3.76505 24.9155 3.71362C24.9568 3.68275 25.0084 3.66218 25.0497 3.63132C25.1116 3.59017 25.1736 3.5593 25.2356 3.51815C25.2872 3.48729 25.3285 3.46672 25.3801 3.43585C25.4214 3.41528 25.4524 3.3947 25.4937 3.37413C25.5247 3.35355 25.5556 3.34327 25.5866 3.32269C25.5969 3.32269 25.5969 3.3124 25.6073 3.3124C25.6486 3.29183 25.6899 3.27126 25.7209 3.25068C25.8344 3.18896 25.9583 3.13752 26.0822 3.08608C26.1339 3.06551 26.1855 3.04493 26.2371 3.02436C26.2784 3.00378 26.3301 2.99349 26.3714 2.97292C26.4023 2.96263 26.4333 2.95234 26.4643 2.94206C26.5366 2.91119 26.6089 2.89062 26.6915 2.87004C26.7431 2.84947 26.805 2.83918 26.8567 2.81861C26.9186 2.79803 26.9909 2.77746 27.0529 2.76717C27.0942 2.75688 27.1251 2.74659 27.1664 2.73631C27.2181 2.72602 27.2697 2.71573 27.3213 2.69516C27.3729 2.68487 27.4142 2.67458 27.4659 2.66429C27.5898 2.64372 27.7034 2.61286 27.8273 2.59228C27.8582 2.58199 27.8995 2.58199 27.9305 2.57171C27.9409 2.57171 27.9512 2.57171 27.9615 2.57171C27.9822 2.57171 28.0131 2.56142 28.0338 2.56142C28.0544 2.56142 28.0751 2.55113 28.0957 2.55113C28.1267 2.55113 28.1577 2.54084 28.1887 2.54084C28.199 2.54084 28.2093 2.54084 28.2196 2.54084C28.2506 2.54084 28.2816 2.53056 28.3126 2.53056C28.4365 2.52027 28.5604 2.50998 28.674 2.49969C28.7979 2.48941 28.9218 2.48941 29.0457 2.48941C33.2895 2.48941 36.7382 5.92543 36.7382 10.1536C36.7382 10.2873 36.7382 10.4108 36.7279 10.5445C36.7279 10.5651 36.7279 10.5959 36.7279 10.6165V10.6268C36.7279 10.668 36.7176 10.7091 36.7176 10.7503C36.7176 10.8017 36.7073 10.8531 36.7073 10.9046C36.7073 10.9457 36.6969 10.9869 36.6969 11.0383C36.6969 11.0795 36.6866 11.1206 36.6866 11.1618C36.6866 11.172 36.6866 11.1823 36.6866 11.1823C36.6866 11.2132 36.6763 11.2543 36.6763 11.2852C36.6763 11.2955 36.6763 11.3058 36.666 11.3264C36.666 11.3366 36.666 11.3572 36.6556 11.3675C36.6453 11.4189 36.635 11.4704 36.6247 11.5218C36.6143 11.5835 36.604 11.6453 36.5937 11.707C36.573 11.8202 36.542 11.9333 36.5111 12.0465C36.5111 12.0671 36.5007 12.0876 36.5007 12.1082C36.4904 12.1596 36.4698 12.2111 36.4594 12.2625C36.4388 12.3242 36.4285 12.386 36.4078 12.4477C36.3872 12.5094 36.3665 12.5711 36.3459 12.6226C36.3252 12.6637 36.3149 12.7152 36.2942 12.7666C36.2839 12.7975 36.2736 12.8283 36.2529 12.8695C36.222 12.9518 36.191 13.0444 36.1497 13.1267C36.1497 13.137 36.1393 13.1472 36.1393 13.1575C36.098 13.2398 36.0671 13.3324 36.0258 13.4147C35.9948 13.4764 35.9638 13.5382 35.9432 13.5896C35.9328 13.6205 35.9122 13.6513 35.9019 13.6822C35.8399 13.8056 35.778 13.9188 35.7057 14.0423C35.7367 14.0834 35.7263 14.1143 35.7057 14.1348Z" fill="black"/>
<path d="M33.713 16.3364C33.5995 16.4187 33.4962 16.501 33.3826 16.573C33.4859 16.4907 33.5995 16.4187 33.713 16.3364Z" fill="black"/>
<path d="M35.1589 14.9271C35.0866 15.0197 35.0144 15.102 34.9421 15.1946C35.0144 15.1123 35.0866 15.0197 35.1589 14.9271Z" fill="black"/>
<path d="M32.041 10.2559V13.0541C32.041 13.1467 31.9997 13.2393 31.9378 13.3113L31.4835 13.764L31.1427 14.1035C31.0704 14.1755 30.9775 14.2063 30.8846 14.2063H30.2134V15.2968C30.2134 15.5026 30.0482 15.6569 29.852 15.6569H28.3858C28.1793 15.6569 28.0244 15.4923 28.0244 15.2968V14.2063H26.9299C26.7234 14.2063 26.5685 14.0417 26.5685 13.8463V12.3855C26.5685 12.1797 26.7337 12.0254 26.9299 12.0254H29.8623V11.295H27.3636C27.2706 11.295 27.1777 11.2538 27.1054 11.1921L26.3103 10.4C26.2381 10.328 26.2071 10.2354 26.2071 10.1428V7.34459C26.2071 7.252 26.2484 7.15941 26.3103 7.0874L27.0331 6.36728L27.1054 6.29526C27.1777 6.22325 27.2706 6.19239 27.3636 6.19239H28.0347V5.09163C28.0347 4.88588 28.1999 4.73157 28.3961 4.73157H29.8623C30.0689 4.73157 30.2237 4.89617 30.2237 5.09163V6.1821H31.3182C31.5248 6.1821 31.6796 6.3467 31.6796 6.54216V8.00299C31.6796 8.20874 31.5144 8.36305 31.3182 8.36305H28.3858V9.09346H30.8846C30.9775 9.09346 31.0704 9.13461 31.1427 9.19634L31.9378 9.98847C32.0101 10.0708 32.041 10.1634 32.041 10.2559Z" fill="black"/>
</svg>
