<svg width="40" height="40" viewBox="0 0 40 40" fill="none" xmlns="http://www.w3.org/2000/svg">
<path d="M38.6642 13.9981H34.826L37.2154 11.6087C37.7328 11.0913 37.7328 10.2446 37.2154 9.72719L30.2728 2.78457C29.7554 2.26717 28.9087 2.26717 28.3913 2.78457L26.0019 5.17404V1.33584C26.0019 0.592662 25.3998 0 24.666 0H15.334C14.6002 0 13.9981 0.592662 13.9981 1.33584V5.17404L11.6087 2.78457C11.0913 2.26717 10.2446 2.26717 9.72719 2.78457L2.78457 9.72719C2.26717 10.2446 2.26717 11.0913 2.78457 11.6087L5.17404 13.9981H1.33584C0.592662 13.9981 0 14.6002 0 15.334V24.666C0 25.3998 0.592662 26.0019 1.33584 26.0019H5.17404L2.78457 28.3913C2.26717 28.9087 2.26717 29.7554 2.78457 30.2728L9.72719 37.2154C10.2446 37.7328 11.0913 37.7328 11.6087 37.2154L13.9981 34.826V38.6642C13.9981 39.3979 14.5908 40 15.334 40H24.666C25.3998 40 26.0019 39.4073 26.0019 38.6642V34.826L28.3913 37.2154C28.9087 37.7328 29.7554 37.7328 30.2728 37.2154L37.2154 30.2728C37.7328 29.7554 37.7328 28.9087 37.2154 28.3913L34.826 26.0019H38.6642C39.3979 26.0019 40 25.4092 40 24.666V15.334C40 14.6002 39.4073 13.9981 38.6642 13.9981ZM36.0019 22.0038H33.1232C32.8504 22.0038 32.5964 22.1731 32.5024 22.4271L30.7432 27.0085C30.6491 27.2531 30.7055 27.5353 30.8937 27.7234L32.5024 29.3321L29.3321 32.5024L27.7234 30.8937C27.5353 30.7055 27.2625 30.6491 27.0085 30.7432L22.4271 32.5024C22.1731 32.6058 22.0038 32.8504 22.0038 33.1232V36.0019H18.0056V33.1232C18.0056 32.8504 17.8363 32.5964 17.5823 32.5024L13.0009 30.7432C12.7563 30.6491 12.4741 30.7055 12.286 30.8937L10.6773 32.5024L7.50706 29.3321L9.11571 27.7234C9.30386 27.5353 9.3603 27.2625 9.26623 27.0085L7.50706 22.4271C7.40357 22.1731 7.15898 22.0038 6.88617 22.0038H3.99812V18.0056H6.87676C7.14958 18.0056 7.40357 17.8363 7.49765 17.5823L9.25682 13.0009C9.35089 12.7563 9.29445 12.4741 9.1063 12.286L7.49765 10.6773L10.6679 7.50706L12.2766 9.11571C12.4647 9.30386 12.7375 9.3603 12.9915 9.26623L17.5729 7.50706C17.8269 7.40357 17.9962 7.15898 17.9962 6.88617V3.99812H21.9944V6.87676C21.9944 7.14958 22.1637 7.40357 22.4177 7.49765L26.9991 9.25682C27.2437 9.35089 27.5259 9.29445 27.714 9.1063L29.3227 7.49765L32.4929 10.6679L30.8843 12.2766C30.6961 12.4647 30.6397 12.7375 30.7338 12.9915L32.4929 17.5729C32.5964 17.8269 32.841 17.9962 33.1138 17.9962H35.9925V22.0038H36.0019Z" fill="#FF9B00"/>
<path d="M20 15.3339C22.5776 15.3339 24.666 17.4318 24.666 20C24.666 22.5682 22.5682 24.666 20 24.666C17.4318 24.666 15.334 22.5776 15.334 20C15.334 17.4224 17.4224 15.3339 20 15.3339ZM20 11.3358C15.2117 11.3358 11.3358 15.2116 11.3358 20C11.3358 24.7883 15.2117 28.6641 20 28.6641C24.7883 28.6641 28.6642 24.7883 28.6642 20C28.6642 15.2116 24.7883 11.3358 20 11.3358Z" fill="#FF9B00"/>
</svg>
