<svg width="62" height="65" viewBox="0 0 62 65" fill="none" xmlns="http://www.w3.org/2000/svg">
<path d="M61.0865 29.7816H48.3237C47.822 29.7816 47.4103 30.189 47.4103 30.6856V34.2889C47.4103 34.7855 47.822 35.1929 48.3237 35.1929H61.0865C61.5883 35.1929 62 34.7855 62 34.2889V30.6856C62 30.1763 61.5883 29.7816 61.0865 29.7816ZM14.5897 34.2889V30.6856C14.5897 30.189 14.178 29.7816 13.6763 29.7816H0.913468C0.411704 29.7816 0 30.189 0 30.6856V34.2889C0 34.7855 0.411704 35.1929 0.913468 35.1929H13.6763C14.178 35.1929 14.5897 34.7855 14.5897 34.2889ZM29.1795 13.5348H32.8205C33.3223 13.5348 33.734 13.1273 33.734 12.6308V0.904016C33.734 0.407444 33.3223 0 32.8205 0H29.1795C28.6777 0 28.266 0.407444 28.266 0.904016V12.6308C28.266 13.1273 28.6777 13.5348 29.1795 13.5348ZM32.8205 51.427H29.1795C28.6777 51.427 28.266 51.8345 28.266 52.331V64.096C28.266 64.5926 28.6777 65 29.1795 65H32.8205C33.3223 65 33.734 64.5926 33.734 64.096V52.331C33.734 51.8345 33.3223 51.427 32.8205 51.427ZM43.8979 22.2693C44.2581 22.6259 44.8371 22.6259 45.1845 22.2693L54.2162 13.331C54.5765 12.9745 54.5765 12.4016 54.2162 12.0578L51.6431 9.51126C51.2828 9.15475 50.7039 9.15475 50.3565 9.51126L41.3248 18.4496C40.9645 18.8061 40.9645 19.379 41.3248 19.7228L43.8979 22.2693ZM18.1021 42.6925C17.7419 42.3359 17.1629 42.3359 16.8155 42.6925L7.78377 51.6308C7.42353 51.9873 7.42353 52.5602 7.78377 52.904L10.3569 55.4505C10.7172 55.807 11.2961 55.807 11.6435 55.4505L20.6752 46.5122C21.0355 46.1557 21.0355 45.5828 20.6752 45.239L18.1021 42.6925ZM45.1845 42.6925C44.8242 42.3359 44.2453 42.3359 43.8979 42.6925L41.3248 45.239C40.9645 45.5955 40.9645 46.1685 41.3248 46.5122L50.3565 55.4505C50.7167 55.807 51.2957 55.807 51.6431 55.4505L54.2162 52.904C54.5765 52.5475 54.5765 51.9745 54.2162 51.6308L45.1845 42.6925ZM11.6564 9.51126C11.2961 9.15475 10.7172 9.15475 10.3698 9.51126L7.79664 12.0578C7.4364 12.4143 7.4364 12.9873 7.79664 13.331L16.8284 22.2693C17.1886 22.6259 17.7676 22.6259 18.115 22.2693L20.6881 19.7228C21.0484 19.3663 21.0484 18.7933 20.6881 18.4496L11.6564 9.51126ZM36.0498 30.0362C35.8825 29.8707 35.651 29.7689 35.4065 29.7689H29.1795V27.9608H36.4744C36.9761 27.9608 37.3878 27.5534 37.3878 27.0568V23.4535C37.3878 22.9569 36.9761 22.5495 36.4744 22.5495H33.734V20.7542C33.734 20.2576 33.3223 19.8501 32.8205 19.8501H29.1795C28.6777 19.8501 28.266 20.2576 28.266 20.7542V22.5622H26.5935C26.349 22.5622 26.1175 22.6513 25.9502 22.8296L23.9689 24.7904C23.8016 24.9559 23.6987 25.1851 23.6987 25.427V32.3408C23.6987 32.5828 23.7888 32.8119 23.9689 32.9775L25.9502 34.9383C26.1175 35.1038 26.349 35.2057 26.5935 35.2057H32.8205V37.0137H25.5256C25.0239 37.0137 24.6122 37.4212 24.6122 37.9177V41.5083C24.6122 42.0049 25.0239 42.4123 25.5256 42.4123H28.266V44.2204C28.266 44.7169 28.6777 45.1244 29.1795 45.1244H32.8205C33.3223 45.1244 33.734 44.7169 33.734 44.2204V42.4123H35.4065C35.651 42.4123 35.8825 42.3232 36.0498 42.145L38.0311 40.1841C38.1984 40.0186 38.3013 39.7894 38.3013 39.5475V32.6337C38.3013 32.3918 38.2113 32.1626 38.0311 31.9971L36.0498 30.0362Z" fill="#FF9B00"/>
</svg>
