<svg xmlns="http://www.w3.org/2000/svg" width="78" height="71" viewBox="0 0 78 71">
  <g id="Group_1612" data-name="Group 1612" transform="translate(-400 -3481)">
    <rect id="Rectangle_165" data-name="Rectangle 165" width="78" height="71" transform="translate(400 3481)" fill="none"/>
    <path id="Pagamento-Aceito" d="M426.016,392.112l-14.122,14.122-7.606-7.606a.931.931,0,0,0-1.316,0l-2.633,2.633a.931.931,0,0,0,0,1.316l10.239,10.239a1.862,1.862,0,0,0,2.633,0l3.338-3.338v16.529H381.176V404.6h13.962a.931.931,0,0,0,.931-.931v-3.723a.931.931,0,0,0-.931-.931H377.453a1.862,1.862,0,0,0-1.862,1.862V429.73a1.862,1.862,0,0,0,1.862,1.862h42.818a1.862,1.862,0,0,0,1.862-1.862V403.893l7.832-7.832a.931.931,0,0,0,0-1.316l-2.633-2.633A.931.931,0,0,0,426.016,392.112Zm-42.047,16.21v5.585h7.447v-5.585Zm0,13.962h26.063V416.7H383.968Z" transform="translate(37.409 3104.161)" fill="#ff9b00"/>
  </g>
</svg>
