<svg xmlns="http://www.w3.org/2000/svg" width="78" height="71" viewBox="0 0 78 71">
  <g id="Group_1615" data-name="Group 1615" transform="translate(-1157 -3481)">
    <path id="Customização" d="M408.7,396.544a12.151,12.151,0,1,0,12.151,12.151A12.151,12.151,0,0,0,408.7,396.544Zm0,18.694a6.543,6.543,0,1,1,6.543-6.543A6.55,6.55,0,0,1,408.7,415.238Zm-39.257,4.673h22.433V397.479H369.439Zm5.608-16.824h11.216V414.3H375.047Zm5.608-34.584a12.151,12.151,0,1,0,12.151,12.151A12.151,12.151,0,0,0,380.655,368.5Zm0,18.694a6.543,6.543,0,1,1,6.543-6.543A6.55,6.55,0,0,1,380.655,387.2Zm39.257-17.759H397.48V391.87h22.433ZM414.3,386.262H403.088V375.046H414.3Z" transform="translate(801.325 3120.497)" fill="#ff9b00"/>
    <rect id="Rectangle_168" data-name="Rectangle 168" width="78" height="71" transform="translate(1157 3481)" fill="none"/>
  </g>
</svg>
