<svg xmlns="http://www.w3.org/2000/svg" width="685.06" height="102.062" viewBox="0 0 685.06 102.062">
  <g id="Grupo_1522" data-name="Grupo 1522" transform="translate(-415.663 -4646.5)">
    <path id="Caminho_1195" data-name="Caminho 1195" d="M852.893,306.084H366c-8.86,0-16.5,5.168-18.6,12.569l-19.166,69.136a14.645,14.645,0,0,0,3.542,14.068,20.314,20.314,0,0,0,15.044,6.29H833.715c8.849,0,16.5-5.168,18.586-12.569l19.176-69.137a14.618,14.618,0,0,0-3.553-14.067A20.272,20.272,0,0,0,852.893,306.084Z" transform="translate(87.977 4340.417)" fill="#ff0064"/>
    <path id="Caminho_8913" data-name="Caminho 8913" d="M852.893,306.084H366c-8.86,0-16.5,5.168-18.6,12.569l-19.166,69.136a14.645,14.645,0,0,0,3.542,14.068,20.314,20.314,0,0,0,15.044,6.29H833.715c8.849,0,16.5-5.168,18.586-12.569l19.176-69.137a14.618,14.618,0,0,0-3.553-14.067A20.272,20.272,0,0,0,852.893,306.084Z" transform="translate(228.694 4340.417)" fill="#ff0064"/>
  </g>
</svg>
