<svg id="Grupo_1521" data-name="Grupo 1521" xmlns="http://www.w3.org/2000/svg" width="122.636" height="39.985" viewBox="0 0 122.636 39.985">
  <g id="Grupo_1351" data-name="Grupo 1351">
    <g id="Grupo_83" data-name="Grupo 83">
      <path id="Caminho_1713" data-name="Caminho 1713" d="M394.656,283.337a17.544,17.544,0,0,0-8.906,2.033,11.751,11.751,0,0,0-5.949,8.013l-.32,1.441c-.74,3.07-.423,5.524.944,7.3,1.821,2.36,4.682,3.367,9.565,3.367,8.632,0,13.405-3.192,15.021-10.047L405.33,294c.723-2.995.393-5.416-.981-7.2C402.5,284.407,399.507,283.337,394.656,283.337Zm4.011,10.362-.243.989c-.846,3.284-3.352,4.881-7.665,4.881-2.58,0-3.535-.559-4.241-1.462a3.42,3.42,0,0,1-.372-2.987l.245-1.022c.872-3.395,3.151-4.843,7.621-4.843,2.661,0,3.6.534,4.312,1.458A3.409,3.409,0,0,1,398.666,293.7Z" transform="translate(-345.292 -272.747)" fill="#ff7300"/>
      <path id="Caminho_1714" data-name="Caminho 1714" d="M441.094,283.337a17.545,17.545,0,0,0-8.907,2.033,11.753,11.753,0,0,0-5.949,8.013l-.32,1.441c-.74,3.07-.423,5.524.944,7.3,1.821,2.36,4.682,3.367,9.565,3.367,8.632,0,13.4-3.192,15.021-10.047l.32-1.436c.723-2.995.393-5.416-.982-7.2C448.934,284.407,445.945,283.337,441.094,283.337ZM445.1,293.7l-.243.989c-.845,3.284-3.352,4.881-7.664,4.881-2.58,0-3.536-.559-4.242-1.462a3.424,3.424,0,0,1-.372-2.987l.245-1.022c.872-3.395,3.151-4.843,7.62-4.843,2.661,0,3.6.534,4.312,1.458A3.409,3.409,0,0,1,445.1,293.7Z" transform="translate(-361.197 -272.747)" fill="#ff7300"/>
      <path id="Caminho_1715" data-name="Caminho 1715" d="M356.839,306.084H329.813a1.059,1.059,0,0,0-1.032.811l-1.064,4.459a1.061,1.061,0,0,0,1.032,1.313h27.026a1.059,1.059,0,0,0,1.032-.811l1.064-4.459a1.062,1.062,0,0,0-1.032-1.313Z" transform="translate(-327.686 -280.538)" fill="#ff7300"/>
      <path id="Caminho_1716" data-name="Caminho 1716" d="M339.116,273.769h17.945l-12.1,10.06a1.062,1.062,0,0,0-.072,1.593l3.284,3.167a1.063,1.063,0,0,0,1.4.062l25.053-21.316.122-.1H340.151a1.058,1.058,0,0,0-1.034.82l-1.035,4.413a1.062,1.062,0,0,0,1.034,1.3Z" transform="translate(-331.237 -267.231)" fill="#ff9b00"/>
      <path id="Caminho_1717" data-name="Caminho 1717" d="M496.577,286.533c-1.633-2.091-4.151-3.2-8.311-3.2s-6.6.766-9.181,2.633l-.016-1.085a.845.845,0,0,0-.838-.886h-4.017a1.012,1.012,0,0,0-.988.781L466.9,311.453a1.051,1.051,0,0,0,.106.78,1.013,1.013,0,0,0,.875.5h4.683a1.011,1.011,0,0,0,.988-.781l2.092-8.885c1.907,1.654,3.979,2.421,7.667,2.421,8.143,0,12.511-3.452,14.056-10.26l.263-1.235C498.349,290.858,497.995,288.349,496.577,286.533Zm-5.6,7.045-.248,1.034c-1.047,4.313-5.4,4.957-8.219,4.957-4.787,0-5.071-1.716-5.291-3.1l.714-3.2c1.37-2.7,4.066-4.009,8.243-4.009,2.6,0,3.748.5,4.5,1.481A3.218,3.218,0,0,1,490.972,293.578Z" transform="translate(-375.355 -272.747)" fill="#ff7300"/>
    </g>
  </g>
</svg>
