<svg xmlns="http://www.w3.org/2000/svg" width="23.891" height="20.049" viewBox="0 0 23.891 20.049">
  <path id="Caminho_11150" data-name="Caminho 11150" d="M403.246,56.969a.748.748,0,0,1,.418-.451l10.167-4.449,2.574-1.156-2.524-1.246-10-4.81a.748.748,0,0,1-.251-.189.756.756,0,0,1-.152-.276.758.758,0,0,1,.081-.611l1.7-2.731a.751.751,0,0,1,.95-.283L427,51.056l.1.048-.013.006-.089.04L405.85,60.689a.751.751,0,0,1-.94-.317l-1.6-2.791a.752.752,0,0,1-.1-.3A.743.743,0,0,1,403.246,56.969Z" transform="translate(-403.206 -40.698)" fill="#7300ff"/>
</svg>
