<svg width="84" height="84" viewBox="0 0 84 84" fill="none" xmlns="http://www.w3.org/2000/svg">
<path d="M36.1741 52.5H31.8121V38.5H36.1741V52.5ZM36.6093 34.0396C36.6093 32.6378 35.4652 31.5 34.0559 31.5C32.6411 31.5 31.5 32.6378 31.5 34.0396C31.5 35.4419 32.6411 36.5796 34.0559 36.5796C35.4652 36.5796 36.6093 35.4419 36.6093 34.0396ZM52.5 44.7978C52.5 41.0396 51.7014 38.2522 47.2851 38.2522C45.1629 38.2522 43.7385 39.3072 43.157 40.4044H43.1528V38.5H38.9154V52.5H43.1528V45.5489C43.1528 43.7285 43.619 41.9649 45.8888 41.9649C48.1278 41.9649 48.2003 44.0467 48.2003 45.6645V52.5H52.5V44.7978Z" fill="#8C8C8C"/>
<path fill-rule="evenodd" clip-rule="evenodd" d="M24.5 29.75C24.5 26.8505 26.8505 24.5 29.75 24.5H54.25C57.1495 24.5 59.5 26.8505 59.5 29.75V54.25C59.5 57.1495 57.1495 59.5 54.25 59.5H29.75C26.8505 59.5 24.5 57.1495 24.5 54.25V29.75ZM29.75 28C28.7835 28 28 28.7835 28 29.75V54.25C28 55.2165 28.7835 56 29.75 56H54.25C55.2165 56 56 55.2165 56 54.25V29.75C56 28.7835 55.2165 28 54.25 28H29.75Z" fill="#8C8C8C"/>
</svg>
