<svg width="111" height="36" viewBox="0 0 111 36" fill="none" xmlns="http://www.w3.org/2000/svg">
<path d="M44.4714 9.53674C41.6927 9.43127 38.9355 10.0624 36.4793 11.366C35.1177 12.1048 33.9348 13.1335 33.0142 14.3794C32.0936 15.6253 31.4576 17.0581 31.1513 18.5767L30.8582 19.8732C30.1922 22.6438 30.4853 24.8549 31.7462 26.4445C33.3891 28.5668 35.9643 29.4726 40.36 29.4726C48.0413 29.4726 52.3392 26.6399 53.7956 20.4238L54.0797 19.1273C54.7369 16.4632 54.4349 14.2521 53.1917 12.6537C51.5311 10.4958 48.8671 9.53674 44.4714 9.53674ZM48.0857 18.8609L47.8637 19.7489C47.1 22.706 44.8444 24.1357 40.9638 24.1357C38.6372 24.1357 37.7847 23.6384 37.1454 22.8214C36.8917 22.4316 36.7296 21.9894 36.6712 21.5281C36.6127 21.0667 36.6595 20.5981 36.8079 20.1574L37.0299 19.2694C37.8114 16.2146 39.8715 14.9092 43.8942 14.9092C46.283 14.9092 47.1266 15.3887 47.7749 16.2235C48.0212 16.6116 48.1771 17.0502 48.2309 17.5067C48.2847 17.9633 48.235 18.4261 48.0857 18.8609Z" fill="white"/>
<path d="M71.954 9.53674C69.1753 9.43127 66.4181 10.0624 63.9619 11.366C62.6003 12.1048 61.4174 13.1335 60.4968 14.3794C59.5761 15.6253 58.9402 17.0581 58.6338 18.5767L58.3408 19.8732C57.6748 22.6438 57.9589 24.8549 59.2288 26.4445C60.8716 28.5668 63.4469 29.4726 67.8425 29.4726C75.5061 29.4726 79.8307 26.6399 81.287 20.4238L81.5712 19.1273C82.2283 16.4632 81.9264 14.2521 80.6832 12.6537C79.0581 10.4958 76.3319 9.53674 71.954 9.53674ZM75.5682 18.8609L75.3462 19.7489C74.5825 22.706 72.327 24.1357 68.4464 24.1357C66.1198 24.1357 65.2584 23.6384 64.6279 22.8214C64.3743 22.4316 64.2122 21.9894 64.1537 21.5281C64.0953 21.0667 64.142 20.5981 64.2905 20.1574L64.5125 19.2694C65.2939 16.2146 67.3452 14.9092 71.3768 14.9092C73.7656 14.9092 74.6092 15.3887 75.2574 16.2235C75.5053 16.6109 75.6627 17.0491 75.718 17.5057C75.7734 17.9623 75.7252 18.4255 75.5771 18.8609H75.5682Z" fill="white"/>
<path d="M109.172 12.4318C107.698 10.5493 105.433 9.55469 101.686 9.55469C97.9383 9.55469 95.7449 10.2385 93.4272 11.9257L93.6581 10.9489C93.6842 10.8545 93.6873 10.7553 93.6672 10.6596C93.6472 10.5638 93.6044 10.4742 93.5426 10.3983C93.482 10.3197 93.4038 10.2563 93.3144 10.2132C93.225 10.17 93.1268 10.1483 93.0276 10.1497H89.0404C88.8339 10.1451 88.6322 10.2126 88.4702 10.3406C88.3081 10.4687 88.1957 10.6492 88.1524 10.8512L82.4425 34.8719C82.4087 35.007 82.4072 35.1481 82.4381 35.2838C82.4689 35.4195 82.5313 35.5461 82.6201 35.6534C82.7037 35.762 82.8114 35.8498 82.9346 35.9099C83.0579 35.97 83.1934 36.0007 83.3305 35.9997H87.5485C87.755 36.0043 87.9567 35.9367 88.1188 35.8087C88.2808 35.6806 88.3932 35.5001 88.4365 35.2981L90.3014 27.4304C92.0152 28.9222 93.9067 29.4728 97.2279 29.4728C104.563 29.4728 108.488 26.3736 109.882 20.2375L110.122 19.1275C110.77 16.3036 110.45 14.048 109.172 12.4318ZM104.128 18.7722L103.923 19.6869C102.973 23.5675 99.066 24.127 96.5175 24.127C92.2106 24.127 91.9531 22.5818 91.7577 21.3386L92.3793 18.4703C93.6137 16.0461 96.0468 14.865 99.8031 14.865C102.139 14.865 103.178 15.309 103.852 16.197C104.092 16.5735 104.241 17.0001 104.289 17.4436C104.336 17.8871 104.281 18.3357 104.128 18.7545V18.7722Z" fill="white"/>
<path d="M26.2757 23H1.94415C1.73738 23.0093 1.53916 23.0852 1.37911 23.2165C1.21906 23.3477 1.10576 23.5272 1.05614 23.7282L0.0260461 27.7509C-0.00729244 27.8917 -0.00864368 28.0381 0.0220918 28.1795C0.0528272 28.3209 0.114867 28.4536 0.203648 28.5678C0.293705 28.6817 0.408432 28.7736 0.539182 28.8367C0.669932 28.8998 0.813293 28.9323 0.958458 28.9319H25.29C25.5056 28.9318 25.7149 28.859 25.8841 28.7252C26.0533 28.5915 26.1725 28.4047 26.2224 28.1949L27.1814 24.1811C27.2129 24.0402 27.2133 23.8941 27.1827 23.753C27.152 23.6119 27.091 23.4792 27.0038 23.3641C26.9162 23.2542 26.8057 23.1646 26.6799 23.1018C26.5541 23.0389 26.4162 23.0042 26.2757 23Z" fill="white"/>
<path d="M7.12954 5.88752H23.2736L12.3866 14.9452C12.2803 15.0296 12.1935 15.136 12.1322 15.2571C12.0709 15.3782 12.0365 15.5111 12.0314 15.6468C12.0211 15.7825 12.0423 15.9187 12.0931 16.045C12.1439 16.1712 12.223 16.2841 12.3244 16.3749L15.2815 19.2255C15.4555 19.4006 15.6918 19.4996 15.9386 19.5007C16.1583 19.5003 16.3712 19.4251 16.5425 19.2876L39.098 0.0888012L39.2134 0H8.01755C7.80916 0.00836859 7.60932 0.0850678 7.44883 0.218267C7.28835 0.351467 7.17615 0.533767 7.12954 0.73705L6.24153 4.71534C6.20763 4.85467 6.20601 4.9999 6.23679 5.13995C6.26757 5.28 6.32993 5.41116 6.41913 5.52343C6.50485 5.63115 6.61255 5.71934 6.73506 5.78212C6.85756 5.84491 6.99205 5.88084 7.12954 5.88752Z" fill="white"/>
</svg>
