<svg width="572" height="444" viewBox="0 0 572 444" fill="none" xmlns="http://www.w3.org/2000/svg">
<g clip-path="url(#clip0)">
<path d="M673.54 78.4084L390.308 210.182L507.34 -37.4209C508.503 -39.7737 509.153 -42.3475 509.244 -44.9708C509.335 -47.5942 508.866 -50.2069 507.869 -52.6349C506.871 -55.0629 505.368 -57.2505 503.458 -59.052C501.549 -60.8534 499.278 -62.2274 496.796 -63.0823L421.723 -88.988C417.468 -90.4455 412.828 -90.3054 408.669 -88.5939C404.509 -86.8824 401.115 -83.7163 399.117 -79.6861L160.172 440.795L159.018 443.313L705.204 189.2C708.993 187.453 712.076 184.472 713.948 180.744C715.82 177.015 716.371 172.762 715.509 168.68L699.402 91.3605C698.839 88.6305 697.664 86.0635 695.968 83.8517C694.271 81.6398 692.096 79.8406 689.605 78.5887C687.115 77.3368 684.373 76.6648 681.586 76.6229C678.799 76.5809 676.038 77.1703 673.511 78.3467" fill="#FFB400"/>
</g>
<defs>
<clipPath id="clip0">
<rect width="638.92" height="376.963" fill="white" transform="translate(738.307 173.783) rotate(155.05)"/>
</clipPath>
</defs>
</svg>
