<svg width="84" height="84" viewBox="0 0 84 84" fill="none" xmlns="http://www.w3.org/2000/svg">
<path fill-rule="evenodd" clip-rule="evenodd" d="M42.0001 28C34.2681 28 28.0001 34.268 28.0001 42C28.0001 44.5529 28.6818 46.9413 29.8719 48.9987C30.1045 49.4007 30.1677 49.8787 30.0477 50.3273L28.8174 54.9251L32.6795 53.4853C33.2051 53.2893 33.7927 53.3572 34.2598 53.6677C36.4761 55.1413 39.1352 56 42.0001 56C49.732 56 56.0001 49.732 56.0001 42C56.0001 34.268 49.732 28 42.0001 28ZM24.5001 42C24.5001 32.335 32.3351 24.5 42.0001 24.5C51.665 24.5 59.5001 32.335 59.5001 42C59.5001 51.665 51.665 59.5 42.0001 59.5C38.7501 59.5 35.7031 58.6125 33.0929 57.0665L26.8614 59.3897C26.2477 59.6185 25.5577 59.4855 25.073 59.045C24.5884 58.6046 24.3902 57.9303 24.5595 57.2977L26.4848 50.1019C25.2168 47.678 24.5001 44.9205 24.5001 42Z" fill="#8C8C8C"/>
<path fill-rule="evenodd" clip-rule="evenodd" d="M44.8013 44.8108L45.0828 44.5293C46.0156 43.5966 47.5877 43.6563 48.5942 44.6629L49.1439 45.2125C50.1504 46.219 50.2102 47.7911 49.2774 48.7239L48.9959 49.0054L48.7144 49.2869C45.916 52.0853 42.5303 50.5753 39.5108 47.5557L36.4733 44.5182C33.4537 41.4986 31.9437 38.113 34.7421 35.3146L35.0235 35.0331L35.305 34.7516C36.2378 33.8188 37.81 33.8786 38.8165 34.8851L39.3661 35.4348C40.3726 36.4413 40.4324 38.0134 39.4996 38.9462L39.2181 39.2277L38.9366 39.5092C38.6257 39.8201 38.6456 40.3442 38.9812 40.6797L43.3493 45.0478C43.6848 45.3833 44.2089 45.4033 44.5198 45.0923L44.8013 44.8108Z" fill="#8C8C8C"/>
</svg>
