<svg width="20" height="13" viewBox="0 0 20 13" fill="none" xmlns="http://www.w3.org/2000/svg">
<path fill-rule="evenodd" clip-rule="evenodd" d="M0.419604 12.5281C0.286595 12.3788 0.181067 12.2016 0.109064 12.0064C0.0370616 11.8112 1.66709e-08 11.602 1.91907e-08 11.3907C2.17104e-08 11.1794 0.0370616 10.9702 0.109064 10.775C0.181067 10.5799 0.286595 10.4026 0.419604 10.2534L8.98917 0.614804C9.12184 0.465203 9.27945 0.346513 9.45297 0.265529C9.62649 0.184544 9.81251 0.142857 10.0004 0.142857C10.1882 0.142857 10.3743 0.184544 10.5478 0.265529C10.7213 0.346513 10.8789 0.465203 11.0116 0.614804L19.5811 10.2534C19.8493 10.555 20 10.9641 20 11.3907C20 11.8173 19.8493 12.2264 19.5811 12.5281C19.313 12.8297 18.9492 12.9992 18.5699 12.9992C18.1907 12.9992 17.8269 12.8297 17.5587 12.5281L10.0004 4.02364L2.44202 12.5281C2.30935 12.6777 2.15174 12.7963 1.97822 12.8773C1.8047 12.9583 1.61868 13 1.43081 13C1.24295 13 1.05693 12.9583 0.883407 12.8773C0.709888 12.7963 0.552277 12.6777 0.419604 12.5281Z" fill="#0F0F0F"/>
</svg>
