<svg width="16" height="16" viewBox="0 0 16 16" fill="none" xmlns="http://www.w3.org/2000/svg">
<path d="M14.04 15.1233H0.98583C0.444165 15.1233 0 14.6845 0 14.1375V0.98583C0 0.444165 0.438748 0 0.98583 0H14.04C14.5816 0 15.0258 0.438748 15.0258 0.98583V14.1375C15.0204 14.6845 14.5816 15.1233 14.04 15.1233Z" fill="#0F0F0F"/>
<path d="M4.33088 3.35938C4.89421 3.35938 5.33838 3.81437 5.33296 4.37229C5.32754 4.9302 4.87254 5.3852 4.31463 5.3852C3.75671 5.3852 3.30713 4.9302 3.31255 4.37229C3.31797 3.81437 3.77297 3.35938 4.33088 3.35938Z" fill="#F2F2F2"/>
<path d="M5.19135 6.14648L5.14802 11.7635H3.39844L3.44177 6.14648H5.19135Z" fill="#F2F2F2"/>
<path d="M9.63692 6.01367C11.4082 6.01367 11.7223 7.17283 11.7115 8.6895L11.6898 11.7716H9.94567L9.96733 9.04158C9.97275 8.38616 9.96192 7.552 9.06817 7.552C8.15817 7.552 8.01734 8.26158 8.01192 8.99825L7.99026 11.777H6.24609L6.28943 6.15992H7.96317L7.95234 6.91825H7.97942C8.21775 6.4795 8.7865 6.01367 9.63692 6.01367Z" fill="#F2F2F2"/>
</svg>
