<svg width="30" height="30" viewBox="0 0 30 30" fill="none" xmlns="http://www.w3.org/2000/svg">
<path d="M9.0715 7.19922C10.1115 7.19922 10.9315 8.03922 10.9215 9.06922C10.9115 10.0992 10.0715 10.9392 9.04149 10.9392C8.01149 10.9392 7.1815 10.0992 7.1915 9.06922C7.2015 8.03922 8.0415 7.19922 9.0715 7.19922Z" fill="#8C8C8C"/>
<path d="M10.6498 12.3496L10.5698 22.7196H7.33984L7.41985 12.3496H10.6498Z" fill="#8C8C8C"/>
<path d="M18.8498 12.0996C22.1198 12.0996 22.6998 14.2396 22.6798 17.0396L22.6398 22.7296H19.4198L19.4598 17.6896C19.4698 16.4796 19.4498 14.9396 17.7998 14.9396C16.1198 14.9396 15.8598 16.2496 15.8498 17.6096L15.8098 22.7396H12.5898L12.6698 12.3696H15.7598L15.7398 13.7696H15.7898C16.2298 12.9596 17.2798 12.0996 18.8498 12.0996Z" fill="#8C8C8C"/>
<path d="M26.9903 28.92H2.89031C1.89031 28.92 1.07031 28.11 1.07031 27.1V2.82C1.07031 1.82 1.88031 1 2.89031 1H26.9903C27.9903 1 28.8103 1.81 28.8103 2.82V27.1C28.8003 28.11 27.9903 28.92 26.9903 28.92Z" stroke="#8C8C8C" stroke-width="2" stroke-miterlimit="10"/>
</svg>
