<svg width="66" height="59" viewBox="0 0 66 59" fill="none" xmlns="http://www.w3.org/2000/svg">
<path d="M24.766 44.25C23.2965 44.25 21.86 44.6825 20.6381 45.4929C19.4163 46.3033 18.4639 47.4551 17.9016 48.8027C17.3392 50.1503 17.1921 51.6332 17.4788 53.0638C17.7655 54.4944 18.4731 55.8085 19.5122 56.8399C20.5513 57.8713 21.8752 58.5737 23.3165 58.8583C24.7577 59.1428 26.2517 58.9968 27.6093 58.4386C28.967 57.8804 30.1274 56.9351 30.9438 55.7223C31.7602 54.5095 32.1959 53.0836 32.1959 51.625C32.1959 49.669 31.4131 47.7932 30.0198 46.4101C28.6264 45.027 26.7365 44.25 24.766 44.25V44.25ZM52.0098 44.25C50.5403 44.25 49.1038 44.6825 47.8819 45.4929C46.6601 46.3033 45.7077 47.4551 45.1454 48.8027C44.583 50.1503 44.4359 51.6332 44.7226 53.0638C45.0093 54.4944 45.7169 55.8085 46.756 56.8399C47.7951 57.8713 49.119 58.5737 50.5603 58.8583C52.0015 59.1428 53.4955 58.9968 54.8531 58.4386C56.2107 57.8804 57.3712 56.9351 58.1876 55.7223C59.004 54.5095 59.4397 53.0836 59.4397 51.625C59.4397 49.6699 58.6577 47.7949 57.2654 46.4119C55.8732 45.029 53.9847 44.2514 52.015 44.25H52.0098ZM63.5217 8.60475H16.326L14.486 1.81947C14.3442 1.29734 14.033 0.836137 13.6006 0.507233C13.1682 0.178329 12.6386 5.72159e-05 12.0938 1.22672e-06H1.23892C1.07616 -0.000227122 0.914949 0.0314262 0.764534 0.0931458C0.614118 0.154865 0.47745 0.245437 0.362361 0.359675C0.247271 0.473912 0.15602 0.60957 0.09384 0.758872C0.0316604 0.908175 -0.000228815 1.06819 1.23587e-06 1.22975V6.14179C-0.000228815 6.30334 0.0316604 6.46336 0.09384 6.61266C0.15602 6.76196 0.247271 6.89762 0.362361 7.01186C0.47745 7.1261 0.614118 7.21667 0.764534 7.27839C0.914949 7.34011 1.07616 7.37176 1.23892 7.37153H8.29843L16.4728 37.5133C16.6146 38.0354 16.9257 38.4966 17.3582 38.8255C17.7906 39.1544 18.3202 39.3327 18.865 39.3327H56.6788C57.2258 39.3327 57.7575 39.1531 58.1908 38.8218C58.6242 38.4904 58.9349 38.0261 59.0745 37.5011L65.9174 11.6921C66.0146 11.3281 66.0262 10.9467 65.9513 10.5775C65.8764 10.2083 65.7171 9.86113 65.4856 9.56277C65.2541 9.2644 64.9566 9.02284 64.616 8.85673C64.2755 8.69062 63.9011 8.60441 63.5217 8.60475ZM52.8625 31.9578H22.6586L18.325 15.9797H57.0965L52.8625 31.9578Z" fill="#FF0064"/>
</svg>
