<svg width="86" height="109" viewBox="0 0 86 109" fill="none" xmlns="http://www.w3.org/2000/svg">
<g clip-path="url(#clip0_935_28337)">
<mask id="path-1-inside-1_935_28337" fill="white">
<path fill-rule="evenodd" clip-rule="evenodd" d="M4.73058 33.5398C5.01949 34.0913 5.44292 34.5923 5.97661 35.014C6.50896 35.4367 7.14136 35.7721 7.83761 36.001C8.53385 36.2299 9.28025 36.3477 10.0341 36.3477C10.7879 36.3477 11.5343 36.2299 12.2305 36.001C12.9267 35.7721 13.5591 35.4367 14.0915 35.014L38.6953 15.5166L38.6953 104.46C38.6953 105.664 39.2991 106.819 40.3738 107.67C41.4486 108.522 42.9062 109 44.4262 109C45.9461 109 47.4037 108.522 48.4785 107.67C49.5532 106.819 50.157 105.664 50.157 104.46L50.157 15.5278L74.7467 35.0139C75.8228 35.8664 77.2824 36.3453 78.8042 36.3453C80.326 36.3453 81.7855 35.8664 82.8616 35.0139C83.9377 34.1615 84.5423 33.0054 84.5423 31.7998C84.5423 30.5943 83.9377 29.4382 82.8616 28.5857L48.4766 1.34755C47.9442 0.924787 47.3118 0.589368 46.6156 0.360509C45.9193 0.13165 45.1729 0.0138448 44.4191 0.0138449C43.6653 0.0138449 42.9189 0.13165 42.2227 0.360509C41.5264 0.589368 40.894 0.924787 40.3617 1.34755L5.97661 28.5857C5.44292 29.0074 5.01949 29.5084 4.73058 30.0599C4.44167 30.6115 4.29297 31.2027 4.29297 31.7998C4.29297 32.397 4.44167 32.9882 4.73058 33.5398Z"/>
</mask>
<path d="M5.97661 35.014L6.59852 34.2309L6.59659 34.2293L5.97661 35.014ZM4.73058 33.5398L3.84476 34.0038L4.73058 33.5398ZM7.83761 36.001L8.14988 35.051L8.14988 35.051L7.83761 36.001ZM12.2305 36.001L11.9182 35.051L12.2305 36.001ZM14.0915 35.014L13.4704 34.2302L13.4696 34.2309L14.0915 35.014ZM38.6953 15.5166L39.6953 15.5166L39.6953 13.4483L38.0742 14.7329L38.6953 15.5166ZM38.6953 104.46L37.6953 104.46L38.6953 104.46ZM40.3738 107.67L40.9948 106.886L40.3738 107.67ZM48.4785 107.67L47.8575 106.886L48.4785 107.67ZM50.157 15.5278L50.7781 14.744L49.157 13.4594L49.157 15.5278L50.157 15.5278ZM74.7467 35.0139L74.1257 35.7977L74.1258 35.7978L74.7467 35.0139ZM82.8616 35.0139L82.2407 34.2301L82.8616 35.0139ZM82.8616 28.5857L82.2407 29.3696L82.8616 28.5857ZM48.4766 1.34755L47.8547 2.13065L47.8556 2.13141L48.4766 1.34755ZM42.2227 0.360509L41.9104 -0.589487L41.9104 -0.589487L42.2227 0.360509ZM40.3617 1.34755L40.9826 2.13141L40.9836 2.13064L40.3617 1.34755ZM5.97661 28.5857L6.59659 29.3704L6.59755 29.3696L5.97661 28.5857ZM4.73058 30.0599L3.84476 29.5959L4.73058 30.0599ZM6.59659 34.2293C6.16275 33.8865 5.83436 33.4918 5.61641 33.0757L3.84476 34.0038C4.20462 34.6908 4.72309 35.298 5.35664 35.7986L6.59659 34.2293ZM8.14988 35.051C7.55709 34.8561 7.03133 34.5746 6.59852 34.2309L5.35471 35.7971C5.98659 36.2989 6.72564 36.6881 7.52534 36.951L8.14988 35.051ZM10.0341 35.3477C9.38327 35.3477 8.74247 35.2458 8.14988 35.051L7.52534 36.951C8.32523 37.2139 9.17723 37.3477 10.0341 37.3477L10.0341 35.3477ZM11.9182 35.051C11.3256 35.2458 10.6848 35.3477 10.0341 35.3477L10.0341 37.3477C10.8909 37.3477 11.7429 37.2139 12.5428 36.951L11.9182 35.051ZM13.4696 34.2309C13.0368 34.5746 12.511 34.8561 11.9182 35.051L12.5428 36.951C13.3425 36.6881 14.0815 36.2989 14.7134 35.797L13.4696 34.2309ZM38.0742 14.7329L13.4704 34.2302L14.7126 35.7977L39.3164 16.3004L38.0742 14.7329ZM39.6953 104.46L39.6953 15.5166L37.6953 15.5166L37.6953 104.46L39.6953 104.46ZM40.9948 106.886C40.1219 106.195 39.6953 105.314 39.6953 104.46L37.6953 104.46C37.6953 106.015 38.4763 107.443 39.7529 108.454L40.9948 106.886ZM44.4262 108C43.1057 108 41.8735 107.583 40.9948 106.886L39.7529 108.454C41.0237 109.461 42.7068 110 44.4262 110L44.4262 108ZM47.8575 106.886C46.9788 107.583 45.7466 108 44.4262 108L44.4262 110C46.1455 110 47.8287 109.461 49.0994 108.454L47.8575 106.886ZM49.157 104.46C49.157 105.314 48.7304 106.195 47.8575 106.886L49.0994 108.454C50.376 107.443 51.157 106.015 51.157 104.46L49.157 104.46ZM49.157 15.5278L49.157 104.46L51.157 104.46L51.157 15.5278L49.157 15.5278ZM75.3678 34.2302L50.7781 14.744L49.5359 16.3115L74.1257 35.7977L75.3678 34.2302ZM78.8042 35.3453C77.4818 35.3453 76.2478 34.9272 75.3677 34.2301L74.1258 35.7978C75.3979 36.8055 77.0829 37.3453 78.8042 37.3453L78.8042 35.3453ZM82.2407 34.2301C81.3606 34.9272 80.1265 35.3453 78.8042 35.3453L78.8042 37.3453C80.5255 37.3453 82.2104 36.8055 83.4826 35.7978L82.2407 34.2301ZM83.5423 31.7998C83.5423 32.655 83.1149 33.5376 82.2407 34.2301L83.4826 35.7978C84.7605 34.7855 85.5423 33.3558 85.5423 31.7998L83.5423 31.7998ZM82.2407 29.3696C83.1149 30.0621 83.5423 30.9447 83.5423 31.7998L85.5423 31.7998C85.5423 30.2439 84.7605 28.8142 83.4826 27.8019L82.2407 29.3696ZM47.8556 2.13141L82.2407 29.3696L83.4826 27.8019L49.0975 0.563687L47.8556 2.13141ZM46.3033 1.31051C46.8961 1.50535 47.4218 1.78692 47.8547 2.13065L49.0985 0.564443C48.4666 0.0626499 47.7275 -0.326617 46.9278 -0.589488L46.3033 1.31051ZM44.4191 1.01384C45.0699 1.01384 45.7107 1.11571 46.3033 1.31051L46.9278 -0.589488C46.1279 -0.852412 45.2759 -0.986155 44.4191 -0.986155L44.4191 1.01384ZM42.5349 1.31051C43.1275 1.11571 43.7683 1.01384 44.4191 1.01384L44.4191 -0.986155C43.5623 -0.986155 42.7103 -0.852412 41.9104 -0.589487L42.5349 1.31051ZM40.9836 2.13064C41.4164 1.78692 41.9422 1.50535 42.5349 1.31051L41.9104 -0.589487C41.1107 -0.326617 40.3717 0.0626504 39.7398 0.564451L40.9836 2.13064ZM6.59755 29.3696L40.9826 2.13141L39.7407 0.563688L5.35568 27.8019L6.59755 29.3696ZM5.61641 30.5239C5.83436 30.1079 6.16274 29.7132 6.59659 29.3704L5.35664 27.8011C4.7231 28.3017 4.20462 28.9089 3.84476 29.5959L5.61641 30.5239ZM5.29297 31.7998C5.29297 31.3713 5.39919 30.9386 5.61641 30.5239L3.84476 29.5959C3.48416 30.2843 3.29297 31.0341 3.29297 31.7998L5.29297 31.7998ZM5.61641 33.0757C5.39919 32.6611 5.29297 32.2284 5.29297 31.7998L3.29297 31.7998C3.29297 32.5656 3.48416 33.3154 3.84476 34.0038L5.61641 33.0757Z" fill="#F69400" mask="url(#path-1-inside-1_935_28337)"/>
</g>
<defs>
<clipPath id="clip0_935_28337">
<rect width="109" height="86" fill="white" transform="translate(0 109) rotate(-90)"/>
</clipPath>
</defs>
</svg>
