<svg xmlns="http://www.w3.org/2000/svg" width="78" height="71" viewBox="0 0 78 71">
  <g id="Group_1616" data-name="Group 1616" transform="translate(-1403 -3481)">
    <path id="Velocidade" d="M408.493,431.155a19.884,19.884,0,0,1,19.837,18.922.989.989,0,0,0,.991.937H433.3a1,1,0,0,0,.993-1.035,25.817,25.817,0,0,0-51.592,0,1,1,0,0,0,.993,1.035h3.975a.989.989,0,0,0,.991-.937A19.884,19.884,0,0,1,408.493,431.155Zm12.641,9.931L417.7,439.1a.993.993,0,0,0-1.357.362l-9.564,16.52H383.67a.993.993,0,0,0-.993.993v3.972a.993.993,0,0,0,.993.993h49.647a.993.993,0,0,0,.993-.993v-3.972a.993.993,0,0,0-.993-.993H413.66l7.836-13.535A.993.993,0,0,0,421.134,441.086Z" transform="translate(1033.69 3071.803)" fill="#ff9b00"/>
    <rect id="Rectangle_169" data-name="Rectangle 169" width="78" height="71" transform="translate(1403 3481)" fill="none"/>
  </g>
</svg>
