<svg width="282" height="34" viewBox="0 0 282 34" fill="none" xmlns="http://www.w3.org/2000/svg">
<path d="M44.2314 9.00681C41.5284 8.9072 38.8464 9.50324 36.4572 10.7345C35.1327 11.4322 33.9821 12.4037 33.0866 13.5804C32.191 14.7571 31.5724 16.1104 31.2745 17.5446L30.9894 18.769C30.3416 21.3857 30.6266 23.474 31.8532 24.9752C33.4512 26.9797 35.9562 27.8351 40.232 27.8351C47.7038 27.8351 51.8846 25.1597 53.3012 19.289L53.5776 18.0645C54.2168 15.5485 53.9231 13.4602 52.7138 11.9506C51.0985 9.91259 48.5071 9.00681 44.2314 9.00681ZM47.747 17.8129L47.531 18.6516C46.7882 21.4444 44.5941 22.7947 40.8194 22.7947C38.5562 22.7947 37.727 22.325 37.1051 21.5534C36.8583 21.1853 36.7007 20.7677 36.6438 20.332C36.587 19.8962 36.6324 19.4536 36.7768 19.0374L36.9928 18.1987C37.7529 15.3137 39.7569 14.0808 43.6699 14.0808C45.9935 14.0808 46.8141 14.5337 47.4447 15.3221C47.6843 15.6886 47.8359 16.1028 47.8883 16.534C47.9406 16.9652 47.8923 17.4023 47.747 17.8129Z" fill="#8C8C8C"/>
<path d="M70.9678 9.00681C68.2648 8.9072 65.5828 9.50324 63.1936 10.7345C61.8691 11.4322 60.7185 12.4037 59.823 13.5804C58.9275 14.7571 58.3089 16.1104 58.0109 17.5446L57.7258 18.769C57.078 21.3857 57.3544 23.474 58.5896 24.9752C60.1876 26.9797 62.6926 27.8351 66.9684 27.8351C74.4229 27.8351 78.6296 25.1597 80.0462 19.289L80.3227 18.0645C80.9619 15.5485 80.6682 13.4602 79.4589 11.9506C77.8781 9.91259 75.2263 9.00681 70.9678 9.00681ZM74.4834 17.8129L74.2675 18.6516C73.5246 21.4444 71.3306 22.7947 67.5558 22.7947C65.2927 22.7947 64.4548 22.325 63.8415 21.5534C63.5948 21.1853 63.4371 20.7677 63.3802 20.332C63.3234 19.8962 63.3689 19.4536 63.5132 19.0374L63.7292 18.1987C64.4893 15.3137 66.4847 14.0808 70.4063 14.0808C72.7299 14.0808 73.5505 14.5337 74.1811 15.3221C74.4222 15.688 74.5753 16.1019 74.6291 16.5331C74.683 16.9643 74.6361 17.4017 74.492 17.8129H74.4834Z" fill="#8C8C8C"/>
<path d="M107.17 11.7408C105.737 9.96276 103.534 9.02344 99.8887 9.02344C96.2435 9.02344 94.1099 9.66922 91.8554 11.2627L92.08 10.3402C92.1054 10.2511 92.1084 10.1574 92.0889 10.0669C92.0694 9.97645 92.0278 9.89185 91.9677 9.82018C91.9087 9.74596 91.8327 9.6861 91.7457 9.64534C91.6588 9.60458 91.5632 9.58405 91.4667 9.58535H87.5882C87.3874 9.58101 87.1912 9.6448 87.0336 9.76573C86.8759 9.88666 86.7666 10.0572 86.7244 10.2479L81.1703 32.9341C81.1375 33.0617 81.136 33.195 81.166 33.3232C81.196 33.4514 81.2567 33.5709 81.343 33.6722C81.4244 33.7748 81.5291 33.8577 81.649 33.9145C81.7689 33.9712 81.9007 34.0002 82.034 33.9993H86.1371C86.3379 34.0036 86.5341 33.9398 86.6917 33.8189C86.8494 33.698 86.9587 33.5274 87.0009 33.3367L88.8148 25.906C90.482 27.315 92.3218 27.835 95.5524 27.835C102.687 27.835 106.505 24.908 107.861 19.1127L108.095 18.0644C108.725 15.3974 108.414 13.2671 107.17 11.7408ZM102.264 17.7289L102.065 18.5928C101.141 22.2578 97.3405 22.7861 94.8614 22.7861C90.672 22.7861 90.4215 21.3268 90.2315 20.1527L90.8361 17.4438C92.0368 15.1542 94.4036 14.0387 98.0574 14.0387C100.329 14.0387 101.34 14.4581 101.996 15.2967C102.229 15.6523 102.374 16.0552 102.421 16.4741C102.467 16.893 102.414 17.3166 102.264 17.7121V17.7289Z" fill="#8C8C8C"/>
<path d="M26.5356 21.7227H2.86769C2.66656 21.7314 2.47375 21.8032 2.31806 21.9271C2.16237 22.0511 2.05217 22.2206 2.0039 22.4104L1.0019 26.2096C0.969469 26.3426 0.968155 26.4809 0.998052 26.6144C1.02795 26.748 1.0883 26.8733 1.17466 26.9812C1.26226 27.0887 1.37386 27.1755 1.50104 27.2351C1.62822 27.2946 1.76767 27.3254 1.90888 27.325H25.5768C25.7866 27.3249 25.9902 27.2561 26.1548 27.1298C26.3193 27.0035 26.4352 26.8271 26.4838 26.6289L27.4167 22.8381C27.4473 22.705 27.4477 22.5671 27.4179 22.4338C27.388 22.3006 27.3287 22.1752 27.2439 22.0665C27.1587 21.9627 27.0512 21.8781 26.9288 21.8188C26.8065 21.7594 26.6723 21.7266 26.5356 21.7227Z" fill="#8C8C8C"/>
<path d="M7.90928 5.56043H23.613L13.0229 14.1149C12.9196 14.1947 12.8352 14.2952 12.7755 14.4095C12.7159 14.5239 12.6824 14.6494 12.6774 14.7775C12.6675 14.9057 12.688 15.0344 12.7374 15.1536C12.7869 15.2728 12.8639 15.3795 12.9625 15.4652L15.8389 18.1574C16.0081 18.3228 16.238 18.4163 16.4781 18.4174C16.6918 18.4169 16.8989 18.3459 17.0655 18.2161L39.0058 0.0838678L39.1181 0H8.77308C8.57037 0.00790366 8.37597 0.0803418 8.21987 0.206141C8.06376 0.331941 7.95462 0.504113 7.90928 0.696103L7.04549 4.45338C7.01251 4.58496 7.01093 4.72213 7.04087 4.85439C7.07082 4.98666 7.13148 5.11054 7.21825 5.21658C7.30163 5.31831 7.40639 5.4016 7.52556 5.46089C7.64472 5.52019 7.77554 5.55412 7.90928 5.56043Z" fill="#8C8C8C"/>
<path d="M138.938 5.96094C139.035 5.96094 139.115 5.99805 139.178 6.07227C139.24 6.14258 139.264 6.22852 139.248 6.33008L139.131 7.13867C139.107 7.30664 139.01 7.39062 138.838 7.39062H136.834C136.764 7.39062 136.721 7.42188 136.705 7.48438L135.721 13.748C135.697 13.916 135.602 14 135.434 14H134.496C134.398 14 134.318 13.9648 134.256 13.8945C134.193 13.8203 134.17 13.7324 134.186 13.6309L135.158 7.54297C135.174 7.4375 135.125 7.38672 135.012 7.39062H133.201C133.096 7.39062 133.012 7.35742 132.949 7.29102C132.891 7.2207 132.871 7.13281 132.891 7.02734L133.008 6.21289C133.031 6.04492 133.127 5.96094 133.295 5.96094H138.938ZM140.654 14.1934C138.783 14.1934 137.984 13.332 138.258 11.6094L138.41 10.6309C138.668 9.02148 139.697 8.2168 141.498 8.2168C143.24 8.2168 143.992 9.05273 143.754 10.7246L143.666 11.4805C143.643 11.6562 143.543 11.7441 143.367 11.7441H139.934C139.844 11.7441 139.801 11.7754 139.805 11.8379L139.781 11.9961C139.734 12.3164 139.82 12.5527 140.039 12.7051C140.258 12.8574 140.547 12.9336 140.906 12.9336C141.547 12.9336 142.068 12.7734 142.471 12.4531C142.631 12.3555 142.762 12.3789 142.863 12.5234L143.238 13.0391C143.367 13.207 143.355 13.3438 143.203 13.4492C142.602 13.9453 141.752 14.1934 140.654 14.1934ZM140.08 10.8066H142.23C142.309 10.8066 142.348 10.7637 142.348 10.6777L142.359 10.4609C142.422 9.77344 142.098 9.42969 141.387 9.42969C140.602 9.42969 140.139 9.77734 139.998 10.4727L139.945 10.6543C139.938 10.6934 139.947 10.7285 139.975 10.7598C140.006 10.791 140.041 10.8066 140.08 10.8066ZM149.684 12.6172C149.844 12.7383 149.867 12.875 149.754 13.0273C149.18 13.7969 148.236 14.1816 146.924 14.1816C145.139 14.1816 144.379 13.2969 144.645 11.5273L144.785 10.6133C145.043 9.01172 146.1 8.21289 147.955 8.2168C149.1 8.2168 149.867 8.5957 150.258 9.35352C150.348 9.53711 150.309 9.67383 150.141 9.76367L149.443 10.1211C149.314 10.1914 149.195 10.1562 149.086 10.0156C148.863 9.65625 148.467 9.47656 147.896 9.47656C146.959 9.47656 146.414 9.93555 146.262 10.8535L146.156 11.5625C146.086 12.0352 146.154 12.3809 146.361 12.5996C146.568 12.8145 146.867 12.9219 147.258 12.9219C147.898 12.9219 148.398 12.7129 148.758 12.2949C148.895 12.1426 149.035 12.1191 149.18 12.2246L149.684 12.6172ZM151.236 14C151.131 14 151.049 13.9648 150.99 13.8945C150.932 13.8203 150.91 13.7324 150.926 13.6309L151.705 8.65039C151.729 8.48242 151.824 8.39844 151.992 8.39844H152.795C152.924 8.39844 153.008 8.44141 153.047 8.52734V8.7793C153.062 8.90039 153.131 8.91211 153.252 8.81445C153.764 8.41602 154.416 8.2168 155.209 8.2168C155.818 8.2168 156.291 8.38086 156.627 8.70898C156.963 9.03711 157.066 9.59766 156.938 10.3906L156.41 13.748C156.387 13.916 156.287 14 156.111 14H155.197C155.092 14 155.01 13.9648 154.951 13.8945C154.893 13.8203 154.871 13.7324 154.887 13.6309L155.355 10.6543C155.477 9.93555 155.191 9.57422 154.5 9.57031C154.012 9.57031 153.576 9.73438 153.193 10.0625C153.057 10.1406 152.98 10.25 152.965 10.3906L152.438 13.748C152.414 13.916 152.318 14 152.15 14H151.236ZM160.535 14.1816C158.566 14.1816 157.719 13.3242 157.992 11.6094L158.133 10.6895C158.391 9.04102 159.467 8.2168 161.361 8.2168C162.264 8.2168 162.955 8.41992 163.436 8.82617C163.916 9.22852 164.086 9.88086 163.945 10.7832L163.799 11.709C163.545 13.3574 162.457 14.1816 160.535 14.1816ZM160.629 12.9219C161.59 12.9219 162.146 12.4766 162.299 11.5859L162.416 10.7949C162.553 9.91602 162.174 9.47656 161.279 9.47656C160.334 9.47656 159.789 9.91992 159.645 10.8066L159.516 11.6094C159.445 12.0742 159.518 12.4102 159.732 12.6172C159.947 12.8203 160.246 12.9219 160.629 12.9219ZM165.088 14C164.982 14 164.902 13.9648 164.848 13.8945C164.793 13.8203 164.773 13.7324 164.789 13.6309L166.084 5.3457C166.123 5.16992 166.223 5.08203 166.383 5.08203H167.297C167.402 5.08203 167.484 5.12109 167.543 5.19922C167.602 5.27344 167.623 5.36328 167.607 5.46875L166.301 13.748C166.277 13.916 166.182 14 166.014 14H165.088ZM170.449 14.1816C168.48 14.1816 167.633 13.3242 167.906 11.6094L168.047 10.6895C168.305 9.04102 169.381 8.2168 171.275 8.2168C172.178 8.2168 172.869 8.41992 173.35 8.82617C173.83 9.22852 174 9.88086 173.859 10.7832L173.713 11.709C173.459 13.3574 172.371 14.1816 170.449 14.1816ZM170.543 12.9219C171.504 12.9219 172.061 12.4766 172.213 11.5859L172.33 10.7949C172.467 9.91602 172.088 9.47656 171.193 9.47656C170.248 9.47656 169.703 9.91992 169.559 10.8066L169.43 11.6094C169.359 12.0742 169.432 12.4102 169.646 12.6172C169.861 12.8203 170.16 12.9219 170.543 12.9219ZM176.742 16.4727C175.758 16.4727 175.014 16.2637 174.51 15.8457C174.365 15.748 174.338 15.6211 174.428 15.4648L174.75 14.8789C174.855 14.6953 175.012 14.666 175.219 14.791C175.555 15.1035 176.025 15.2598 176.631 15.2598C177.67 15.2598 178.271 14.8398 178.436 14L178.494 13.6016C178.486 13.5469 178.451 13.5254 178.389 13.5371C178.33 13.5488 178.258 13.5801 178.172 13.6309C177.738 13.8965 177.221 14.0273 176.619 14.0234C175.947 14.0234 175.428 13.8281 175.061 13.4375C174.693 13.043 174.578 12.4258 174.715 11.5859L174.867 10.5664C174.938 10.125 175.061 9.74805 175.236 9.43555C175.416 9.11914 175.627 8.875 175.869 8.70312C176.115 8.53125 176.373 8.4082 176.643 8.33398C176.916 8.25586 177.209 8.2168 177.521 8.2168C178.225 8.2168 178.744 8.39258 179.08 8.74414C179.232 8.88086 179.35 8.88867 179.432 8.76758L179.49 8.52734C179.537 8.4375 179.629 8.39453 179.766 8.39844H180.498C180.604 8.39844 180.684 8.43555 180.738 8.50977C180.793 8.58398 180.812 8.67383 180.797 8.7793L179.982 13.9414C179.83 14.9102 179.477 15.5742 178.922 15.9336C178.371 16.293 177.645 16.4727 176.742 16.4727ZM177.234 12.7871C177.828 12.7871 178.291 12.5957 178.623 12.2129C178.701 12.1504 178.75 12.0508 178.77 11.9141L179.021 10.3379C179.029 10.2168 179.014 10.1211 178.975 10.0508C178.791 9.66016 178.43 9.46484 177.891 9.46484C177.012 9.46484 176.5 9.89648 176.355 10.7598L176.238 11.4922C176.176 11.9492 176.238 12.2793 176.426 12.4824C176.613 12.6855 176.883 12.7871 177.234 12.7871ZM183.217 7.31445C182.65 7.31445 182.426 7.01172 182.543 6.40625C182.656 5.86328 183.016 5.58984 183.621 5.58594C184.164 5.58594 184.393 5.86719 184.307 6.42969C184.229 7.01953 183.865 7.31445 183.217 7.31445ZM181.857 13.9883C181.752 13.9883 181.672 13.9531 181.617 13.8828C181.562 13.8086 181.539 13.7188 181.547 13.6133L182.338 8.65039C182.361 8.48242 182.457 8.39844 182.625 8.39844H183.551C183.648 8.39844 183.727 8.43164 183.785 8.49805C183.844 8.56445 183.865 8.6543 183.85 8.76758L183.07 13.7363C183.047 13.9043 182.947 13.9883 182.771 13.9883H181.857ZM186.088 14.1816C185.561 14.1816 185.168 14.0586 184.91 13.8125C184.656 13.5625 184.537 13.1973 184.553 12.7168C184.584 11.4277 185.42 10.7832 187.061 10.7832H188.443C188.541 10.7832 188.588 10.7441 188.584 10.666L188.607 10.4375C188.654 10.0938 188.582 9.84766 188.391 9.69922C188.199 9.55078 187.924 9.47656 187.564 9.47656C186.963 9.47656 186.439 9.62891 185.994 9.93359C185.811 10.0312 185.67 9.99805 185.572 9.83398L185.285 9.30664C185.195 9.14648 185.223 9.01953 185.367 8.92578C186.023 8.45312 186.889 8.2168 187.963 8.2168C188.756 8.2168 189.352 8.39258 189.75 8.74414C190.148 9.0957 190.279 9.69922 190.143 10.5547L189.639 13.7363C189.615 13.9121 189.52 14 189.352 14H188.607C188.51 14 188.432 13.9688 188.373 13.9062C188.314 13.8398 188.293 13.7715 188.309 13.7012L188.332 13.5078C188.355 13.4023 188.352 13.3457 188.32 13.3379C188.297 13.3379 188.221 13.3945 188.092 13.5078C187.564 13.957 186.896 14.1816 186.088 14.1816ZM186.715 13.0273C187.121 13.0273 187.49 12.9434 187.822 12.7754C188.154 12.6074 188.34 12.3711 188.379 12.0664L188.414 11.791C188.422 11.7598 188.412 11.7324 188.385 11.709C188.357 11.6855 188.324 11.6738 188.285 11.6738H187.014C186.357 11.6738 186.029 11.9375 186.029 12.4648C186.029 12.8398 186.258 13.0273 186.715 13.0273ZM197.924 8.2168C198.658 8.2168 199.217 8.41602 199.6 8.81445C199.986 9.20898 200.111 9.83789 199.975 10.7012L199.822 11.7441C199.576 13.377 198.607 14.1934 196.916 14.1934C196.221 14.1934 195.693 14.0254 195.334 13.6895C195.271 13.6191 195.211 13.5918 195.152 13.6074C195.098 13.623 195.066 13.6777 195.059 13.7715L194.695 16.0391C194.672 16.207 194.58 16.291 194.42 16.291H193.494C193.389 16.291 193.307 16.2539 193.248 16.1797C193.189 16.1094 193.168 16.0234 193.184 15.9219L194.338 8.65039C194.361 8.48242 194.457 8.39844 194.625 8.39844H195.346C195.49 8.39844 195.582 8.46094 195.621 8.58594L195.609 8.84961C195.602 8.99414 195.674 9.00781 195.826 8.89062C195.857 8.86719 195.889 8.83789 195.92 8.80273C196.377 8.41211 197.045 8.2168 197.924 8.2168ZM198.451 10.7715C198.521 10.3145 198.451 9.98438 198.24 9.78125C198.029 9.57812 197.736 9.47656 197.361 9.47656C196.705 9.47656 196.172 9.70898 195.762 10.1738C195.648 10.3105 195.578 10.4629 195.551 10.6309L195.357 11.8496C195.326 12.0801 195.35 12.2578 195.428 12.3828C195.643 12.75 196.031 12.9336 196.594 12.9336C197.602 12.9336 198.182 12.4688 198.334 11.5391L198.451 10.7715ZM202.189 14.1816C201.662 14.1816 201.27 14.0586 201.012 13.8125C200.758 13.5625 200.639 13.1973 200.654 12.7168C200.686 11.4277 201.521 10.7832 203.162 10.7832H204.545C204.643 10.7832 204.689 10.7441 204.686 10.666L204.709 10.4375C204.756 10.0938 204.684 9.84766 204.492 9.69922C204.301 9.55078 204.025 9.47656 203.666 9.47656C203.064 9.47656 202.541 9.62891 202.096 9.93359C201.912 10.0312 201.771 9.99805 201.674 9.83398L201.387 9.30664C201.297 9.14648 201.324 9.01953 201.469 8.92578C202.125 8.45312 202.99 8.2168 204.064 8.2168C204.857 8.2168 205.453 8.39258 205.852 8.74414C206.25 9.0957 206.381 9.69922 206.244 10.5547L205.74 13.7363C205.717 13.9121 205.621 14 205.453 14H204.709C204.611 14 204.533 13.9688 204.475 13.9062C204.416 13.8398 204.395 13.7715 204.41 13.7012L204.434 13.5078C204.457 13.4023 204.453 13.3457 204.422 13.3379C204.398 13.3379 204.322 13.3945 204.193 13.5078C203.666 13.957 202.998 14.1816 202.189 14.1816ZM202.816 13.0273C203.223 13.0273 203.592 12.9434 203.924 12.7754C204.256 12.6074 204.441 12.3711 204.48 12.0664L204.516 11.791C204.523 11.7598 204.514 11.7324 204.486 11.709C204.459 11.6855 204.426 11.6738 204.387 11.6738H203.115C202.459 11.6738 202.131 11.9375 202.131 12.4648C202.131 12.8398 202.359 13.0273 202.816 13.0273ZM211.928 8.44531C212.104 8.54297 212.135 8.68164 212.021 8.86133L211.582 9.59375C211.504 9.72266 211.379 9.75977 211.207 9.70508C211.047 9.59961 210.844 9.54688 210.598 9.54688C210.125 9.54688 209.717 9.75977 209.373 10.1855C209.275 10.2988 209.211 10.4297 209.18 10.5781L208.664 13.748C208.641 13.916 208.545 14 208.377 14H207.463C207.357 14 207.275 13.9648 207.217 13.8945C207.158 13.8203 207.137 13.7324 207.152 13.6309L207.932 8.65039C207.955 8.48242 208.051 8.39844 208.219 8.39844H209.021C209.174 8.39844 209.271 8.46094 209.314 8.58594L209.285 8.76758C209.301 8.93555 209.385 8.93555 209.537 8.76758C209.896 8.40039 210.369 8.2168 210.955 8.2168C211.338 8.2168 211.662 8.29297 211.928 8.44531ZM213.592 14.1816C213.064 14.1816 212.672 14.0586 212.414 13.8125C212.16 13.5625 212.041 13.1973 212.057 12.7168C212.088 11.4277 212.924 10.7832 214.564 10.7832H215.947C216.045 10.7832 216.092 10.7441 216.088 10.666L216.111 10.4375C216.158 10.0938 216.086 9.84766 215.895 9.69922C215.703 9.55078 215.428 9.47656 215.068 9.47656C214.467 9.47656 213.943 9.62891 213.498 9.93359C213.314 10.0312 213.174 9.99805 213.076 9.83398L212.789 9.30664C212.699 9.14648 212.727 9.01953 212.871 8.92578C213.527 8.45312 214.393 8.2168 215.467 8.2168C216.26 8.2168 216.855 8.39258 217.254 8.74414C217.652 9.0957 217.783 9.69922 217.646 10.5547L217.143 13.7363C217.119 13.9121 217.023 14 216.855 14H216.111C216.014 14 215.936 13.9688 215.877 13.9062C215.818 13.8398 215.797 13.7715 215.812 13.7012L215.836 13.5078C215.859 13.4023 215.855 13.3457 215.824 13.3379C215.801 13.3379 215.725 13.3945 215.596 13.5078C215.068 13.957 214.4 14.1816 213.592 14.1816ZM214.219 13.0273C214.625 13.0273 214.994 12.9434 215.326 12.7754C215.658 12.6074 215.844 12.3711 215.883 12.0664L215.918 11.791C215.926 11.7598 215.916 11.7324 215.889 11.709C215.861 11.6855 215.828 11.6738 215.789 11.6738H214.518C213.861 11.6738 213.533 11.9375 213.533 12.4648C213.533 12.8398 213.762 13.0273 214.219 13.0273ZM223.629 14.1816C221.66 14.1816 220.812 13.3242 221.086 11.6094L221.227 10.6895C221.484 9.04102 222.561 8.2168 224.455 8.2168C225.357 8.2168 226.049 8.41992 226.529 8.82617C227.01 9.22852 227.18 9.88086 227.039 10.7832L226.893 11.709C226.639 13.3574 225.551 14.1816 223.629 14.1816ZM223.723 12.9219C224.684 12.9219 225.24 12.4766 225.393 11.5859L225.51 10.7949C225.646 9.91602 225.268 9.47656 224.373 9.47656C223.428 9.47656 222.883 9.91992 222.738 10.8066L222.609 11.6094C222.539 12.0742 222.611 12.4102 222.826 12.6172C223.041 12.8203 223.34 12.9219 223.723 12.9219ZM229.992 14.1816C228.938 14.1816 228.197 13.9297 227.771 13.4258C227.65 13.3281 227.635 13.207 227.725 13.0625L228.059 12.5469C228.164 12.3789 228.312 12.3633 228.504 12.5C228.809 12.875 229.32 13.0625 230.039 13.0625C230.383 13.0625 230.67 13.0039 230.9 12.8867C231.135 12.7656 231.252 12.5918 231.252 12.3652C231.252 12.0449 230.992 11.8379 230.473 11.7441L229.729 11.6211C229.217 11.543 228.828 11.3672 228.562 11.0938C228.301 10.8164 228.17 10.4648 228.17 10.0391C228.17 9.41406 228.412 8.95508 228.896 8.66211C229.381 8.36523 230.002 8.2168 230.76 8.2168C231.67 8.2168 232.354 8.44531 232.811 8.90234C232.971 9.02344 232.979 9.16211 232.834 9.31836L232.395 9.81055C232.281 9.92383 232.148 9.93164 231.996 9.83398C231.684 9.49805 231.252 9.33008 230.701 9.33008C230.373 9.33008 230.111 9.38281 229.916 9.48828C229.721 9.59375 229.623 9.74219 229.623 9.93359C229.623 10.2305 229.857 10.4297 230.326 10.5312L231.146 10.6543C232.178 10.8223 232.693 11.3418 232.693 12.2129C232.693 12.8926 232.441 13.3906 231.938 13.707C231.434 14.0234 230.785 14.1816 229.992 14.1816ZM238.324 14.1816C237.27 14.1816 236.529 13.9297 236.104 13.4258C235.982 13.3281 235.967 13.207 236.057 13.0625L236.391 12.5469C236.496 12.3789 236.645 12.3633 236.836 12.5C237.141 12.875 237.652 13.0625 238.371 13.0625C238.715 13.0625 239.002 13.0039 239.232 12.8867C239.467 12.7656 239.584 12.5918 239.584 12.3652C239.584 12.0449 239.324 11.8379 238.805 11.7441L238.061 11.6211C237.549 11.543 237.16 11.3672 236.895 11.0938C236.633 10.8164 236.502 10.4648 236.502 10.0391C236.502 9.41406 236.744 8.95508 237.229 8.66211C237.713 8.36523 238.334 8.2168 239.092 8.2168C240.002 8.2168 240.686 8.44531 241.143 8.90234C241.303 9.02344 241.311 9.16211 241.166 9.31836L240.727 9.81055C240.613 9.92383 240.48 9.93164 240.328 9.83398C240.016 9.49805 239.584 9.33008 239.033 9.33008C238.705 9.33008 238.443 9.38281 238.248 9.48828C238.053 9.59375 237.955 9.74219 237.955 9.93359C237.955 10.2305 238.189 10.4297 238.658 10.5312L239.479 10.6543C240.51 10.8223 241.025 11.3418 241.025 12.2129C241.025 12.8926 240.773 13.3906 240.27 13.707C239.766 14.0234 239.117 14.1816 238.324 14.1816ZM244.4 14.1934C242.529 14.1934 241.73 13.332 242.004 11.6094L242.156 10.6309C242.414 9.02148 243.443 8.2168 245.244 8.2168C246.986 8.2168 247.738 9.05273 247.5 10.7246L247.412 11.4805C247.389 11.6562 247.289 11.7441 247.113 11.7441H243.68C243.59 11.7441 243.547 11.7754 243.551 11.8379L243.527 11.9961C243.48 12.3164 243.566 12.5527 243.785 12.7051C244.004 12.8574 244.293 12.9336 244.652 12.9336C245.293 12.9336 245.814 12.7734 246.217 12.4531C246.377 12.3555 246.508 12.3789 246.609 12.5234L246.984 13.0391C247.113 13.207 247.102 13.3438 246.949 13.4492C246.348 13.9453 245.498 14.1934 244.4 14.1934ZM243.826 10.8066H245.977C246.055 10.8066 246.094 10.7637 246.094 10.6777L246.105 10.4609C246.168 9.77344 245.844 9.42969 245.133 9.42969C244.348 9.42969 243.885 9.77734 243.744 10.4727L243.691 10.6543C243.684 10.6934 243.693 10.7285 243.721 10.7598C243.752 10.791 243.787 10.8066 243.826 10.8066ZM253.189 8.44531C253.365 8.54297 253.396 8.68164 253.283 8.86133L252.844 9.59375C252.766 9.72266 252.641 9.75977 252.469 9.70508C252.309 9.59961 252.105 9.54688 251.859 9.54688C251.387 9.54688 250.979 9.75977 250.635 10.1855C250.537 10.2988 250.473 10.4297 250.441 10.5781L249.926 13.748C249.902 13.916 249.807 14 249.639 14H248.725C248.619 14 248.537 13.9648 248.479 13.8945C248.42 13.8203 248.398 13.7324 248.414 13.6309L249.193 8.65039C249.217 8.48242 249.312 8.39844 249.48 8.39844H250.283C250.436 8.39844 250.533 8.46094 250.576 8.58594L250.547 8.76758C250.562 8.93555 250.646 8.93555 250.799 8.76758C251.158 8.40039 251.631 8.2168 252.217 8.2168C252.6 8.2168 252.924 8.29297 253.189 8.44531ZM259.389 8.39844C259.541 8.39844 259.648 8.45703 259.711 8.57422C259.777 8.6875 259.77 8.8125 259.688 8.94922L256.811 13.8652C256.764 13.9551 256.688 14 256.582 14H255.24C255.096 14 255.004 13.9277 254.965 13.7832L253.717 8.80273C253.693 8.68945 253.713 8.59375 253.775 8.51562C253.838 8.4375 253.926 8.39844 254.039 8.39844H255.152C255.23 8.39844 255.297 8.42383 255.352 8.47461C255.41 8.52539 255.445 8.5918 255.457 8.67383L256.066 12.2012C256.074 12.4004 256.102 12.5 256.148 12.5C256.199 12.5 256.256 12.4082 256.318 12.2246L258.094 8.57422C258.148 8.45312 258.236 8.39453 258.357 8.39844H259.389ZM261.779 7.31445C261.213 7.31445 260.988 7.01172 261.105 6.40625C261.219 5.86328 261.578 5.58984 262.184 5.58594C262.727 5.58594 262.955 5.86719 262.869 6.42969C262.791 7.01953 262.428 7.31445 261.779 7.31445ZM260.42 13.9883C260.314 13.9883 260.234 13.9531 260.18 13.8828C260.125 13.8086 260.102 13.7188 260.109 13.6133L260.9 8.65039C260.924 8.48242 261.02 8.39844 261.188 8.39844H262.113C262.211 8.39844 262.289 8.43164 262.348 8.49805C262.406 8.56445 262.428 8.6543 262.412 8.76758L261.633 13.7363C261.609 13.9043 261.51 13.9883 261.334 13.9883H260.42ZM268.934 9.35352C269.023 9.53711 268.984 9.67383 268.816 9.76367L268.119 10.1211C267.99 10.1914 267.871 10.1562 267.762 10.0156C267.539 9.65625 267.143 9.47656 266.572 9.47656C265.635 9.47656 265.09 9.93555 264.938 10.8535L264.832 11.5625C264.762 12.0352 264.83 12.3809 265.037 12.5996C265.244 12.8145 265.543 12.9219 265.934 12.9219C266.574 12.9219 267.074 12.7129 267.434 12.2949C267.57 12.1426 267.711 12.1191 267.855 12.2246L268.359 12.6172C268.52 12.7383 268.543 12.875 268.43 13.0273C267.918 13.7148 267.115 14.0957 266.021 14.1699L265.945 14.4336C265.93 14.5312 265.979 14.582 266.092 14.5859C266.412 14.6094 266.648 14.7012 266.801 14.8613C266.953 15.0215 267.008 15.2305 266.965 15.4883C266.926 15.8242 266.766 16.0684 266.484 16.2207C266.207 16.373 265.885 16.4492 265.518 16.4492C265.236 16.4492 264.984 16.4258 264.762 16.3789C264.594 16.3398 264.525 16.2266 264.557 16.0391L264.592 15.8867C264.631 15.7109 264.727 15.6387 264.879 15.6699C265.039 15.7012 265.191 15.7168 265.336 15.7168C265.77 15.7168 265.994 15.6055 266.01 15.3828C266.025 15.1992 265.816 15.0898 265.383 15.0547C265.16 15.0312 265.084 14.9043 265.154 14.6738L265.301 14.1699C263.742 14.0723 263.082 13.1914 263.32 11.5273L263.461 10.6133C263.719 9.01172 264.775 8.21289 266.631 8.2168C267.775 8.21289 268.543 8.5918 268.934 9.35352ZM271.922 14.1816C269.953 14.1816 269.105 13.3242 269.379 11.6094L269.52 10.6895C269.777 9.04102 270.854 8.2168 272.748 8.2168C273.65 8.2168 274.342 8.41992 274.822 8.82617C275.303 9.22852 275.473 9.88086 275.332 10.7832L275.186 11.709C274.932 13.3574 273.844 14.1816 271.922 14.1816ZM272.016 12.9219C272.977 12.9219 273.533 12.4766 273.686 11.5859L273.803 10.7949C273.939 9.91602 273.561 9.47656 272.666 9.47656C271.721 9.47656 271.176 9.91992 271.031 10.8066L270.902 11.6094C270.832 12.0742 270.904 12.4102 271.119 12.6172C271.334 12.8203 271.633 12.9219 272.016 12.9219ZM278.285 14.1816C277.23 14.1816 276.49 13.9297 276.064 13.4258C275.943 13.3281 275.928 13.207 276.018 13.0625L276.352 12.5469C276.457 12.3789 276.605 12.3633 276.797 12.5C277.102 12.875 277.613 13.0625 278.332 13.0625C278.676 13.0625 278.963 13.0039 279.193 12.8867C279.428 12.7656 279.545 12.5918 279.545 12.3652C279.545 12.0449 279.285 11.8379 278.766 11.7441L278.021 11.6211C277.51 11.543 277.121 11.3672 276.855 11.0938C276.594 10.8164 276.463 10.4648 276.463 10.0391C276.463 9.41406 276.705 8.95508 277.189 8.66211C277.674 8.36523 278.295 8.2168 279.053 8.2168C279.963 8.2168 280.646 8.44531 281.104 8.90234C281.264 9.02344 281.271 9.16211 281.127 9.31836L280.688 9.81055C280.574 9.92383 280.441 9.93164 280.289 9.83398C279.977 9.49805 279.545 9.33008 278.994 9.33008C278.666 9.33008 278.404 9.38281 278.209 9.48828C278.014 9.59375 277.916 9.74219 277.916 9.93359C277.916 10.2305 278.15 10.4297 278.619 10.5312L279.439 10.6543C280.471 10.8223 280.986 11.3418 280.986 12.2129C280.986 12.8926 280.734 13.3906 280.23 13.707C279.727 14.0234 279.078 14.1816 278.285 14.1816ZM138.334 19.3223C138.494 19.4355 138.52 19.5762 138.41 19.7441L138.012 20.3652C137.914 20.5176 137.777 20.5469 137.602 20.4531C137.289 20.2852 136.934 20.2012 136.535 20.2012C136.176 20.2012 135.891 20.3008 135.68 20.5C135.473 20.6992 135.334 21.0312 135.264 21.4961L135.135 22.2402C135.119 22.3457 135.162 22.3984 135.264 22.3984H136.693C136.799 22.3984 136.881 22.4336 136.939 22.5039C136.998 22.5742 137.02 22.6621 137.004 22.7676L136.922 23.3418C136.898 23.502 136.807 23.582 136.646 23.582H135.035C134.973 23.582 134.934 23.6191 134.918 23.6934L134.268 27.748C134.244 27.916 134.152 28 133.992 28H133.078C132.973 28 132.891 27.9648 132.832 27.8945C132.773 27.8203 132.752 27.7324 132.768 27.6309L133.383 23.7402C133.398 23.6348 133.361 23.582 133.271 23.582H133.008C132.895 23.582 132.816 23.5488 132.773 23.4824C132.73 23.416 132.717 23.3301 132.732 23.2246L132.814 22.6504C132.838 22.4824 132.934 22.3984 133.102 22.3984H133.488C133.566 22.3984 133.605 22.3652 133.605 22.2988L133.752 21.3906C133.904 20.4375 134.209 19.7852 134.666 19.4336C135.127 19.082 135.723 18.9062 136.453 18.9062C137.188 18.9023 137.814 19.041 138.334 19.3223ZM139.271 21.3145C138.705 21.3145 138.48 21.0117 138.598 20.4062C138.711 19.8633 139.07 19.5898 139.676 19.5859C140.219 19.5859 140.447 19.8672 140.361 20.4297C140.283 21.0195 139.92 21.3145 139.271 21.3145ZM137.912 27.9883C137.807 27.9883 137.727 27.9531 137.672 27.8828C137.617 27.8086 137.594 27.7188 137.602 27.6133L138.393 22.6504C138.416 22.4824 138.512 22.3984 138.68 22.3984H139.605C139.703 22.3984 139.781 22.4316 139.84 22.498C139.898 22.5645 139.92 22.6543 139.904 22.7676L139.125 27.7363C139.102 27.9043 139.002 27.9883 138.826 27.9883H137.912ZM141.146 28C141.041 28 140.959 27.9648 140.9 27.8945C140.842 27.8203 140.82 27.7324 140.836 27.6309L141.615 22.6504C141.639 22.4824 141.734 22.3984 141.902 22.3984H142.705C142.834 22.3984 142.918 22.4414 142.957 22.5273V22.7793C142.973 22.9004 143.041 22.9121 143.162 22.8145C143.674 22.416 144.326 22.2168 145.119 22.2168C145.729 22.2168 146.201 22.3809 146.537 22.709C146.873 23.0371 146.977 23.5977 146.848 24.3906L146.32 27.748C146.297 27.916 146.197 28 146.021 28H145.107C145.002 28 144.92 27.9648 144.861 27.8945C144.803 27.8203 144.781 27.7324 144.797 27.6309L145.266 24.6543C145.387 23.9355 145.102 23.5742 144.41 23.5703C143.922 23.5703 143.486 23.7344 143.104 24.0625C142.967 24.1406 142.891 24.25 142.875 24.3906L142.348 27.748C142.324 27.916 142.229 28 142.061 28H141.146ZM149.244 28.1816C148.717 28.1816 148.324 28.0586 148.066 27.8125C147.812 27.5625 147.693 27.1973 147.709 26.7168C147.74 25.4277 148.576 24.7832 150.217 24.7832H151.6C151.697 24.7832 151.744 24.7441 151.74 24.666L151.764 24.4375C151.811 24.0938 151.738 23.8477 151.547 23.6992C151.355 23.5508 151.08 23.4766 150.721 23.4766C150.119 23.4766 149.596 23.6289 149.15 23.9336C148.967 24.0312 148.826 23.998 148.729 23.834L148.441 23.3066C148.352 23.1465 148.379 23.0195 148.523 22.9258C149.18 22.4531 150.045 22.2168 151.119 22.2168C151.912 22.2168 152.508 22.3926 152.906 22.7441C153.305 23.0957 153.436 23.6992 153.299 24.5547L152.795 27.7363C152.771 27.9121 152.676 28 152.508 28H151.764C151.666 28 151.588 27.9688 151.529 27.9062C151.471 27.8398 151.449 27.7715 151.465 27.7012L151.488 27.5078C151.512 27.4023 151.508 27.3457 151.477 27.3379C151.453 27.3379 151.377 27.3945 151.248 27.5078C150.721 27.957 150.053 28.1816 149.244 28.1816ZM149.871 27.0273C150.277 27.0273 150.646 26.9434 150.979 26.7754C151.311 26.6074 151.496 26.3711 151.535 26.0664L151.57 25.791C151.578 25.7598 151.568 25.7324 151.541 25.709C151.514 25.6855 151.48 25.6738 151.441 25.6738H150.17C149.514 25.6738 149.186 25.9375 149.186 26.4648C149.186 26.8398 149.414 27.0273 149.871 27.0273ZM154.518 28C154.412 28 154.33 27.9648 154.271 27.8945C154.213 27.8203 154.191 27.7324 154.207 27.6309L154.986 22.6504C155.01 22.4824 155.105 22.3984 155.273 22.3984H156.076C156.205 22.3984 156.289 22.4414 156.328 22.5273V22.7793C156.344 22.9004 156.412 22.9121 156.533 22.8145C157.045 22.416 157.697 22.2168 158.49 22.2168C159.1 22.2168 159.572 22.3809 159.908 22.709C160.244 23.0371 160.348 23.5977 160.219 24.3906L159.691 27.748C159.668 27.916 159.568 28 159.393 28H158.479C158.373 28 158.291 27.9648 158.232 27.8945C158.174 27.8203 158.152 27.7324 158.168 27.6309L158.637 24.6543C158.758 23.9355 158.473 23.5742 157.781 23.5703C157.293 23.5703 156.857 23.7344 156.475 24.0625C156.338 24.1406 156.262 24.25 156.246 24.3906L155.719 27.748C155.695 27.916 155.6 28 155.432 28H154.518ZM166.324 26.6172C166.484 26.7383 166.508 26.875 166.395 27.0273C165.82 27.7969 164.877 28.1816 163.564 28.1816C161.779 28.1816 161.02 27.2969 161.285 25.5273L161.426 24.6133C161.684 23.0117 162.74 22.2129 164.596 22.2168C165.74 22.2168 166.508 22.5957 166.898 23.3535C166.988 23.5371 166.949 23.6738 166.781 23.7637L166.084 24.1211C165.955 24.1914 165.836 24.1562 165.727 24.0156C165.504 23.6562 165.107 23.4766 164.537 23.4766C163.6 23.4766 163.055 23.9355 162.902 24.8535L162.797 25.5625C162.727 26.0352 162.795 26.3809 163.002 26.5996C163.209 26.8145 163.508 26.9219 163.898 26.9219C164.539 26.9219 165.039 26.7129 165.398 26.2949C165.535 26.1426 165.676 26.1191 165.82 26.2246L166.324 26.6172ZM169.74 28.1934C167.869 28.1934 167.07 27.332 167.344 25.6094L167.496 24.6309C167.754 23.0215 168.783 22.2168 170.584 22.2168C172.326 22.2168 173.078 23.0527 172.84 24.7246L172.752 25.4805C172.729 25.6562 172.629 25.7441 172.453 25.7441H169.02C168.93 25.7441 168.887 25.7754 168.891 25.8379L168.867 25.9961C168.82 26.3164 168.906 26.5527 169.125 26.7051C169.344 26.8574 169.633 26.9336 169.992 26.9336C170.633 26.9336 171.154 26.7734 171.557 26.4531C171.717 26.3555 171.848 26.3789 171.949 26.5234L172.324 27.0391C172.453 27.207 172.441 27.3438 172.289 27.4492C171.688 27.9453 170.838 28.1934 169.74 28.1934ZM169.166 24.8066H171.316C171.395 24.8066 171.434 24.7637 171.434 24.6777L171.445 24.4609C171.508 23.7734 171.184 23.4297 170.473 23.4297C169.688 23.4297 169.225 23.7773 169.084 24.4727L169.031 24.6543C169.023 24.6934 169.033 24.7285 169.061 24.7598C169.092 24.791 169.127 24.8066 169.166 24.8066ZM175.424 21.3145C174.857 21.3145 174.633 21.0117 174.75 20.4062C174.863 19.8633 175.223 19.5898 175.828 19.5859C176.371 19.5859 176.6 19.8672 176.514 20.4297C176.436 21.0195 176.072 21.3145 175.424 21.3145ZM174.064 27.9883C173.959 27.9883 173.879 27.9531 173.824 27.8828C173.77 27.8086 173.746 27.7188 173.754 27.6133L174.545 22.6504C174.568 22.4824 174.664 22.3984 174.832 22.3984H175.758C175.855 22.3984 175.934 22.4316 175.992 22.498C176.051 22.5645 176.072 22.6543 176.057 22.7676L175.277 27.7363C175.254 27.9043 175.154 27.9883 174.979 27.9883H174.064ZM181.764 22.4453C181.939 22.543 181.971 22.6816 181.857 22.8613L181.418 23.5938C181.34 23.7227 181.215 23.7598 181.043 23.7051C180.883 23.5996 180.68 23.5469 180.434 23.5469C179.961 23.5469 179.553 23.7598 179.209 24.1855C179.111 24.2988 179.047 24.4297 179.016 24.5781L178.5 27.748C178.477 27.916 178.381 28 178.213 28H177.299C177.193 28 177.111 27.9648 177.053 27.8945C176.994 27.8203 176.973 27.7324 176.988 27.6309L177.768 22.6504C177.791 22.4824 177.887 22.3984 178.055 22.3984H178.857C179.01 22.3984 179.107 22.4609 179.15 22.5859L179.121 22.7676C179.137 22.9355 179.221 22.9355 179.373 22.7676C179.732 22.4004 180.205 22.2168 180.791 22.2168C181.174 22.2168 181.498 22.293 181.764 22.4453ZM184.395 28.1816C182.426 28.1816 181.578 27.3242 181.852 25.6094L181.992 24.6895C182.25 23.041 183.326 22.2168 185.221 22.2168C186.123 22.2168 186.814 22.4199 187.295 22.8262C187.775 23.2285 187.945 23.8809 187.805 24.7832L187.658 25.709C187.404 27.3574 186.316 28.1816 184.395 28.1816ZM184.488 26.9219C185.449 26.9219 186.006 26.4766 186.158 25.5859L186.275 24.7949C186.412 23.916 186.033 23.4766 185.139 23.4766C184.193 23.4766 183.648 23.9199 183.504 24.8066L183.375 25.6094C183.305 26.0742 183.377 26.4102 183.592 26.6172C183.807 26.8203 184.105 26.9219 184.488 26.9219ZM190.758 28.1816C189.703 28.1816 188.963 27.9297 188.537 27.4258C188.416 27.3281 188.4 27.207 188.49 27.0625L188.824 26.5469C188.93 26.3789 189.078 26.3633 189.27 26.5C189.574 26.875 190.086 27.0625 190.805 27.0625C191.148 27.0625 191.436 27.0039 191.666 26.8867C191.9 26.7656 192.018 26.5918 192.018 26.3652C192.018 26.0449 191.758 25.8379 191.238 25.7441L190.494 25.6211C189.982 25.543 189.594 25.3672 189.328 25.0938C189.066 24.8164 188.936 24.4648 188.936 24.0391C188.936 23.4141 189.178 22.9551 189.662 22.6621C190.146 22.3652 190.768 22.2168 191.525 22.2168C192.436 22.2168 193.119 22.4453 193.576 22.9023C193.736 23.0234 193.744 23.1621 193.6 23.3184L193.16 23.8105C193.047 23.9238 192.914 23.9316 192.762 23.834C192.449 23.498 192.018 23.3301 191.467 23.3301C191.139 23.3301 190.877 23.3828 190.682 23.4883C190.486 23.5938 190.389 23.7422 190.389 23.9336C190.389 24.2305 190.623 24.4297 191.092 24.5312L191.912 24.6543C192.943 24.8223 193.459 25.3418 193.459 26.2129C193.459 26.8926 193.207 27.3906 192.703 27.707C192.199 28.0234 191.551 28.1816 190.758 28.1816ZM199.09 28.1816C198.328 28.1816 197.76 27.9629 197.385 27.5254C197.01 27.0879 196.883 26.4668 197.004 25.6621L197.156 24.6133C197.293 23.7578 197.617 23.1445 198.129 22.7734C198.641 22.4023 199.266 22.2168 200.004 22.2168C200.73 22.2168 201.285 22.4082 201.668 22.791C201.707 22.8223 201.746 22.8418 201.785 22.8496C201.828 22.8574 201.869 22.8477 201.908 22.8203C201.951 22.793 201.977 22.752 201.984 22.6973L202.5 19.334C202.523 19.166 202.615 19.082 202.775 19.082H203.701C203.807 19.082 203.887 19.1191 203.941 19.1934C203.996 19.2637 204.016 19.3516 204 19.457L202.705 27.748C202.682 27.916 202.588 28 202.424 28H201.768C201.584 28 201.484 27.9238 201.469 27.7715V27.5195C201.469 27.4297 201.449 27.3711 201.41 27.3438C201.375 27.3164 201.334 27.3125 201.287 27.332C201.24 27.3516 201.188 27.3867 201.129 27.4375C200.539 27.9336 199.859 28.1816 199.09 28.1816ZM199.729 26.9219C200.447 26.9219 200.979 26.6855 201.322 26.2129C201.42 26.0996 201.48 25.9551 201.504 25.7793L201.691 24.5312C201.715 24.3867 201.688 24.2461 201.609 24.1094C201.441 23.6836 200.979 23.4727 200.221 23.4766C199.822 23.4766 199.479 23.5801 199.189 23.7871C198.9 23.9941 198.723 24.3223 198.656 24.7715L198.539 25.5625C198.477 26.0117 198.557 26.3516 198.779 26.582C199.006 26.8086 199.322 26.9219 199.729 26.9219ZM206.859 28.1816C204.891 28.1816 204.043 27.3242 204.316 25.6094L204.457 24.6895C204.715 23.041 205.791 22.2168 207.686 22.2168C208.588 22.2168 209.279 22.4199 209.76 22.8262C210.24 23.2285 210.41 23.8809 210.27 24.7832L210.123 25.709C209.869 27.3574 208.781 28.1816 206.859 28.1816ZM206.953 26.9219C207.914 26.9219 208.471 26.4766 208.623 25.5859L208.74 24.7949C208.877 23.916 208.498 23.4766 207.604 23.4766C206.658 23.4766 206.113 23.9199 205.969 24.8066L205.84 25.6094C205.77 26.0742 205.842 26.4102 206.057 26.6172C206.271 26.8203 206.57 26.9219 206.953 26.9219ZM219.604 19.3223C219.764 19.4355 219.789 19.5762 219.68 19.7441L219.281 20.3652C219.184 20.5176 219.047 20.5469 218.871 20.4531C218.559 20.2852 218.203 20.2012 217.805 20.2012C217.445 20.2012 217.16 20.3008 216.949 20.5C216.742 20.6992 216.604 21.0312 216.533 21.4961L216.404 22.2402C216.389 22.3457 216.432 22.3984 216.533 22.3984H217.963C218.068 22.3984 218.15 22.4336 218.209 22.5039C218.268 22.5742 218.289 22.6621 218.273 22.7676L218.191 23.3418C218.168 23.502 218.076 23.582 217.916 23.582H216.305C216.242 23.582 216.203 23.6191 216.188 23.6934L215.537 27.748C215.514 27.916 215.422 28 215.262 28H214.348C214.242 28 214.16 27.9648 214.102 27.8945C214.043 27.8203 214.021 27.7324 214.037 27.6309L214.652 23.7402C214.668 23.6348 214.631 23.582 214.541 23.582H214.277C214.164 23.582 214.086 23.5488 214.043 23.4824C214 23.416 213.986 23.3301 214.002 23.2246L214.084 22.6504C214.107 22.4824 214.203 22.3984 214.371 22.3984H214.758C214.836 22.3984 214.875 22.3652 214.875 22.2988L215.021 21.3906C215.174 20.4375 215.479 19.7852 215.936 19.4336C216.396 19.082 216.992 18.9062 217.723 18.9062C218.457 18.9023 219.084 19.041 219.604 19.3223ZM224.549 22.3984C224.654 22.3984 224.736 22.4336 224.795 22.5039C224.857 22.5742 224.881 22.6621 224.865 22.7676L224.074 27.7598C224.051 27.9199 223.953 28 223.781 28H222.99C222.838 28 222.75 27.9434 222.727 27.8301L222.738 27.6543C222.738 27.5098 222.67 27.4844 222.533 27.5781C221.975 27.9766 221.311 28.1777 220.541 28.1816C219.955 28.1816 219.504 28.0078 219.188 27.6602C218.875 27.3125 218.775 26.7734 218.889 26.043L219.416 22.6621C219.439 22.4863 219.535 22.3984 219.703 22.3984H220.629C220.727 22.3984 220.805 22.4355 220.863 22.5098C220.922 22.584 220.943 22.6738 220.928 22.7793L220.471 25.6855C220.357 26.4473 220.633 26.8262 221.297 26.8223C221.785 26.8223 222.219 26.6621 222.598 26.3418C222.711 26.252 222.787 26.125 222.826 25.9609L223.342 22.6504C223.381 22.4824 223.48 22.3984 223.641 22.3984H224.549ZM230.525 22.3984C230.631 22.3984 230.713 22.4336 230.771 22.5039C230.83 22.5742 230.852 22.6621 230.836 22.7676L230.754 23.3535C230.715 23.5137 230.619 23.5938 230.467 23.5938H228.258C228.195 23.5938 228.154 23.6309 228.135 23.7051L227.824 25.7207C227.695 26.498 227.959 26.8867 228.615 26.8867C229.029 26.8867 229.434 26.793 229.828 26.6055C230.035 26.5273 230.18 26.5918 230.262 26.7988L230.455 27.4258C230.525 27.5938 230.5 27.7051 230.379 27.7598C229.793 28.041 229.062 28.1816 228.188 28.1816C226.668 28.1816 226.031 27.3809 226.277 25.7793L226.6 23.752C226.615 23.6465 226.572 23.5938 226.471 23.5938H226.172C226.066 23.5938 225.982 23.5605 225.92 23.4941C225.861 23.4277 225.84 23.3418 225.855 23.2363L225.943 22.6504C225.967 22.4824 226.062 22.3984 226.23 22.3984H226.711C226.773 22.3984 226.812 22.3652 226.828 22.2988L226.986 21.291C227.002 21.123 227.098 21.0391 227.273 21.0391H228.188C228.293 21.0391 228.375 21.0762 228.434 21.1504C228.492 21.2207 228.514 21.3086 228.498 21.4141L228.363 22.2402C228.348 22.3457 228.393 22.3984 228.498 22.3984H230.525ZM237.252 22.3984C237.357 22.3984 237.439 22.4336 237.498 22.5039C237.561 22.5742 237.584 22.6621 237.568 22.7676L236.777 27.7598C236.754 27.9199 236.656 28 236.484 28H235.693C235.541 28 235.453 27.9434 235.43 27.8301L235.441 27.6543C235.441 27.5098 235.373 27.4844 235.236 27.5781C234.678 27.9766 234.014 28.1777 233.244 28.1816C232.658 28.1816 232.207 28.0078 231.891 27.6602C231.578 27.3125 231.479 26.7734 231.592 26.043L232.119 22.6621C232.143 22.4863 232.238 22.3984 232.406 22.3984H233.332C233.43 22.3984 233.508 22.4355 233.566 22.5098C233.625 22.584 233.646 22.6738 233.631 22.7793L233.174 25.6855C233.061 26.4473 233.336 26.8262 234 26.8223C234.488 26.8223 234.922 26.6621 235.301 26.3418C235.414 26.252 235.49 26.125 235.529 25.9609L236.045 22.6504C236.084 22.4824 236.184 22.3984 236.344 22.3984H237.252ZM243.217 22.4453C243.393 22.543 243.424 22.6816 243.311 22.8613L242.871 23.5938C242.793 23.7227 242.668 23.7598 242.496 23.7051C242.336 23.5996 242.133 23.5469 241.887 23.5469C241.414 23.5469 241.006 23.7598 240.662 24.1855C240.564 24.2988 240.5 24.4297 240.469 24.5781L239.953 27.748C239.93 27.916 239.834 28 239.666 28H238.752C238.646 28 238.564 27.9648 238.506 27.8945C238.447 27.8203 238.426 27.7324 238.441 27.6309L239.221 22.6504C239.244 22.4824 239.34 22.3984 239.508 22.3984H240.311C240.463 22.3984 240.561 22.4609 240.604 22.5859L240.574 22.7676C240.59 22.9355 240.674 22.9355 240.826 22.7676C241.186 22.4004 241.658 22.2168 242.244 22.2168C242.627 22.2168 242.951 22.293 243.217 22.4453ZM245.848 28.1816C243.879 28.1816 243.031 27.3242 243.305 25.6094L243.445 24.6895C243.703 23.041 244.779 22.2168 246.674 22.2168C247.576 22.2168 248.268 22.4199 248.748 22.8262C249.229 23.2285 249.398 23.8809 249.258 24.7832L249.111 25.709C248.857 27.3574 247.77 28.1816 245.848 28.1816ZM245.941 26.9219C246.902 26.9219 247.459 26.4766 247.611 25.5859L247.729 24.7949C247.865 23.916 247.486 23.4766 246.592 23.4766C245.646 23.4766 245.102 23.9199 244.957 24.8066L244.828 25.6094C244.758 26.0742 244.83 26.4102 245.045 26.6172C245.26 26.8203 245.559 26.9219 245.941 26.9219Z" fill="#8C8C8C"/>
</svg>
