<svg xmlns="http://www.w3.org/2000/svg" width="164" height="88.137" viewBox="0 0 164 88.137">
  <g id="Group_1551" data-name="Group 1551" transform="translate(-81.411 -275.043)" opacity="0.18">
    <path id="Path_1196" data-name="Path 1196" d="M737.463,275.043H724.947l-.41,1.921c-.96,4.472-1.847,9.225-2.87,13.617l-2.528-.408a17.2,17.2,0,0,0-11.664,2.79l-1.727,1.207a31.456,31.456,0,0,0-3.181,2.777c-.285.284-.395.492-.687.778a31.241,31.241,0,0,0-3.261,4.165,33.659,33.659,0,0,0-3.937,7.888c-.907,2.739-1.879,6.772-1,10.172a8.407,8.407,0,0,0,5.6,6.229c2.9.868,7.843-.3,9.9-1.3,2.286-1.1,5.214-3.054,6.444-5.381h.6c0,.719-1.416,5.518-1.467,6.129h12.429l6.423-31.559c.425-2.131.824-4.189,1.279-6.317Zm0,0" transform="translate(-492.052)" fill-rule="evenodd"/>
    <path id="Path_1197" data-name="Path 1197" d="M511.722,387.436a23.806,23.806,0,0,0,14.76-5.179c.294-.224.558-.467.852-.7a26.253,26.253,0,0,0,3.773-3.908,28.586,28.586,0,0,0,3-4.683,23.835,23.835,0,0,0,2.648-9.7c0-2.923-.3-4.84-2.009-7.141a11.03,11.03,0,0,0-2.41-2.338,14.039,14.039,0,0,0-1.938-1.169,19.2,19.2,0,0,0-7.625-1.784,23.1,23.1,0,0,0-9.486,1.564,25.224,25.224,0,0,0-3.168,1.495,26.308,26.308,0,0,0-11.054,12.6,32.357,32.357,0,0,0-1.228,3.435,23.688,23.688,0,0,0-.765,3.984l-.1,2.209a10.24,10.24,0,0,0,1.714,5.451c1.9,2.887,5.442,4.732,8.769,5.389a22.177,22.177,0,0,0,4.265.48Zm0,0" transform="translate(-334.156 -60.944)" fill-rule="evenodd"/>
    <path id="Path_1198" data-name="Path 1198" d="M310.8,387.368a23.807,23.807,0,0,0,14.761-5.179,27.523,27.523,0,0,0,4.624-4.611,26.9,26.9,0,0,0,4.747-9.065c1.192-4.177,1.6-8.8-1.11-12.457a12.068,12.068,0,0,0-4.347-3.507c-.37-.178-.708-.311-1.09-.463l-1.152-.4a22.542,22.542,0,0,0-11.2-.437A21.539,21.539,0,0,0,310,353.414l-1.509.822c-.262.167-.463.311-.725.484-.513.342-.924.621-1.412,1a27.308,27.308,0,0,0-8.209,10.7,32.358,32.358,0,0,0-1.226,3.435,23.475,23.475,0,0,0-.765,3.984l-.1,2.209a10.238,10.238,0,0,0,1.712,5.451,11.041,11.041,0,0,0,3.61,3.384,19.039,19.039,0,0,0,9.426,2.486Zm0,0" transform="translate(-172.596 -60.876)" fill-rule="evenodd"/>
    <path id="Path_1199" data-name="Path 1199" d="M179.038,290.582h-4.4l-1.014,5.288a15.622,15.622,0,0,1-.366,1.79h4.315l-1.9,9.409c-.131.814-.317,1.555-.48,2.369-.171.852-.283,1.59-.469,2.378l-.942,4.758c-.548,2.747-1.435,6.746-1.9,9.411l-1.909,9.485h12.6a16.244,16.244,0,0,1,.423-2.337l7.086-35.56h9.149l1.057-5.243a9.539,9.539,0,0,0,.323-1.835h-9.236c.036-.431.177-1.055.247-1.479a11.942,11.942,0,0,1,1.306-4.045,5.15,5.15,0,0,1,4.662-2.5,20.283,20.283,0,0,1,6.681.828,9.31,9.31,0,0,0,1.6.551l1.469-7.338a11.909,11.909,0,0,0-1.778-.554c-.689-.173-1.238-.313-1.972-.446a30.323,30.323,0,0,0-4.438-.467H197.59a18.988,18.988,0,0,0-7.074,1.465,17.864,17.864,0,0,0-5.241,3.3,18.2,18.2,0,0,0-2.94,3.365,22.321,22.321,0,0,0-3.3,7.406Zm0,0" transform="translate(-71.215)" fill-rule="evenodd"/>
    <path id="Path_1200" data-name="Path 1200" d="M331.974,589.269a11.131,11.131,0,0,1-1.361,1.315l-.71.586a40.623,40.623,0,0,1-4.753,3.274l-2.621,1.437c-.693.285-1.135.562-1.826.849a44.851,44.851,0,0,1-12.59,3.64l-4.969.382-2.614-.15a28.574,28.574,0,0,1-8.731-2.058,31.179,31.179,0,0,1-9.823-6.317c-.467-.467-.871-.873-1.338-1.338a28.423,28.423,0,0,1-5-7.173c-.494-.985-.063-.835-1.236-.835a9.252,9.252,0,0,0,.294,1.522,32.886,32.886,0,0,0,3.757,9.447c.471.78.913,1.515,1.438,2.274l1.638,2.16a39.851,39.851,0,0,0,3.688,3.908,33.15,33.15,0,0,0,5.385,3.937,32.4,32.4,0,0,0,16.342,4.462,48.683,48.683,0,0,0,16.035-2.088c.628-.173,1.283-.419,1.951-.641a46.4,46.4,0,0,0,5.406-2.276c.292-.148.516-.275.78-.429,1.505-.875,2.378-1.276,4.018-2.369l2.262-1.623c.611-.409,1.689-1.452,2.177-1.71l1.811,5.18c.336.841.6,1.725.917,2.623.159.455.309.841.452,1.275a6.654,6.654,0,0,1,.444,1.37h.174c0-.545,4.222-21.516,4.984-25.315a13.78,13.78,0,0,1,.367-1.706c-.385-.008-.606-.091-1.122-.087h-18.9c-.556,0-4.91-.068-4.912-.065-.3.079-.144.106-.015.222l6.776,5.159c.279.209.456.365.727.568a3.024,3.024,0,0,1,.7.592Zm0,0" transform="translate(-155.184 -247.41)" fill-rule="evenodd"/>
    <path id="Path_1201" data-name="Path 1201" d="M81.411,389.411H93.927l.856-4.324c.294-1.475.572-2.955.863-4.4l3.468-17.508c.141-.708.3-1.437.423-2.166l1.3-6.647H88.4l-1.3,6.467c-.867,4.286-5.677,27.974-5.69,28.58Zm0,0" transform="translate(0 -63.782)" fill-rule="evenodd"/>
    <path id="Path_1202" data-name="Path 1202" d="M122.829,285.23H135c.385,0,.579-1.731.713-2.4l1.532-7.79H124.987c-.383.082-.213.1-.4,1.071l-1.553,7.769a8.17,8.17,0,0,0-.209,1.346Zm0,0" transform="translate(-33.304)" fill-rule="evenodd"/>
  </g>
</svg>
