<svg width="127" height="40" viewBox="0 0 127 40" fill="none" xmlns="http://www.w3.org/2000/svg">
<path d="M51.5058 10.5971C48.3481 10.4799 45.215 11.1811 42.4238 12.6296C40.8765 13.4505 39.5323 14.5935 38.4862 15.9778C37.44 17.3622 36.7173 18.9542 36.3692 20.6415L36.0362 22.082C35.2794 25.1605 35.6124 27.6173 37.0453 29.3835C38.9122 31.7416 41.8386 32.748 46.8336 32.748C55.5624 32.748 60.4464 29.6005 62.1014 22.6938L62.4243 21.2532C63.171 18.2932 62.8279 15.8364 61.4152 14.0603C59.5282 11.6627 56.5009 10.5971 51.5058 10.5971ZM55.6128 20.9572L55.3606 21.9439C54.4927 25.2295 51.9296 26.8181 47.5198 26.8181C44.876 26.8181 43.9072 26.2656 43.1807 25.3578C42.8925 24.9247 42.7082 24.4334 42.6418 23.9208C42.5754 23.4082 42.6285 22.8875 42.7972 22.3978L43.0495 21.4111C43.9375 18.0169 46.2786 16.5665 50.8499 16.5665C53.5644 16.5665 54.523 17.0993 55.2597 18.0268C55.5396 18.458 55.7167 18.9454 55.7779 19.4526C55.839 19.9599 55.7826 20.4742 55.6128 20.9572V20.9572Z" fill="white"/>
<path d="M82.7377 10.5971C79.58 10.4799 76.4468 11.1811 73.6557 12.6296C72.1084 13.4505 70.7642 14.5935 69.718 15.9778C68.6719 17.3622 67.9492 18.9542 67.6011 20.6415L67.2681 22.082C66.5113 25.1605 66.8342 27.6173 68.2772 29.3835C70.144 31.7416 73.0704 32.748 78.0655 32.748C86.7741 32.748 91.6884 29.6005 93.3434 22.6938L93.6663 21.2532C94.413 18.2932 94.0699 15.8364 92.6572 14.0603C90.8105 11.6627 87.7126 10.5971 82.7377 10.5971ZM86.8447 20.9572L86.5924 21.9439C85.7246 25.2295 83.1615 26.8181 78.7517 26.8181C76.1079 26.8181 75.129 26.2656 74.4126 25.3578C74.1243 24.9247 73.9401 24.4334 73.8737 23.9208C73.8073 23.4082 73.8604 22.8875 74.0291 22.3978L74.2814 21.4111C75.1694 18.0169 77.5004 16.5665 82.0817 16.5665C84.7962 16.5665 85.7549 17.0993 86.4915 18.0268C86.7732 18.4573 86.9521 18.9442 87.0149 19.4515C87.0778 19.9588 87.0231 20.4734 86.8548 20.9572H86.8447Z" fill="white"/>
<path d="M125.029 13.8135C123.354 11.7218 120.781 10.6167 116.522 10.6167C112.264 10.6167 109.772 11.3764 107.138 13.2511L107.4 12.1658C107.43 12.061 107.433 11.9508 107.411 11.8443C107.388 11.7379 107.339 11.6384 107.269 11.554C107.2 11.4667 107.111 11.3963 107.01 11.3484C106.908 11.3004 106.796 11.2762 106.684 11.2778H102.153C101.918 11.2727 101.689 11.3477 101.505 11.49C101.321 11.6323 101.193 11.8329 101.144 12.0573L94.6552 38.7469C94.6169 38.897 94.6152 39.0538 94.6502 39.2046C94.6853 39.3554 94.7561 39.4961 94.857 39.6152C94.952 39.7359 95.0744 39.8335 95.2144 39.9003C95.3545 39.967 95.5085 40.0012 95.6643 40H100.458C100.692 40.0051 100.921 39.9301 101.106 39.7878C101.29 39.6455 101.417 39.4449 101.467 39.2205L103.586 30.4786C105.533 32.1362 107.683 32.7479 111.457 32.7479C119.792 32.7479 124.252 29.3044 125.836 22.4865L126.109 21.2531C126.846 18.1155 126.482 15.6093 125.029 13.8135ZM119.298 20.8584L119.065 21.8747C117.986 26.1865 113.546 26.8081 110.649 26.8081C105.755 26.8081 105.463 25.0913 105.241 23.7099L105.947 20.523C107.35 17.8293 110.115 16.517 114.383 16.517C117.037 16.517 118.218 17.0104 118.985 17.9971C119.257 18.4154 119.426 18.8894 119.48 19.3822C119.535 19.875 119.472 20.3734 119.298 20.8387V20.8584Z" fill="white"/>
<path d="M30.8293 25.5552H3.17984C2.94488 25.5655 2.71963 25.6499 2.53775 25.7957C2.35587 25.9415 2.22713 26.141 2.17074 26.3643L1.00018 30.8339C0.962294 30.9904 0.960759 31.1531 0.995685 31.3102C1.03061 31.4673 1.10111 31.6147 1.202 31.7417C1.30434 31.8682 1.43471 31.9703 1.58329 32.0404C1.73187 32.1105 1.89478 32.1466 2.05974 32.1462H29.7092C29.9543 32.1461 30.1921 32.0652 30.3844 31.9166C30.5766 31.768 30.712 31.5604 30.7688 31.3273L31.8586 26.8675C31.8944 26.7109 31.8948 26.5486 31.86 26.3918C31.8251 26.2351 31.7558 26.0876 31.6568 25.9597C31.5572 25.8376 31.4316 25.7381 31.2887 25.6682C31.1458 25.5984 30.989 25.5598 30.8293 25.5552V25.5552Z" fill="white"/>
<path d="M9.07288 6.54169H27.4184L15.0468 16.6058C14.926 16.6996 14.8274 16.8178 14.7577 16.9524C14.6881 17.0869 14.649 17.2346 14.6431 17.3853C14.6315 17.5361 14.6555 17.6875 14.7132 17.8278C14.771 17.9681 14.8609 18.0935 14.9761 18.1944L18.3365 21.3616C18.5341 21.5562 18.8027 21.6662 19.0832 21.6675C19.3328 21.667 19.5748 21.5835 19.7694 21.4307L45.4006 0.098668L45.5318 0H10.082C9.84518 0.00929843 9.61807 0.0945198 9.43571 0.242519C9.25334 0.390519 9.12585 0.593075 9.07288 0.818944L8.06377 5.23927C8.02525 5.39408 8.0234 5.55544 8.05838 5.71105C8.09336 5.86666 8.16423 6.0124 8.26559 6.13715C8.363 6.25683 8.48539 6.35482 8.6246 6.42458C8.76381 6.49434 8.91663 6.53426 9.07288 6.54169V6.54169Z" fill="white"/>
</svg>
