<svg width="39" height="42" viewBox="0 0 39 42" fill="none" xmlns="http://www.w3.org/2000/svg">
<path d="M12.8096 29.459C12.8096 29.9387 12.6164 30.3764 12.2972 30.6962C11.978 31.0161 11.5496 31.2097 11.0625 31.2097C10.5837 31.2097 10.1469 31.0161 9.82769 30.6962C9.5085 30.3848 9.31531 29.9471 9.31531 29.459C9.31531 28.9792 9.5085 28.5415 9.82769 28.2217C10.1469 27.9018 10.5753 27.7083 11.0625 27.7083C12.0284 27.7167 12.8096 28.4994 12.8096 29.459Z" fill="#FF9B00"/>
<path d="M15.8335 13.1387L14.5735 11.9183C14.4643 11.8088 14.3131 11.7499 14.1619 11.7499H10.1972V10.6221H14.8423C15.1615 10.6221 15.4219 10.3696 15.4219 10.0581V7.80243C15.4219 7.49101 15.1615 7.23851 14.8423 7.23851H13.1036V5.55514C13.1036 5.24372 12.8432 4.99121 12.524 4.99121H10.2056C9.88645 4.99121 9.62606 5.24372 9.62606 5.55514V7.24692H8.56769C8.4165 7.24692 8.2653 7.30584 8.15611 7.41526L6.89614 8.6357C6.78695 8.74512 6.72815 8.88821 6.72815 9.03129V13.3407C6.72815 13.4922 6.78695 13.6353 6.89614 13.7363L8.15611 14.9567C8.2653 15.0662 8.4165 15.1251 8.56769 15.1251H12.5156V16.2529H7.87051C7.55132 16.2529 7.29093 16.5054 7.29093 16.8169V19.0726C7.29093 19.384 7.55132 19.6365 7.87051 19.6365H9.60926V21.3283C9.60926 21.6397 9.86965 21.8922 10.1888 21.8922H12.5156C12.8348 21.8922 13.0952 21.6397 13.0952 21.3283V19.6365H14.1535C14.3047 19.6365 14.4559 19.5776 14.5651 19.4682L15.8251 18.2477C15.9343 18.1383 15.9931 17.9952 15.9931 17.8521V13.5427C16.0015 13.3828 15.9427 13.2397 15.8335 13.1387ZM15.8335 13.1387L14.5735 11.9183C14.4643 11.8088 14.3131 11.7499 14.1619 11.7499H10.1972V10.6221H14.8423C15.1615 10.6221 15.4219 10.3696 15.4219 10.0581V7.80243C15.4219 7.49101 15.1615 7.23851 14.8423 7.23851H13.1036V5.55514C13.1036 5.24372 12.8432 4.99121 12.524 4.99121H10.2056C9.88645 4.99121 9.62606 5.24372 9.62606 5.55514V7.24692H8.56769C8.4165 7.24692 8.2653 7.30584 8.15611 7.41526L6.89614 8.6357C6.78695 8.74512 6.72815 8.88821 6.72815 9.03129V13.3407C6.72815 13.4922 6.78695 13.6353 6.89614 13.7363L8.15611 14.9567C8.2653 15.0662 8.4165 15.1251 8.56769 15.1251H12.5156V16.2529H7.87051C7.55132 16.2529 7.29093 16.5054 7.29093 16.8169V19.0726C7.29093 19.384 7.55132 19.6365 7.87051 19.6365H9.60926V21.3283C9.60926 21.6397 9.86965 21.8922 10.1888 21.8922H12.5156C12.8348 21.8922 13.0952 21.6397 13.0952 21.3283V19.6365H14.1535C14.3047 19.6365 14.4559 19.5776 14.5651 19.4682L15.8251 18.2477C15.9343 18.1383 15.9931 17.9952 15.9931 17.8521V13.5427C16.0015 13.3828 15.9427 13.2397 15.8335 13.1387ZM15.8335 13.1387L14.5735 11.9183C14.4643 11.8088 14.3131 11.7499 14.1619 11.7499H10.1972V10.6221H14.8423C15.1615 10.6221 15.4219 10.3696 15.4219 10.0581V7.80243C15.4219 7.49101 15.1615 7.23851 14.8423 7.23851H13.1036V5.55514C13.1036 5.24372 12.8432 4.99121 12.524 4.99121H10.2056C9.88645 4.99121 9.62606 5.24372 9.62606 5.55514V7.24692H8.56769C8.4165 7.24692 8.2653 7.30584 8.15611 7.41526L6.89614 8.6357C6.78695 8.74512 6.72815 8.88821 6.72815 9.03129V13.3407C6.72815 13.4922 6.78695 13.6353 6.89614 13.7363L8.15611 14.9567C8.2653 15.0662 8.4165 15.1251 8.56769 15.1251H12.5156V16.2529H7.87051C7.55132 16.2529 7.29093 16.5054 7.29093 16.8169V19.0726C7.29093 19.384 7.55132 19.6365 7.87051 19.6365H9.60926V21.3283C9.60926 21.6397 9.86965 21.8922 10.1888 21.8922H12.5156C12.8348 21.8922 13.0952 21.6397 13.0952 21.3283V19.6365H14.1535C14.3047 19.6365 14.4559 19.5776 14.5651 19.4682L15.8251 18.2477C15.9343 18.1383 15.9931 17.9952 15.9931 17.8521V13.5427C16.0015 13.3828 15.9427 13.2397 15.8335 13.1387Z" fill="#FF9B00"/>
<path d="M22.6709 18.1636V21.6566H22.7129V18.1636H22.6709ZM22.6709 30.9992V34.4922H22.7129V30.9992H22.6709Z" fill="#FF9B00"/>
<path d="M16.0015 13.5343V17.8437C16.0015 17.9952 15.9427 18.1383 15.8335 18.2393L14.5736 19.4597C14.4644 19.5692 14.3132 19.6281 14.162 19.6281H13.1036V21.3199C13.1036 21.6313 12.8432 21.8838 12.524 21.8838H10.2057C9.88653 21.8838 9.62613 21.6313 9.62613 21.3199V19.6281H7.87059C7.5514 19.6281 7.29101 19.3756 7.29101 19.0642V16.8084C7.29101 16.497 7.5514 16.2445 7.87059 16.2445H12.5156V15.1167H8.55097C8.39977 15.1167 8.24858 15.0577 8.13938 14.9483L6.87942 13.7279C6.77022 13.6185 6.71143 13.4754 6.71143 13.3323V9.02287C6.71143 8.87137 6.77022 8.72828 6.87942 8.62728L8.13938 7.40684C8.24858 7.29742 8.39977 7.2385 8.55097 7.2385H9.60934V5.54672C9.60934 5.23529 9.86973 4.98279 10.1889 4.98279H12.5156C12.8348 4.98279 13.0952 5.23529 13.0952 5.54672V7.2385H14.834C15.1532 7.2385 15.4136 7.491 15.4136 7.80243V10.0581C15.4136 10.3696 15.1532 10.6221 14.834 10.6221H10.1889V11.7499H14.1536C14.3048 11.7499 14.456 11.8088 14.5652 11.9183L15.8251 13.1387C15.9427 13.2397 16.0015 13.3828 16.0015 13.5343Z" fill="#FF9B00"/>
<path d="M12.8096 29.459C12.8096 29.9387 12.6164 30.3764 12.2972 30.6962C11.978 31.0161 11.5496 31.2097 11.0625 31.2097C10.5837 31.2097 10.1469 31.0161 9.82769 30.6962C9.5085 30.3848 9.31531 29.9471 9.31531 29.459C9.31531 28.9792 9.5085 28.5415 9.82769 28.2217C10.1469 27.9018 10.5753 27.7083 11.0625 27.7083C12.0284 27.7167 12.8096 28.4994 12.8096 29.459Z" fill="#FF9B00"/>
<path d="M32.5994 18.172L32.591 21.6566H22.7129H22.6709V18.1636H22.7129L32.5994 18.172Z" fill="#FF9B00"/>
<path d="M32.5826 30.9993V34.4923H22.7129H22.6709V30.9993H22.7129H32.5826Z" fill="#FF9B00"/>
<path d="M26.2324 26.5719C26.2324 27.0516 26.0392 27.4893 25.7201 27.8007C25.4009 28.1122 24.9725 28.3142 24.4853 28.3142C24.0065 28.3142 23.5697 28.1206 23.2505 27.8007C22.9314 27.4893 22.7382 27.0516 22.7382 26.5719C22.7382 26.0921 22.9314 25.6544 23.2505 25.343C23.5697 25.0316 23.9981 24.8296 24.4853 24.8296C25.4513 24.8296 26.2324 25.6124 26.2324 26.5719Z" fill="#FF9B00"/>
<path d="M32.5574 24.8213L32.549 28.3059H27.8368V24.8213H32.5574Z" fill="#FF9B00"/>
<path d="M22.7129 11.6826V0H0V35.578H16.3039V42H39V11.6826H22.7129ZM16.3039 32.0766H3.49429V26.8497L16.3039 26.8581V32.0766ZM19.2186 11.6826H16.2955V23.3567L3.48589 23.3483V3.49299H19.2186V11.6826ZM35.5057 38.4986H19.7898V15.1756H35.5057V38.4986Z" fill="#FF9B00"/>
<path d="M32.5994 18.172L32.591 21.6566H22.7129H22.6709V18.1636H22.7129L32.5994 18.172Z" fill="#FF9B00"/>
<path d="M32.5574 24.8213L32.549 28.3059H27.8368V24.8213H32.5574Z" fill="#FF9B00"/>
<path d="M32.5826 30.9993V34.4923H22.7129H22.6709V30.9993H22.7129H32.5826Z" fill="#FF9B00"/>
<path d="M26.2324 26.5719C26.2324 27.0516 26.0392 27.4893 25.7201 27.8007C25.4009 28.1122 24.9725 28.3142 24.4853 28.3142C24.0065 28.3142 23.5697 28.1206 23.2505 27.8007C22.9314 27.4893 22.7382 27.0516 22.7382 26.5719C22.7382 26.0921 22.9314 25.6544 23.2505 25.343C23.5697 25.0316 23.9981 24.8296 24.4853 24.8296C25.4513 24.8296 26.2324 25.6124 26.2324 26.5719Z" fill="#FF9B00"/>
</svg>
