<svg width="24" height="36" viewBox="0 0 24 36" fill="none" xmlns="http://www.w3.org/2000/svg">
<g clip-path="url(#clip0)">
<path d="M1.20212 18.622H22.7979C23.4582 18.622 24 19.1738 24 19.8658V35.387C24 35.7286 23.7291 36.0089 23.3989 36.0089H21.0032C20.673 36.0089 20.4021 35.7286 20.4021 35.387V22.3447H3.60635V35.3782C3.60635 35.7198 3.33545 36.0001 3.00529 36.0001H0.609526C0.279367 36.0001 0.00846672 35.7198 0.00846672 35.3782V19.8658C1.90735e-06 19.1738 0.541801 18.622 1.20212 18.622ZM12.0042 16.1432C7.69524 16.1432 4.20741 12.5344 4.20741 8.07604C4.20741 3.61764 7.69524 0.00888127 12.0042 0.00888127C16.3048 0.000122142 19.8011 3.60888 19.8011 8.06728C19.8011 12.5257 16.3048 16.1432 12.0042 16.1432ZM12.0042 3.72275C9.68466 3.72275 7.80529 5.67604 7.80529 8.06728C7.80529 10.4585 9.69312 12.4118 12.0042 12.4118C14.3238 12.4118 16.2032 10.4585 16.2032 8.06728C16.2032 5.67604 14.3153 3.72275 12.0042 3.72275Z" fill="#FF9B00"/>
</g>
<defs>
<clipPath id="clip0">
<rect width="24" height="36" fill="white" transform="matrix(-1 0 0 1 24 0)"/>
</clipPath>
</defs>
</svg>
