<svg width="46" height="35" viewBox="0 0 46 35" fill="none" xmlns="http://www.w3.org/2000/svg">
<path d="M31.4915 9.14526L30.0009 11.5625C29.7922 11.8949 29.8916 12.3381 30.2294 12.5496L38.0302 17.4949L30.2294 22.4402C29.9015 22.6517 29.8021 23.0848 30.0009 23.4273L31.4915 25.8445C31.7002 26.1769 32.1275 26.2776 32.4653 26.0762L46 17.505L32.4653 8.92368C32.1374 8.71216 31.7002 8.81288 31.4915 9.14526ZM17.4102 34.2848L20.143 34.9798C20.5206 35.0704 20.8983 34.8388 20.9976 34.4561L29.1065 1.58123C29.1959 1.19849 28.9674 0.81576 28.5898 0.71504L25.857 0.0200761C25.4794 -0.0705714 25.1018 0.161083 25.0024 0.543817L16.8935 33.4186C16.8041 33.8014 17.0326 34.1841 17.4102 34.2848ZM13.5347 8.92368L0 17.4949L13.5347 26.0661C13.8626 26.2776 14.2998 26.1769 14.5085 25.8345L15.9991 23.4172C16.2078 23.0848 16.1084 22.6417 15.7706 22.4302L7.96976 17.4848L15.7706 12.5395C16.0985 12.328 16.1979 11.8949 15.9991 11.5525L14.5085 9.13519C14.2998 8.81288 13.8626 8.71216 13.5347 8.92368Z" fill="#FF9B00"/>
</svg>
