<svg width="42" height="36" viewBox="0 0 42 36" fill="none" xmlns="http://www.w3.org/2000/svg">
<g clip-path="url(#clip0)">
<path d="M36.9558 21.9272V6.73667C36.9558 6.58425 36.905 6.442 36.8236 6.32007L32.5219 0.304826C32.3897 0.11177 32.166 0 31.9321 0H25.4236C25.027 0 24.7016 0.325148 24.7016 0.721423V3.59695C24.7016 3.99323 25.027 4.31838 25.4236 4.31838H30.0812L32.6338 7.89501V21.9373C30.3965 22.6384 28.627 24.4064 27.9151 26.652H21.8236V13.6765C21.8236 12.884 21.1829 12.2337 20.3795 12.2337H6.32531C5.86768 12.2337 5.44056 12.4471 5.17615 12.8129L0.284627 19.326C-0.122152 19.8645 -0.0916438 20.6164 0.345644 21.1245L3.53887 24.8535C2.73548 26.0728 2.29819 27.5462 2.36937 29.1313C2.54225 33.0026 5.70497 36.0102 9.57954 36C12.8033 35.9898 15.5287 33.8764 16.444 30.9602H27.9151C28.8507 33.9475 31.688 36.1016 35.0134 36C38.7965 35.8882 41.8779 32.8095 41.9897 29.0296C42.1016 25.707 39.9457 22.8721 36.9558 21.9272ZM7.76937 16.5622H17.5016V26.6418H16.4541C15.5389 23.7155 12.8033 21.602 9.57954 21.602C8.63378 21.602 7.7287 21.7849 6.8948 22.1202L5.13548 20.0779L7.76937 16.5622ZM9.56938 31.6816C7.98293 31.6816 6.69141 30.3912 6.69141 28.8061C6.69141 27.221 7.98293 25.9306 9.56938 25.9306C11.1558 25.9306 12.4473 27.221 12.4473 28.8061C12.4473 30.3912 11.1558 31.6816 9.56938 31.6816ZM34.7999 31.6816C33.2134 31.6816 31.9219 30.3912 31.9219 28.8061C31.9219 27.221 33.2134 25.9306 34.7999 25.9306C36.3863 25.9306 37.6779 27.221 37.6779 28.8061C37.6779 30.3912 36.3863 31.6816 34.7999 31.6816Z" fill="#FF9B00"/>
</g>
<defs>
<clipPath id="clip0">
<rect width="42" height="36" fill="white"/>
</clipPath>
</defs>
</svg>
