<svg width="40" height="40" viewBox="0 0 40 40" fill="none" xmlns="http://www.w3.org/2000/svg">
<path d="M18.521 17.7789V16.2947H24.4473C24.855 16.2947 25.1894 15.9603 25.1894 15.5527V12.5947C25.1894 12.1871 24.855 11.8526 24.4473 11.8526H22.2211V9.62634C22.2211 9.21871 21.8866 8.88424 21.479 8.88424H18.521C18.1134 8.88424 17.7789 9.21871 17.7789 9.62634V11.8526H16.4202C16.2216 11.8526 16.0334 11.9258 15.8976 12.0721L14.288 13.6817C14.1521 13.8176 14.0685 14.0057 14.0685 14.2043V19.8798C14.0685 20.0784 14.1416 20.2665 14.288 20.4024L15.8976 22.012C16.0334 22.1479 16.2216 22.2315 16.4202 22.2315H21.479V23.7157H15.5527C15.145 23.7157 14.8106 24.0502 14.8106 24.4578V27.4157C14.8106 27.8234 15.145 28.1578 15.5527 28.1578H17.7789V30.3841C17.7789 30.7917 18.1134 31.1262 18.521 31.1262H21.479C21.8866 31.1262 22.2211 30.7917 22.2211 30.3841V28.1578H23.5798C23.7784 28.1578 23.9666 28.0847 24.1024 27.9383L25.712 26.3287C25.8479 26.1928 25.9315 26.0047 25.9315 25.8061V20.1306C25.9315 19.9321 25.8584 19.7439 25.712 19.608L24.1024 17.9984C23.9666 17.8626 23.7784 17.7789 23.5798 17.7789H18.521ZM19.9948 0C8.96786 0 0 8.96786 0 19.9948C0 31.0217 8.96786 39.9895 19.9948 39.9895C31.0217 39.9895 39.9895 31.0217 39.9895 19.9948C40 8.96786 31.0217 0 19.9948 0ZM19.9948 35.5579C11.4136 35.5579 4.44212 28.5759 4.44212 20.0052C4.44212 11.4241 11.4241 4.45257 19.9948 4.45257C28.5655 4.45257 35.5474 11.4345 35.5474 20.0052C35.5579 28.5759 28.5759 35.5579 19.9948 35.5579Z" fill="#FF9B00"/>
</svg>
