<svg width="35" height="33" viewBox="0 0 35 33" fill="none" xmlns="http://www.w3.org/2000/svg">
<path d="M32.4703 2.80246L32.3317 2.58688L30.6856 0.0862294C30.651 0.0344918 30.5903 0 30.521 0H4.43564C4.35767 0 4.2797 0.0431147 4.23639 0.103475L1.75866 3.88895L1.62005 4.10452L0.095297 6.41547C0.0346535 6.51894 0 6.63104 0 6.75176C0 6.75176 0 6.89835 0 7.1053C0 8.37288 0.320545 9.63183 0.961634 10.7269C1.0396 10.8563 1.11757 10.977 1.19554 11.1063C1.64604 11.7703 2.18317 12.3739 2.80693 12.8741C2.94554 12.9862 3.02351 13.1586 3.02351 13.3397V32.3878C3.02351 32.7241 3.29208 32.9914 3.62995 32.9914H5.47525V33H29.4208V32.9914H31.8812C32.2191 32.9914 32.4876 32.7241 32.4876 32.3878V12.7792C32.4876 12.624 32.5483 12.4688 32.6609 12.3567C33.0507 11.9773 33.3973 11.5547 33.7005 11.0977C34.3243 10.1664 34.8007 9.11445 34.9394 7.95898C35.026 7.25189 34.9394 7.16567 34.9394 6.8035C34.9394 6.68278 34.9047 6.57068 34.8441 6.47583L32.4703 2.80246ZM17.7686 29.3353H14.0866V22.0057H17.7686V29.3353ZM28.823 29.3353H21.4592V21.4711H21.4418V18.341H10.4047V21.4711V29.3353H6.71411V14.5728C7.07797 14.6245 7.45049 14.6504 7.82302 14.6504C9.63366 14.6504 11.297 14.0468 12.6398 13.0293C13.974 14.0468 15.646 14.6504 17.4567 14.6504C19.2673 14.6504 20.9307 14.0468 22.2735 13.0293C23.6163 14.0468 25.2797 14.6504 27.0903 14.6504C27.6795 14.6504 28.2599 14.5814 28.8144 14.4607L28.823 29.3353ZM31.2574 7.69166C30.7896 9.58009 29.0916 10.977 27.0903 10.977C26.172 10.977 25.323 10.6838 24.6213 10.1837C23.7116 9.53697 23.495 8.47635 23.2871 7.32088H21.4418C21.2426 8.47635 20.8267 9.53697 19.9171 10.1837C19.2153 10.6838 18.3663 10.977 17.4567 10.977C16.5384 10.977 15.6894 10.6838 14.9876 10.1837C14.078 9.53697 13.6621 8.47635 13.4629 7.32088H11.6176C11.4183 8.47635 11.1931 9.53697 10.2834 10.1837C9.58168 10.6838 8.73267 10.977 7.81436 10.977C5.83044 10.977 4.15842 9.60596 3.6646 7.76065C3.65594 7.7434 3.65594 7.72616 3.64728 7.70891L3.6646 7.68304L4.69554 6.12229L4.83416 5.90672L6.2896 3.66475H28.6411L29.2475 4.59603L29.3861 4.8116L31.2574 7.69166Z" fill="#FF9B00"/>
</svg>
