<svg xmlns="http://www.w3.org/2000/svg" width="363.061" height="54.283" viewBox="0 0 363.061 54.283">
  <g id="Grupo_1515" data-name="Grupo 1515" transform="translate(0)">
    <path id="Caminho_8918" data-name="Caminho 8918" d="M82.8,56.969a.747.747,0,0,1,.418-.451l10.167-4.449,2.574-1.156-2.525-1.246-10-4.81a.75.75,0,0,1-.323-1.076l1.7-2.731a.751.751,0,0,1,.95-.283l20.789,10.289.1.048-.014.006-.088.04L85.4,60.689a.75.75,0,0,1-.939-.317l-1.605-2.791a.751.751,0,0,1-.06-.612Z" transform="translate(-13.144 -6.464)" fill="#7300ff"/>
    <path id="Caminho_8919" data-name="Caminho 8919" d="M41.418,56.969a.747.747,0,0,1,.418-.451L52,52.069l2.574-1.156-2.525-1.246-10-4.81a.75.75,0,0,1-.323-1.076l1.7-2.731a.751.751,0,0,1,.95-.283L65.173,51.056l.1.048-.014.006-.089.04L44.022,60.689a.75.75,0,0,1-.939-.317l-1.605-2.791a.751.751,0,0,1-.06-.612Z" transform="translate(-6.572 -6.464)" fill="#7300ff"/>
    <path id="Caminho_8920" data-name="Caminho 8920" d="M.039,56.969a.747.747,0,0,1,.418-.451l10.167-4.449L13.2,50.913l-2.525-1.246-10-4.81a.75.75,0,0,1-.323-1.076l1.7-2.731a.751.751,0,0,1,.95-.283L23.794,51.056l.1.048-.014.006-.089.04L2.643,60.689a.75.75,0,0,1-.939-.317L.1,57.581a.75.75,0,0,1-.06-.612Z" transform="translate(0 -6.464)" fill="#7300ff"/>
    <path id="Caminho_8921" data-name="Caminho 8921" d="M152.551,16.27a.755.755,0,0,1,.161-.27.744.744,0,0,1,.258-.18l10.167-4.449,2.574-1.156-2.525-1.246-10-4.81a.748.748,0,0,1-.4-.465.748.748,0,0,1-.025-.314.737.737,0,0,1,.106-.3l1.7-2.731a.751.751,0,0,1,.95-.283l20.789,10.289.1.048-.014.006-.088.04L155.155,19.99a.75.75,0,0,1-.939-.317l-1.606-2.791a.754.754,0,0,1-.06-.612Z" transform="translate(-24.222)" fill="#7300ff"/>
    <path id="Caminho_8922" data-name="Caminho 8922" d="M111.172,16.27a.767.767,0,0,1,.161-.27.744.744,0,0,1,.258-.18l10.167-4.449,2.574-1.156-2.525-1.246-10-4.81a.748.748,0,0,1-.4-.465.75.75,0,0,1,.081-.611l1.7-2.731a.751.751,0,0,1,.95-.283l20.789,10.289.1.048-.014.006-.088.04L113.776,19.99a.75.75,0,0,1-.939-.317l-1.606-2.791a.754.754,0,0,1-.06-.612Z" transform="translate(-17.65)" fill="#7300ff"/>
    <path id="Caminho_8923" data-name="Caminho 8923" d="M69.793,16.27a.747.747,0,0,1,.418-.451L80.378,11.37l2.574-1.156L80.427,8.969l-10-4.81a.75.75,0,0,1-.323-1.076l1.7-2.731a.751.751,0,0,1,.95-.283L93.548,10.358l.1.048-.014.006-.089.04L72.4,19.99a.75.75,0,0,1-.939-.317l-1.605-2.791a.751.751,0,0,1-.06-.612Z" transform="translate(-11.078)" fill="#7300ff"/>
    <path id="Caminho_8924" data-name="Caminho 8924" d="M28.414,16.27a.746.746,0,0,1,.418-.451L39,11.37l2.574-1.156L39.048,8.969l-10-4.81a.75.75,0,0,1-.323-1.076L30.43.352a.751.751,0,0,1,.95-.283L52.169,10.358l.1.048-.014.006-.089.04L31.018,19.99a.75.75,0,0,1-.939-.317l-1.605-2.791a.75.75,0,0,1-.06-.612Z" transform="translate(-4.506)" fill="#7300ff"/>
    <path id="Caminho_8925" data-name="Caminho 8925" d="M263.711,56.969a.748.748,0,0,1,.418-.451L274.3,52.069l2.574-1.156-2.525-1.246-10-4.81a.756.756,0,0,1-.251-.189.75.75,0,0,1-.071-.887l1.7-2.731a.751.751,0,0,1,.95-.283l20.789,10.289.1.048-.014.006-.089.04-21.145,9.539a.751.751,0,0,1-.94-.317l-1.6-2.791a.755.755,0,0,1-.06-.612Z" transform="translate(-41.876 -6.464)" fill="#7300ff"/>
    <path id="Caminho_8926" data-name="Caminho 8926" d="M222.332,56.969a.747.747,0,0,1,.418-.451l10.167-4.449,2.574-1.156-2.525-1.246-10-4.81a.756.756,0,0,1-.252-.189.742.742,0,0,1-.151-.276.75.75,0,0,1,.081-.611l1.7-2.731a.751.751,0,0,1,.95-.283l20.789,10.289.1.048-.014.006-.089.04-21.145,9.539a.75.75,0,0,1-.939-.317l-1.606-2.791a.754.754,0,0,1-.06-.612Z" transform="translate(-35.304 -6.464)" fill="#7300ff"/>
    <path id="Caminho_8927" data-name="Caminho 8927" d="M180.953,56.969a.747.747,0,0,1,.418-.451l10.167-4.449,2.574-1.156-2.525-1.246-10-4.81a.749.749,0,0,1-.4-.465.748.748,0,0,1-.025-.314.736.736,0,0,1,.106-.3l1.7-2.731a.751.751,0,0,1,.95-.283l20.789,10.289.1.048-.014.006-.088.04-21.146,9.539a.75.75,0,0,1-.939-.317l-1.606-2.791a.754.754,0,0,1-.06-.612Z" transform="translate(-28.733 -6.464)" fill="#7300ff"/>
    <path id="Caminho_8928" data-name="Caminho 8928" d="M333.465,16.271a.748.748,0,0,1,.418-.451l10.167-4.449,2.575-1.156L344.1,8.969l-10-4.81a.756.756,0,0,1-.251-.189.743.743,0,0,1-.151-.276.75.75,0,0,1,.081-.611l1.7-2.731a.751.751,0,0,1,.95-.283L357.22,10.358l.1.048-.013.006-.089.04-21.145,9.539a.751.751,0,0,1-.94-.317l-1.6-2.791a.753.753,0,0,1-.1-.3A.744.744,0,0,1,333.465,16.271Z" transform="translate(-52.954 0)" fill="#7300ff"/>
    <path id="Caminho_8929" data-name="Caminho 8929" d="M292.086,16.271a.748.748,0,0,1,.418-.451l10.167-4.449,2.575-1.156L302.72,8.969l-10-4.81a.757.757,0,0,1-.252-.189.743.743,0,0,1-.151-.276.75.75,0,0,1,.081-.611L294.1.352a.751.751,0,0,1,.95-.283l20.789,10.289.1.048-.013.006-.089.04L294.69,19.991a.751.751,0,0,1-.94-.317l-1.6-2.791a.753.753,0,0,1-.1-.3A.743.743,0,0,1,292.086,16.271Z" transform="translate(-46.382 0)" fill="#7300ff"/>
    <path id="Caminho_8930" data-name="Caminho 8930" d="M250.707,16.271a.748.748,0,0,1,.418-.451l10.167-4.449,2.574-1.156-2.525-1.246-10-4.81a.757.757,0,0,1-.252-.189.743.743,0,0,1-.151-.276.75.75,0,0,1,.081-.611l1.7-2.731a.751.751,0,0,1,.95-.283l20.789,10.289.1.048-.014.006-.089.04-21.145,9.539a.751.751,0,0,1-.94-.317l-1.6-2.791a.755.755,0,0,1-.06-.612Z" transform="translate(-39.811 0)" fill="#7300ff"/>
    <path id="Caminho_8931" data-name="Caminho 8931" d="M209.328,16.271a.748.748,0,0,1,.418-.451l10.167-4.449,2.574-1.156-2.525-1.246-10-4.81a.757.757,0,0,1-.252-.189.742.742,0,0,1-.151-.276.75.75,0,0,1,.081-.611l1.7-2.731a.751.751,0,0,1,.95-.283l20.789,10.289.1.048-.014.006-.089.04-21.145,9.539a.751.751,0,0,1-.94-.317l-1.6-2.791a.755.755,0,0,1-.06-.612Z" transform="translate(-33.239 0)" fill="#7300ff"/>
    <path id="Caminho_8932" data-name="Caminho 8932" d="M263.711,56.969a.748.748,0,0,1,.418-.451L274.3,52.069l2.574-1.156-2.525-1.246-10-4.81a.757.757,0,0,1-.251-.189.743.743,0,0,1-.151-.276.749.749,0,0,1,.081-.611l1.7-2.731a.751.751,0,0,1,.95-.283l20.789,10.289.1.048-.014.006-.089.04-21.145,9.539a.751.751,0,0,1-.94-.317l-1.6-2.791a.755.755,0,0,1-.06-.612Z" transform="translate(-41.876 -6.464)" fill="#7300ff"/>
    <path id="Caminho_8933" data-name="Caminho 8933" d="M222.332,56.969a.748.748,0,0,1,.418-.451l10.167-4.449,2.574-1.156-2.525-1.246-10-4.81a.757.757,0,0,1-.252-.189.743.743,0,0,1-.151-.276.75.75,0,0,1,.081-.611l1.7-2.731a.751.751,0,0,1,.95-.283l20.789,10.289.1.048-.014.006-.089.04-21.145,9.539a.75.75,0,0,1-.939-.317l-1.606-2.791a.754.754,0,0,1-.06-.612Z" transform="translate(-35.304 -6.464)" fill="#7300ff"/>
    <path id="Caminho_8934" data-name="Caminho 8934" d="M180.953,56.969a.748.748,0,0,1,.418-.451l10.167-4.449,2.574-1.156-2.525-1.246-10-4.81a.748.748,0,0,1-.4-.465.748.748,0,0,1-.025-.314.736.736,0,0,1,.106-.3l1.7-2.731a.751.751,0,0,1,.95-.283l20.789,10.289.1.048-.014.006-.088.04-21.146,9.539a.75.75,0,0,1-.939-.317l-1.606-2.791a.754.754,0,0,1-.06-.612Z" transform="translate(-28.733 -6.464)" fill="#7300ff"/>
    <path id="Caminho_8935" data-name="Caminho 8935" d="M333.465,16.27a.747.747,0,0,1,.418-.451L344.05,11.37l2.574-1.156L344.1,8.969l-10-4.81a.756.756,0,0,1-.251-.189.743.743,0,0,1-.151-.276.75.75,0,0,1,.081-.611l1.7-2.731a.751.751,0,0,1,.95-.283L357.22,10.358l.1.048-.014.006-.089.04L336.069,19.99a.751.751,0,0,1-.94-.317l-1.6-2.791a.754.754,0,0,1-.06-.612Z" transform="translate(-52.954)" fill="#7300ff"/>
    <path id="Caminho_8936" data-name="Caminho 8936" d="M292.086,16.27a.747.747,0,0,1,.418-.451l10.167-4.449,2.574-1.156L302.72,8.969l-10-4.81a.756.756,0,0,1-.251-.189.742.742,0,0,1-.151-.276.75.75,0,0,1,.081-.611L294.1.352a.751.751,0,0,1,.95-.283l20.789,10.289.1.048-.013.006-.089.04L294.69,19.99a.751.751,0,0,1-.94-.317l-1.6-2.791a.754.754,0,0,1-.06-.612Z" transform="translate(-46.383)" fill="#7300ff"/>
    <path id="Caminho_8937" data-name="Caminho 8937" d="M250.707,16.27a.747.747,0,0,1,.418-.451l10.167-4.449,2.574-1.156-2.525-1.246-10-4.81a.757.757,0,0,1-.252-.189.743.743,0,0,1-.151-.276.75.75,0,0,1,.081-.611l1.7-2.731a.751.751,0,0,1,.95-.283l20.789,10.289.1.048-.014.006-.089.04L253.311,19.99a.75.75,0,0,1-.939-.317l-1.606-2.791a.755.755,0,0,1-.06-.612Z" transform="translate(-39.811)" fill="#7300ff"/>
    <path id="Caminho_8938" data-name="Caminho 8938" d="M209.328,16.27a.748.748,0,0,1,.418-.451l10.167-4.449,2.574-1.156-2.525-1.246-10-4.81a.757.757,0,0,1-.252-.189.742.742,0,0,1-.151-.276.75.75,0,0,1,.081-.611l1.7-2.731a.751.751,0,0,1,.95-.283l20.789,10.289.1.048-.014.006-.089.04L211.932,19.99a.75.75,0,0,1-.939-.317l-1.606-2.791a.755.755,0,0,1-.06-.612Z" transform="translate(-33.239)" fill="#7300ff"/>
    <path id="Caminho_8939" data-name="Caminho 8939" d="M403.246,56.969a.748.748,0,0,1,.418-.451l10.167-4.449,2.575-1.156-2.525-1.246-10-4.81a.753.753,0,0,1-.4-.465.747.747,0,0,1-.024-.314.737.737,0,0,1,.106-.3l1.7-2.731a.751.751,0,0,1,.95-.283L427,51.056l.1.048-.013.006-.089.04L405.85,60.689a.751.751,0,0,1-.94-.317l-1.6-2.791a.753.753,0,0,1-.1-.3A.743.743,0,0,1,403.246,56.969Z" transform="translate(-64.037 -6.464)" fill="#7300ff"/>
    <path id="Caminho_8940" data-name="Caminho 8940" d="M361.867,56.969a.747.747,0,0,1,.418-.451l10.167-4.449,2.574-1.156L372.5,49.667l-10-4.81a.756.756,0,0,1-.252-.189.75.75,0,0,1-.071-.887l1.7-2.731a.751.751,0,0,1,.95-.283l20.789,10.289.1.048-.013.006-.089.04-21.145,9.539a.751.751,0,0,1-.94-.317l-1.6-2.791a.754.754,0,0,1-.06-.612Z" transform="translate(-57.465 -6.464)" fill="#7300ff"/>
    <path id="Caminho_8941" data-name="Caminho 8941" d="M390.242,16.271a.748.748,0,0,1,.418-.451l10.167-4.449,2.575-1.156-2.525-1.246-10-4.81a.757.757,0,0,1-.252-.189.743.743,0,0,1-.151-.276.75.75,0,0,1,.081-.611l1.7-2.731a.751.751,0,0,1,.95-.283L414,10.358l.1.048-.013.006-.089.04-21.145,9.539a.751.751,0,0,1-.94-.317l-1.6-2.791a.752.752,0,0,1-.1-.3A.743.743,0,0,1,390.242,16.271Z" transform="translate(-61.972 0)" fill="#7300ff"/>
    <path id="Caminho_8942" data-name="Caminho 8942" d="M403.246,56.969a.748.748,0,0,1,.418-.451l10.167-4.449,2.574-1.156-2.524-1.246-10-4.81a.748.748,0,0,1-.251-.189.756.756,0,0,1-.152-.276.758.758,0,0,1,.081-.611l1.7-2.731a.751.751,0,0,1,.95-.283L427,51.056l.1.048-.013.006-.089.04L405.85,60.689a.751.751,0,0,1-.94-.317l-1.6-2.791a.752.752,0,0,1-.1-.3A.743.743,0,0,1,403.246,56.969Z" transform="translate(-64.037 -6.464)" fill="#7300ff"/>
    <path id="Caminho_8943" data-name="Caminho 8943" d="M361.867,56.969a.747.747,0,0,1,.418-.451l10.167-4.449,2.575-1.156L372.5,49.667l-10-4.81a.758.758,0,0,1-.252-.189.744.744,0,0,1-.151-.276.749.749,0,0,1,.081-.611l1.7-2.731a.751.751,0,0,1,.95-.283l20.789,10.289.1.048-.013.006-.089.04-21.145,9.539a.751.751,0,0,1-.94-.317l-1.6-2.791a.753.753,0,0,1-.1-.3A.743.743,0,0,1,361.867,56.969Z" transform="translate(-57.465 -6.464)" fill="#7300ff"/>
    <path id="Caminho_8944" data-name="Caminho 8944" d="M390.242,16.27a.747.747,0,0,1,.418-.451l10.167-4.449,2.574-1.156-2.524-1.246-10-4.81a.748.748,0,0,1-.252-.189.757.757,0,0,1-.152-.276.758.758,0,0,1,.081-.611l1.7-2.731a.751.751,0,0,1,.95-.283L414,10.358l.1.048-.013.006-.089.04L392.846,19.99a.751.751,0,0,1-.94-.317l-1.6-2.791a.753.753,0,0,1-.1-.3A.743.743,0,0,1,390.242,16.27Z" transform="translate(-61.972)" fill="#7300ff"/>
  </g>
</svg>
